<?xml version="1.0" encoding="utf-8"?>
<!-- Generator: Adobe Illustrator 21.0.2, SVG Export Plug-In . SVG Version: 6.00 Build 0)  -->
<svg version="1.1" id="Livello_1" xmlns="http://www.w3.org/2000/svg" xmlns:xlink="http://www.w3.org/1999/xlink" x="0px" y="0px"
	 viewBox="0 0 40 40" style="enable-background:new 0 0 40 40;" xml:space="preserve">
<style type="text/css">
	.st0{fill:#1E3A6D;}
	.st1{fill:#7ECEF5;}
</style>
<path class="st0" d="M5.8,2.4C5.3,2.4,5,2.8,5,3.2v13.7v20.7c0,0.5,0.4,0.8,0.8,0.8h30.1c0.5,0,0.8-0.4,0.8-0.8V16.9V3.2
	c0-0.5-0.4-0.8-0.8-0.8 M7.1,36.7c-0.2,0-0.4-0.2-0.4-0.4V4.4C6.7,4.2,6.9,4,7.1,4h27.6c0.2,0,0.4,0.2,0.4,0.4v31.9H35
	c0,0.2-0.2,0.4-0.4,0.4"/>
<rect x="18.2" y="32.2" class="st0" width="5.3" height="5.3"/>
<g>
	<rect x="22.2" y="22.1" class="st0" width="1.6" height="1.6"/>
	<rect x="22.2" y="27" class="st0" width="1.6" height="1.6"/>
	<rect x="22.2" y="17.2" class="st0" width="1.6" height="1.6"/>
	<rect x="26.4" y="22.1" class="st0" width="1.6" height="1.6"/>
	<rect x="26.4" y="27" class="st0" width="1.6" height="1.6"/>
	<rect x="26.4" y="17.2" class="st0" width="1.6" height="1.6"/>
	<rect x="30.6" y="22.1" class="st0" width="1.6" height="1.6"/>
	<rect x="30.6" y="27" class="st0" width="1.6" height="1.6"/>
	<rect x="30.6" y="17.2" class="st0" width="1.6" height="1.6"/>
	<rect x="9.4" y="22.1" class="st0" width="1.6" height="1.6"/>
	<rect x="9.4" y="27" class="st0" width="1.6" height="1.6"/>
	<rect x="9.4" y="17.2" class="st0" width="1.6" height="1.6"/>
	<rect x="13.7" y="22.1" class="st0" width="1.6" height="1.6"/>
	<rect x="13.7" y="27" class="st0" width="1.6" height="1.6"/>
	<rect x="13.7" y="17.2" class="st0" width="1.6" height="1.6"/>
	<rect x="17.9" y="22.1" class="st0" width="1.6" height="1.6"/>
	<rect x="17.9" y="27" class="st0" width="1.6" height="1.6"/>
	<rect x="17.9" y="17.2" class="st0" width="1.6" height="1.6"/>
</g>
<g>
	<polygon class="st1" points="24.8,8.5 22.4,8.5 22.4,6.1 19.6,6.1 19.6,8.5 17.3,8.5 17.3,11.3 19.6,11.3 19.6,13.6 22.4,13.6 
		22.4,11.3 24.8,11.3 	"/>
</g>
</svg>
