<?xml version="1.0" encoding="utf-8"?>
<!-- Generator: Adobe Illustrator 21.0.2, SVG Export Plug-In . SVG Version: 6.00 Build 0)  -->
<svg version="1.1" id="Livello_1" xmlns="http://www.w3.org/2000/svg" xmlns:xlink="http://www.w3.org/1999/xlink" x="0px" y="0px"
	 viewBox="0 0 40 40" style="enable-background:new 0 0 40 40;" xml:space="preserve">
<style type="text/css">
	.st0{fill:#7ECEF5;}
	.st1{fill:#1E3A6D;}
</style>
<g id="Livello_2">
	<g id="Layer_1">
		<path class="st0" d="M5.3,38.3c0.2-1.7,1.4-3.2,3.1-3.7l7-2.3c0.2,0.6,0.7,1.1,1.3,1.3c0.9,0.4,1.8,0.6,2.8,0.6
			c1.7,0,3.6-0.6,4.1-1.9l6.9,2.3c1.7,0.6,2.9,2,3.1,3.7H5.3z"/>
		<path class="st1" d="M30.7,33.5L30,33.3c0.8-0.4,1.7-0.8,2.5-1.3c0.2-0.1,0.3-0.3,0.3-0.5V13.4C32.7,7,27.5,1.7,21,1.7h-3.3
			C11.3,1.7,6,7,6,13.4v18.1c0,0.2,0.1,0.4,0.3,0.5c0.8,0.5,1.7,0.9,2.5,1.3L8,33.5c-2.3,0.8-3.9,2.9-3.9,5.3c0,0.3,0.2,0.5,0.5,0.5
			H34c0.3,0,0.6-0.2,0.6-0.6c0,0,0,0,0,0C34.6,36.4,33,34.3,30.7,33.5z M7.1,31.2V13.4c0-5.9,4.8-10.6,10.6-10.6H21
			c5.9,0,10.6,4.8,10.6,10.6v17.8c-1,0.6-2.1,1.1-3.2,1.5l-4.9-1.6v-3.7c3.4-1.6,5.5-5,5.5-8.7v-3.6c0-0.7-0.1-1.3-0.2-1.9
			c0,0,0,0,0-0.1c0,0,0-0.1,0-0.1l-0.1-0.1l-0.2-0.1l-0.1-0.1h-0.1h-0.1h-1.7c-1.7,0-3.1-1.4-3.1-3.1c0,0,0,0,0-0.1
			c0-2.3-1.9-4.2-4.2-4.2h-1.6c-4.9,0-8.1,3.8-8.1,9.7v3.7c0,3.7,2.1,7.1,5.5,8.7v3.7l-4.9,1.6C9.2,32.3,8.2,31.8,7.1,31.2L7.1,31.2
			z M17.7,6.5h1.6c1.7,0,3.1,1.4,3.1,3.1c0,2.3,1.9,4.2,4.2,4.2h1.2c0.1,0.4,0.1,0.9,0.1,1.3v3.7c-0.2,4.8-4.1,8.5-8.9,8.3
			c-4.5-0.1-8.2-3.8-8.3-8.3v-3.7C10.8,10.9,12.6,6.5,17.7,6.5z M16.3,31.5v-3.6c2,0.7,4.2,0.7,6.2,0v3.6l0,0c0,1-1.6,1.5-3.1,1.5
			C17.9,33.1,16.3,32.5,16.3,31.5L16.3,31.5z M5.3,38.3c0.2-1.7,1.4-3.2,3.1-3.7l7-2.3c0.2,0.6,0.7,1.1,1.3,1.3
			c0.9,0.4,1.8,0.6,2.8,0.6c1.7,0,3.6-0.6,4.1-1.9l6.9,2.3c1.7,0.6,2.9,2,3.1,3.7H5.3z"/>
	</g>
</g>
</svg>
