<?xml version="1.0" encoding="utf-8"?>
<!-- Generator: Adobe Illustrator 21.0.2, SVG Export Plug-In . SVG Version: 6.00 Build 0)  -->
<svg version="1.1" id="Livello_1" xmlns="http://www.w3.org/2000/svg" xmlns:xlink="http://www.w3.org/1999/xlink" x="0px" y="0px"
	 viewBox="0 0 40 40" style="enable-background:new 0 0 40 40;" xml:space="preserve">
<style type="text/css">
	.st0{fill:#1E3A6D;}
	.st1{fill:#7ECEF5;}
</style>
<g id="Livello_2">
	<g id="Layer_1">
		<path class="st0" d="M30.7,33.5l-7.1-2.4v-3.7c2.5-1.2,4.4-3.4,5.1-6.1c1.8-2.9,3-5.5,3-8.8c0-6.5-5-10.8-12.5-10.8
			C12,1.7,7.1,6.1,7.1,12.6c0,3,1.2,5.7,3,8.7c0.8,2.7,2.6,4.9,5.1,6.1v3.7L8,33.5c-2.3,0.8-3.9,2.9-3.8,5.3c0,0.3,0.2,0.5,0.5,0.5
			H34c0.3,0,0.6-0.2,0.6-0.6c0,0,0,0,0,0C34.6,36.4,33,34.3,30.7,33.5z M10.6,10.2L10.6,10.2L10.6,10.2c-0.1,0.1-0.1,0.1-0.1,0.1
			v0.1C10,11.9,9.8,13.5,9.8,15v3.3c-0.9-1.8-1.5-3.7-1.5-5.7c0-5.9,4.4-9.8,11.1-9.8c5.7,0,11.4,3,11.4,9.8c0,2.1-0.6,4.1-1.5,5.9
			v-3.4c0-1.6-0.3-3.2-0.9-4.8c-0.1-0.2-0.2-0.3-0.4-0.3h-0.2h-0.1h-0.1l0,0h-0.1c-1.8,1.1-4.4,0.8-8.4-1l0,0h-0.1h-0.1h-0.1h-0.1
			l0,0l-0.1,0l-0.1,0.1c0,0-0.1,0.1-0.1,0.1v0.1l0,0c0,0,0,0.1,0,0.1c0,0,0,0.1,0,0.1c0,0,0,0.1,0,0.1c0,0,0,0.1,0,0.1l0,0l1.5,3
			c-3,0-6-0.9-8.5-2.6l-0.2,0.1v0h-0.1H11h-0.1h-0.1L10.6,10.2L10.6,10.2z M10.8,18.7v-3.7c0-1.2,0.2-2.4,0.5-3.6
			c2.5,1.6,5.4,2.5,8.4,2.5c0.4,0,0.7,0,1.1,0c0.1,0,0.1,0,0.2-0.1l0,0c0.1,0,0.1-0.1,0.2-0.1c0,0,0-0.1,0-0.1c0,0,0-0.1,0.1-0.1
			c0-0.1,0-0.1,0-0.2l0,0c0,0,0,0,0-0.1c0,0,0-0.1,0-0.1l-1.3-2.5c1.6,0.7,3.2,1,4.9,1.1c0.9,0,1.7-0.2,2.5-0.5
			c0.4,1.2,0.6,2.5,0.6,3.8v3.7c0,4.8-3.9,8.6-8.6,8.6S10.7,23.5,10.8,18.7L10.8,18.7z M22.5,27.9v3.6l0,0c0,1-1.6,1.5-3.1,1.5
			c-1.5,0-3.1-0.5-3.1-1.5l0,0v-3.6c1,0.3,2,0.5,3.1,0.5l0,0C20.4,28.5,21.5,28.3,22.5,27.9z M5.3,38.3c0.2-1.7,1.4-3.2,3.1-3.7
			l7-2.3c0.2,0.6,0.7,1.1,1.3,1.3c0.9,0.4,1.8,0.6,2.8,0.6c1.7,0,3.6-0.6,4.1-1.9l6.9,2.3c1.7,0.6,2.9,2,3.1,3.7H5.3z"/>
		<path class="st1" d="M5.3,38.3c0.2-1.7,1.4-3.2,3.1-3.7l7-2.3c0.2,0.6,0.7,1.1,1.3,1.3c0.9,0.4,1.8,0.6,2.8,0.6
			c1.7,0,3.6-0.6,4.1-1.9l6.9,2.3c1.7,0.6,2.9,2,3.1,3.7H5.3z"/>
	</g>
</g>
</svg>
