<svg xmlns="http://www.w3.org/2000/svg" xmlns:xlink="http://www.w3.org/1999/xlink" width="60" height="60" viewBox="0 0 60 60">
  <defs>
    <clipPath id="clip-path">
      <circle id="Ellisse_78" data-name="Ellisse 78" cx="29" cy="29" r="29" fill="none"/>
    </clipPath>
  </defs>
  <g id="Raggruppa_7782" data-name="Raggruppa 7782" transform="translate(-19 -73)">
    <g id="Ellisse_83" data-name="Ellisse 83" transform="translate(19 73)" fill="#fff" stroke="#006cb4" stroke-width="1">
      <circle cx="30" cy="30" r="30" stroke="none"/>
      <circle cx="30" cy="30" r="29.5" fill="none"/>
    </g>
    <g id="Raggruppa_7781" data-name="Raggruppa 7781">
      <g id="Raggruppa_11" data-name="Raggruppa 11" transform="translate(20 74)" clip-path="url(#clip-path)">
        <ellipse id="Ellisse_79" data-name="Ellisse 79" cx="30.5" cy="31" rx="30.5" ry="31" transform="translate(-1 -4)" fill="none"/>
        <g id="Raggruppa_674" data-name="Raggruppa 674" transform="translate(-48.519 3.519)">
          <g id="Raggruppa_2025" data-name="Raggruppa 2025" transform="translate(30.789 209.463)">
            <g id="Raggruppa_2024" data-name="Raggruppa 2024">
              <path id="Tracciato_6260" data-name="Tracciato 6260" d="M402.73,612.193c-.015,3.927-17.852,7.077-39.839,7.034s-39.8-3.26-39.784-7.187,17.85-7.077,39.837-7.034S402.744,608.266,402.73,612.193Z" transform="translate(-323.107 -605.006)" fill="#cddeec"/>
            </g>
          </g>
          <g id="Raggruppa_8006" data-name="Raggruppa 8006" transform="translate(-276.24 -252)">
            <g id="Raggruppa_7865" data-name="Raggruppa 7865" transform="translate(330 252)">
              <g id="Raggruppa_2367" data-name="Raggruppa 2367" transform="translate(6.369 108.752)">
                <g id="Raggruppa_2024-2" data-name="Raggruppa 2024" transform="translate(0)">
                  <path id="Tracciato_6260-2" data-name="Tracciato 6260" d="M323.107,614.924c.008,5.42,8.916,9.766,19.9,9.707s19.878-4.5,19.87-9.918-8.915-9.766-19.9-9.707S323.1,609.505,323.107,614.924Z" transform="translate(-323.107 -605.006)" fill="#cddeec"/>
                </g>
              </g>
              <g id="Raggruppa_7158" data-name="Raggruppa 7158">
                <rect id="Rettangolo_4367" data-name="Rettangolo 4367" width="14.785" height="25.079" transform="translate(17.782 53.466)" fill="#b1bbcc"/>
                <path id="Tracciato_59776" data-name="Tracciato 59776" d="M929.64,679.558l7.349,65.41c.041.557,3.755.851,3.746.356l-.177-66.525a1.028,1.028,0,0,0-1.1-1l-8.974.763A.918.918,0,0,0,929.64,679.558Z" transform="translate(-905.96 -630.5)" fill="#f6be8f"/>
                <path id="Tracciato_59777" data-name="Tracciato 59777" d="M960.964,712.768l3.65,33.992c.038.557,3.751.851,3.744.356l.154-66.524C968.505,680.012,960.929,712.254,960.964,712.768Z" transform="translate(-944.908 -632.292)" fill="#f6be8f"/>
                <path id="Tracciato_59778" data-name="Tracciato 59778" d="M964.354,865.36l-.286,1.472c-.292.576-4.635,2.512-4.635,2.512a1.09,1.09,0,0,0-.734.824h0a.948.948,0,0,0,.928.869h8.582a1.379,1.379,0,0,0,1.235-1.679l-.724-4Z" transform="translate(-945.057 -751.182)" fill="#24315e"/>
                <path id="Tracciato_59779" data-name="Tracciato 59779" d="M919.575,865.274a17.773,17.773,0,0,1,.175,3.818c-.226.884-.319,1.909,1.8,1.909h4.843s1.367-1.06.119-2.121l-.913-.106-1.6-3.546Z" transform="translate(-888.676 -751.097)" fill="#24315e"/>
                <path id="Tracciato_59780" data-name="Tracciato 59780" d="M934.837,679.082a41.958,41.958,0,0,1,2.516,13.07c.323,39.719-.021,49.957-.021,49.957l-6.611.326L925.485,681.5Z" transform="translate(-901.236 -631.326)" fill="#a8c4e5"/>
                <path id="Tracciato_59781" data-name="Tracciato 59781" d="M943.379,668.24s11.442-.406,12.038,4.659c.154,1.311-5.984,10.446-5.992,11.844-.231,40.058-.717,50.383-.717,50.383l-6.615.329-3.418-50.623Z" transform="translate(-923.867 -624.345)" fill="#a8c4e5"/>
                <path id="Tracciato_59782" data-name="Tracciato 59782" d="M922.216,556.224a5.232,5.232,0,0,0,2.859,4.148c3.425,1.94,5.1,4.533,4.745,7.686s6.159,4.608,2.943,11.017c-2.674,5.328-14.6,2.209-14.6,2.209l-9.7-7.862s-5.629-.132-3.342-6.349c.992-2.7-2.408-4.108-1.014-7.447,1.722-4.124,3.356-7.548,3.356-7.548Z" transform="translate(-889.658 -549.607)" fill="#21275e"/>
                <path id="Tracciato_59783" data-name="Tracciato 59783" d="M921.724,583.226s2.027-10.6,5.813-9.779,2.9,6.526,7.435,8.091c4.319,1.49,7.126,5.083,3.727,9.364-2.161,2.723-12.347-.913-12.748-.92S921.724,583.226,921.724,583.226Z" transform="translate(-902.615 -563.328)" fill="#21275e"/>
                <path id="Tracciato_59784" data-name="Tracciato 59784" d="M975.468,622.6l.637.4a2.238,2.238,0,0,0,3.211-.676l7.894-14.31a2.577,2.577,0,0,0-1-3.331l-.636-.4c-1.158-.73-2.933.456-3.541,1.557l-7.564,13.429A2.577,2.577,0,0,0,975.468,622.6Z" transform="translate(-968.594 -583.055)" fill="#c8d3e6"/>
                <path id="Tracciato_59785" data-name="Tracciato 59785" d="M953.818,565.017h0a5.4,5.4,0,0,0,5.005-5.524l-.2-6.116a5.033,5.033,0,0,0-5.341-4.891h0a5.4,5.4,0,0,0-5.006,5.525l.2,6.115A5.033,5.033,0,0,0,953.818,565.017Z" transform="translate(-930.697 -547.29)" fill="#f6be8f"/>
                <path id="Tracciato_59786" data-name="Tracciato 59786" d="M932.563,608.18c4.629.336,11.386-5.218,13.2-6.468l-8-2.94c-.949-1.171-1.217.012-1.449.083a4.1,4.1,0,0,0-1.856.1c-1.941.542-4.846.783-7.015,1.375-1.574.567-1.709,2.579-1.668,2.9C926.088,605.625,929.133,607.93,932.563,608.18Z" transform="translate(-909.616 -579.321)" fill="#63bee7"/>
                <path id="Tracciato_59787" data-name="Tracciato 59787" d="M949.37,588.856l-.4.005c-1.234.016-2.579-.487-2.6-1.4l.172-6.7c-.021-.911.972-1.669,2.206-1.685l.4-.005c1.234-.016,2.261.716,2.281,1.627l.553,6.822C952,588.436,950.6,588.84,949.37,588.856Z" transform="translate(-923.173 -566.98)" fill="#f6be8f"/>
                <path id="Tracciato_59788" data-name="Tracciato 59788" d="M943.681,573.724c-.414,1.18-1.322,1.852-2.028,1.5s-.943-1.591-.53-2.771,1.322-1.852,2.028-1.5S944.1,572.544,943.681,573.724Z" transform="translate(-913.133 -561.693)" fill="#ffaa82"/>
                <path id="Tracciato_59789" data-name="Tracciato 59789" d="M969.992,548.348s-4.626,2.628-4.522,5.841c0,0-2.621-8.242,4.3-8.665Z" transform="translate(-947.821 -545.39)" fill="#21275e"/>
                <path id="Tracciato_59790" data-name="Tracciato 59790" d="M935.606,548.108s4.146,2.132,5.505,5.4a3.858,3.858,0,0,0,3.292,2.335l1.591.117s2.35-12.207-10.612-10.677Z" transform="translate(-913.435 -545.151)" fill="#21275e"/>
                <path id="Tracciato_59791" data-name="Tracciato 59791" d="M927.214,643.169l18.458-.26c2.32.084,1.388-10.869,1.4-12.782l.125-16.779c.014-1.913-1.854-3.532-4.174-3.616l-13.532-.491c-2.319-.084-1.948,1.6-1.963,3.514l-1.671,16.738C925.845,631.408,924.895,643.085,927.214,643.169Z" transform="translate(-911.052 -586.387)" fill="#366bc1"/>
                <path id="Tracciato_59792" data-name="Tracciato 59792" d="M975.161,661.706a3.9,3.9,0,0,1-3.9-3.961c.124-7.785,1.5-24.383,1.587-25.393l.933-10.923c-3.439-4.3-2.437-8.138-.206-13.872l.056-2.1a2.457,2.457,0,0,1,1.842-2.614l2.441-.534.415,56.208a3.165,3.165,0,0,1-3.164,3.188Z" transform="translate(-958.39 -581.929)" fill="#d9eaff"/>
                <path id="Tracciato_59793" data-name="Tracciato 59793" d="M910.329,633.317c-1.318.971.367-4.812-.86-6.67l.245-11.454a5.783,5.783,0,0,1,.293-6.256l.236-.395c1.318-.971,4.031-.17,5.258,1.688l2.873,19.573C918.382,636.862,910.329,633.317,910.329,633.317Z" transform="translate(-876.213 -585.672)" fill="#c8d3e6"/>
                <path id="Tracciato_59794" data-name="Tracciato 59794" d="M971.785,600.49s1.169-.671,1.078.469c-1.539,5.39-1.671,12.01-1.615,19.608l-3.715-7.27,2.232-4.122-2.057-7.45Z" transform="translate(-951.606 -580.632)" fill="#deeaff"/>
                <path id="Tracciato_59795" data-name="Tracciato 59795" d="M920.828,600.844s-3.412,9.906-3.5,16.966c-.07,5.38,1.665,27.327,2.494,37.472a5.934,5.934,0,0,0,6.7,5.422,10,10,0,0,0,2.145-.529c2.2-.834-.22-17.862-.339-18.627-1.1-7.1-1.352-11.677-1.714-13.132-.859-3.449-.044-25.041-.044-25.041Z" transform="translate(-890.412 -580.985)" fill="#d9eaff"/>
                <path id="Tracciato_59796" data-name="Tracciato 59796" d="M935.251,600.705s-1.059-.613-1.222.519a58.623,58.623,0,0,0-3.124,19.8l4.572-7.756-1.584-4.24,4.458-6.69Z" transform="translate(-904.025 -580.79)" fill="#deeaff"/>
                <g id="Raggruppa_7157" data-name="Raggruppa 7157" transform="translate(24.759 19.314)">
                  <path id="Tracciato_59797" data-name="Tracciato 59797" d="M941.978,636.512l-2.519,5.541c-.589,1.179-1.013,1.81-2.516,1.164-.078.213-.154.427-.221.644l.231.1a2.175,2.175,0,0,0,2.882-1.067l3.018-6.641C943.35,635.168,942.465,635.442,941.978,636.512Z" transform="translate(-935.511 -622.639)" fill="#fff"/>
                  <rect id="Rettangolo_4368" data-name="Rettangolo 4368" width="1.735" height="1.002" rx="0.501" transform="translate(1.65 21.614) rotate(-161.946)" fill="#3c407a"/>
                  <path id="Tracciato_59798" data-name="Tracciato 59798" d="M940.4,633.876l.056,6.087c.06,1.316.192,2.065,1.828,2.085-.015.227-.032.453-.059.678l-.253,0a2.175,2.175,0,0,1-2.2-2.144l-.067-7.294C939.694,632.091,940.392,632.7,940.4,633.876Z" transform="translate(-935.86 -620.757)" fill="#fff"/>
                  <rect id="Rettangolo_4369" data-name="Rettangolo 4369" width="1.735" height="1.002" rx="0.501" transform="matrix(0.995, 0.102, -0.102, 0.995, 5.911, 21.151)" fill="#3c407a"/>
                  <rect id="Rettangolo_4370" data-name="Rettangolo 4370" width="1.267" height="1.062" rx="0.531" transform="translate(7.763 13.724) rotate(-164.439)" fill="#3c407a"/>
                  <rect id="Rettangolo_4371" data-name="Rettangolo 4371" width="1.267" height="1.062" rx="0.531" transform="translate(4.831 12.763) rotate(-176.121)" fill="#3c407a"/>
                  <path id="Tracciato_59799" data-name="Tracciato 59799" d="M935.332,626.31c.077-.276.374-4.225,2.546-3.848,2.485.431.591,4.773.591,4.773" transform="translate(-931.175 -614.193)" fill="none" stroke="#3c407a" stroke-linecap="round" stroke-linejoin="round" stroke-width="1.661"/>
                  <path id="Tracciato_59800" data-name="Tracciato 59800" d="M940.631,607.586s1.114-7.266-2.208-8.269" transform="translate(-933.928 -599.317)" fill="none" stroke="#3c407a" stroke-linecap="round" stroke-linejoin="round" stroke-width="1.535"/>
                </g>
                <path id="Tracciato_59801" data-name="Tracciato 59801" d="M973.231,600.583s-3.239-.125-4.02,10.91" transform="translate(-952.568 -580.817)" fill="none" stroke="#3c407a" stroke-linecap="round" stroke-linejoin="round" stroke-width="1.535"/>
                <path id="Tracciato_59802" data-name="Tracciato 59802" d="M948.277,599.442l.352,4.222a1.172,1.172,0,0,0,2.045.68l3.131-3.534-.792-2.528Z" transform="translate(-925.678 -579.336)" fill="#f6be8f"/>
                <path id="Tracciato_59803" data-name="Tracciato 59803" d="M920.379,649.924l11,4.441c1.013.437,2.412,1.756,1.959,2.913,0,0-.58,3.748-4.2,2.252l-10.469-6.147c-1.013-.437-1.3-1.248-.845-2.4h0A1.821,1.821,0,0,1,920.379,649.924Z" transform="translate(-894.371 -612.446)" fill="#f6be8f"/>
                <path id="Tracciato_59804" data-name="Tracciato 59804" d="M962.677,645.6h0a.719.719,0,0,1-.2-.994l3.455-5.24a.719.719,0,0,1,.994-.2h0a.719.719,0,0,1,.2.994l-3.456,5.24A.719.719,0,0,1,962.677,645.6Z" transform="translate(-944.136 -605.567)" fill="#3c407a"/>
                <path id="Tracciato_59805" data-name="Tracciato 59805" d="M956.43,649.623l3.1-.482c1.021-.218,1.294.522,1.559,1.664h0c.264,1.141.406,1.71-.614,1.929l-3.081,1.04a2.07,2.07,0,0,1-2.335-1.678h0A1.99,1.99,0,0,1,956.43,649.623Z" transform="translate(-935.545 -612.037)" fill="#f6be8f"/>
                <path id="Tracciato_59806" data-name="Tracciato 59806" d="M985.847,640.705h-8.8a5.414,5.414,0,0,1-4.8-3.609L967.3,621.552a2.564,2.564,0,0,1,2.51-3.609h8.8a5.414,5.414,0,0,1,4.8,3.609l4.941,15.544A2.564,2.564,0,0,1,985.847,640.705Z" transform="translate(-967.126 -591.987)" fill="#73d7ff"/>
                <path id="Tracciato_59807" data-name="Tracciato 59807" d="M1016.107,643.015l.356-.67c.575-1.082,2.077-.456,2.665,1.167.024.065.046.131.066.2h0c.41,1.339.036,2.568-.83,2.73l-.944.073C1016.492,646.337,1015.241,643.178,1016.107,643.015Z" transform="translate(-1015.315 -607.341)" fill="#f6be8f"/>
                <path id="Tracciato_59808" data-name="Tracciato 59808" d="M955.2,593.34a4.018,4.018,0,0,0,2.394-.859s-1,2.229-2.394,2.453Z" transform="translate(-931.934 -575.604)" fill="#ffaa82"/>
                <line id="Linea_25" data-name="Linea 25" x1="0.465" y1="4.706" transform="translate(33.86 34.464)" fill="none" stroke="#3c407a" stroke-linecap="round" stroke-linejoin="round" stroke-width="0.554"/>
                <line id="Linea_26" data-name="Linea 26" y1="1.958" x2="1.095" transform="translate(22.171 0.999)" fill="none" stroke="#bf9378" stroke-linecap="round" stroke-linejoin="round" stroke-width="0.545"/>
              </g>
            </g>
          </g>
        </g>
      </g>
    </g>
  </g>
</svg>
