<?xml version="1.0" encoding="UTF-8"?>
<svg id="Livello_2" data-name="Livello 2" xmlns="http://www.w3.org/2000/svg" viewBox="0 0 115.03 122.47">
  <defs>
    <style>
      .cls-1 {
        fill: #fff;
      }
    </style>
  </defs>
  <g id="Layer_1" data-name="Layer 1">
    <g>
      <path class="cls-1" d="M111.46,7.49c-6.01-8.17-17.55-9.93-25.72-3.92l-26.52,19.5c-.16,.12-.31,.23-.46,.35,1.86-.18,3.76-.13,5.66,.16,1.95,.3,3.8,.84,5.54,1.57l20.55-15.11c4.6-3.39,11.1-2.39,14.49,2.21,3.39,4.6,2.39,11.1-2.21,14.49l-19.54,14.37-6.98,5.13c-1.84,1.36-3.99,2.01-6.13,2.01-1.14,0-2.29-.19-3.37-.56-1.93-.66-3.69-1.9-4.99-3.66-.86-1.16-1.43-2.44-1.74-3.76-2.48,.4-4.52,2.36-4.92,4.97l-.41,2.68c.19,.3,.39,.59,.6,.88,2.61,3.55,6.27,5.89,10.24,6.91,5.16,1.32,10.86,.41,15.48-2.99l2.3-1.69,24.22-17.81c8.17-6.01,9.93-17.55,3.92-25.72Z"/>
      <path class="cls-1" d="M59.73,73.69c-2.11-2.88-4.91-4.96-8.01-6.19l-1.27,8.33c1.06,.67,2.02,1.54,2.81,2.61,1.36,1.84,2.01,3.99,2.01,6.12,0,3.19-1.46,6.34-4.22,8.37l-7,5.15-19.52,14.35c-1.84,1.35-3.99,2.01-6.12,2.01-3.19,0-6.34-1.46-8.37-4.22-3.39-4.6-2.39-11.1,2.21-14.49l21.02-15.46c-.12-1.65-.06-3.34,.2-5.04l.87-5.71c-.11,.07-.23,.15-.34,.24L7.49,89.26c-8.17,6.01-9.93,17.55-3.92,25.72,6.01,8.17,17.55,9.93,25.72,3.92l23.93-17.59,2.59-1.9c6.78-4.98,9.15-13.78,6.32-21.3-.58-1.54-1.37-3.03-2.4-4.42Z"/>
      <path class="cls-1" d="M37.64,79.34c0,.2,.02,.39,.03,.58,0,.14,.02,.28,.03,.41,.44,4.81,2.77,9.2,6.33,12.27l4.39-3.23c.78-.57,1.39-1.3,1.8-2.13-2.95-2-4.76-5.47-4.54-9.19,.02-.3,.05-.61,.1-.91,0-.01,0-.03,0-.04l2.4-15.76,1.9-12.46,.21-1.39,.45-2.93c.02-.14,.04-.28,.08-.42,.02-.14,.05-.27,.09-.41,.09-.41,.21-.8,.36-1.19,.04-.13,.09-.26,.15-.38,.1-.25,.21-.49,.33-.73,.15-.29,.31-.57,.48-.85,.07-.11,.14-.22,.22-.33,.08-.13,.18-.25,.27-.37,1.19-1.57,2.81-2.78,4.66-3.47,.14-.05,.29-.1,.43-.15,.13-.04,.27-.08,.4-.12,.11-.03,.21-.06,.32-.08,.12-.03,.25-.06,.38-.08,.01,0,.02,0,.03,0,.12-.03,.24-.05,.37-.07,.1-.02,.19-.03,.29-.04,.96-.13,1.96-.13,2.96,.02,.35,.05,.7,.12,1.04,.21,3.78,.98,6.62,3.99,7.49,7.66,.92-.15,1.8-.51,2.57-1.08l4.46-3.28c-1.78-4.51-5.31-8.23-9.88-10.19-.14-.06-.27-.11-.41-.16-.09-.04-.19-.08-.28-.11-.29-.11-.59-.22-.89-.31-.1-.03-.21-.06-.31-.1-.16-.05-.33-.1-.49-.14-.13-.04-.27-.07-.41-.11-.14-.03-.28-.06-.41-.1-.14-.03-.28-.06-.42-.09-.14-.03-.28-.05-.42-.08-.14-.02-.29-.05-.43-.07-1.36-.21-2.71-.26-4.03-.17-.14,0-.27,.02-.41,.03-8.23,.75-15.22,7.03-16.51,15.55l-2.61,17.16-2.34,15.37c-.04,.26-.07,.52-.1,.78-.07,.66-.11,1.31-.11,1.97,0,.22,0,.44,0,.65v.04Z"/>
      <path class="cls-1" d="M69.26,60.68l-2.59,17.04c1.78,5.62,1.25,11.62-1.21,16.75,4.55-2.72,7.9-7.38,8.77-13.02l3.35-21.99c-2.38,.83-4.88,1.25-7.41,1.25-.3,0-.6,0-.9-.02Z"/>
    </g>
  </g>
</svg>