<svg id="img_notifiche" xmlns="http://www.w3.org/2000/svg" width="71.269" height="72" viewBox="0 0 71.269 72">
  <path id="Path" d="M70,58.547H62.025L60.146,68,48.013,58.547H25V27H70Z" transform="translate(-0.281)" fill="#73d7ff"/>
  <path id="Path-2" data-name="Path" d="M2,33.591H9.975L11.592,43,23.47,33.591l1.227-6.5,21.3-.4V2H2Z" transform="translate(-0.281)" fill="#fff"/>
  <g id="Group" transform="translate(-0.281)">
    <path id="Shape" d="M61.031,72c-.394,0-.619-.227-1.013-.4L47.025,60.548c-.225-.227-.225-.227-.394-.227H24.638a1.424,1.424,0,0,1-1.463-1.474V38.438c0-.227-.225-.624-.394-.624h-.394c-.225,0-.394,0-.394.227l-9.9,8.334a1.493,1.493,0,0,1-1.012.4.715.715,0,0,1-.619-.227A1.589,1.589,0,0,1,9.45,45.071V36a.911.911,0,0,0-.844-.85H1.744A1.424,1.424,0,0,1,.281,33.676V1.474A1.424,1.424,0,0,1,1.744,0H47.362a1.424,1.424,0,0,1,1.463,1.474v22.9a.911.911,0,0,0,.844.85H70.088A1.424,1.424,0,0,1,71.55,26.7V58.961a1.424,1.424,0,0,1-1.463,1.474H63.281a.91.91,0,0,0-.844.85v9.184a1.742,1.742,0,0,1-.844,1.474C61.65,72,61.2,72,61.031,72ZM26.944,28.29a.91.91,0,0,0-.844.85V56.806a.911.911,0,0,0,.844.85H47.362c.394,0,.619.227,1.013.4l9.9,8.334c.225.227.225.227.394.227h.394c.225-.227.394-.4.394-.624V58.9a1.424,1.424,0,0,1,1.463-1.474h6.806a.91.91,0,0,0,.844-.85V29.14a.911.911,0,0,0-.844-.85ZM3.994,3.118a.91.91,0,0,0-.844.85V31.635a.911.911,0,0,0,.844.85H10.8a1.424,1.424,0,0,1,1.462,1.474v6.633c0,.227.225.624.394.624h.394c.225,0,.394,0,.394-.227l9.112-7.71a.727.727,0,0,0,.225-.624V26.816a1.424,1.424,0,0,1,1.462-1.474H44.662a.91.91,0,0,0,.844-.85V3.742a.911.911,0,0,0-.844-.85H3.994Z" fill="#003575"/>
    <rect id="Rectangle" width="3.094" height="3.118" transform="translate(45.956 41.386)" fill="#003575"/>
    <rect id="Rectangle-2" data-name="Rectangle" width="3.094" height="3.118" transform="translate(55.013 41.386)" fill="#003575"/>
    <rect id="Rectangle-3" data-name="Rectangle" width="3.094" height="3.118" transform="translate(36.844 41.386)" fill="#003575"/>
    <rect id="Rectangle-4" data-name="Rectangle" width="3.094" height="3.118" transform="translate(23.006 16.044)" fill="#003575"/>
    <rect id="Rectangle-5" data-name="Rectangle" width="3.094" height="3.118" transform="translate(32.119 16.044)" fill="#003575"/>
    <rect id="Rectangle-6" data-name="Rectangle" width="3.094" height="3.118" transform="translate(13.95 16.044)" fill="#003575"/>
  </g>
</svg>
