<svg xmlns="http://www.w3.org/2000/svg" width="25.867" height="31.595" viewBox="0 0 25.867 31.595"><defs><style>.a{fill:#fff;}.b{fill:#73d7ff;}.c{fill:#003575;}</style></defs><g transform="translate(0)"><g transform="translate(0 0)"><g transform="translate(0.876 3.346)"><path class="a" d="M27.309,17.555" transform="translate(-8.82 -7.66)"/><path class="a" d="M20.009,6.155" transform="translate(-7.857 -6.155)"/><path class="a" d="M26.809,16.455" transform="translate(-8.754 -7.515)"/><path class="b" d="M6.009,31.852v-1.3a3.866,3.866,0,0,1,2.17-3.472,12.451,12.451,0,0,1,2.951-1.215c.521-.174.955-.26,1.3-.347,0,0,.434-.087,1.215-.26.521,2.257,3.559,6.163,4.253,7.031v3.906a24.426,24.426,0,0,1-10.59-2.257A2.319,2.319,0,0,1,6.009,31.852Z" transform="translate(-6.009 -8.676)"/><path class="b" d="M32.04,31.965a2.456,2.456,0,0,1-1.3,1.91,23.582,23.582,0,0,1-10.329,2.257V32.4c.694-.868,3.646-4.687,4.08-6.944.434.087.781.174,1.215.26a7.231,7.231,0,0,0,1.3.347c.955.347,1.91.694,2.864,1.128a3.709,3.709,0,0,1,2.17,3.3v1.476Z" transform="translate(-7.91 -8.702)"/></g><path class="c" d="M28.263,23.219c-.694-.26-1.562-.694-2.43-.955a13.019,13.019,0,0,0-2.344-.608,5.123,5.123,0,0,0-1.215-.174h0a2.155,2.155,0,0,0-.781-.087c4.514-.347,6.336-1.3,6.336-1.389.087-.087.174-.087.174-.174.087-.087,0-.174-.087-.26a17.521,17.521,0,0,1-2.257-9.027v-.087c0-4.253-3.732-8.159-7.9-8.159s-7.9,3.906-7.9,8.159v.087A17.381,17.381,0,0,1,7.6,19.573v.174c.087.087.087.174.174.174.087.087,1.91.955,5.989,1.3a19.656,19.656,0,0,0-3.732.955c-.868.347-1.736.694-2.43,1.042A4.738,4.738,0,0,0,5,27.385v1.3a3.071,3.071,0,0,0,1.736,2.864,24.161,24.161,0,0,0,11.2,2.344,23.867,23.867,0,0,0,11.2-2.344,3.224,3.224,0,0,0,1.736-2.864v-1.3A4.842,4.842,0,0,0,28.263,23.219Zm-3.212,3.3h0a.868.868,0,1,1-.868.868.715.715,0,0,1,.608-.868Zm-4.774-6.25c-.087.087-.174.087-.347.174.174,0,.26-.174.347-.174Zm-5.468.347ZM7.17,30.771a2.129,2.129,0,0,1-1.128-2v-1.3a3.627,3.627,0,0,1,2.083-3.3c.781-.347,1.562-.694,2.43-1.042a13.476,13.476,0,0,0-.347,1.823,2.423,2.423,0,0,0-1.823,2.778l.26,1.562a.706.706,0,0,0,.174.955.085.085,0,0,1,.087.087.706.706,0,0,0,.955-.174.085.085,0,0,1,.087-.087.538.538,0,0,0,.087-.694L9.948,29.3c-.087-.087-.26-.26-.347-.26l-.347-1.3a1.534,1.534,0,0,1,3.038-.434l.26,1.389c-.087.087-.26.26-.26.347a.716.716,0,0,0,1.389.347.7.7,0,0,0-.26-.781l-.26-1.389a2.407,2.407,0,0,0-2.17-2.17,8.912,8.912,0,0,1,.434-2.083l.781-.26s.434-.087,1.215-.26c.521,2.17,3.385,5.9,4.08,6.77v3.906C12.031,32.941,8.646,31.639,7.17,30.771Zm22.916-2a4.454,4.454,0,0,1-1.3,2,23.582,23.582,0,0,1-10.329,2.257V29.3c.694-.868,3.646-4.687,4.08-6.944.434.087.781.174,1.215.26a.319.319,0,0,1,.26.087,9.83,9.83,0,0,1,.521,3.125,1.784,1.784,0,1,0,1.128,3.385,1.855,1.855,0,0,0,1.128-2.257h0a1.839,1.839,0,0,0-1.3-1.215c-.087-.868-.26-1.823-.434-2.691.955.347,1.91.694,2.864,1.128A3.661,3.661,0,0,1,30,27.559l.087,1.215Z" transform="translate(-5 -2.3)"/><path class="a" d="M12.659,10.986a.373.373,0,0,0-.347.347,4.226,4.226,0,0,0-.087,1.042,10.6,10.6,0,0,0,2.083,6.25,12.326,12.326,0,0,0,1.042,1.128,2.676,2.676,0,0,1-.087.868A21.536,21.536,0,0,1,9.1,19.492a18.246,18.246,0,0,0,2.17-9.114A7.576,7.576,0,0,1,18.475,3a7.576,7.576,0,0,1,7.2,7.378,17.369,17.369,0,0,0,2.17,9.114,18.157,18.157,0,0,1-6.163,1.128c0-.174-.087-.521-.087-.868a13.35,13.35,0,0,0,1.042-1.128,10.037,10.037,0,0,0,2.083-6.25v-.781a.373.373,0,0,0-.347-.347,3.592,3.592,0,0,1-3.646-3.212.373.373,0,0,0-.347-.347.663.663,0,0,0-.434.174c-.781,1.823-3.732,3.038-7.291,3.125h0" transform="translate(-5.541 -2.392)"/><path class="a" d="M13.7,12.6c3.038-.087,5.729-1.128,7.031-2.6a4.422,4.422,0,0,0,3.819,2.951V13.3a9.924,9.924,0,0,1-1.91,5.816,5.043,5.043,0,0,1-3.472,2.257C17,21.371,13.7,17.986,13.7,13.3Z" transform="translate(-6.148 -3.316)"/><path class="a" d="M19.246,30.972C18.03,29.41,15.774,26.2,15.6,24.723A4.764,4.764,0,0,0,16.642,22.9a4.593,4.593,0,0,0,2.6.781,4.873,4.873,0,0,0,2.691-.781,3.6,3.6,0,0,0,1.042,1.736C22.891,26.112,20.634,29.236,19.246,30.972Z" transform="translate(-6.399 -5.019)"/><ellipse class="a" cx="1.302" cy="1.302" rx="1.302" ry="1.302" transform="translate(18.836 23.957)"/></g></g></svg>