<svg xmlns="http://www.w3.org/2000/svg" width="26.312" height="31.66" viewBox="0 0 26.312 31.66"><defs><style>.a{fill:#003575;}.b{fill:#73d7ff;}.c{fill:#fff;}</style></defs><g transform="translate(0)"><g transform="translate(0 0)"><g transform="translate(0 0)"><path class="a" d="M285.492,204.053a22.358,22.358,0,0,0-2.971-1.273,5.537,5.537,0,0,0-1.273-.424c-.509-.085-1.1-.339-1.7-.424a3.32,3.32,0,0,1-.934-1.782,8,8,0,0,0,2.8-4.244.876.876,0,0,0,.679-.34,3.047,3.047,0,0,0,.594-3.4,15.006,15.006,0,0,0,.255-1.782c0-4.244-2.971-7.045-7.809-7.045s-7.809,2.886-7.809,7.215a6.033,6.033,0,0,0,.255,1.782,2.711,2.711,0,0,0-.255,1.613,2.256,2.256,0,0,0,.849,1.782,1.286,1.286,0,0,0,.679.34,7.27,7.27,0,0,0,2.8,4.244,3.277,3.277,0,0,1-1.1,1.952,12.855,12.855,0,0,1-1.613.34c-.424.085-.849.255-1.358.34a15.653,15.653,0,0,0-2.971,1.273,4.894,4.894,0,0,0-2.716,4.244v1.273a3.286,3.286,0,0,0,1.7,2.886c2.037,1.1,5.772,2.377,11.459,2.377s9.421-1.273,11.459-2.377a3.127,3.127,0,0,0,1.7-2.886v-1.273A4.583,4.583,0,0,0,285.492,204.053Zm-15.872-8.742c0-.085-.085-.255-.34-.34a.385.385,0,0,0-.424,0c-.085,0-.085,0-.255-.085a1.675,1.675,0,0,1-.509-1.188,2.124,2.124,0,0,1,.509-1.443.92.92,0,0,1,.509.085l.085.085a.624.624,0,0,0,.679-.339V192a16.392,16.392,0,0,0,.509-1.7,4.952,4.952,0,0,0,2.207.509,5.422,5.422,0,0,0,2.8-.849,4.027,4.027,0,0,1,4.244-.085,11.068,11.068,0,0,1,.679,2.122c0,.255.34.424.509.424h.085l.085-.085c.085-.085.34-.085.509-.085.339.085.509.679.509,1.443a2.134,2.134,0,0,1-.509,1.188.372.372,0,0,1-.255.085.569.569,0,0,0-.679.255v.085a8.121,8.121,0,0,1-2.8,4.414,4.838,4.838,0,0,1-5.772,0A8.882,8.882,0,0,1,269.62,195.311Zm-6.79,14.26V208.3a3.687,3.687,0,0,1,2.122-3.4c.934-.424,1.952-.849,2.886-1.188h.085a15.669,15.669,0,0,0-.34,1.952,2.393,2.393,0,0,0-1.782,2.716l.255,1.528a.684.684,0,0,0,1.188.679.477.477,0,0,0,0-.764c-.085-.085-.255-.255-.339-.255l-.255-1.358a1.5,1.5,0,1,1,2.971-.424l.255,1.358c-.085.085-.255.255-.255.34a.7.7,0,0,0,1.358.34.726.726,0,0,0-.255-.764l-.255-1.358a2.353,2.353,0,0,0-2.122-2.122,13.369,13.369,0,0,1,.424-2.122l.085-.085s.509-.085,1.273-.255c.679,1.528,3.225,3.141,4.159,3.735v7.215a25.779,25.779,0,0,1-10.27-2.292A2.784,2.784,0,0,1,262.83,209.57Zm24.445,0a2.286,2.286,0,0,1-1.188,2.037,22.442,22.442,0,0,1-10.525,2.207v-7.045c.934-.679,3.565-2.377,4.159-3.735.424.085.849.255,1.273.34h.085a12.156,12.156,0,0,1,.509,3.141,1.745,1.745,0,1,0,2.207,1.1,1.764,1.764,0,0,0-1.273-1.188c-.085-.849-.255-1.782-.424-2.716h.085c.934.34,1.952.764,2.886,1.188a3.878,3.878,0,0,1,2.122,3.4v1.273Zm-5.093-2.292h0" transform="translate(-261.896 -183.343)"/></g><path class="b" d="M382.323,346.534a2.286,2.286,0,0,1-1.188,2.037,22.442,22.442,0,0,1-10.525,2.207v-7.045c.934-.679,3.565-2.377,4.159-3.735.424.085.849.255,1.273.34h.085a12.163,12.163,0,0,1,.509,3.14,1.745,1.745,0,1,0,2.207,1.1,1.764,1.764,0,0,0-1.273-1.188c-.085-.849-.255-1.782-.424-2.716h.085c.934.34,1.952.764,2.886,1.188a3.878,3.878,0,0,1,2.122,3.4v1.273Z" transform="translate(-356.945 -320.306)"/><path class="b" d="M269.324,347.125v-1.273a3.687,3.687,0,0,1,2.122-3.4c.934-.424,1.952-.849,2.886-1.188h.085a15.669,15.669,0,0,0-.34,1.952,2.393,2.393,0,0,0-1.782,2.716l.255,1.528a.684.684,0,0,0,1.188.679.477.477,0,0,0,0-.764c-.085-.085-.255-.255-.339-.255l-.255-1.358a1.5,1.5,0,1,1,2.971-.424l.255,1.358c-.085.085-.255.255-.255.339a.7.7,0,0,0,1.358.34.726.726,0,0,0-.255-.764l-.254-1.358a2.353,2.353,0,0,0-2.122-2.122,13.361,13.361,0,0,1,.424-2.122l.085-.085s.509-.085,1.273-.255c.679,1.528,3.225,3.141,4.159,3.735v7.215a25.78,25.78,0,0,1-10.27-2.292A2.784,2.784,0,0,1,269.324,347.125Z" transform="translate(-268.39 -320.897)"/><path class="c" d="M337.867,321.767a5.454,5.454,0,0,0,5.347,0,4.491,4.491,0,0,0,1.1,1.952c-.255.764-2.037,2.207-3.735,3.31-1.7-1.1-3.565-2.546-3.735-3.31A7.187,7.187,0,0,0,337.867,321.767Z" transform="translate(-327.426 -304.367)"/><path class="c" d="M312.717,236.854c0-.085-.085-.255-.339-.34a.385.385,0,0,0-.424,0c-.085,0-.085,0-.255-.085a1.676,1.676,0,0,1-.509-1.188,2.124,2.124,0,0,1,.509-1.443.92.92,0,0,1,.509.085l.085.085a.624.624,0,0,0,.679-.339v-.085a16.384,16.384,0,0,0,.509-1.7,4.953,4.953,0,0,0,2.207.509,5.422,5.422,0,0,0,2.8-.849,4.027,4.027,0,0,1,4.244-.085,11.072,11.072,0,0,1,.679,2.122c0,.255.34.424.509.424h.085l.085-.085c.085-.085.339-.085.509-.085.34.085.509.679.509,1.443a2.134,2.134,0,0,1-.509,1.188.372.372,0,0,1-.255.085.569.569,0,0,0-.679.255v.085a8.121,8.121,0,0,1-2.8,4.414,4.838,4.838,0,0,1-5.772,0A8.882,8.882,0,0,1,312.717,236.854Z" transform="translate(-304.993 -224.887)"/><path class="c" d="M319.868,190.1c4.159,0,6.875,2.377,6.875,6.111a5.222,5.222,0,0,1-.085,1.1h-.085a1.177,1.177,0,0,0-.764,0c-.085-.339-.34-.849-.679-1.782h0v-.17l-.085-.085h0a4.733,4.733,0,0,0-5.347,0,3.855,3.855,0,0,1-4.244,0h-.085l-.255-.085h-.255l-.085.085h-.085l-.085.085h0v.17a6.025,6.025,0,0,1-.509,1.613,1.178,1.178,0,0,0-.764,0h-.085c0-.34-.085-.679-.085-.934-.17-3.735,2.546-6.111,6.705-6.111Z" transform="translate(-306.712 -189.246)"/><path class="c" d="M417.375,373.76h0a.849.849,0,1,1-.849.849.8.8,0,0,1,.849-.849" transform="translate(-397.089 -349.824)"/></g></g></svg>