<?xml version="1.0" encoding="UTF-8"?>
<svg xmlns="http://www.w3.org/2000/svg" xmlns:xlink="http://www.w3.org/1999/xlink" width="36pt" height="40pt"
     viewBox="0 0 36 40" version="1.1">
  <g id="surface1">
    <path style=" stroke:none;fill-rule:nonzero;fill:rgb(0%,20.784314%,45.882353%);fill-opacity:1;"
          d="M 14.546875 6.339844 C 12.804688 6.335938 11.390625 4.929688 11.390625 3.195312 C 11.378906 1.902344 12.15625 0.734375 13.355469 0.234375 C 14.550781 -0.265625 15.933594 0.0078125 16.851562 0.921875 C 17.765625 1.835938 18.035156 3.210938 17.53125 4.402344 C 17.027344 5.589844 15.847656 6.359375 14.546875 6.34375 Z M 14.546875 6.339844 "/>
    <path style=" stroke:none;fill-rule:nonzero;fill:rgb(45.098039%,84.313725%,100%);fill-opacity:1;"
          d="M 27.574219 27.980469 C 27.253906 27.496094 26.679688 27.246094 26.105469 27.339844 C 25.53125 27.433594 25.066406 27.855469 24.921875 28.414062 C 23.636719 33.230469 18.789062 36.746094 14.050781 36.746094 C 9.078125 36.746094 4.75 33.359375 3.578125 28.550781 C 2.40625 23.742188 4.699219 18.757812 9.121094 16.496094 C 9.699219 16.207031 10.050781 15.605469 10.015625 14.960938 C 9.980469 14.40625 9.667969 13.90625 9.179688 13.632812 C 8.695312 13.359375 8.101562 13.351562 7.605469 13.609375 C 2.847656 16.054688 -0.101562 20.976562 0 26.304688 C 0.144531 33.597656 6.398438 39.835938 13.734375 40.007812 C 20.449219 40.152344 26.328125 35.558594 27.78125 29.035156 C 27.855469 28.691406 27.785156 28.332031 27.59375 28.039062 Z M 27.574219 27.980469 "
    />
    <path style=" stroke:none;fill-rule:nonzero;fill:rgb(0%,20.784314%,45.882353%);fill-opacity:1;"
          d="M 35.617188 31.097656 C 33.671875 27.75 31.703125 24.414062 29.777344 21.054688 C 29.421875 20.335938 28.722656 19.84375 27.921875 19.746094 C 27.757812 19.722656 27.59375 19.714844 27.429688 19.714844 C 26.175781 19.714844 24.917969 19.730469 23.660156 19.714844 L 18.8125 19.714844 L 18.8125 16.554688 L 23.878906 16.554688 C 24.242188 16.554688 24.609375 16.554688 24.972656 16.554688 C 25.136719 16.554688 25.296875 16.554688 25.457031 16.523438 C 26.289062 16.460938 26.941406 15.785156 26.960938 14.953125 C 26.984375 14.125 26.367188 13.414062 25.539062 13.3125 C 25.289062 13.277344 25.035156 13.261719 24.78125 13.269531 L 18.558594 13.269531 C 18.511719 12.773438 18.480469 12.339844 18.429688 11.910156 C 18.316406 10.984375 18.363281 10.03125 17.863281 9.175781 C 17.074219 7.789062 15.4375 7.113281 13.890625 7.53125 C 12.339844 7.964844 11.8125 9.378906 11.894531 11.035156 C 11.945312 12.070312 12.003906 13.105469 12.0625 14.140625 C 12.125 15.269531 12.1875 16.394531 12.257812 17.527344 C 12.347656 19.042969 12.445312 20.5625 12.539062 22.082031 C 12.601562 22.902344 12.980469 23.671875 13.601562 24.21875 C 14.378906 24.921875 15.402344 25.28125 16.449219 25.222656 C 20.070312 25.222656 23.148438 25.222656 26.761719 25.222656 L 26.8125 25.222656 C 27.132812 25.1875 27.441406 25.359375 27.574219 25.652344 C 27.917969 26.296875 28.308594 26.941406 28.683594 27.589844 L 30.054688 29.957031 C 30.703125 31.09375 31.363281 32.226562 32.039062 33.355469 C 32.316406 33.851562 32.777344 34.21875 33.324219 34.375 C 33.875 34.527344 34.460938 34.460938 34.957031 34.183594 C 36.039062 33.554688 36.3125 32.292969 35.617188 31.097656 Z M 35.617188 31.097656 "
    />
  </g>
</svg>
