<?xml version="1.0" encoding="utf-8"?>
<!-- Generator: Adobe Illustrator 23.1.1, SVG Export Plug-In . SVG Version: 6.00 Build 0)  -->
<svg version="1.1" id="Livello_1" xmlns="http://www.w3.org/2000/svg" xmlns:xlink="http://www.w3.org/1999/xlink" x="0px" y="0px"
	 viewBox="0 0 40 40" style="enable-background:new 0 0 40 40;" xml:space="preserve">
<style type="text/css">
	.st0{fill:#FFFFFF;}
	.st1{fill:#73D7FF;}
	.st2{fill:#003575;}
</style>
<title>Risorsa 1</title>
<g>
	<g>
		<g>
			<polygon class="st0" points="5.1,29.1 10.8,34.8 12.3,31.1 11.8,27.6 6.2,27.6 			"/>
		</g>
	</g>
	<g>
		<g>
			<polygon class="st0" points="34.1,11.2 28.3,5.4 26.9,9.2 27.4,12.7 32.7,12.3 			"/>
		</g>
	</g>
	<g>
		<g>
			<polygon class="st1" points="27.4,12.7 20.7,12.1 15.7,14.4 13.7,16.6 12.6,19.4 11.8,24.4 12.3,27 16.2,28.1 19.6,27 23.2,26 
				25.7,22.5 27.4,17.7 			"/>
		</g>
	</g>
	<g>
		<g>
			<g>
				<g>
					<path class="st2" d="M35,6.6c-0.2,0-0.4-0.1-0.6-0.2l-1.2-1.2c-0.3-0.3-0.3-0.8,0-1.1c0.1-0.1,0.3-0.2,0.6-0.2
						c0.2,0,0.4,0.1,0.6,0.2l1.2,1.2c0.3,0.3,0.3,0.8,0,1.1C35.4,6.5,35.2,6.6,35,6.6z"/>
				</g>
			</g>
		</g>
		<g>
			<g>
				<g>
					<path class="st2" d="M5.5,36.1c-0.2,0-0.4-0.1-0.6-0.2l-1.2-1.2c-0.3-0.3-0.3-0.8,0-1.1c0.1-0.1,0.3-0.2,0.6-0.2
						c0.2,0,0.4,0.1,0.6,0.2L6,34.8c0.3,0.3,0.3,0.8,0,1.1C5.9,36,5.7,36.1,5.5,36.1z"/>
				</g>
			</g>
		</g>
		<g>
			<g>
				<path class="st2" d="M37.9,8.8c-0.1-0.1-0.3-0.2-0.6-0.2c-0.2,0-0.4,0.1-0.6,0.2c-0.7,0.7-1.3,1.2-2.1,1.6
					c-0.1,0-0.1,0.1-0.2,0.1c-0.1,0-0.1,0-0.1,0l-0.2-0.2l-4.7-4.7l0,0c0,0-0.1,0-0.1-0.1c-0.2-0.1-0.2-0.3-0.1-0.5
					c0.4-0.7,1-1.4,1.6-2.1c0.3-0.3,0.3-0.8,0-1.1c-0.1-0.1-0.3-0.2-0.6-0.2c-0.2,0-0.4,0.1-0.6,0.2c-3.1,3.1-3.4,6.5-3.3,9.4
					c0,0.1,0,0.2-0.1,0.3c-0.1,0.1-0.2,0.1-0.3,0.1c0,0,0,0,0,0c-1-0.1-2-0.2-3-0.2c-2.4,0-5.6,0.4-8.6,3.4
					c-3.8,3.8-3.5,8.1-3.2,11.6c0,0.1,0,0.2-0.1,0.3c-0.1,0.1-0.2,0.1-0.3,0.1c0,0,0,0,0,0c-0.3,0-0.5,0-0.8,0
					c-2.4,0-5.6,0.4-8.6,3.4c-0.3,0.3-0.3,0.8,0,1.1c0.1,0.1,0.3,0.2,0.6,0.2c0.2,0,0.4-0.1,0.6-0.2c0.6-0.6,1.2-1,1.8-1.5
					c0.1,0,0.1-0.1,0.2-0.1c0,0,0.1,0,0.1,0c0.1,0,0.2,0.1,0.2,0.2c0,0,0,0.1,0,0.1c0,0,0,0.1,0,0.1l4.7,4.7c0,0,0,0,0.1,0
					c0,0,0.1,0,0.1,0c0.1,0.1,0.1,0.1,0.2,0.2c0,0.1,0,0.2-0.1,0.3C9.5,36,9,36.5,8.4,37.1c-0.3,0.3-0.3,0.8,0,1.1
					c0.1,0.1,0.3,0.2,0.6,0.2c0.2,0,0.4-0.1,0.6-0.2c3.1-3.1,3.4-6.5,3.3-9.4c0-0.1,0-0.2,0.1-0.3c0.1-0.1,0.2-0.1,0.3-0.1
					c0,0,0,0,0,0c1,0.1,2,0.2,3,0.2c2.4,0,5.6-0.4,8.6-3.4c3.8-3.8,3.5-8.1,3.2-11.6c0-0.1,0-0.2,0.1-0.3c0.1-0.1,0.2-0.1,0.3-0.1
					c0,0,0,0,0,0c0.3,0,0.5,0,0.8,0h0c2.4,0,5.6-0.4,8.6-3.4C38.2,9.6,38.2,9.1,37.9,8.8z M10.9,33c0,0.1-0.1,0.2-0.3,0.3
					c0,0-0.1,0-0.1,0c-0.1,0-0.2,0-0.3-0.1l-3.8-3.8c-0.1-0.1-0.1-0.2-0.1-0.4c0-0.1,0.1-0.2,0.3-0.3c1-0.3,2-0.4,3.3-0.4
					c0.3,0,0.7,0,1,0c0.2,0,0.4,0.2,0.4,0.4C11.4,30.4,11.3,31.8,10.9,33z M17.9,26.7c-0.1,0.1-0.2,0.2-0.3,0.3c-0.4,0-0.7,0-1.1,0
					c-1.1,0-2.1-0.1-3.2-0.2l-0.1,0c-0.2,0-0.3-0.2-0.4-0.4l0-0.1c-0.1-1.4-0.2-2.9-0.1-4.3c0-0.2,0.1-0.3,0.3-0.3c0,0,0.1,0,0.1,0
					c0.1,0,0.2,0,0.3,0.1l4.5,4.5C17.9,26.4,17.9,26.6,17.9,26.7z M22.9,24.9c-0.8,0.6-1.6,1.1-2.5,1.4c0,0-0.1,0-0.1,0
					c-0.1,0-0.2,0-0.3-0.1l-6.7-6.7c-0.1-0.1-0.1-0.3-0.1-0.4c0.3-0.9,0.8-1.7,1.4-2.5c0.1-0.1,0.2-0.1,0.3-0.1c0,0,0,0,0,0
					c0.1,0,0.2,0,0.3,0.1l7.7,7.7c0.1,0.1,0.1,0.2,0.1,0.3C23,24.8,22.9,24.9,22.9,24.9z M26,20.7c-0.3,0.9-0.8,1.7-1.4,2.5
					c-0.1,0.1-0.2,0.1-0.3,0.1c0,0,0,0,0,0c-0.1,0-0.2,0-0.3-0.1l-7.7-7.7c-0.1-0.1-0.1-0.2-0.1-0.3c0-0.1,0.1-0.2,0.1-0.3
					c0.8-0.6,1.6-1.1,2.5-1.4c0,0,0.1,0,0.1,0c0.1,0,0.2,0,0.3,0.1l6.7,6.7C26,20.4,26.1,20.6,26,20.7z M26.6,17.9
					c0,0.2-0.1,0.3-0.3,0.3c0,0-0.1,0-0.1,0c-0.1,0-0.2,0-0.3-0.1l-4.5-4.5c-0.1-0.1-0.1-0.3-0.1-0.4c0.1-0.1,0.2-0.2,0.3-0.3
					c0.4,0,0.7,0,1.1,0c1.1,0,2.2,0.1,3.2,0.2l0.1,0c0.2,0,0.3,0.2,0.4,0.4l0,0.1C26.6,15,26.7,16.5,26.6,17.9z M32.5,11.1
					c0,0.1-0.1,0.2-0.3,0.3c-0.8,0.2-1.8,0.3-2.8,0.3c-0.3,0-0.7,0-1.1,0c-0.2,0-0.4-0.2-0.4-0.4c-0.1-1.6,0-2.8,0.3-3.9
					c0-0.1,0.1-0.2,0.3-0.3c0,0,0.1,0,0.1,0c0.1,0,0.2,0,0.3,0.1l3.6,3.6C32.5,10.8,32.5,11,32.5,11.1z"/>
			</g>
		</g>
	</g>
</g>
</svg>
