<?xml version="1.0" encoding="utf-8"?>
<!-- Generator: Adobe Illustrator 23.1.1, SVG Export Plug-In . SVG Version: 6.00 Build 0)  -->
<svg version="1.1" id="Livello_1" xmlns="http://www.w3.org/2000/svg" xmlns:xlink="http://www.w3.org/1999/xlink" x="0px" y="0px"
	 viewBox="0 0 40 40" style="enable-background:new 0 0 40 40;" xml:space="preserve">
<style type="text/css">
	.st0{fill:#73D7FF;}
	.st1{fill:#003575;}
	.st2{fill:#FFFFFF;}
	.st3{fill:#394553;}
</style>
<g>
	<circle class="st0" cx="27" cy="13.3" r="6.7"/>
</g>
<g>
	<path class="st0" d="M25.3,23c0,4.8-3.9,8.7-8.7,8.7c-4.8,0-8.7-3.9-8.7-8.7c0-4.8,3.9-8.7,8.7-8.7C21.4,14.3,25.3,18.2,25.3,23z"
		/>
	<path class="st1" d="M16.6,32.2c-5.1,0-9.2-4.1-9.2-9.2c0-5.1,4.1-9.2,9.2-9.2s9.2,4.1,9.2,9.2C25.8,28,21.7,32.2,16.6,32.2z
		 M16.6,14.8c-4.5,0-8.2,3.7-8.2,8.2c0,4.5,3.7,8.2,8.2,8.2c4.5,0,8.2-3.7,8.2-8.2C24.8,18.4,21.1,14.8,16.6,14.8z"/>
</g>
<g>
	<path class="st2" d="M17.7,21.2c0.3,0.8-0.2,1.8-1.2,2.2c-1,0.4-2.1,0.1-2.4-0.7c-0.3-0.8,0.2-1.8,1.2-2.2
		C16.3,20,17.4,20.4,17.7,21.2z"/>
</g>
<g>
	<g>
		<path class="st1" d="M16.6,14.6c-0.4,0-0.8-0.3-0.8-0.8V9.3c0-0.4,0.3-0.8,0.8-0.8s0.8,0.3,0.8,0.8v4.5
			C17.4,14.2,17,14.6,16.6,14.6z"/>
	</g>
	<g>
		<path class="st1" d="M16.6,37.3c-0.4,0-0.8-0.3-0.8-0.8V32c0-0.4,0.3-0.8,0.8-0.8s0.8,0.3,0.8,0.8v4.5C17.4,37,17,37.3,16.6,37.3z
			"/>
	</g>
</g>
<g>
	<g>
		<path class="st1" d="M30.3,23.7h-4.6c-0.4,0-0.8-0.3-0.8-0.8c0-0.4,0.4-0.8,0.8-0.8h4.6c0.4,0,0.8,0.3,0.8,0.8
			C31.1,23.4,30.7,23.7,30.3,23.7z"/>
	</g>
	<g>
		<path class="st1" d="M7.3,23.7H2.7c-0.4,0-0.8-0.3-0.8-0.8c0-0.4,0.4-0.8,0.8-0.8h4.6c0.4,0,0.8,0.3,0.8,0.8
			C8.1,23.4,7.7,23.7,7.3,23.7z"/>
	</g>
</g>
<g>
	<g>
		<path class="st1" d="M7,33.3c-0.2,0-0.4-0.1-0.5-0.2c-0.3-0.3-0.3-0.8,0-1.1l3.1-3.1c0.3-0.3,0.8-0.3,1.1,0c0.3,0.3,0.3,0.8,0,1.1
			l-3.1,3.1C7.4,33.3,7.2,33.3,7,33.3z"/>
	</g>
</g>
<g>
	<g>
		<path class="st1" d="M10.2,17.4c-0.2,0-0.4-0.1-0.5-0.2L6.4,14c-0.3-0.3-0.3-0.8,0-1.1c0.3-0.3,0.8-0.3,1.1,0l3.2,3.2
			c0.3,0.3,0.3,0.8,0,1.1C10.6,17.3,10.4,17.4,10.2,17.4z"/>
	</g>
	<g>
		<path class="st1" d="M26.2,33.4c-0.2,0-0.4-0.1-0.5-0.2L22.5,30c-0.3-0.3-0.3-0.8,0-1.1c0.3-0.3,0.8-0.3,1.1,0l3.2,3.2
			c0.3,0.3,0.3,0.8,0,1.1C26.6,33.3,26.4,33.4,26.2,33.4z"/>
	</g>
</g>
<g>
	<g>
		<g>
			<path class="st2" d="M11.2,22.3c0,0.2-0.2,0.4-0.4,0.4c-0.2,0-0.4-0.2-0.4-0.4s0.2-0.4,0.4-0.4C11.1,22,11.2,22.1,11.2,22.3z"/>
			<path class="st2" d="M10.9,23.4c-0.6,0-1.1-0.5-1.1-1.1s0.5-1.1,1.1-1.1c0.6,0,1.1,0.5,1.1,1.1S11.5,23.4,10.9,23.4z"/>
		</g>
	</g>
</g>
<g>
	<g>
		<g>
			<path class="st2" d="M21.4,19.3c0,0.2-0.2,0.4-0.4,0.4c-0.2,0-0.4-0.2-0.4-0.4s0.2-0.4,0.4-0.4C21.3,19,21.4,19.1,21.4,19.3z"/>
			<path class="st2" d="M21.1,20.4c-0.6,0-1.1-0.5-1.1-1.1s0.5-1.1,1.1-1.1c0.6,0,1.1,0.5,1.1,1.1S21.7,20.4,21.1,20.4z"/>
		</g>
	</g>
</g>
<g>
	<g>
		<g>
			<path class="st2" d="M20.5,25.4c-0.1,0.2-0.4,0.2-0.7,0.1c-0.3-0.1-0.6-0.4-0.5-0.5c0.1-0.2,0.4-0.2,0.7-0.1
				C20.3,25,20.5,25.2,20.5,25.4z"/>
			<path class="st2" d="M20.1,26.3c-0.2,0-0.4,0-0.7-0.1c-0.8-0.3-1.2-0.9-0.9-1.5c0.1-0.2,0.3-0.4,0.5-0.5c0.3-0.1,0.8-0.1,1.2,0
				c0.4,0.2,0.8,0.4,0.9,0.8c0.1,0.2,0.1,0.5,0,0.7c-0.1,0.4-0.5,0.6-0.9,0.6C20.2,26.3,20.2,26.3,20.1,26.3z M19.7,25.1
				c0,0.1,0,0.2,0,0.3c0.1-0.1,0.2-0.1,0.2-0.3c0-0.1,0-0.2,0-0.3C19.9,24.9,19.8,25,19.7,25.1L19.7,25.1z"/>
		</g>
	</g>
</g>
<g>
	<path class="st3" d="M27.9,17.2c-0.3,0-0.6-0.1-0.8-0.3c-0.1-0.1-0.2-0.2-0.2-0.3c-0.1-0.5,0.3-1.1,0.9-1.3c0.5-0.2,1-0.1,1.3,0.3
		c0.1,0.1,0.2,0.2,0.2,0.4c0.1,0.5-0.3,1.1-0.9,1.3C28.3,17.1,28.1,17.2,27.9,17.2z"/>
</g>
<g>
	<path class="st0" d="M20.4,12.8c0.1-3.4,2.7-6.2,6.1-6.6c3.8-0.5,7.3,2.2,7.7,6.1c0.5,3.8-2.2,7.3-6.1,7.7C27.8,20,27.4,20,27,20"
		/>
	<path class="st1" d="M27.3,20.5c-0.1,0-0.3,0-0.4,0l0.1-1c0.4,0,0.8,0,1.1,0c1.7-0.2,3.2-1.1,4.3-2.4c1.1-1.4,1.5-3,1.3-4.8
		C33.5,10.5,32.7,9,31.3,8c-1.4-1.1-3-1.5-4.8-1.3c-3.2,0.4-5.6,3-5.7,6.2l-1,0c0.1-3.7,2.9-6.7,6.6-7.1c2-0.2,3.9,0.3,5.5,1.5
		c1.6,1.2,2.6,3,2.8,5c0.2,2-0.3,3.9-1.5,5.5c-1.2,1.6-3,2.6-5,2.8C27.9,20.5,27.6,20.5,27.3,20.5z"/>
</g>
<g>
	<g>
		<path class="st1" d="M26.5,6.5C26.2,6.5,26,6.3,26,6l-0.4-3.5C25.5,2.2,25.7,2,26,2c0.3,0,0.5,0.2,0.6,0.4L27,5.9
			C27,6.2,26.8,6.4,26.5,6.5C26.5,6.5,26.5,6.5,26.5,6.5z"/>
	</g>
</g>
<g>
	<g>
		<path class="st1" d="M34.4,12.7c-0.3,0-0.5-0.2-0.5-0.4c0-0.3,0.2-0.5,0.4-0.6l3.5-0.4c0.3,0,0.5,0.2,0.6,0.4
			c0,0.3-0.2,0.5-0.4,0.6L34.4,12.7C34.4,12.7,34.4,12.7,34.4,12.7z"/>
	</g>
</g>
<g>
	<g>
		<path class="st1" d="M31.7,7.9c-0.1,0-0.2,0-0.3-0.1c-0.2-0.2-0.3-0.5-0.1-0.7l2.2-2.8c0.2-0.2,0.5-0.3,0.7-0.1
			c0.2,0.2,0.3,0.5,0.1,0.7l-2.2,2.8C32,7.9,31.9,7.9,31.7,7.9z"/>
	</g>
</g>
<g>
	<g>
		<path class="st1" d="M21.7,9.2c-0.1,0-0.2,0-0.3-0.1l-2.8-2.2c-0.2-0.2-0.3-0.5-0.1-0.7c0.2-0.2,0.5-0.3,0.7-0.1l2.8,2.2
			c0.2,0.2,0.3,0.5,0.1,0.7C22,9.1,21.9,9.2,21.7,9.2z"/>
	</g>
	<g>
		<path class="st1" d="M35.7,20.1c-0.1,0-0.2,0-0.3-0.1l-2.8-2.2c-0.2-0.2-0.3-0.5-0.1-0.7c0.2-0.2,0.5-0.3,0.7-0.1l2.8,2.2
			c0.2,0.2,0.3,0.5,0.1,0.7C36,20,35.9,20.1,35.7,20.1z"/>
	</g>
</g>
<g>
	<g>
		<g>
			<path class="st2" d="M28.7,10.4c-0.4,0-0.7-0.3-0.8-0.7c-0.1-0.4,0.3-0.8,0.7-0.9c0.4-0.1,0.8,0.3,0.9,0.7l0,0
				c0,0.2,0,0.4-0.2,0.6C29.2,10.3,29,10.4,28.7,10.4C28.8,10.4,28.8,10.4,28.7,10.4z"/>
		</g>
	</g>
</g>
<g>
	<g>
		<g>
			<path class="st2" d="M24.6,11.6c-0.4,0-0.7-0.3-0.8-0.7c0-0.2,0-0.4,0.2-0.6c0.1-0.2,0.3-0.3,0.5-0.3c0.2,0,0.4,0,0.6,0.2
				c0.2,0.1,0.3,0.3,0.3,0.5l0,0c0,0.2,0,0.4-0.2,0.6C25.1,11.5,24.9,11.6,24.6,11.6C24.6,11.6,24.6,11.6,24.6,11.6z"/>
		</g>
	</g>
</g>
<g>
	<g>
		<g>
			<path class="st2" d="M30.4,13.4c-0.3,0-0.5-0.1-0.7-0.2c-0.2-0.1-0.2-0.3-0.3-0.5c-0.1-0.5,0.3-0.8,0.9-0.9
				c0.6-0.1,1.1,0.2,1.1,0.7l0,0c0.1,0.5-0.3,0.8-0.9,0.9C30.5,13.4,30.5,13.4,30.4,13.4z"/>
		</g>
	</g>
</g>
</svg>
