<?xml version="1.0" encoding="utf-8"?>
<!-- Generator: Adobe Illustrator 23.1.1, SVG Export Plug-In . SVG Version: 6.00 Build 0)  -->
<svg version="1.1" id="Livello_1" xmlns="http://www.w3.org/2000/svg" xmlns:xlink="http://www.w3.org/1999/xlink" x="0px" y="0px"
	 viewBox="0 0 320 56" style="enable-background:new 0 0 320 56;" xml:space="preserve">
<style type="text/css">
	.st0{fill:#0048AA;}
	.st1{fill:#FCEC00;}
	.st2{fill:#FFFFFF;}
</style>
<g>
	<rect x="3" y="2.4" class="st0" width="76.5" height="50.9"/>
	<g>
		<polygon class="st1" points="41.2,42.4 41.8,44.3 43.9,44.3 42.4,45.4 42.8,47.6 41.2,46.4 39.5,47.5 39.9,45.4 38.5,44.3 
			40.5,44.3 		"/>
		<polygon class="st1" points="41.2,7.9 41.8,9.9 43.9,9.9 42.4,11 42.8,13.1 41.2,11.9 39.5,13.1 39.9,11 38.5,9.9 40.5,9.9 		"/>
		<polygon class="st1" points="49.5,10.2 50.1,12.1 52.2,12.1 50.7,13.2 51.1,15.4 49.5,14.1 47.8,15.3 48.2,13.2 46.8,12.1 
			48.8,12.1 		"/>
		<polygon class="st1" points="32.5,10.2 33.1,12.1 35.2,12.1 33.7,13.2 34.1,15.4 32.5,14.1 30.8,15.3 31.2,13.2 29.8,12.1 
			31.8,12.1 		"/>
		<polygon class="st1" points="49.5,40 50.1,42 52.2,42 50.7,43.1 51.1,45.2 49.5,44 47.8,45.2 48.2,43.1 46.8,42 48.8,42 		"/>
		<polygon class="st1" points="32.5,40 33.1,42 35.2,42 33.7,43.1 34.1,45.2 32.5,44 30.8,45.2 31.2,43.1 29.8,42 31.8,42 		"/>
		<polygon class="st1" points="26.1,16.7 26.8,18.6 28.8,18.6 27.4,19.7 27.8,21.9 26.1,20.6 24.5,21.8 24.9,19.7 23.4,18.6 
			25.5,18.6 		"/>
		<polygon class="st1" points="56,16.7 56.7,18.6 58.7,18.6 57.3,19.7 57.7,21.9 56,20.6 54.4,21.8 54.8,19.7 53.3,18.6 55.4,18.6 
					"/>
		<polygon class="st1" points="26.1,33.8 26.8,35.8 28.8,35.8 27.4,36.9 27.8,39 26.1,37.8 24.5,39 24.9,36.9 23.4,35.8 25.5,35.8 
					"/>
		<polygon class="st1" points="56,33.8 56.7,35.8 58.7,35.8 57.3,36.9 57.7,39 56,37.8 54.4,39 54.8,36.9 53.3,35.8 55.4,35.8 		"/>
		<polygon class="st1" points="24.2,25.2 24.8,27.2 26.9,27.2 25.4,28.3 25.8,30.4 24.2,29.2 22.5,30.3 22.9,28.3 21.5,27.1 
			23.5,27.1 		"/>
		<polygon class="st1" points="58.2,25.2 58.9,27.2 60.9,27.2 59.5,28.3 59.9,30.4 58.2,29.2 56.5,30.3 56.9,28.3 55.5,27.1 
			57.6,27.1 		"/>
	</g>
</g>
<g>
	<path class="st2" d="M86.5,23.8V11.6H89v12.2H86.5z"/>
	<path class="st2" d="M102.9,23.8h-3.3l-5.3-9.2h-0.1c0.1,1.6,0.2,2.8,0.2,3.5v5.7h-2.3V11.6h3.3l5.3,9.1h0.1
		c-0.1-1.6-0.1-2.7-0.1-3.4v-5.8h2.3V23.8z"/>
	<path class="st2" d="M106,23.8V11.6h2.6v12.2H106z"/>
	<path class="st2" d="M119.6,23.8h-9.1v-1.7l5.8-8.4h-5.7v-2.1h8.7v1.7l-5.8,8.4h6V23.8z"/>
	<path class="st2" d="M121.5,23.8V11.6h2.6v12.2H121.5z"/>
	<path class="st2" d="M134.6,23.8l-0.9-2.9h-4.4l-0.9,2.9h-2.8l4.3-12.2h3.2l4.3,12.2H134.6z M133.1,18.7c-0.8-2.6-1.3-4.1-1.4-4.5
		c-0.1-0.3-0.2-0.6-0.2-0.8c-0.2,0.7-0.7,2.5-1.6,5.3H133.1z"/>
	<path class="st2" d="M143.6,23.8h-2.6v-10h-3.3v-2.1h9.2v2.1h-3.3V23.8z"/>
	<path class="st2" d="M148.8,23.8V11.6h2.6v12.2H148.8z"/>
	<path class="st2" d="M161.4,11.6h2.6l-4.1,12.2h-2.8l-4.1-12.2h2.6l2.3,7.2c0.1,0.4,0.3,0.9,0.4,1.5c0.1,0.6,0.2,1,0.3,1.2
		c0.1-0.5,0.3-1.4,0.6-2.7L161.4,11.6z"/>
	<path class="st2" d="M173,23.8l-0.9-2.9h-4.4l-0.9,2.9H164l4.3-12.2h3.2l4.3,12.2H173z M171.5,18.7c-0.8-2.6-1.3-4.1-1.4-4.5
		c-0.1-0.3-0.2-0.6-0.2-0.8c-0.2,0.7-0.7,2.5-1.6,5.3H171.5z"/>
	<path class="st2" d="M187,13.6c-1,0-1.7,0.4-2.3,1.1s-0.8,1.7-0.8,3.1c0,2.7,1,4.1,3.1,4.1c0.9,0,1.9-0.2,3.1-0.6v2.2
		c-1,0.4-2.1,0.6-3.3,0.6c-1.8,0-3.1-0.5-4.1-1.6c-0.9-1.1-1.4-2.6-1.4-4.6c0-1.3,0.2-2.4,0.7-3.3c0.5-1,1.1-1.7,2-2.2
		c0.9-0.5,1.9-0.8,3-0.8c1.2,0,2.4,0.3,3.6,0.9l-0.8,2.1c-0.5-0.2-0.9-0.4-1.4-0.6S187.4,13.6,187,13.6z"/>
	<path class="st2" d="M203.7,17.7c0,2-0.5,3.6-1.5,4.6c-1,1.1-2.4,1.6-4.3,1.6c-1.9,0-3.3-0.5-4.3-1.6c-1-1.1-1.5-2.6-1.5-4.7
		c0-2,0.5-3.6,1.5-4.6c1-1.1,2.4-1.6,4.3-1.6c1.9,0,3.3,0.5,4.3,1.6C203.2,14.1,203.7,15.7,203.7,17.7z M194.8,17.7
		c0,1.4,0.3,2.4,0.8,3.1s1.3,1,2.3,1c2.1,0,3.1-1.4,3.1-4.1c0-2.7-1-4.1-3.1-4.1c-1,0-1.8,0.3-2.3,1
		C195.1,15.3,194.8,16.3,194.8,17.7z"/>
	<path class="st2" d="M205.2,20.3v-2.1h4.5v2.1H205.2z"/>
	<path class="st2" d="M214.3,23.8h-2.5V11.6h7v2.1h-4.4v3.1h4.1V19h-4.1V23.8z"/>
	<path class="st2" d="M221.1,23.8V11.6h2.6v12.2H221.1z"/>
	<path class="st2" d="M237.5,23.8h-3.3l-5.3-9.2h-0.1c0.1,1.6,0.2,2.8,0.2,3.5v5.7h-2.3V11.6h3.3l5.3,9.1h0.1
		c-0.1-1.6-0.1-2.7-0.1-3.4v-5.8h2.3V23.8z"/>
	<path class="st2" d="M248.1,23.8l-0.9-2.9h-4.4l-0.9,2.9h-2.8l4.3-12.2h3.2l4.3,12.2H248.1z M246.6,18.7c-0.8-2.6-1.3-4.1-1.4-4.5
		c-0.1-0.3-0.2-0.6-0.2-0.8c-0.2,0.7-0.7,2.5-1.6,5.3H246.6z"/>
	<path class="st2" d="M263.2,23.8h-3.3l-5.3-9.2h-0.1c0.1,1.6,0.2,2.8,0.2,3.5v5.7h-2.3V11.6h3.3l5.3,9.1h0.1
		c-0.1-1.6-0.1-2.7-0.1-3.4v-5.8h2.3V23.8z"/>
	<path class="st2" d="M274.2,23.8h-9.1v-1.7l5.8-8.4h-5.7v-2.1h8.8v1.7l-5.8,8.4h6V23.8z"/>
	<path class="st2" d="M276.1,23.8V11.6h2.6v12.2H276.1z"/>
	<path class="st2" d="M289.3,23.8l-0.9-2.9h-4.4l-0.9,2.9h-2.8l4.3-12.2h3.2l4.3,12.2H289.3z M287.8,18.7c-0.8-2.6-1.3-4.1-1.4-4.5
		c-0.1-0.3-0.2-0.6-0.2-0.8c-0.2,0.7-0.7,2.5-1.6,5.3H287.8z"/>
	<path class="st2" d="M298.3,23.8h-2.6v-10h-3.3v-2.1h9.2v2.1h-3.3V23.8z"/>
	<path class="st2" d="M310.9,23.8l-0.9-2.9h-4.4l-0.9,2.9h-2.8l4.3-12.2h3.2l4.3,12.2H310.9z M309.4,18.7c-0.8-2.6-1.3-4.1-1.4-4.5
		c-0.1-0.3-0.2-0.6-0.2-0.8c-0.2,0.7-0.7,2.5-1.6,5.3H309.4z"/>
	<path class="st2" d="M91.6,34.1c-1,0-1.7,0.4-2.3,1.1c-0.5,0.7-0.8,1.7-0.8,3.1c0,2.7,1,4.1,3.1,4.1c0.9,0,1.9-0.2,3.1-0.6v2.2
		c-1,0.4-2.1,0.6-3.4,0.6c-1.8,0-3.1-0.5-4.1-1.6c-0.9-1.1-1.4-2.6-1.4-4.6c0-1.3,0.2-2.4,0.7-3.3c0.5-1,1.1-1.7,2-2.2
		c0.9-0.5,1.9-0.8,3-0.8c1.2,0,2.4,0.3,3.6,0.9l-0.8,2.1c-0.5-0.2-0.9-0.4-1.4-0.6S92.1,34.1,91.6,34.1z"/>
	<path class="st2" d="M108.4,38.2c0,2-0.5,3.6-1.5,4.7c-1,1.1-2.4,1.6-4.3,1.6s-3.3-0.5-4.3-1.6c-1-1.1-1.5-2.6-1.5-4.7
		c0-2,0.5-3.6,1.5-4.6c1-1.1,2.4-1.6,4.3-1.6s3.3,0.5,4.3,1.6C107.9,34.6,108.4,36.1,108.4,38.2z M99.5,38.2c0,1.4,0.3,2.4,0.8,3.1
		c0.5,0.7,1.3,1,2.3,1c2.1,0,3.1-1.4,3.1-4.1c0-2.7-1-4.1-3.1-4.1c-1,0-1.8,0.3-2.3,1C99.8,35.8,99.5,36.8,99.5,38.2z"/>
	<path class="st2" d="M121.7,44.3h-3.3l-5.3-9.2h-0.1c0.1,1.6,0.2,2.8,0.2,3.5v5.7h-2.3V32.1h3.3l5.3,9.1h0.1
		c-0.1-1.6-0.1-2.7-0.1-3.4v-5.8h2.3V44.3z"/>
	<path class="st2" d="M131.8,44.3h-2.5V32.1h7v2.1h-4.4v3.1h4.1v2.1h-4.1V44.3z"/>
	<path class="st2" d="M145.6,44.3h-7V32.1h7v2.1h-4.4v2.7h4.1V39h-4.1v3.1h4.4V44.3z"/>
	<path class="st2" d="M155.3,40.9c0,1.1-0.4,2-1.2,2.6c-0.8,0.6-1.9,1-3.3,1c-1.3,0-2.5-0.2-3.5-0.7v-2.4c0.8,0.4,1.5,0.6,2.1,0.8
		c0.6,0.1,1.1,0.2,1.6,0.2c0.6,0,1-0.1,1.3-0.3c0.3-0.2,0.5-0.5,0.5-1c0-0.2-0.1-0.5-0.2-0.6c-0.1-0.2-0.3-0.4-0.6-0.5
		c-0.3-0.2-0.8-0.4-1.6-0.8c-0.7-0.4-1.3-0.7-1.7-1s-0.7-0.7-0.9-1.1s-0.3-0.9-0.3-1.5c0-1.1,0.4-1.9,1.1-2.5c0.7-0.6,1.7-0.9,3-0.9
		c0.6,0,1.2,0.1,1.8,0.2c0.6,0.2,1.2,0.4,1.8,0.6l-0.8,2c-0.6-0.3-1.2-0.5-1.6-0.6s-0.8-0.2-1.3-0.2c-0.5,0-0.9,0.1-1.1,0.3
		c-0.3,0.2-0.4,0.5-0.4,0.9c0,0.2,0.1,0.4,0.2,0.6c0.1,0.2,0.3,0.3,0.5,0.5c0.2,0.2,0.8,0.4,1.6,0.9c1.1,0.5,1.9,1.1,2.3,1.6
		C155.1,39.4,155.3,40.1,155.3,40.9z"/>
	<path class="st2" d="M160.1,39.6v4.7h-2.6V32.1h3.5c1.7,0,2.9,0.3,3.7,0.9c0.8,0.6,1.2,1.5,1.2,2.7c0,0.7-0.2,1.4-0.6,1.9
		c-0.4,0.6-1,1-1.7,1.3c1.8,2.7,3,4.5,3.6,5.3h-2.9l-2.9-4.7H160.1z M160.1,37.5h0.8c0.8,0,1.4-0.1,1.8-0.4c0.4-0.3,0.6-0.7,0.6-1.3
		c0-0.6-0.2-1-0.6-1.2c-0.4-0.2-1-0.4-1.8-0.4h-0.8V37.5z"/>
</g>
</svg>
