<svg xmlns="http://www.w3.org/2000/svg" xmlns:xlink="http://www.w3.org/1999/xlink" width="60" height="60" viewBox="0 0 60 60">
  <defs>
    <clipPath id="clip-path">
      <circle id="Ellisse_78" data-name="Ellisse 78" cx="29" cy="29" r="29" fill="none"/>
    </clipPath>
  </defs>
  <g id="Raggruppa_8018" data-name="Raggruppa 8018" transform="translate(-19 -73)">
    <g id="Ellisse_83" data-name="Ellisse 83" transform="translate(19 73)" fill="#fff" stroke="#006cb4" stroke-width="1">
      <circle cx="30" cy="30" r="30" stroke="none"/>
      <circle cx="30" cy="30" r="29.5" fill="none"/>
    </g>
    <g id="Raggruppa_7781" data-name="Raggruppa 7781">
      <g id="Raggruppa_11" data-name="Raggruppa 11" transform="translate(20 74)" clip-path="url(#clip-path)">
        <ellipse id="Ellisse_79" data-name="Ellisse 79" cx="30.5" cy="31" rx="30.5" ry="31" transform="translate(-1 -4)" fill="none"/>
        <g id="Raggruppa_8016" data-name="Raggruppa 8016" transform="translate(-1216.689 -1542.959)">
          <g id="Raggruppa_8002" data-name="Raggruppa 8002" transform="translate(1217.139 1721.299)">
            <g id="Raggruppa_2024" data-name="Raggruppa 2024" transform="translate(0)">
              <path id="Tracciato_6260" data-name="Tracciato 6260" d="M323.107,619.11c.011,7.708,12.679,13.887,28.294,13.8s28.267-6.4,28.256-14.1-12.677-13.887-28.293-13.8S323.1,611.4,323.107,619.11Z" transform="translate(-323.107 -605.006)" fill="#cddeec"/>
            </g>
          </g>
          <rect id="Rettangolo_146045" data-name="Rettangolo 146045" width="10.758" height="5.379" transform="translate(1246.87 1598.991)" fill="#fff"/>
          <g id="Raggruppa_8020" data-name="Raggruppa 8020" transform="translate(1221.731 1547)">
            <g id="Raggruppa_7891" data-name="Raggruppa 7891" transform="translate(0 121.387)">
              <g id="Raggruppa_2024-2" data-name="Raggruppa 2024" transform="translate(0)">
                <path id="Tracciato_6260-2" data-name="Tracciato 6260" d="M323.107,616.469c.009,6.264,10.3,11.287,23,11.219s22.973-5.2,22.964-11.462-10.3-11.287-22.995-11.219S323.1,610.206,323.107,616.469Z" transform="translate(-323.107 -605.006)" fill="#cddeec"/>
              </g>
            </g>
            <g id="Raggruppa_7894" data-name="Raggruppa 7894" transform="translate(1.362 0)">
              <path id="Tracciato_60317" data-name="Tracciato 60317" d="M291.743,47.849a2.57,2.57,0,0,0,2.2,2.1c.947.1,1.9-.343,2.839-.2,1.189.185,2.18,1.285,3.376,1.151.606-.068,3.983.491,5.057.231,1.074.259,4.451-.3,5.057-.231,1.2.134,2.172-1.143,3.376-1.151,3.2-.021,3.92-1.464,3.788-2.508a2.449,2.449,0,0,1,.217-1.507c.252-.459.6-.855.872-1.3a2.039,2.039,0,0,0,.331-1.494c-.228-.921-1.371-1.409-1.551-2.34a4.481,4.481,0,0,1,.462-1.95,4.442,4.442,0,0,0-.957-3.68c-.773-1.06-1.78-1.93-2.57-2.977a29.527,29.527,0,0,0-2.51-3.533,5.847,5.847,0,0,0-4.826-1.545,2.959,2.959,0,0,0-1.688.6,2.959,2.959,0,0,0-1.688-.6,5.847,5.847,0,0,0-4.826,1.545,29.513,29.513,0,0,0-2.51,3.533c-.791,1.047-1.8,1.917-2.571,2.977a4.446,4.446,0,0,0-.957,3.68,4.46,4.46,0,0,1,.462,1.95c-.179.932-1.322,1.419-1.55,2.34a2.038,2.038,0,0,0,.331,1.494c.269.449.62.846.872,1.3A1.862,1.862,0,0,1,293,47.243.978.978,0,0,1,291.743,47.849Z" transform="translate(-281.949 -26.858)" fill="#3a2a23"/>
              <g id="Raggruppa_7881" data-name="Raggruppa 7881" transform="translate(10.171 19.222)">
                <path id="Tracciato_60318" data-name="Tracciato 60318" d="M311.979,81.957H298.85c-.041-4-2.43-9.831-2.43-9.831s-4.233-4.9-4.091-5.693a7.967,7.967,0,0,1,1.227-3.594c2.372-2.43,6.91-1.435,8.482-3.006s.811-6.956.811-6.956h5.128s-.76,5.384.812,6.956,6.11.576,8.482,3.006a7.712,7.712,0,0,1,1.206,3.473c.123.674-4.069,5.814-4.069,5.814S312.021,77.953,311.979,81.957Z" transform="translate(-292.326 -52.877)" fill="#f9af7d"/>
                <path id="Tracciato_60319" data-name="Tracciato 60319" d="M314.975,72.151a5.692,5.692,0,0,0,.564,2.8c.038.072.08.144.124.214-.137.341-.774,1.962-1.359,3.968a12.411,12.411,0,0,1-6.972-1.492H306.06a12.412,12.412,0,0,1-6.972,1.492c-.584-2.006-1.221-3.627-1.358-3.968.043-.069.085-.141.123-.214a5.69,5.69,0,0,0,.564-2.8c-.054-2.583-.865-5.146-1.183-7.7.219-.067.44-.126.664-.179a11.22,11.22,0,0,0,1.95,5.634c1.138,1.323,2.747,2.132,4.093,3.242a5.491,5.491,0,0,1,2.2,3.711h1.109a5.493,5.493,0,0,1,2.2-3.711c1.346-1.11,2.956-1.919,4.093-3.242a11.212,11.212,0,0,0,1.95-5.634c.224.052.446.112.665.179C315.841,67.006,315.029,69.568,314.975,72.151Z" transform="translate(-293.608 -55.853)"/>
                <path id="Tracciato_60320" data-name="Tracciato 60320" d="M299.313,92.274V92.24h13.129v.034c0,4.006,5.219,7.826,5.219,18.165s-4.811,22.182-4.779,24.572,1.451,5.829,1.459,9.969c.007,3.026-3.663,20.641-3.65,22.4a33.467,33.467,0,0,1,.892,3.728c.133,2.143-.4,2.917-.152,5.153.3,2.678.9,3.957.152,3.957h-4.672c-.985,0,.128-1.378.487-3.5a52.885,52.885,0,0,0,.847-9.745c-.176-4.033-.8-18.979-.728-23.171.061-3.773,1.611-5.541.734-10.214-.461-2.455-1.248-23.149-1.248-23.149h-2.249s-.787,20.694-1.248,23.149c-.877,4.673.672,6.441.734,10.214.068,4.192-.552,19.138-.728,23.171a52.864,52.864,0,0,0,.847,9.745c.359,2.122,1.472,3.5.487,3.5h-4.672c-.743,0-.148-1.279.152-3.957.252-2.236-.285-3.01-.152-5.153a33.5,33.5,0,0,1,.892-3.728c.013-1.76-3.657-19.375-3.65-22.4.009-4.14,1.427-7.58,1.459-9.969s-4.778-14.234-4.778-24.572S299.313,96.28,299.313,92.274Z" transform="translate(-292.788 -63.16)" fill="#f9af7d"/>
                <path id="Tracciato_60321" data-name="Tracciato 60321" d="M295.28,106.892a103.944,103.944,0,0,0,21.522,0c.211.714.4,1.474.555,2.286l-10.191,5.089h-2.249l-10.192-5.089C294.881,108.366,295.069,107.606,295.28,106.892Z" transform="translate(-292.953 -66.988)"/>
              </g>
              <g id="Raggruppa_7882" data-name="Raggruppa 7882" transform="translate(17.197 127.331)">
                <path id="Tracciato_60322" data-name="Tracciato 60322" d="M306.38,204.663c.359,2.122,1.471,3.5.487,3.5H302.2c-.743,0-.148-1.279.152-3.957.245-2.176-.252-2.977-.157-4.993h3.491C305.834,200.985,306.079,202.889,306.38,204.663Z" transform="translate(-301.836 -199.214)"/>
                <path id="Tracciato_60323" data-name="Tracciato 60323" d="M315.971,208.163H311.3c-.985,0,.128-1.378.487-3.5.3-1.775.546-3.678.7-5.449h3.491c.1,2.016-.4,2.817-.157,4.993C316.12,206.885,316.714,208.163,315.971,208.163Z" transform="translate(-304.205 -199.214)"/>
              </g>
              <g id="Raggruppa_7883" data-name="Raggruppa 7883" transform="translate(10.739 49.318)">
                <path id="Tracciato_60324" data-name="Tracciato 60324" d="M314.078,145.959c.007,3.026-2.356,22.07-2.356,32.271h-4.943s.407-29.257.475-33.448c.061-3.773-.514-33.363-.514-33.363h-2.249s-.576,29.59-.514,33.363c.068,4.192.475,33.448.475,33.448h-5.1c0-11.316-2.2-29.245-2.194-32.271.009-4.14-4.058-24.2-4.058-34.541,0-8.006,3.868-12.1,5.28-15.405l14.471-.024c1.407,3.306,5.29,7.4,5.29,15.43C318.136,121.756,314.069,141.819,314.078,145.959Z" transform="translate(-293.095 -94.235)" fill="#2f3030"/>
                <rect id="Rettangolo_146042" data-name="Rettangolo 146042" width="14.703" height="1.987" transform="translate(19.881 1.987) rotate(180)" fill="#2f3030"/>
              </g>
              <g id="Raggruppa_7884" data-name="Raggruppa 7884" transform="translate(10.634 23.956)">
                <path id="Tracciato_60325" data-name="Tracciato 60325" d="M296.8,86.321c.69-3.191-.359-7.455-1.391-12.695-.539-2.736,0-9.77,0-9.77l6.637-1.321,3.556,1.321,3.556-1.321,6.637,1.321s.539,7.034,0,9.77c-1.032,5.24-2.082,9.5-1.392,12.695.719,3.323,4.325,4.521,3.8,16.679-3.824,0-8.6,2.182-12.6,2.182S296.828,103,293,103C292.479,90.842,296.085,89.644,296.8,86.321Z" transform="translate(-292.953 -60.134)" fill="#fff"/>
                <path id="Tracciato_60326" data-name="Tracciato 60326" d="M309.388,63.64s-.662-1.506-.909-1.875-1.045,1.188-1.045,1.188Z" transform="translate(-296.736 -59.918)" fill="#d3dce0"/>
                <path id="Tracciato_60327" data-name="Tracciato 60327" d="M310.079,63.64s.663-1.506.909-1.875,1.045,1.188,1.045,1.188Z" transform="translate(-297.427 -59.918)" fill="#d3dce0"/>
                <path id="Tracciato_60328" data-name="Tracciato 60328" d="M306.762,63.028l.555-.488c1.7,1.93,3.958.167,4.054.091l.462.577a4.665,4.665,0,0,1-1.949.9,18.052,18.052,0,0,1,.51,3.149,16.313,16.313,0,0,0,.655,3.7l-.686.274a16.615,16.615,0,0,1-.7-3.894,16.912,16.912,0,0,0-.5-3.078,23.088,23.088,0,0,0-.472,3.333,26.024,26.024,0,0,1-.584,3.983l-.711-.2a25.545,25.545,0,0,0,.559-3.854,23.228,23.228,0,0,1,.489-3.432A3.228,3.228,0,0,1,306.762,63.028Z" transform="translate(-296.56 -60.135)" fill="#366bc1"/>
                <path id="Tracciato_60329" data-name="Tracciato 60329" d="M311.309,61.132c.247-.369,1.626-1.232,1.626-1.847a18.958,18.958,0,0,0,1.576,2.524,20.5,20.5,0,0,1-1.416,2.893S311.8,61.339,311.309,61.132Z" transform="translate(-297.748 -59.285)" fill="#f0f2f2"/>
                <path id="Tracciato_60330" data-name="Tracciato 60330" d="M307.717,61.132c-.246-.369-1.626-1.232-1.626-1.847a18.943,18.943,0,0,1-1.575,2.524,20.4,20.4,0,0,0,1.416,2.893S307.227,61.339,307.717,61.132Z" transform="translate(-295.973 -59.285)" fill="#f0f2f2"/>
              </g>
              <g id="Raggruppa_7885" data-name="Raggruppa 7885" transform="translate(0 25.298)">
                <path id="Tracciato_60331" data-name="Tracciato 60331" d="M296.527,62.975c-4.244.833-4.812.038-5.419.568C289.557,64.9,278.825,81.7,278.566,83.216s5.822,12.532,5.822,12.532l3.445-1.992-3.644-10.541s5.363-6.695,7.292-8.674c.363,3.761,1.687,8.872.96,11.961-.65,2.758-3.728,6.859-3.281,13.121,2.684.448,6.355.677,6.355.677l6.292-12.937s-3.178-11.58-4.1-15.7A51.841,51.841,0,0,1,296.527,62.975Z" transform="translate(-278.558 -61.591)" fill="#2f3030"/>
                <path id="Tracciato_60332" data-name="Tracciato 60332" d="M315.409,62.883s4.255,1.126,6.255.972c1.025-.079-.414,7.235-1.207,10.663-.364,3.761-1.688,8.872-.96,11.961.65,2.758,3.728,6.859,3.28,13.121-2.684.448-6.355.677-6.355.677L310.131,87.34s3.178-11.58,4.1-15.7A62.857,62.857,0,0,0,315.409,62.883Z" transform="translate(-286.806 -61.567)" fill="#2f3030"/>
                <path id="Tracciato_60333" data-name="Tracciato 60333" d="M318.625,68.074l-2.467-.225,2.377-1.391-2.575-3.777L313.382,61.1s2.1,3.44.59,10.032c-.989,4.319-3.841,15.741-3.841,15.741Z" transform="translate(-286.806 -61.102)" fill="#363838"/>
                <path id="Tracciato_60334" data-name="Tracciato 60334" d="M298.53,68.074,301,67.848l-2.378-1.391,2.575-3.777,2.578-1.579s-2.1,3.44-.59,10.032c.989,4.319,3.841,15.741,3.841,15.741Z" transform="translate(-283.776 -61.102)" fill="#363838"/>
                <path id="Tracciato_60335" data-name="Tracciato 60335" d="M309.5,96.587a2.872,2.872,0,0,0,1.5-.349.369.369,0,0,0-.4-.62,3.093,3.093,0,0,1-2.551-.038.369.369,0,1,0-.242.7A5.172,5.172,0,0,0,309.5,96.587Z" transform="translate(-286.133 -70.103)" fill="#282828"/>
              </g>
              <g id="Raggruppa_7886" data-name="Raggruppa 7886" transform="translate(7.129 54.645)">
                <path id="Tracciato_60336" data-name="Tracciato 60336" d="M290.115,104.627a.86.86,0,0,0,.849.278,1.272,1.272,0,0,0,.513-.4c.887-.976,1.834-.253,1.42,1.084a6.073,6.073,0,0,1-1.266,1.834c-.6.562-1.953-.031-2.519-.624-.258-.271-.57-.645-.9-1.071Z" transform="translate(-288.208 -101.67)" fill="#fcbd8d"/>
                <path id="Tracciato_60337" data-name="Tracciato 60337" d="M293.892,105.5a3.188,3.188,0,0,1-.9.092c-.3-.035-.606-.23-.611-.491-.006-.284.324-.488.425-.759.125-.334-.111-.736.1-1.034.169-.235.561-.31.7-.56.112-.206.03-.5.245-.633.181-.112.248-.051.452-.129.3-.115.139-.669.314-.906.189-.256.526-.307,1.059-.2,1,.207,2.258.526,2.346.972.058.292-.915.063-1.631-.055a1.684,1.684,0,0,0-1.492.2,8.892,8.892,0,0,1,4.212,1.327c.425.214-.193.543-1.126.244s-2.606-.742-3.7-.26a7.387,7.387,0,0,1,3.793,1.09,1.89,1.89,0,0,1,.531.414c.137.17-.476.362-.786.249-1.242-.451-2.19-1.034-3.9-.655a5.217,5.217,0,0,1,3.026.94c.391.259-.248.516-.867.267A2.81,2.81,0,0,0,293.892,105.5Z" transform="translate(-289.298 -100.825)" fill="#fcbd8d"/>
              </g>
              <g id="Raggruppa_7887" data-name="Raggruppa 7887" transform="translate(24.98 28.086)">
                <path id="Tracciato_60338" data-name="Tracciato 60338" d="M323.188,124.2l1.921.254c.115.015-.661,2.164-1.233,1.752S323.2,124.614,323.188,124.2Z" transform="translate(-315.197 -80.374)" fill="#fcbd8d"/>
                <rect id="Rettangolo_146043" data-name="Rettangolo 146043" width="14.09" height="18.92" transform="matrix(0.117, -0.993, 0.993, 0.117, 0, 43.427)" fill="#366bc1"/>
                <path id="Tracciato_60339" data-name="Tracciato 60339" d="M327.768,117.8c.829-3.815-.379-4.654-.417-5.6-.018-.465,2.391-15.374,1.985-17.43-.294-1.483-4.17.277-4.17.277s-.224,15.959-.488,16.819-1.189,1.6-1.473,2.5c-.581,1.84-1.405,3.106-.754,3.092,1.571-.032,1.517-2.223,1.781-1.819a24.3,24.3,0,0,1-.674,2.48C323.272,118.991,327.567,118.729,327.768,117.8Z" transform="translate(-314.942 -72.529)" fill="#fcbd8d"/>
                <path id="Tracciato_60340" data-name="Tracciato 60340" d="M323.14,77.419l2.233,9.974-.813,16.438,4.117.378,2-18.1S328.463,74.959,326.605,69c-.59-1.888-.867-2.971-1.288-4.127C323.845,64.875,322.582,74.923,323.14,77.419Z" transform="translate(-315.15 -64.875)" fill="#2f3030"/>
              </g>
              <g id="Raggruppa_7889" data-name="Raggruppa 7889" transform="translate(12.787 1.791)">
                <g id="Raggruppa_7888" data-name="Raggruppa 7888" transform="translate(0.742 10.127)">
                  <path id="Tracciato_60341" data-name="Tracciato 60341" d="M296.955,45.626c.284,1.384,1.6,2.66,2.7,2.441s.123-4.72-1.028-5.014C297.07,42.656,296.671,44.242,296.955,45.626Z" transform="translate(-296.87 -42.991)" fill="#ffc088"/>
                  <path id="Tracciato_60342" data-name="Tracciato 60342" d="M297.665,45.548c.2.983,1.138,1.89,1.916,1.734s.087-3.353-.731-3.562C297.747,43.437,297.463,44.564,297.665,45.548Z" transform="translate(-297.062 -43.17)" fill="#f9a764"/>
                  <path id="Tracciato_60343" data-name="Tracciato 60343" d="M322.052,45.626c-.284,1.384-1.6,2.66-2.7,2.441s-.123-4.72,1.028-5.014C321.937,42.656,322.336,44.242,322.052,45.626Z" transform="translate(-302.62 -42.991)" fill="#ffc088"/>
                  <path id="Tracciato_60344" data-name="Tracciato 60344" d="M321.676,45.548c-.2.983-1.137,1.89-1.915,1.734s-.087-3.353.731-3.562C321.594,43.437,321.878,44.564,321.676,45.548Z" transform="translate(-302.762 -43.17)" fill="#f9a764"/>
                </g>
                <path id="Tracciato_60345" data-name="Tracciato 60345" d="M298.667,40.141c0,5.959,4.581,11.756,8.432,11.756s8.432-5.8,8.432-11.756-3.775-9.252-8.432-9.252S298.667,34.183,298.667,40.141Z" transform="translate(-296.598 -29.702)" fill="#f6be8f"/>
                <path id="Tracciato_60346" data-name="Tracciato 60346" d="M305.558,29.312a12.169,12.169,0,0,0-7.163,3.386,7.613,7.613,0,0,0-2.357,3.565,7.985,7.985,0,0,0-.069,2.948,20.068,20.068,0,0,0,1.678,5.872,19.5,19.5,0,0,1,1-3.734,6.943,6.943,0,0,1,2.287-3.061c1.215-.864,2.812-1.219,3.759-2.37.5-.6.794-1.4,1.465-1.8a4.426,4.426,0,0,1,2.336-.27c.807.006,4.707-.646,4.025-1.895-.709-1.3-2.845-2.119-4.186-2.432A9.033,9.033,0,0,0,305.558,29.312Z" transform="translate(-295.866 -29.283)" fill="#3a2a23"/>
                <path id="Tracciato_60347" data-name="Tracciato 60347" d="M319.167,37.445a5.58,5.58,0,0,1,1.307,2.923l.142-.01a14.265,14.265,0,0,0,.177-4.144c-.191-.789-1.263-3.471-2.385-3.251C316.975,33.243,317.6,36.172,319.167,37.445Z" transform="translate(-301.545 -30.241)" fill="#3a2a23"/>
                <path id="Tracciato_60348" data-name="Tracciato 60348" d="M309.944,36c-1.159.222-2.521-.224-3.428.531-.7.585-.861,1.653-1.577,2.222a5.229,5.229,0,0,1-2.33.646A4.666,4.666,0,0,0,299.5,41.64a4.409,4.409,0,0,0-.229,3.815,13.1,13.1,0,0,0,1.178,1.931,4.127,4.127,0,0,1,.785,2.093,1.822,1.822,0,0,1-1.114,1.8,1.188,1.188,0,0,1-1.546-1.111c.417.341,1.081-.151,1.112-.689a2.488,2.488,0,0,0-.62-1.458,8.693,8.693,0,0,1-1.743-5.234,4.832,4.832,0,0,1,2.986-4.365c1.018-.346,2.217-.287,3.041-.978,1.083-.91,1.368-2.433,2.6-3.126,2.585-1.451,3.176.893,7.158-1.345C312.51,34.17,312.312,35.542,309.944,36Z" transform="translate(-296.244 -30.245)" fill="#47342d"/>
                <path id="Tracciato_60349" data-name="Tracciato 60349" d="M298.812,43.721v1.687a5.387,5.387,0,0,0,2.744,1.89,4.355,4.355,0,0,0,3.659-.4c1.082-.742,1.066-1.808,1.921-1.76.855-.048.838,1.019,1.921,1.76a4.355,4.355,0,0,0,3.659.4,5.388,5.388,0,0,0,2.745-1.89V43.721c-4.883-1.395-6.682.562-8.324.63C305.494,44.283,303.694,42.326,298.812,43.721Zm10.386.354c1.565-.641,4.444-.853,5.322-.06.68.615.182,1.893-1.038,2.643a4.309,4.309,0,0,1-3.926.231C308.091,46.24,307.883,44.614,309.2,44.075Zm-9.446-.06c.878-.793,3.757-.581,5.322.06,1.315.539,1.107,2.165-.358,2.813a4.308,4.308,0,0,1-3.926-.231C299.571,45.909,299.072,44.631,299.752,44.015Z" transform="translate(-296.636 -32.924)"/>
              </g>
            </g>
          </g>
        </g>
      </g>
    </g>
  </g>
</svg>
