<svg xmlns="http://www.w3.org/2000/svg" xmlns:xlink="http://www.w3.org/1999/xlink" width="60" height="60" viewBox="0 0 60 60">
  <defs>
    <clipPath id="clip-path">
      <circle id="Ellisse_78" data-name="Ellisse 78" cx="29" cy="29" r="29" fill="none"/>
    </clipPath>
  </defs>
  <g id="Raggruppa_8010" data-name="Raggruppa 8010" transform="translate(-19 -73)">
    <g id="Ellisse_83" data-name="Ellisse 83" transform="translate(19 73)" fill="#fff" stroke="#006cb4" stroke-width="1">
      <circle cx="30" cy="30" r="30" stroke="none"/>
      <circle cx="30" cy="30" r="29.5" fill="none"/>
    </g>
    <g id="Raggruppa_7781" data-name="Raggruppa 7781">
      <g id="Raggruppa_11" data-name="Raggruppa 11" transform="translate(20 74)" clip-path="url(#clip-path)">
        <ellipse id="Ellisse_79" data-name="Ellisse 79" cx="30.5" cy="31" rx="30.5" ry="31" transform="translate(-1 -4)" fill="none"/>
        <g id="Raggruppa_8008" data-name="Raggruppa 8008" transform="translate(-1200.447 -248.635)">
          <g id="Raggruppa_7895" data-name="Raggruppa 7895" transform="translate(1209.822 365.133)">
            <g id="Raggruppa_2024" data-name="Raggruppa 2024" transform="translate(0)">
              <path id="Tracciato_6260" data-name="Tracciato 6260" d="M323.107,615.132c.008,5.534,9.1,9.971,20.314,9.91s20.294-4.593,20.286-10.125-9.1-9.97-20.313-9.91S323.1,609.6,323.107,615.132Z" transform="translate(-323.107 -605.006)" fill="#cddeec"/>
            </g>
          </g>
          <g id="Raggruppa_8012" data-name="Raggruppa 8012" transform="translate(-0.375 -719.846)">
            <g id="Raggruppa_7899" data-name="Raggruppa 7899" transform="translate(1209.892 1086.135)">
              <g id="Raggruppa_2024-2" data-name="Raggruppa 2024" transform="translate(0)">
                <path id="Tracciato_6260-2" data-name="Tracciato 6260" d="M323.107,615.23c.008,5.588,9.191,10.068,20.512,10.007s20.492-4.638,20.484-10.224-9.19-10.068-20.511-10.007S323.1,609.645,323.107,615.23Z" transform="translate(-323.107 -605.006)" fill="#cddeec"/>
              </g>
            </g>
            <g id="Raggruppa_7898" data-name="Raggruppa 7898" transform="translate(1202.601 972)">
              <g id="Raggruppa_2353" data-name="Raggruppa 2353" transform="translate(1.747 19.888)">
                <path id="Tracciato_6614" data-name="Tracciato 6614" d="M1290.181,641.629a67.769,67.769,0,0,1-.564,7.6l.1-.767c-.825,6.063-2.7,11.879-4.565,17.684q-.183.566-.413,1.114l.291-.689a31.2,31.2,0,0,1-1.584,3.115c-1.111,1.974-2.3,3.906-3.489,5.832q-1.58,2.55-3.19,5.08a2.911,2.911,0,0,0,1.035,3.948,2.947,2.947,0,0,0,3.948-1.035c1.859-2.931,3.712-5.867,5.483-8.851.87-1.465,1.74-2.941,2.468-4.482a39.342,39.342,0,0,0,1.8-4.966c1.051-3.3,2.085-6.615,2.842-10a68.574,68.574,0,0,0,1.6-13.58,2.886,2.886,0,1,0-5.771,0Z" transform="translate(-1276.381 -638.741)" fill="#d9eaff"/>
              </g>
              <rect id="Rettangolo_2491" data-name="Rettangolo 2491" width="6.817" height="9.61" rx="3.408" transform="translate(6.422 69.345) rotate(-160.402)" fill="#f6be8f"/>
              <path id="Tracciato_6615" data-name="Tracciato 6615" d="M1321.318,752.887l16.2,6.008V731.708l-16.2-6.008Z" transform="translate(-1302.281 -672.354)" fill="#86a3bf"/>
              <path id="Tracciato_6616" data-name="Tracciato 6616" d="M1343.236,640.535l-10.8-2.675,1.567-5.31c3.254-.061,5.544.977,8.285,2.838Z" transform="translate(-1309.119 -615.042)" fill="#2b337c"/>
              <path id="Tracciato_6617" data-name="Tracciato 6617" d="M1362.159,908.4a22.278,22.278,0,0,0,1.331-3.663,13.231,13.231,0,0,0,.144-1.8c-.052-.878.084-1.4-1.884-2.615-3.218-1.985-6.249,8.891-6.249,8.891l-.214,2.645a1.415,1.415,0,0,0,.71,1.25l.233.076a2.858,2.858,0,0,0,3.145-.757A10.8,10.8,0,0,0,1362.159,908.4Z" transform="translate(-1323.175 -779.637)" fill="#6ca4ff"/>
              <path id="Tracciato_6618" data-name="Tracciato 6618" d="M1362.445,905.224c.068-.157,3.023-6.666.148-7.828-2.533-1.024-3.808,1.484-4.836,4.156-.3.788-1.036,2.477-1.331,3.034a10.862,10.862,0,0,0-.566,2.193l.005,2.088c-.067.462.545.054.969.318l.361-1.853c.82.511,1.5,2.825,2.182,2.057C1360.554,908.071,1361.3,907.864,1362.445,905.224Z" transform="translate(-1323.533 -777.845)" fill="#21275e"/>
              <g id="Raggruppa_2354" data-name="Raggruppa 2354" transform="translate(30.941 60.849)">
                <path id="Tracciato_6619" data-name="Tracciato 6619" d="M1354.806,747.638c-3.24,9.947-2.781,21-1.922,31.291.4,4.768.974,9.518,1.554,14.266a71.794,71.794,0,0,1,.867,9.368c-.048,4.523,6.979,4.527,7.027,0a68.685,68.685,0,0,0-.817-8.953c-.574-4.711-1.152-9.421-1.559-14.15-.848-9.846-1.478-20.42,1.627-29.954,1.4-4.31-5.38-6.156-6.776-1.868Z" transform="translate(-1352.257 -745.201)" fill="#a8c4e5"/>
              </g>
              <g id="Raggruppa_2355" data-name="Raggruppa 2355" transform="translate(14.449 59.216)">
                <path id="Tracciato_6620" data-name="Tracciato 6620" d="M1313.078,743.442a110.338,110.338,0,0,0-3,18.272c-.362,3.6-.926,7.188-.567,10.795.7,6.993,1.984,14.095,1.934,21.135-.032,4.522,6.994,4.527,7.027,0,.049-6.939-1.207-13.946-1.9-20.837a52.141,52.141,0,0,1,.472-10.433,101.519,101.519,0,0,1,2.816-17.063c1.2-4.366-5.575-6.23-6.776-1.868Z" transform="translate(-1309.395 -740.958)" fill="#a8c4e5"/>
              </g>
              <g id="Raggruppa_2356" data-name="Raggruppa 2356" transform="translate(34.727 117.669)">
                <path id="Tracciato_6621" data-name="Tracciato 6621" d="M1362.1,893.484c1.507,1.281,4.592,1.06,5.73-.6.031.908.046,1.815.037,2.722-.04,3.693-5.788,3.784-5.747.077C1362.125,894.947,1362.116,894.216,1362.1,893.484Z" transform="translate(-1362.098 -892.88)" fill="#21275e"/>
              </g>
              <path id="Tracciato_6622" data-name="Tracciato 6622" d="M1322.534,748.145h0c.649.727-2.139-2.81-1.3-2.306,1.738,1.05,11.493,7.678,13.523,7.711,2.452.041,1.023-2.329,2.848-3.968,1.732-1.554,2.14-4.078,2.308-6.4a4.021,4.021,0,0,0-.177-1.9,4.1,4.1,0,0,0-1.4-1.508c-4.334-3.28-12.858-11.4-18.913-8.8C1312.419,733.972,1319.429,744.664,1322.534,748.145Z" transform="translate(-1299.263 -675.288)" fill="#a8c4e5"/>
              <path id="Tracciato_6623" data-name="Tracciato 6623" d="M1317.331,637.377c-1.283,1.654-1.131,2.677-1.07,4.935a5.045,5.045,0,0,0,3.683,4.716l21.722,6.092s1.249-8.357-3.036-10.873c-2.308-1.355-5.889-3.523-8.7-5.235C1325.8,634.5,1320.295,633.555,1317.331,637.377Z" transform="translate(-1299.146 -616.437)" fill="#fff"/>
              <path id="Tracciato_6624" data-name="Tracciato 6624" d="M1316.126,683.676c.644.836,1.465-22.6.19-37.429l24.453,11.634c-.123,11.174-1.535,19.992-.2,33.609Z" transform="translate(-1299.087 -623.471)" fill="#fff"/>
              <path id="Tracciato_6625" data-name="Tracciato 6625" d="M1332.4,748.672c-6.041-2.2-11.8-4.616-15.177-8.762-1.661-.959-1.451-2.649.467-3.756h0a7.258,7.258,0,0,1,6.505-.27l15.177,8.763c1.66.959,1.45,2.649-.467,3.756h0A7.258,7.258,0,0,1,1332.4,748.672Z" transform="translate(-1299.073 -678.222)" fill="#fff"/>
              <path id="Tracciato_6626" data-name="Tracciato 6626" d="M1366.155,890.984l.063,2.546a.529.529,0,0,1-.087.306,4.641,4.641,0,0,1-4.55,2,10.391,10.391,0,0,1-4.278-1.33.528.528,0,0,1-.242-.471l.109-2.6a.53.53,0,0,1,.772-.454,7.263,7.263,0,0,0,7.4-.436A.533.533,0,0,1,1366.155,890.984Z" transform="translate(-1324.271 -773.727)" fill="#d9eaff"/>
              <g id="Raggruppa_2357" data-name="Raggruppa 2357" transform="translate(8.819 113.312)">
                <path id="Tracciato_6627" data-name="Tracciato 6627" d="M1303.213,891.811c.157-.068,1.7-1.305,1.846-1.369.225-.1,2.427-1.188,2.776-1.379.734-.4,2.527-.668,1.615-3.033-1.334-3.46-10.538,2.007-10.538,2.007l-3.081,2.383a1.038,1.038,0,0,0-.363,1.185h0a2.329,2.329,0,0,0,2.42,1.338A13.353,13.353,0,0,0,1303.213,891.811Z" transform="translate(-1295.161 -883.602)" fill="#6ca4ff"/>
                <path id="Tracciato_6628" data-name="Tracciato 6628" d="M1302.563,888.659c.157-.068,1.7-1.305,1.846-1.369.224-.1,2.893-1.164,3.242-1.355.735-.4,2.471-.9,1.56-3.261-1.333-3.46-10.948,2.21-10.948,2.21l-3.081,2.384a1.038,1.038,0,0,0-.363,1.185h0a2.329,2.329,0,0,0,2.42,1.338A13.345,13.345,0,0,0,1302.563,888.659Z" transform="translate(-1294.761 -881.555)" fill="#21275e"/>
                <path id="Tracciato_6629" data-name="Tracciato 6629" d="M1299.005,896.96c-.462.036-1.322.049-1.871.114a2.2,2.2,0,0,1-2.316-1.347,1.039,1.039,0,0,1,.363-1.185l1.5-1.164C1297.913,893.653,1298.686,894.934,1299.005,896.96Z" transform="translate(-1294.761 -888.829)" fill="#21275e"/>
                <path id="Tracciato_6630" data-name="Tracciato 6630" d="M1360.693,923.486c-.285.366-.855,1.01-1.176,1.459a2.742,2.742,0,0,1-2.872.952,1.4,1.4,0,0,1-.852-1.184l-.042-1.865C1356.782,922.125,1358.981,922.357,1360.693,923.486Z" transform="translate(-1332.285 -906.706)" fill="#21275e"/>
              </g>
              <g id="Raggruppa_2358" data-name="Raggruppa 2358" transform="translate(17.374 110.682)">
                <path id="Tracciato_6631" data-name="Tracciato 6631" d="M1317.007,875.188c1.49,1.155,4.577,1,5.737-.469.019.807.023,1.613,0,2.417-.089,3.28-5.837,3.292-5.748,0C1317.014,876.488,1317.016,875.838,1317.007,875.188Z" transform="translate(-1316.995 -874.719)" fill="#21275e"/>
              </g>
              <path id="Tracciato_6632" data-name="Tracciato 6632" d="M1321.085,872.354l-.063,2.545a.528.528,0,0,1-.1.3,4.643,4.643,0,0,1-4.644,1.775,10.385,10.385,0,0,1-4.207-1.54.528.528,0,0,1-.219-.482l.237-2.591a.531.531,0,0,1,.794-.415,7.264,7.264,0,0,0,7.409-.069A.533.533,0,0,1,1321.085,872.354Z" transform="translate(-1296.455 -762.248)" fill="#d9eaff"/>
              <path id="Tracciato_6633" data-name="Tracciato 6633" d="M1338.38,631.14l-2.487-9.178,6.3,1.746,2.023,7.495C1344.656,632.424,1340.207,635.82,1338.38,631.14Z" transform="translate(-1311.248 -608.53)" fill="#ffaa82"/>
              <path id="Tracciato_6634" data-name="Tracciato 6634" d="M1340.586,648.225a3.142,3.142,0,0,0,1.47.119l2.5,4.239-.129.139a.894.894,0,0,1-1.4-.088Z" transform="translate(-1314.136 -624.688)" fill="#3165af"/>
              <path id="Tracciato_6636" data-name="Tracciato 6636" d="M1336.331,641.018s-2.661-.01-3.158-4.641l-1.772-.247c-.245.194-.756.063-.995,1.612a7.044,7.044,0,0,0,.147,2.768l.658,2.639a.9.9,0,0,0,1.371.51Z" transform="translate(-1307.826 -617.247)" fill="#6ca4ff"/>
              <path id="Tracciato_6638" data-name="Tracciato 6638" d="M1342.367,643.14s3.031,1.043,6.029-3.212l1.972,2.451c.174.376.2.421-.11.752l-3.98,4.318a1.031,1.031,0,0,1-1.632-.11Z" transform="translate(-1315.231 -619.583)" fill="#6ca4ff"/>
              <path id="Tracciato_6640" data-name="Tracciato 6640" d="M1340.84,638.918s2.585-1.323,2.595-1.348a6.82,6.82,0,0,1-2.167,2.615Z" transform="translate(-1314.292 -618.133)" fill="#ea8a6c"/>
              <path id="Tracciato_6641" data-name="Tracciato 6641" d="M1342.342,709.394c1.971.9,4.067,1.7,6.2,2.483a7.257,7.257,0,0,0,6.505-.27h0a2.627,2.627,0,0,0,1.586-2.182l.067.021c-1.338-13.617.073-22.435.2-33.609l-.851-.405C1355.578,688.4,1353.486,708.891,1342.342,709.394Z" transform="translate(-1315.216 -641.427)" fill="#366bc1"/>
              <path id="Tracciato_6642" data-name="Tracciato 6642" d="M1351.952,645.27l-3.443,5.108c-1.433,1.789-2.048,8.776-2.016,10.967l-1.036,52.24s15.129.811,14.47-6.505c-1.887-20.961,2.556-53.647-1.113-57.132C1354.574,645.92,1351.952,645.27,1351.952,645.27Z" transform="translate(-1317.132 -622.87)" fill="#d9eaff"/>
              <g id="Raggruppa_2359" data-name="Raggruppa 2359" transform="translate(36.776 26.412)">
                <path id="Tracciato_6643" data-name="Tracciato 6643" d="M1368.242,660.616c1.453,1.643,2.966,3.232,4.344,4.941.165.2.832,1.091.19.232.17.228.343.454.51.684q.527.726,1.011,1.481a23.009,23.009,0,0,1,1.779,3.354l-.291-.689a18.181,18.181,0,0,1,1.244,4.492l-.1-.767a25.742,25.742,0,0,1,.088,4.494c-.06,1.351-.164,2.7-.343,4.04l.1-.767a23.118,23.118,0,0,1-1.487,5.767l.291-.69a17.83,17.83,0,0,1-1.128,2.226q-.318.53-.672,1.038-.187.269-.384.533c-.131.175-.44.539.182-.232-.07.087-.139.176-.209.263a31.794,31.794,0,0,1-4.113,4.125,2.9,2.9,0,0,0,0,4.081,2.959,2.959,0,0,0,4.081,0,29.447,29.447,0,0,0,5.93-6.621,21.773,21.773,0,0,0,2.883-7.729,45.027,45.027,0,0,0,.6-5.229,28.466,28.466,0,0,0-.037-5.226,20.406,20.406,0,0,0-1.357-5.333,26.247,26.247,0,0,0-2.51-4.712,79.255,79.255,0,0,0-6.516-7.838,2.9,2.9,0,0,0-4.081,0,2.954,2.954,0,0,0,0,4.081Z" transform="translate(-1367.424 -655.697)" fill="#d9eaff"/>
              </g>
              <path id="Tracciato_6644" data-name="Tracciato 6644" d="M1364.541,759.98h0a2.613,2.613,0,0,1,.7-3.618l4.112-2.776a2.614,2.614,0,0,1,3.618.7h0a2.613,2.613,0,0,1-.7,3.618l-4.112,2.776A2.614,2.614,0,0,1,1364.541,759.98Z" transform="translate(-1328.601 -689.238)" fill="#f6be8f"/>
              <path id="Tracciato_6645" data-name="Tracciato 6645" d="M1314.927,646.409l1.9-8.955s-1.456-2.454-4.576-.7c-4.737,2.654-1.589,36.053-1.706,41.9s-4.166,15.084-3.376,21.971c0,0,1.277,2.154,5.082,2.453,0,0-.69-16.315.57-27.112S1314.927,646.409,1314.927,646.409Z" transform="translate(-1293.511 -617.241)" fill="#d9eaff"/>
              <path id="Tracciato_6658" data-name="Tracciato 6658" d="M5.016,0H6.808a5.017,5.017,0,0,1,5.017,5.017v9.11a5.017,5.017,0,0,1-5.017,5.017H5.017A5.017,5.017,0,0,1,0,14.127V5.016A5.016,5.016,0,0,1,5.016,0Z" transform="translate(19.311 1.87) rotate(-1.913)" fill="#f6be8f"/>
              <path id="Tracciato_6656" data-name="Tracciato 6656" d="M1326.39,595.474a8.124,8.124,0,0,1-6.275.573c-2.254-.87-3.846-4.035-2.078-5.681.956-.89,3.406-1.692,5.443-2.519,5.777-2.344,12.04.617,12.259,7.213,0,0,.431,7.313-3.315,9.751a1.169,1.169,0,0,1-1.757-.7h0s1.9-2.694-1.328-4.643a2.693,2.693,0,0,1-.851-2.565A1.48,1.48,0,0,0,1326.39,595.474Z" transform="translate(-1299.797 -587.051)" fill="#50215e"/>
              <path id="Tracciato_6657" data-name="Tracciato 6657" d="M1353.124,621.964a1.2,1.2,0,0,1-2.053-.515,2.884,2.884,0,0,1,.856-2.934,1.2,1.2,0,0,1,2.053.515A2.883,2.883,0,0,1,1353.124,621.964Z" transform="translate(-1320.514 -606.174)" fill="#ffaa82"/>
            </g>
            <g id="Raggruppa_7900" data-name="Raggruppa 7900" transform="translate(1235.412 1009.378)">
              <g id="Raggruppa_7866" data-name="Raggruppa 7866" transform="translate(2.583 0)">
                <path id="Tracciato_60278" data-name="Tracciato 60278" d="M249.142,555.984a.383.383,0,1,0-.559.34h-.141v.113h.049l.077.245h-.013v.088h.044l.111,6.074a.049.049,0,0,0,.1,0l.111-6.074h.044v-.088h-.013l.077-.245h.049v-.113h-.141A.383.383,0,0,0,249.142,555.984Z" transform="translate(-247.182 -555.601)" fill="#009511"/>
                <path id="Tracciato_60279" data-name="Tracciato 60279" d="M191.307,671.349c.072.1.226.036.189.159s-.183.2-.382.189-.246-.076-.312-.036-.027.066.06.106,1.365.508,1.564.618.32.18.339.472c.035.535-1.511.671-1.511,1.192,0,.328.96.587.96,1.092,0,.218-.456.471-.473.642-.024.241.131.322.086.349-.028.017-.168-.077-.2-.163-.118-.358.411-.609.415-.82.005-.255-.986-.635-1.02-.927s-.036-.664.726-.95.756-.379.736-.445-.143-.179-.4-.262-1.332-.472-1.528-.548-.365-.226-.332-.4.278-.316.658-.306c.143,0,.123-.073.242-.05S191.274,671.3,191.307,671.349Z" transform="translate(-190.223 -668.879)" fill="#009511"/>
                <path id="Tracciato_60280" data-name="Tracciato 60280" d="M221.5,671.349c-.072.1-.226.036-.189.159s.183.2.382.189.246-.076.312-.036.027.066-.06.106-1.365.508-1.564.618-.32.18-.339.472c-.035.535,1.511.671,1.511,1.192,0,.328-.96.587-.96,1.092,0,.218.456.471.473.642.024.241-.131.322-.086.349.028.017.168-.077.2-.163.118-.358-.411-.609-.415-.82-.005-.255.986-.635,1.02-.927s.036-.664-.726-.95-.756-.379-.736-.445.143-.179.4-.262,1.332-.472,1.528-.548.365-.226.332-.4-.278-.316-.658-.306c-.143,0-.123-.073-.243-.05S221.533,671.3,221.5,671.349Z" transform="translate(-219.428 -668.879)" fill="#009511"/>
              </g>
              <g id="Raggruppa_7867" data-name="Raggruppa 7867" transform="translate(0 0.234)">
                <path id="Tracciato_60281" data-name="Tracciato 60281" d="M281.454,567.735a5.76,5.76,0,0,1-1.4-.285.809.809,0,0,0,.128-.045,3.949,3.949,0,0,1-.952-.307.862.862,0,0,0-.795-.038c-.39.18-.315.533-.42.705s-.21.232-.5.255v.473c.352.713.667.547.667.547s-.03-.045-.165-.232a.581.581,0,0,0,.525.172l-.18-.2a.592.592,0,0,0,.532.12s-.1-.1-.2-.225a.692.692,0,0,0,.7.082l-.263-.165a.8.8,0,0,0,.8,0,1.363,1.363,0,0,1-.225-.112.634.634,0,0,0,.7-.143.644.644,0,0,1-.255-.083c.667.135.72-.2.72-.2l-.247-.083A1.331,1.331,0,0,0,281.454,567.735Z" transform="translate(-273.132 -566.978)" fill="#009511"/>
                <path id="Tracciato_60282" data-name="Tracciato 60282" d="M64.5,567.735a5.761,5.761,0,0,0,1.4-.285.808.808,0,0,1-.127-.045,3.949,3.949,0,0,0,.952-.307.862.862,0,0,1,.795-.038c.39.18.315.533.42.705s.21.232.5.255v.473c-.352.713-.667.547-.667.547s.03-.045.165-.232a.581.581,0,0,1-.525.172l.18-.2a.592.592,0,0,1-.532.12s.105-.1.2-.225a.692.692,0,0,1-.7.082l.262-.165a.8.8,0,0,1-.8,0,1.365,1.365,0,0,0,.225-.112.635.635,0,0,1-.7-.143.645.645,0,0,0,.255-.083c-.667.135-.72-.2-.72-.2l.247-.083A1.331,1.331,0,0,1,64.5,567.735Z" transform="translate(-64.5 -566.978)" fill="#009511"/>
              </g>
            </g>
          </g>
        </g>
      </g>
    </g>
  </g>
</svg>
