<svg xmlns="http://www.w3.org/2000/svg" xmlns:xlink="http://www.w3.org/1999/xlink" width="60" height="60" viewBox="0 0 60 60">
  <defs>
    <clipPath id="clip-path">
      <circle id="Ellisse_78" data-name="Ellisse 78" cx="29" cy="29" r="29" fill="none"/>
    </clipPath>
  </defs>
  <g id="Raggruppa_8009" data-name="Raggruppa 8009" transform="translate(-19 -73)">
    <g id="Ellisse_83" data-name="Ellisse 83" transform="translate(19 73)" fill="#fff" stroke="#006cb4" stroke-width="1">
      <circle cx="30" cy="30" r="30" stroke="none"/>
      <circle cx="30" cy="30" r="29.5" fill="none"/>
    </g>
    <g id="Raggruppa_7781" data-name="Raggruppa 7781">
      <g id="Raggruppa_11" data-name="Raggruppa 11" transform="translate(20 74)" clip-path="url(#clip-path)">
        <ellipse id="Ellisse_79" data-name="Ellisse 79" cx="30.5" cy="31" rx="30.5" ry="31" transform="translate(-1 -4)" fill="none"/>
        <g id="Raggruppa_674" data-name="Raggruppa 674" transform="translate(-48.519 3.519)">
          <g id="Raggruppa_2025" data-name="Raggruppa 2025" transform="translate(30.789 209.463)">
            <g id="Raggruppa_2024" data-name="Raggruppa 2024">
              <path id="Tracciato_6260" data-name="Tracciato 6260" d="M402.73,612.193c-.015,3.927-17.852,7.077-39.839,7.034s-39.8-3.26-39.784-7.187,17.85-7.077,39.837-7.034S402.744,608.266,402.73,612.193Z" transform="translate(-323.107 -605.006)" fill="#cddeec"/>
            </g>
          </g>
          <g id="Raggruppa_8011" data-name="Raggruppa 8011" transform="translate(-782.887 -928.883)">
            <g id="Raggruppa_7868" data-name="Raggruppa 7868" transform="translate(836 928)">
              <g id="Raggruppa_2367" data-name="Raggruppa 2367" transform="translate(6.462 110.347)">
                <g id="Raggruppa_2024-2" data-name="Raggruppa 2024" transform="translate(0)">
                  <path id="Tracciato_6260-2" data-name="Tracciato 6260" d="M323.107,615.069c.008,5.5,9.047,9.909,20.189,9.849s20.169-4.565,20.161-10.063-9.046-9.909-20.188-9.849S323.1,609.571,323.107,615.069Z" transform="translate(-323.107 -605.006)" fill="#cddeec"/>
                </g>
              </g>
              <g id="Raggruppa_7158" data-name="Raggruppa 7158" transform="translate(0 0)">
                <rect id="Rettangolo_4367" data-name="Rettangolo 4367" width="15.002" height="25.447" transform="translate(18.043 54.25)" fill="#b1bbcc"/>
                <path id="Tracciato_59776" data-name="Tracciato 59776" d="M929.64,679.583l7.457,66.37c.041.566,3.81.864,3.8.361l-.18-67.5A1.043,1.043,0,0,0,939.6,677.8l-9.106.774A.931.931,0,0,0,929.64,679.583Z" transform="translate(-905.613 -629.806)" fill="#f6be8f"/>
                <path id="Tracciato_59777" data-name="Tracciato 59777" d="M960.964,713.24l3.7,34.491c.038.565,3.806.864,3.8.361l.157-67.5C968.616,680,960.929,712.718,960.964,713.24Z" transform="translate(-944.673 -631.584)" fill="#f6be8f"/>
                <path id="Tracciato_59778" data-name="Tracciato 59778" d="M964.437,865.36l-.29,1.494c-.3.584-4.7,2.549-4.7,2.549a1.106,1.106,0,0,0-.745.836h0a.962.962,0,0,0,.942.882h8.708a1.4,1.4,0,0,0,1.253-1.7l-.735-4.058Z" transform="translate(-944.857 -749.508)" fill="#24315e"/>
                <path id="Tracciato_59779" data-name="Tracciato 59779" d="M919.575,865.275a18.039,18.039,0,0,1,.178,3.874c-.229.9-.324,1.937,1.829,1.937h4.914s1.387-1.076.12-2.152l-.926-.107-1.624-3.6Z" transform="translate(-888.223 -749.424)" fill="#24315e"/>
                <path id="Tracciato_59780" data-name="Tracciato 59780" d="M934.975,679.082a42.571,42.571,0,0,1,2.552,13.262c.328,40.3-.022,50.689-.022,50.689l-6.708.331-5.313-61.825Z" transform="translate(-900.88 -630.626)" fill="#a8c4e5"/>
                <path id="Tracciato_59781" data-name="Tracciato 59781" d="M943.448,668.24s11.61-.412,12.214,4.727c.156,1.33-6.071,10.6-6.08,12.018-.234,40.645-.728,51.122-.728,51.122l-6.712.334-3.469-51.366Z" transform="translate(-923.65 -623.701)" fill="#a8c4e5"/>
                <path id="Tracciato_59782" data-name="Tracciato 59782" d="M922.486,556.285a5.309,5.309,0,0,0,2.9,4.208c3.475,1.968,5.173,4.6,4.814,7.8s6.249,4.676,2.986,11.178c-2.713,5.406-14.809,2.242-14.809,2.242l-9.843-7.977s-5.711-.134-3.391-6.442c1.006-2.735-2.443-4.169-1.029-7.557,1.747-4.184,3.406-7.659,3.406-7.659Z" transform="translate(-889.451 -549.571)" fill="#50215e"/>
                <path id="Tracciato_59783" data-name="Tracciato 59783" d="M921.724,583.37s2.057-10.755,5.9-9.922,2.941,6.622,7.544,8.209c4.382,1.512,7.231,5.157,3.782,9.5-2.193,2.763-12.528-.926-12.935-.933S921.724,583.37,921.724,583.37Z" transform="translate(-902.334 -563.181)" fill="#50215e"/>
                <path id="Tracciato_59784" data-name="Tracciato 59784" d="M975.486,622.874l.646.407a2.271,2.271,0,0,0,3.258-.686l8.01-14.52a2.615,2.615,0,0,0-1.016-3.38l-.646-.407c-1.175-.741-2.976.462-3.593,1.58l-7.675,13.625A2.615,2.615,0,0,0,975.486,622.874Z" transform="translate(-968.512 -582.747)" fill="#c8d3e6"/>
                <path id="Tracciato_59785" data-name="Tracciato 59785" d="M953.9,565.259h0a5.477,5.477,0,0,0,5.079-5.605l-.2-6.205a5.107,5.107,0,0,0-5.419-4.963h0a5.477,5.477,0,0,0-5.079,5.606l.2,6.2A5.107,5.107,0,0,0,953.9,565.259Z" transform="translate(-930.439 -547.273)" fill="#f6be8f"/>
                <path id="Tracciato_59786" data-name="Tracciato 59786" d="M932.663,608.325c4.7.341,11.553-5.294,13.4-6.563l-8.113-2.983c-.964-1.189-1.235.012-1.47.084a4.162,4.162,0,0,0-1.883.1c-1.969.55-4.917.794-7.117,1.395-1.6.575-1.734,2.617-1.692,2.942C926.092,605.733,929.182,608.072,932.663,608.325Z" transform="translate(-909.379 -579.043)" fill="#a8c4e5"/>
                <path id="Tracciato_59787" data-name="Tracciato 59787" d="M949.414,589l-.407.005c-1.252.016-2.617-.494-2.638-1.418l.174-6.8c-.021-.924.986-1.694,2.238-1.71l.407-.005c1.252-.016,2.294.727,2.315,1.651l.561,6.922C952.084,588.573,950.666,588.983,949.414,589Z" transform="translate(-922.832 -566.802)" fill="#f6be8f"/>
                <path id="Tracciato_59788" data-name="Tracciato 59788" d="M943.722,573.766c-.42,1.2-1.341,1.879-2.058,1.523s-.957-1.615-.537-2.811,1.341-1.879,2.058-1.523S944.142,572.569,943.722,573.766Z" transform="translate(-912.726 -561.559)" fill="#ffaa82"/>
                <path id="Tracciato_59789" data-name="Tracciato 59789" d="M970.066,548.389s-4.694,2.667-4.589,5.926c0,0-2.659-8.363,4.361-8.793Z" transform="translate(-947.569 -545.388)" fill="#50215e"/>
                <path id="Tracciato_59790" data-name="Tracciato 59790" d="M935.61,548.152s4.207,2.163,5.586,5.48A3.914,3.914,0,0,0,944.536,556l1.614.119s2.384-12.386-10.768-10.834Z" transform="translate(-913.113 -545.151)" fill="#50215e"/>
                <path id="Tracciato_59791" data-name="Tracciato 59791" d="M927.237,643.667l18.728-.264c2.354.085,1.409-11.028,1.423-12.969l.127-17.025c.014-1.941-1.882-3.584-4.235-3.669l-13.731-.5c-2.353-.085-1.977,1.625-1.991,3.566l-1.7,16.984C925.848,631.733,924.884,643.581,927.237,643.667Z" transform="translate(-910.838 -586.052)" fill="#fff"/>
                <path id="Tracciato_59792" data-name="Tracciato 59792" d="M975.218,662.577a3.96,3.96,0,0,1-3.962-4.019c.126-7.9,1.523-24.741,1.61-25.766l.947-11.083c-3.489-4.367-2.473-8.258-.209-14.076l.057-2.129a2.493,2.493,0,0,1,1.869-2.652l2.477-.542.421,57.032a3.211,3.211,0,0,1-3.211,3.234Z" transform="translate(-958.202 -581.63)" fill="#d9eaff"/>
                <path id="Tracciato_59793" data-name="Tracciato 59793" d="M910.349,633.687c-1.337.986.372-4.882-.872-6.767l.248-11.622a5.868,5.868,0,0,1,.3-6.348l.239-.4c1.337-.986,4.09-.172,5.335,1.712l2.915,19.86C918.52,637.283,910.349,633.687,910.349,633.687Z" transform="translate(-875.733 -585.343)" fill="#c8d3e6"/>
                <path id="Tracciato_59794" data-name="Tracciato 59794" d="M971.847,600.493s1.186-.68,1.094.476c-1.561,5.469-1.7,12.186-1.638,19.9l-3.769-7.377L969.8,609.3l-2.087-7.559Z" transform="translate(-951.373 -580.343)" fill="#deeaff"/>
                <path id="Tracciato_59795" data-name="Tracciato 59795" d="M920.88,600.844s-3.462,10.051-3.555,17.215c-.071,5.458,1.689,27.728,2.531,38.022a6.021,6.021,0,0,0,6.795,5.5,10.146,10.146,0,0,0,2.177-.536c2.228-.847-.224-18.124-.344-18.9-1.114-7.2-1.372-11.849-1.739-13.324-.872-3.5-.045-25.408-.045-25.408Z" transform="translate(-890.018 -580.694)" fill="#d9eaff"/>
                <path id="Tracciato_59796" data-name="Tracciato 59796" d="M935.315,600.708s-1.075-.622-1.24.526a59.481,59.481,0,0,0-3.17,20.089l4.639-7.87-1.607-4.3,4.523-6.788Z" transform="translate(-903.631 -580.5)" fill="#deeaff"/>
                <path id="Tracciato_59802" data-name="Tracciato 59802" d="M948.277,599.459l.357,4.284a1.189,1.189,0,0,0,2.075.69l3.177-3.586-.8-2.566Z" transform="translate(-925.346 -579.058)" fill="#f6be8f"/>
                <path id="Tracciato_59803" data-name="Tracciato 59803" d="M920.42,649.927l11.166,4.506c1.028.443,2.447,1.782,1.988,2.956,0,0-.589,3.8-4.262,2.285l-10.622-6.237c-1.028-.443-1.317-1.266-.858-2.44h0A1.848,1.848,0,0,1,920.42,649.927Z" transform="translate(-894.03 -611.899)" fill="#f6be8f"/>
                <path id="Tracciato_59804" data-name="Tracciato 59804" d="M962.682,645.7h0a.73.73,0,0,1-.207-1.008l3.506-5.316a.73.73,0,0,1,1.008-.207h0a.73.73,0,0,1,.207,1.008l-3.507,5.316A.729.729,0,0,1,962.682,645.7Z" transform="translate(-943.869 -605.076)" fill="#3c407a"/>
                <path id="Tracciato_59805" data-name="Tracciato 59805" d="M956.451,649.631l3.143-.489c1.036-.221,1.314.53,1.582,1.689h0c.268,1.158.412,1.735-.623,1.957l-3.127,1.056a2.1,2.1,0,0,1-2.37-1.7h0A2.019,2.019,0,0,1,956.451,649.631Z" transform="translate(-935.26 -611.493)" fill="#f6be8f"/>
                <path id="Tracciato_59806" data-name="Tracciato 59806" d="M986.122,641.039h-8.93a5.494,5.494,0,0,1-4.874-3.662L967.3,621.6a2.6,2.6,0,0,1,2.546-3.661h8.93a5.493,5.493,0,0,1,4.874,3.662l5.013,15.772A2.6,2.6,0,0,1,986.122,641.039Z" transform="translate(-967.126 -591.607)" fill="#009511"/>
                <path id="Tracciato_59807" data-name="Tracciato 59807" d="M1016.111,643.033l.361-.68c.583-1.1,2.107-.463,2.7,1.184.024.066.046.133.067.2h0c.416,1.358.037,2.605-.842,2.77l-.958.074C1016.5,646.4,1015.232,643.2,1016.111,643.033Z" transform="translate(-1015.307 -606.836)" fill="#f6be8f"/>
                <path id="Tracciato_59808" data-name="Tracciato 59808" d="M955.2,593.353a4.079,4.079,0,0,0,2.429-.872s-1.019,2.262-2.429,2.489Z" transform="translate(-931.593 -575.357)" fill="#ffaa82"/>
                <line id="Linea_26" data-name="Linea 26" y1="1.987" x2="1.111" transform="translate(22.496 1.014)" fill="none" stroke="#bf9378" stroke-linecap="round" stroke-linejoin="round" stroke-width="0.545"/>
              </g>
            </g>
            <g id="Raggruppa_7869" data-name="Raggruppa 7869" transform="translate(864.746 957.607)">
              <g id="Raggruppa_7866" data-name="Raggruppa 7866" transform="translate(2.321)">
                <path id="Tracciato_60278" data-name="Tracciato 60278" d="M249.064,555.945a.344.344,0,1,0-.5.3h-.126v.1h.044l.069.22h-.012v.079h.039l.1,5.457a.044.044,0,0,0,.088,0l.1-5.457h.039v-.079h-.012l.069-.22h.044v-.1h-.126A.344.344,0,0,0,249.064,555.945Z" transform="translate(-247.304 -555.601)" fill="#009511"/>
                <path id="Tracciato_60279" data-name="Tracciato 60279" d="M191.2,671.34c.064.09.2.033.17.143s-.164.179-.343.17-.221-.068-.28-.033-.024.06.054.1,1.226.457,1.405.555.287.162.3.424c.032.481-1.357.6-1.357,1.071,0,.294.863.527.863.981,0,.2-.409.423-.425.576-.022.217.118.289.077.314-.025.015-.151-.069-.176-.146-.106-.321.369-.547.373-.737,0-.229-.886-.57-.916-.833s-.033-.6.652-.853.679-.34.661-.4-.128-.161-.361-.236-1.2-.424-1.373-.492-.328-.2-.3-.361.25-.284.591-.275c.128,0,.11-.066.218-.045S191.167,671.3,191.2,671.34Z" transform="translate(-190.223 -669.121)" fill="#009511"/>
                <path id="Tracciato_60280" data-name="Tracciato 60280" d="M221.351,671.34c-.064.09-.2.033-.17.143s.164.179.343.17.221-.068.28-.033.024.06-.054.1-1.226.457-1.405.555-.287.162-.3.424c-.032.481,1.357.6,1.357,1.071,0,.294-.863.527-.863.981,0,.2.409.423.425.576.022.217-.118.289-.077.314.025.015.151-.069.176-.146.106-.321-.369-.547-.373-.737,0-.229.886-.57.916-.833s.033-.6-.652-.853-.679-.34-.661-.4.128-.161.361-.236,1.2-.424,1.373-.492.328-.2.3-.361-.25-.284-.591-.275c-.128,0-.11-.066-.218-.045S221.381,671.3,221.351,671.34Z" transform="translate(-219.49 -669.121)" fill="#009511"/>
              </g>
              <g id="Raggruppa_7867" data-name="Raggruppa 7867" transform="translate(0 0.21)">
                <path id="Tracciato_60281" data-name="Tracciato 60281" d="M281.053,567.658a5.168,5.168,0,0,1-1.26-.256.734.734,0,0,0,.115-.04,3.55,3.55,0,0,1-.856-.276.775.775,0,0,0-.714-.034c-.35.162-.283.478-.377.633s-.189.209-.451.229v.424c.317.64.6.492.6.492s-.027-.04-.148-.209a.522.522,0,0,0,.472.155l-.162-.182a.531.531,0,0,0,.478.108s-.094-.094-.182-.2a.622.622,0,0,0,.627.074l-.236-.148a.715.715,0,0,0,.721,0,1.232,1.232,0,0,1-.2-.1.57.57,0,0,0,.627-.128.586.586,0,0,1-.229-.074c.6.121.647-.182.647-.182l-.222-.074A1.2,1.2,0,0,0,281.053,567.658Z" transform="translate(-273.577 -566.978)" fill="#009511"/>
                <path id="Tracciato_60282" data-name="Tracciato 60282" d="M64.5,567.658a5.168,5.168,0,0,0,1.26-.256.731.731,0,0,1-.115-.04,3.55,3.55,0,0,0,.856-.276.775.775,0,0,1,.714-.034c.35.162.283.478.377.633s.189.209.451.229v.424c-.317.64-.6.492-.6.492s.027-.04.148-.209a.522.522,0,0,1-.472.155l.162-.182a.531.531,0,0,1-.478.108s.094-.094.182-.2a.622.622,0,0,1-.627.074l.236-.148a.715.715,0,0,1-.721,0,1.232,1.232,0,0,0,.2-.1.57.57,0,0,1-.627-.128.586.586,0,0,0,.229-.074c-.6.121-.647-.182-.647-.182l.222-.074A1.2,1.2,0,0,1,64.5,567.658Z" transform="translate(-64.5 -566.978)" fill="#009511"/>
              </g>
            </g>
            <g id="Raggruppa_7870" data-name="Raggruppa 7870" transform="matrix(0.995, -0.105, 0.105, 0.995, 841.918, 962.813)">
              <g id="Raggruppa_7866-2" data-name="Raggruppa 7866" transform="translate(2.855 0)">
                <path id="Tracciato_60278-2" data-name="Tracciato 60278" d="M.846.423A.423.423,0,1,0,.228.8H.073V.923H.127l.085.27H.2v.1H.246L.368,8A.054.054,0,0,0,.477,8L.6,1.29H.648v-.1H.634L.719.923H.773V.8H.618A.423.423,0,0,0,.846.423Z" transform="translate(1.32 0)" fill="#fff"/>
                <path id="Tracciato_60279-2" data-name="Tracciato 60279" d="M1.2.1c.079.111.25.04.209.176S1.2.5.985.489.713.4.64.449.61.522.706.566s1.509.562,1.729.683.353.2.374.521c.039.592-1.669.742-1.669,1.318,0,.362,1.061.649,1.061,1.207,0,.241-.5.52-.522.709-.027.267.145.355.1.386-.031.019-.185-.085-.217-.18-.131-.4.454-.673.459-.906C2.022,4.021.926,3.6.889,3.279s-.04-.734.8-1.05.835-.418.813-.492-.158-.2-.444-.29S.588.926.372.842-.032.592,0,.4.312.049.731.06C.889.064.867-.021,1,0S1.161.053,1.2.1Z" transform="translate(0 2.626)" fill="#fff"/>
                <path id="Tracciato_60280-2" data-name="Tracciato 60280" d="M1.612.1c-.079.111-.25.04-.209.176s.2.22.422.209S2.1.4,2.17.449,2.2.522,2.1.566.6,1.128.375,1.249s-.353.2-.374.521c-.039.592,1.669.742,1.669,1.318,0,.362-1.061.649-1.061,1.207,0,.241.5.52.522.709.027.267-.145.355-.1.386.031.019.185-.085.217-.18C1.383,4.815.8,4.536.794,4.3c-.006-.282,1.09-.7,1.127-1.024s.04-.734-.8-1.05S.283,1.811.305,1.737s.158-.2.444-.29S2.221.926,2.438.842s.4-.25.367-.444S2.5.049,2.078.06C1.92.064,1.942-.021,1.81,0S1.649.053,1.612.1Z" transform="translate(0.677 2.626)" fill="#fff"/>
              </g>
              <g id="Raggruppa_7867-2" data-name="Raggruppa 7867" transform="translate(0 0.258)">
                <path id="Tracciato_60281-2" data-name="Tracciato 60281" d="M4.359.836A6.366,6.366,0,0,1,2.81.522a.883.883,0,0,0,.141-.05A4.363,4.363,0,0,1,1.9.132.952.952,0,0,0,1.019.091C.588.289.671.679.555.87S.323,1.127,0,1.151v.522c.39.787.738.6.738.6S.7,2.229.555,2.022a.642.642,0,0,0,.58.191l-.2-.224a.654.654,0,0,0,.588.133s-.116-.116-.224-.249a.765.765,0,0,0,.771.091l-.29-.182a.88.88,0,0,0,.887,0,1.518,1.518,0,0,1-.249-.124A.7.7,0,0,0,3.191,1.5a.714.714,0,0,1-.282-.091c.738.149.8-.224.8-.224l-.274-.091A1.471,1.471,0,0,0,4.359.836Z" transform="translate(4.837 0)" fill="#fff"/>
                <path id="Tracciato_60282-2" data-name="Tracciato 60282" d="M0,.836A6.366,6.366,0,0,0,1.55.522a.883.883,0,0,1-.141-.05A4.363,4.363,0,0,0,2.462.132.952.952,0,0,1,3.34.091c.431.2.348.588.464.779s.232.257.555.282v.522c-.39.787-.738.6-.738.6s.033-.05.182-.257a.642.642,0,0,1-.58.191l.2-.224a.654.654,0,0,1-.588.133s.116-.116.224-.249a.765.765,0,0,1-.771.091l.29-.182a.88.88,0,0,1-.887,0,1.518,1.518,0,0,0,.249-.124A.7.7,0,0,1,1.169,1.5a.714.714,0,0,0,.282-.091c-.738.149-.8-.224-.8-.224l.273-.091A1.471,1.471,0,0,1,0,.836Z" transform="translate(0 0)" fill="#fff"/>
              </g>
            </g>
          </g>
        </g>
      </g>
    </g>
  </g>
</svg>
