<svg xmlns="http://www.w3.org/2000/svg" xmlns:xlink="http://www.w3.org/1999/xlink" width="60" height="60" viewBox="0 0 60 60">
  <defs>
    <clipPath id="clip-path">
      <circle id="Ellisse_78" data-name="Ellisse 78" cx="29" cy="29" r="29" fill="none"/>
    </clipPath>
    <linearGradient id="linear-gradient" x1="0.489" y1="0.474" x2="0.549" y2="1.042" gradientUnits="objectBoundingBox">
      <stop offset="0.234" stop-color="#492219"/>
      <stop offset="0.591" stop-color="#56281e"/>
      <stop offset="1" stop-color="#652f23"/>
    </linearGradient>
    <linearGradient id="linear-gradient-2" x1="1.047" y1="-0.585" x2="0.443" y2="0.87" xlink:href="#linear-gradient"/>
    <linearGradient id="linear-gradient-3" x1="0.826" y1="-0.36" x2="0.491" y2="0.821" xlink:href="#linear-gradient"/>
    <linearGradient id="linear-gradient-4" y1="0.5" x2="1" y2="0.5" gradientUnits="objectBoundingBox">
      <stop offset="0" stop-color="#0e4f85"/>
      <stop offset="0.065" stop-color="#0d518a"/>
      <stop offset="0.3" stop-color="#0c5799"/>
      <stop offset="0.577" stop-color="#0c5ba2"/>
      <stop offset="1" stop-color="#0c5da5"/>
    </linearGradient>
    <linearGradient id="linear-gradient-6" x1="20.34" y1="-2.716" x2="19.21" y2="-0.382" gradientUnits="objectBoundingBox">
      <stop offset="0" stop-color="#f1f0f5"/>
      <stop offset="0.643" stop-color="#f8f8fa"/>
      <stop offset="1" stop-color="#fff"/>
    </linearGradient>
    <linearGradient id="linear-gradient-7" x1="0.662" y1="-0.011" x2="0.44" y2="1.106" gradientUnits="objectBoundingBox">
      <stop offset="0" stop-color="#f1f0f5"/>
      <stop offset="1" stop-color="#e1e1e5"/>
    </linearGradient>
    <linearGradient id="linear-gradient-8" x1="0.555" y1="-0.021" x2="0.432" y2="1.138" xlink:href="#linear-gradient-7"/>
    <linearGradient id="linear-gradient-9" x1="0.52" y1="0.015" x2="0.494" y2="1.028" xlink:href="#linear-gradient-7"/>
    <linearGradient id="linear-gradient-12" x1="71.704" y1="2.273" x2="70.574" y2="4.607" xlink:href="#linear-gradient-6"/>
    <linearGradient id="linear-gradient-13" x1="338.817" y1="-0.011" x2="338.596" y2="1.106" xlink:href="#linear-gradient-7"/>
    <linearGradient id="linear-gradient-14" x1="198.779" y1="-0.021" x2="198.656" y2="1.138" xlink:href="#linear-gradient-7"/>
    <linearGradient id="linear-gradient-15" x1="45.057" y1="0.015" x2="45.031" y2="1.028" xlink:href="#linear-gradient-7"/>
    <linearGradient id="linear-gradient-16" x1="0.215" y1="0.564" x2="1.373" y2="-0.009" gradientUnits="objectBoundingBox">
      <stop offset="0" stop-color="#f0c498"/>
      <stop offset="0.517" stop-color="#f2c99e"/>
      <stop offset="1" stop-color="#f6d3aa"/>
    </linearGradient>
    <linearGradient id="linear-gradient-17" x1="0.509" y1="-0.189" x2="0.489" y2="1.303" gradientUnits="objectBoundingBox">
      <stop offset="0" stop-color="#0f6cb8"/>
      <stop offset="0.565" stop-color="#2175bc"/>
      <stop offset="1" stop-color="#337fc1"/>
    </linearGradient>
    <linearGradient id="linear-gradient-18" x1="0.445" y1="0.052" x2="0.564" y2="0.984" gradientUnits="objectBoundingBox">
      <stop offset="0" stop-color="#dba379"/>
      <stop offset="0.492" stop-color="#e3b086"/>
      <stop offset="1" stop-color="#f0c499"/>
    </linearGradient>
    <linearGradient id="linear-gradient-19" x1="0.95" y1="-1.389" x2="0.293" y2="0.98" gradientUnits="objectBoundingBox">
      <stop offset="0" stop-color="#673024"/>
      <stop offset="0.379" stop-color="#6b3227"/>
      <stop offset="0.797" stop-color="#783b30"/>
      <stop offset="1" stop-color="#824137"/>
    </linearGradient>
    <linearGradient id="linear-gradient-20" x1="0.655" y1="0.299" x2="0.164" y2="1.744" xlink:href="#linear-gradient-19"/>
    <linearGradient id="linear-gradient-21" y1="0.5" x2="1" y2="0.5" gradientUnits="objectBoundingBox">
      <stop offset="0" stop-color="#daa279"/>
      <stop offset="0.48" stop-color="#e3af85"/>
      <stop offset="1" stop-color="#f0c498"/>
    </linearGradient>
    <linearGradient id="linear-gradient-22" x1="0.828" y1="0.933" x2="1.604" y2="2.121" xlink:href="#linear-gradient-18"/>
    <linearGradient id="linear-gradient-23" x1="-18.96" y1="6.186" x2="-18.804" y2="8.054" xlink:href="#linear-gradient-18"/>
    <linearGradient id="linear-gradient-24" y1="0.5" x2="1.134" y2="0.5" gradientUnits="objectBoundingBox">
      <stop offset="0" stop-color="#ffd8b2"/>
      <stop offset="0.651" stop-color="#fcd6af"/>
      <stop offset="1" stop-color="#f6d3aa"/>
    </linearGradient>
    <linearGradient id="linear-gradient-25" x1="0.509" y1="0.856" x2="0.542" y2="3.99" xlink:href="#linear-gradient-21"/>
    <linearGradient id="linear-gradient-26" x1="1.076" y1="0.02" x2="0.123" y2="0.871" gradientUnits="objectBoundingBox">
      <stop offset="0" stop-color="#f1c397"/>
      <stop offset="0.548" stop-color="#f9b28d"/>
      <stop offset="1" stop-color="#f0c498"/>
    </linearGradient>
    <linearGradient id="linear-gradient-27" x1="0.561" y1="-0.15" x2="0.407" y2="1.378" xlink:href="#linear-gradient-19"/>
    <linearGradient id="linear-gradient-28" x1="0.894" y1="0.148" x2="-0.905" y2="2.753" xlink:href="#linear-gradient-19"/>
    <linearGradient id="linear-gradient-29" x1="0.382" y1="1.152" x2="0.632" y2="-0.299" gradientUnits="objectBoundingBox">
      <stop offset="0" stop-color="#824137"/>
      <stop offset="0.203" stop-color="#783b30"/>
      <stop offset="0.621" stop-color="#6b3227"/>
      <stop offset="1" stop-color="#673024"/>
    </linearGradient>
    <linearGradient id="linear-gradient-30" x1="0.475" y1="1.632" x2="0.492" y2="0.823" gradientUnits="objectBoundingBox">
      <stop offset="0" stop-color="#673024"/>
      <stop offset="0.74" stop-color="#7a3c31"/>
      <stop offset="1" stop-color="#824137"/>
    </linearGradient>
    <linearGradient id="linear-gradient-31" x1="0.083" y1="1.32" x2="0.444" y2="0.503" gradientUnits="objectBoundingBox">
      <stop offset="0" stop-color="#cb8076"/>
      <stop offset="0.313" stop-color="#b76f65"/>
      <stop offset="0.946" stop-color="#86443a"/>
      <stop offset="1" stop-color="#824137"/>
    </linearGradient>
    <linearGradient id="linear-gradient-32" x1="0" y1="0.5" x2="1" y2="0.5" xlink:href="#linear-gradient-30"/>
    <linearGradient id="linear-gradient-33" x1="0.412" y1="0.019" x2="0.836" y2="2.784" gradientUnits="objectBoundingBox">
      <stop offset="0" stop-color="#824137"/>
      <stop offset="0.26" stop-color="#7a3c31"/>
      <stop offset="1" stop-color="#673024"/>
    </linearGradient>
    <linearGradient id="linear-gradient-34" x1="0" y1="0.5" x2="1" y2="0.5" xlink:href="#linear-gradient-33"/>
    <linearGradient id="linear-gradient-35" x1="-0.439" y1="1.5" x2="0.502" y2="0.47" xlink:href="#linear-gradient-31"/>
    <linearGradient id="linear-gradient-36" x1="0.146" y1="2.242" x2="0.644" y2="-0.349" xlink:href="#linear-gradient-30"/>
    <linearGradient id="linear-gradient-37" x1="0.255" y1="0.264" x2="2.115" y2="1.818" gradientUnits="objectBoundingBox">
      <stop offset="0" stop-color="#824137"/>
      <stop offset="0.054" stop-color="#86443a"/>
      <stop offset="0.687" stop-color="#b76f65"/>
      <stop offset="1" stop-color="#cb8076"/>
    </linearGradient>
    <linearGradient id="linear-gradient-38" x1="0.793" y1="0.1" x2="-1.181" y2="2.727" xlink:href="#linear-gradient-37"/>
    <linearGradient id="linear-gradient-39" x1="0.439" y1="1.146" x2="0.619" y2="0.051" xlink:href="#linear-gradient-33"/>
    <linearGradient id="linear-gradient-40" x1="0.75" y1="1.936" x2="0.251" y2="-0.93" xlink:href="#linear-gradient-33"/>
    <linearGradient id="linear-gradient-41" x1="0" y1="0.5" x2="1" y2="0.5" xlink:href="#linear-gradient-29"/>
    <linearGradient id="linear-gradient-42" x1="-0.155" y1="-0.466" x2="0.963" y2="0.812" xlink:href="#linear-gradient-29"/>
    <linearGradient id="linear-gradient-43" x1="0.254" y1="1.601" x2="0.564" y2="0.046" gradientUnits="objectBoundingBox">
      <stop offset="0" stop-color="#673024"/>
      <stop offset="0.052" stop-color="#6c3328"/>
      <stop offset="0.219" stop-color="#783b30"/>
      <stop offset="0.445" stop-color="#803f35"/>
      <stop offset="1" stop-color="#824137"/>
    </linearGradient>
    <linearGradient id="linear-gradient-44" x1="0.541" y1="0.316" x2="0.131" y2="2.158" xlink:href="#linear-gradient-37"/>
    <linearGradient id="linear-gradient-45" x1="0.599" y1="0.111" x2="0.24" y2="1.313" xlink:href="#linear-gradient-43"/>
    <linearGradient id="linear-gradient-46" x1="0.286" y1="2.052" x2="0.599" y2="0.217" xlink:href="#linear-gradient-31"/>
    <linearGradient id="linear-gradient-47" x1="0.728" y1="1.544" x2="0.342" y2="0.059" xlink:href="#linear-gradient-19"/>
    <linearGradient id="linear-gradient-48" x1="-0.045" y1="-1.077" x2="0.493" y2="0.735" xlink:href="#linear-gradient"/>
    <linearGradient id="linear-gradient-49" x1="0.994" y1="2.894" x2="0.417" y2="0.088" xlink:href="#linear-gradient-31"/>
    <linearGradient id="linear-gradient-50" x1="1.394" y1="2.348" x2="0.344" y2="0.177" xlink:href="#linear-gradient-31"/>
  </defs>
  <g id="Raggruppa_8015" data-name="Raggruppa 8015" transform="translate(-19 -73)">
    <g id="Ellisse_83" data-name="Ellisse 83" transform="translate(19 73)" fill="#fff" stroke="#006cb4" stroke-width="1">
      <circle cx="30" cy="30" r="30" stroke="none"/>
      <circle cx="30" cy="30" r="29.5" fill="none"/>
    </g>
    <g id="Raggruppa_7781" data-name="Raggruppa 7781">
      <g id="Raggruppa_11" data-name="Raggruppa 11" transform="translate(20 74)" clip-path="url(#clip-path)">
        <ellipse id="Ellisse_79" data-name="Ellisse 79" cx="30.5" cy="31" rx="30.5" ry="31" transform="translate(-1 -4)" fill="none"/>
        <g id="Raggruppa_8015-2" data-name="Raggruppa 8015" transform="translate(-261.07 -1554.775)">
          <g id="Raggruppa_8000" data-name="Raggruppa 8000" transform="translate(267.861 1693.682)">
            <g id="Raggruppa_2024" data-name="Raggruppa 2024" transform="translate(0)">
              <path id="Tracciato_6260" data-name="Tracciato 6260" d="M323.107,616.333c.009,6.19,10.183,11.154,22.725,11.086s22.7-5.138,22.693-11.327-10.182-11.154-22.724-11.086S323.1,610.145,323.107,616.333Z" transform="translate(-323.107 -605.006)" fill="#cddeec"/>
            </g>
          </g>
          <g id="Raggruppa_8001" data-name="Raggruppa 8001" transform="translate(269.345 1558.294)">
            <path id="Tracciato_60643" data-name="Tracciato 60643" d="M185.688,362.85s-1.449,1.032-2.242,6.609c-.708,4.982-.485,9-.7,11.34-.32,3.456-1.22,7.251-1.231,11.327a41.725,41.725,0,0,0,1.528,10.914l2.015.659s.38-3.658.513-5.352c.1-1.31.9-5.5,1.51-8.059.951-3.987,1.822-13.777,1.584-14.894S188.812,365.53,185.688,362.85Z" transform="translate(-180.028 -332.922)" fill="#f6be8f"/>
            <path id="Tracciato_60644" data-name="Tracciato 60644" d="M205.729,463.644s-.539,3.912-.582,4.485a65.467,65.467,0,0,1-1.466,8.753,75.164,75.164,0,0,0-1.162,11.4l-.469-1.094a66.721,66.721,0,0,1,2.147-17.929c.393-1.447.86-5.779.86-5.779Z" transform="translate(-197.131 -416.796)" fill="#f6be8f"/>
            <path id="Tracciato_60645" data-name="Tracciato 60645" d="M194.659,454.931l-5.6-1.158.105-2.991L194.9,452.7A21.668,21.668,0,0,1,194.659,454.931Z" transform="translate(-186.316 -406.21)" fill="#f6be8f"/>
            <g id="Raggruppa_7962" data-name="Raggruppa 7962" transform="translate(0.896 64.705)">
              <g id="Raggruppa_7961" data-name="Raggruppa 7961" transform="translate(0 1.385)">
                <path id="Tracciato_60646" data-name="Tracciato 60646" d="M188.9,660.128c-1.721-.31-2.3-1.08-2.338-1.488a20.869,20.869,0,0,1,.725-2.835,6.632,6.632,0,0,0,.319,1.871,11.024,11.024,0,0,0,1.292,1.272c.217.135,1.975.288,2.011.7S190.617,660.439,188.9,660.128Z" transform="translate(-185.127 -643.181)" fill="#f6be8f"/>
                <path id="Tracciato_60647" data-name="Tracciato 60647" d="M182.394,585.7a15.521,15.521,0,0,1,.826,4.135c-.014,1.592.175,6.656-.13,6.683s-1.038.45-1.3-2.554-.417-2.991-.677-3.02-.835,1-.908,1.927a13.806,13.806,0,0,0-.064,2.777,28.946,28.946,0,0,0,2.745,1.452c.328.228,1.337.855.885,1.308-.356.357-4.434-1.372-5.407-1.977-.416-.258-.391-3.26-.388-4.39a49.518,49.518,0,0,1,1.428-6.976c.137-.475-.2-5.069-.2-5.069L182,584.3S182.247,585.2,182.394,585.7Z" transform="translate(-177.973 -579.994)" fill="#f6be8f"/>
                <path id="Tracciato_60648" data-name="Tracciato 60648" d="M193.063,647.982s-.033-2.835-.632-2.834-.9,1.766-.9,1.766S192.658,645.38,193.063,647.982Z" transform="translate(-189.273 -634.298)" fill="#f6be8f"/>
                <path id="Tracciato_60649" data-name="Tracciato 60649" d="M207.466,670.254a.316.316,0,0,1,.323-.3,4.612,4.612,0,0,1-.077,1.589C207.416,671.593,207.352,670.964,207.466,670.254Z" transform="translate(-202.51 -654.969)" fill="#f6be8f"/>
                <path id="Tracciato_60650" data-name="Tracciato 60650" d="M203.373,687.466a.316.316,0,0,1,.394-.2c.708.127,1.281.393,1.131.655A4.62,4.62,0,0,1,203.373,687.466Z" transform="translate(-199.143 -669.391)" fill="#f6be8f"/>
              </g>
              <path id="Tracciato_60651" data-name="Tracciato 60651" d="M182.671,607.984c-.279.248-2.549,6.729-1.5,6.533C181.885,614.384,184.441,606.408,182.671,607.984Z" transform="translate(-180.411 -601.766)" fill="#f6be8f"/>
              <path id="Tracciato_60652" data-name="Tracciato 60652" d="M202.2,571.677s-.588,6.583-.438,7.222a12.566,12.566,0,0,1,.712,4.341,26.615,26.615,0,0,0-1.24-4.353C200.561,577.766,202.2,571.677,202.2,571.677Z" transform="translate(-197.223 -571.677)" fill="#f6be8f"/>
            </g>
            <path id="Tracciato_60653" data-name="Tracciato 60653" d="M181.756,479.81s-.768,4.863-.854,5.663a30.38,30.38,0,0,0-.292,6.206c.254,2.313.955,8.928.955,8.928s-.475-10.315-.4-11.115S181.756,479.81,181.756,479.81Z" transform="translate(-179.212 -430.404)" fill="#f6be8f"/>
            <g id="Raggruppa_7964" data-name="Raggruppa 7964" transform="translate(9.19 3.401)">
              <g id="Raggruppa_7963" data-name="Raggruppa 7963">
                <path id="Tracciato_60654" data-name="Tracciato 60654" d="M242.455,203.64c3.726-.615,12.739,2.223,13.091,9.744s.24,14.612-.847,15.693-17.128-.32-17.481-.6-1.41-6.622-1.057-8.94,1.209-13.67,1.662-14.285S242.455,203.64,242.455,203.64Z" transform="translate(-234.706 -203.559)" fill="url(#linear-gradient)"/>
                <path id="Tracciato_60655" data-name="Tracciato 60655" d="M231.431,277.779v.6a10.082,10.082,0,0,0-.445,2.939c-.01,1.967,3.717,2.953,3.185,7.6l-6.393,1.768s.125-5.1.418-6.9S231.431,277.779,231.431,277.779Z" transform="translate(-227.778 -265.419)" fill="url(#linear-gradient-2)"/>
              </g>
              <path id="Tracciato_60656" data-name="Tracciato 60656" d="M329.4,292.888s-1.237,2.456-1.547,3.143a9.468,9.468,0,0,0-.756,3.927,13.274,13.274,0,0,0,1.029,3.572h4.492S332.378,294.539,329.4,292.888Z" transform="translate(-310.55 -278.012)" fill="url(#linear-gradient-3)"/>
            </g>
            <g id="Raggruppa_7966" data-name="Raggruppa 7966" transform="translate(8.009 142.888)">
              <g id="Raggruppa_7965" data-name="Raggruppa 7965">
                <path id="Tracciato_60657" data-name="Tracciato 60657" d="M223.733,1041.2a7.219,7.219,0,0,1-.134,1.712c-.535,1.739-2.84,3.673-2.9,4.409-.1,1.269.462,1.15.462,1.15a24.1,24.1,0,0,0,4.29.271,2.95,2.95,0,0,0,2.03-.713,13.429,13.429,0,0,1,1.04-1.234l1.7-.251s.024-1.913-.2-2.02l-.491-2.6S224.169,1040.921,223.733,1041.2Z" transform="translate(-220.689 -1041.154)" fill="#f1f0f5"/>
                <path id="Tracciato_60658" data-name="Tracciato 60658" d="M267.7,1071.256s.051-.159.758-.529a3.171,3.171,0,0,1,.948-.229,4.515,4.515,0,0,1,.008.51S268.993,1071.08,267.7,1071.256Z" transform="translate(-259.873 -1065.61)" fill="url(#linear-gradient-4)"/>
                <path id="Tracciato_60659" data-name="Tracciato 60659" d="M221.929,1082.2s4.2,1.02,6.672-.464c0,0-.593,1.026-2.978,1.079C222.563,1082.881,221.929,1082.2,221.929,1082.2Z" transform="translate(-221.722 -1074.976)" fill="url(#linear-gradient-4)"/>
                <path id="Tracciato_60660" data-name="Tracciato 60660" d="M224.9,1072.644a10.125,10.125,0,0,0,3.9-.638c1.4-.714,1.1,1.686-.884,1.67S222.543,1072.489,224.9,1072.644Z" transform="translate(-223.531 -1066.757)" fill="url(#linear-gradient-6)"/>
              </g>
              <path id="Tracciato_60661" data-name="Tracciato 60661" d="M246.56,1046.49s-.371,1.508-.436,1.714.436.97.436.97-.807-.609-.851-.97a7.893,7.893,0,0,1,.425-1.714Z" transform="translate(-241.54 -1045.601)" fill="url(#linear-gradient-7)"/>
              <path id="Tracciato_60662" data-name="Tracciato 60662" d="M234.238,1049.3l1.018-.676.422-1.746-.344.175s-.383,1.293-.471,1.4S234.238,1049.3,234.238,1049.3Z" transform="translate(-231.982 -1045.929)" fill="url(#linear-gradient-8)"/>
              <path id="Tracciato_60663" data-name="Tracciato 60663" d="M237.251,1046.038l-.183.593a3.609,3.609,0,0,1,.969-.476c1.847-.262,5.576,1.57,5.576,1.57l-3.918-2.675Z" transform="translate(-234.34 -1044.4)" fill="url(#linear-gradient-9)"/>
            </g>
            <g id="Raggruppa_7968" data-name="Raggruppa 7968" transform="translate(22.776 142.829)">
              <g id="Raggruppa_7967" data-name="Raggruppa 7967">
                <path id="Tracciato_60664" data-name="Tracciato 60664" d="M315.906,1040.852a7.23,7.23,0,0,0,.134,1.712c.535,1.739,2.84,3.673,2.9,4.409.1,1.269-.462,1.15-.462,1.15a24.129,24.129,0,0,1-4.29.271,2.95,2.95,0,0,1-2.03-.714,13.4,13.4,0,0,0-1.04-1.234l-1.7-.251s-.024-1.913.2-2.02l.491-2.6S315.47,1040.568,315.906,1040.852Z" transform="translate(-309.403 -1040.801)" fill="#f1f0f5"/>
                <path id="Tracciato_60665" data-name="Tracciato 60665" d="M311.077,1070.9s-.051-.159-.758-.53a3.173,3.173,0,0,0-.948-.229,4.517,4.517,0,0,0-.008.51S309.786,1070.726,311.077,1070.9Z" transform="translate(-309.359 -1065.258)" fill="url(#linear-gradient-4)"/>
                <path id="Tracciato_60666" data-name="Tracciato 60666" d="M332.059,1081.845s-4.2,1.02-6.672-.464c0,0,.593,1.026,2.978,1.079C331.425,1082.528,332.059,1081.845,332.059,1081.845Z" transform="translate(-322.718 -1074.623)" fill="url(#linear-gradient-4)"/>
                <path id="Tracciato_60667" data-name="Tracciato 60667" d="M334.606,1072.29a10.124,10.124,0,0,1-3.9-.638c-1.4-.714-1.1,1.686.884,1.67S336.963,1072.136,334.606,1072.29Z" transform="translate(-326.428 -1066.404)" fill="url(#linear-gradient-12)"/>
              </g>
              <path id="Tracciato_60668" data-name="Tracciato 60668" d="M336.546,1046.137s.371,1.508.436,1.714-.436.97-.436.97.807-.609.851-.97a7.9,7.9,0,0,0-.425-1.714Z" transform="translate(-332.018 -1045.248)" fill="url(#linear-gradient-13)"/>
              <path id="Tracciato_60669" data-name="Tracciato 60669" d="M345.934,1048.952l-1.018-.676-.422-1.745.344.175s.383,1.293.471,1.4S345.934,1048.952,345.934,1048.952Z" transform="translate(-338.643 -1045.576)" fill="url(#linear-gradient-14)"/>
              <path id="Tracciato_60670" data-name="Tracciato 60670" d="M317.289,1045.316l.266.96a3.606,3.606,0,0,0-.969-.476c-1.847-.262-5.576,1.57-5.576,1.57l3.918-2.675Z" transform="translate(-310.735 -1044.047)" fill="url(#linear-gradient-15)"/>
            </g>
            <g id="Raggruppa_7969" data-name="Raggruppa 7969" transform="translate(7.21 72.162)">
              <path id="Tracciato_60671" data-name="Tracciato 60671" d="M244.045,624.605c.173-1.321-.484-8.1-.484-8.1l-27.305-.042c0,3.082-.691,9.907-.173,12.769s2.248,26.434,2.155,26.954c-.058.325.016,11.7.118,13.2.153,2.239.777,10.142,1.005,15.237a18.878,18.878,0,0,1-.5,3.3l.587,1.265c.084-.141.082-.91,2.154-.628a12.1,12.1,0,0,1,4.435,2.009l.061-3.908a17.359,17.359,0,0,0,.606-2.038c0-.3-.261-24.239-.229-24.885.053-1.087-.058-1.92-.034-2.408.024-.077.3-1.108.421-1.641.11-.478,2.1-27.227,2.1-27.227l1.225-.183s1.579,24.509,1.527,24.949a25.118,25.118,0,0,0,.253,4.085c.03.807-.252,1.236-.252,1.875s-.749,26.414-.773,26.6.721,1.115.721,1.115.017,3.4-.017,3.615a12.777,12.777,0,0,1,4.683-2.1c1.9-.349,1.97.565,1.97.565s.234-.617.522-1.185c.1-.2-.888-1.446-.835-2.6.217-4.815,1.164-12.543,1.387-14.034.172-1.155.763-14.956.763-15.665,0-.494-.079-2.29-.079-2.787S243.873,625.927,244.045,624.605Z" transform="translate(-215.891 -616.46)" fill="#309cb4"/>
              <path id="Tracciato_60672" data-name="Tracciato 60672" d="M266.928,677.2l11.252.266a6.447,6.447,0,0,0-2.326,3.835c-.285,2.29-1.859,17.453-1.859,17.453l-.23-20.116-3.371-.373-.467,20.7s-1.083-13.85-1.748-17.2S267.308,677.622,266.928,677.2Z" transform="translate(-258.429 -667.081)" fill="#309cb4"/>
              <path id="Tracciato_60673" data-name="Tracciato 60673" d="M274.436,681.353H282.1l-1.772.639-.01,21.53-1.453-21.162-1.035.22-1.713,21.693-.093-21.856Z" transform="translate(-264.686 -670.546)" fill="#309cb4"/>
              <path id="Tracciato_60674" data-name="Tracciato 60674" d="M233.692,1042.784a5.19,5.19,0,0,0,.587,1.265,2.011,2.011,0,0,1,1.257-.644,8.575,8.575,0,0,1,4.116,1.251s-2.236-2.3-3.73-2.411A2.885,2.885,0,0,0,233.692,1042.784Z" transform="translate(-230.725 -971.327)" fill="#309cb4"/>
              <path id="Tracciato_60675" data-name="Tracciato 60675" d="M318.116,1045.722a14.962,14.962,0,0,1,3.416-1.306,2.01,2.01,0,0,1,1.959.7l.532-1.321a4.151,4.151,0,0,0-2.858.052A14.609,14.609,0,0,0,318.116,1045.722Z" transform="translate(-301.092 -972.464)" fill="#309cb4"/>
            </g>
            <path id="Tracciato_60676" data-name="Tracciato 60676" d="M215.1,682.406l.355,1.973,12.778.815.172-2.066Z" transform="translate(-208.022 -599.262)" fill="#068094"/>
            <path id="Tracciato_60677" data-name="Tracciato 60677" d="M300.71,683.327l.183,2.034L314,684.9l.341-2.3Z" transform="translate(-279.375 -599.418)" fill="#068094"/>
            <path id="Tracciato_60678" data-name="Tracciato 60678" d="M217.318,294.183s0,6.381.751,6.944c1.161.87,10.836,3.833,11.253,4.308,1.492,1.7,1.7,1.734,2.072,5.3.715,6.8-34.127.386-33.787.417,0,0,.961-4.648,2.2-5.338s9.837-3.511,10.572-4.242.563-6.264.563-6.264Z" transform="translate(-193.439 -275.69)" fill="#f6be8f"/>
            <path id="Tracciato_60679" data-name="Tracciato 60679" d="M258.08,314.23c-.486-.462-.551-4.269-.551-4.269s-7.09.39-7.2.265c.006.5.067,3.377.018,3.755-.056.433,0,.945-4.864,1.988,0,0,1.665.111,4.9.141.562.005,1.017-.914,1.081-1.748a8.23,8.23,0,0,0,4.865-1.225c.171,1.255.358,2.8.761,3.06s4.02-.13,4.02-.13l.471-.464A12.972,12.972,0,0,1,258.08,314.23Z" transform="translate(-233.344 -288.841)" fill="#f6be8f"/>
            <path id="Tracciato_60680" data-name="Tracciato 60680" d="M256.995,346.251s-.361-.933-.863-1.058-5.292-.225-5.943-.352a26.4,26.4,0,0,0,3.136.62C254.754,345.628,255.874,345.378,256.995,346.251Z" transform="translate(-237.267 -317.912)" fill="#f6be8f"/>
            <path id="Tracciato_60681" data-name="Tracciato 60681" d="M301.263,347.479a1.977,1.977,0,0,1,.965-.923,42.945,42.945,0,0,1,6.143-.065S302.46,346.736,301.263,347.479Z" transform="translate(-279.835 -319.223)" fill="#f6be8f"/>
            <path id="Tracciato_60682" data-name="Tracciato 60682" d="M244.355,342.26l8.4,8.273,8.4-8.589-1.877-.651-6.521,6.749-6.207-6.476Z" transform="translate(-232.404 -314.955)" fill="url(#linear-gradient-16)"/>
            <path id="Tracciato_60683" data-name="Tracciato 60683" d="M173.093,361.7s3.285-13.643,4.192-15.061c1.367-2.138,9.238-4.094,9.238-4.094s3.907,5.206,6.973,7.247a101.206,101.206,0,0,0,6.925-7.576s7.942,1.994,8.463,2.831c1.432,2.3,6.092,16.073,6.092,16.073l-8.248,2.586s-.975,1.146-.668,9.348c.359,9.6,2.539,21.141,2.657,26.8a163.169,163.169,0,0,1-29.148-.355c.651-11.077,1.974-18.016,2.439-26.139a101.245,101.245,0,0,0-.594-13.858c-.561,1.421-.311,2.446-.478,3.7C178.289,361.794,173.763,361.983,173.093,361.7Z" transform="translate(-173.01 -315.721)" fill="#309cb4"/>
            <path id="Tracciato_60684" data-name="Tracciato 60684" d="M233.314,389a50.848,50.848,0,0,0,11.206.154c6.2-.6,10.279-.354,7.181,2.644-3.648,3.53-10.23,5.1-16.389,2.8C232.386,393.5,225.378,388.04,233.314,389Z" transform="translate(-220.152 -354.62)" fill="#309cb4"/>
            <path id="Tracciato_60685" data-name="Tracciato 60685" d="M240.965,343.139l2.116-.623a57.437,57.437,0,0,0,6.984,7.273s4.32-4.543,6.925-7.576l1.473.462s-4.775,6.646-8.454,9.606A70.571,70.571,0,0,1,240.965,343.139Z" transform="translate(-229.579 -315.721)" fill="#068094"/>
            <path id="Tracciato_60686" data-name="Tracciato 60686" d="M324.283,418.489s6.76-.089,7.276-.133l.051,1.226-7.327.113Z" transform="translate(-299.022 -379.185)" fill="url(#linear-gradient-17)"/>
            <path id="Tracciato_60687" data-name="Tracciato 60687" d="M214.093,416.123l2.308,18.529s-4.16,24.719-4.423,26.445c-.055-10.738,2.439-26.139,2.439-26.139l-.661-15.431Z" transform="translate(-205.418 -377.323)" fill="#068094"/>
            <path id="Tracciato_60688" data-name="Tracciato 60688" d="M364.3,414.8l.472,4.776-.786,13.6a254.088,254.088,0,0,1,2.246,27.17c-.7-2.629-4.152-27.17-4.152-27.17Z" transform="translate(-330.525 -376.219)" fill="#068094"/>
            <g id="Raggruppa_7970" data-name="Raggruppa 7970" transform="translate(27.406 70.535)">
              <path id="Tracciato_60689" data-name="Tracciato 60689" d="M344.928,607.09s-4.41.424-7.765.385c0,0,.472,9.14.881,9.321a43.775,43.775,0,0,0,7.284-.586C345.666,615.987,344.928,607.09,344.928,607.09Z" transform="translate(-337.163 -607.023)" fill="#068094"/>
              <path id="Tracciato_60690" data-name="Tracciato 60690" d="M337.163,607.142a46.538,46.538,0,0,0,7.475-.452A55.21,55.21,0,0,0,337.163,607.142Z" transform="translate(-337.163 -606.69)" fill="#068094"/>
            </g>
            <g id="Raggruppa_7971" data-name="Raggruppa 7971" transform="translate(6.774 70.538)">
              <path id="Tracciato_60691" data-name="Tracciato 60691" d="M220.609,607.247a56.787,56.787,0,0,1-6.779-.513s-.823,8.947-.468,9.179a39.394,39.394,0,0,0,6.894.582C220.578,616.318,220.609,607.247,220.609,607.247Z" transform="translate(-213.273 -606.729)" fill="#068094"/>
              <path id="Tracciato_60692" data-name="Tracciato 60692" d="M216.616,606.711a38.467,38.467,0,0,0,6.779.513A63.111,63.111,0,0,0,216.616,606.711Z" transform="translate(-216.059 -606.707)" fill="#068094"/>
            </g>
            <path id="Tracciato_60693" data-name="Tracciato 60693" d="M216.1,606.734l-.1,1.177a57.436,57.436,0,0,0,6.883.474v-1.138A57.869,57.869,0,0,1,216.1,606.734Z" transform="translate(-208.765 -536.191)" fill="#49a1b1"/>
            <path id="Tracciato_60694" data-name="Tracciato 60694" d="M306.952,880.147l-.759,25.471a6.943,6.943,0,0,0,.736,1.053l-.017,3.615a5.665,5.665,0,0,0,1.007-.633c.032-.09.618-2.763.735-3.13s-1.667-1.267-1.55-1.684S306.952,880.147,306.952,880.147Z" transform="translate(-283.944 -764.072)" fill="#068094"/>
            <path id="Tracciato_60695" data-name="Tracciato 60695" d="M267.344,872.743s.215,24.876.215,25.477a8.46,8.46,0,0,1-.606,2.038l-.061,3.908-.755-.5s-1.225-3.171-1.225-3.383a17.985,17.985,0,0,1,1.225-2.467C266.311,897.417,267.344,872.743,267.344,872.743Z" transform="translate(-249.537 -757.901)" fill="#068094"/>
            <path id="Tracciato_60696" data-name="Tracciato 60696" d="M184.3,347.2s-5.355,1.1-7.415,3.342c-1.224,1.334-4.29,15.648-4.29,15.648l1.68.2s4.131-14.9,4.453-15.535C179.473,349.4,182.167,347.932,184.3,347.2Z" transform="translate(-172.594 -319.878)" fill="#068094"/>
            <path id="Tracciato_60697" data-name="Tracciato 60697" d="M354.735,347.2s5.768,1.03,7.828,3.274c1.224,1.334,4.29,15.648,4.29,15.648l-1.68.2s-4.131-14.9-4.453-15.535C359.974,349.327,356.867,347.932,354.735,347.2Z" transform="translate(-324.402 -319.878)" fill="#068094"/>
            <path id="Tracciato_60698" data-name="Tracciato 60698" d="M273.831,310.784s-.044-2.784-.195-3.688l7.369.8.059,1.322A7.572,7.572,0,0,1,273.831,310.784Z" transform="translate(-256.809 -286.453)" fill="url(#linear-gradient-18)"/>
            <g id="Raggruppa_7997" data-name="Raggruppa 7997" transform="translate(6.335 0)">
              <g id="Raggruppa_7972" data-name="Raggruppa 7972" transform="translate(25.082 14.906)">
                <path id="Tracciato_60699" data-name="Tracciato 60699" d="M361.247,272.647c.326.666.807,1.538,1.185,2.175a10.259,10.259,0,0,1,1.1,2.29,5.358,5.358,0,0,1,.046,2.733,13.5,13.5,0,0,1-.377,1.34c-.145.432-.328.849-.475,1.28a2.733,2.733,0,0,0-.092,1.484c.111.519-.178,1.011.017,1.5-.485-.483-.405-1.106-.587-1.77a4.723,4.723,0,0,1,.349-2.623,10.448,10.448,0,0,0,.561-2.692,6.755,6.755,0,0,0-.564-2.548A26.557,26.557,0,0,1,361.247,272.647Z" transform="translate(-361.247 -272.647)" fill="url(#linear-gradient-19)"/>
              </g>
              <path id="Tracciato_60700" data-name="Tracciato 60700" d="M228.077,266.02c-1.664-1.846-3.3-2.368-2.423-4.84.657-1.845,1.941-4,2.8-6.659,1.057-3.276-1.966,1.7-1.966,1.7a14.226,14.226,0,0,0-3.5,5.564c-1.485,4.342-.456,5.452,0,6.644.338.882,3.741,1.469,1.972,2.276A2.983,2.983,0,0,0,228.077,266.02Z" transform="translate(-220.282 -241.704)" fill="url(#linear-gradient-20)"/>
              <g id="Raggruppa_7982" data-name="Raggruppa 7982" transform="translate(4.889 2.018)">
                <g id="Raggruppa_7973" data-name="Raggruppa 7973" transform="translate(0 11.23)">
                  <path id="Tracciato_60701" data-name="Tracciato 60701" d="M241.634,263.425c.3,2.438.386,4.293.386,4.293-.975,0-1.167-1.045-1.548-1.966-.582-1.408-.9-2.924.636-3.058C241.365,262.672,241.634,263.425,241.634,263.425Z" transform="translate(-239.991 -262.694)" fill="url(#linear-gradient-21)"/>
                  <path id="Tracciato_60702" data-name="Tracciato 60702" d="M242.474,269.44a2.054,2.054,0,0,1-.329-1.6c.349-2.507-1.24-2.678-.88-.968,0,0,.22-.807.421-.566.247.3-.265.46,0,1.754A3.6,3.6,0,0,0,242.474,269.44Z" transform="translate(-241.008 -265.236)" fill="url(#linear-gradient-22)"/>
                  <path id="Tracciato_60703" data-name="Tracciato 60703" d="M339.607,263.7c-.3,2.438-.385,4.293-.385,4.293.975,0,1.167-1.045,1.548-1.966.582-1.408.926-2.918-.4-3C340.112,263.008,339.607,263.7,339.607,263.7Z" transform="translate(-322.697 -262.969)" fill="#f0c499"/>
                  <path id="Tracciato_60704" data-name="Tracciato 60704" d="M342.6,269.416a2.053,2.053,0,0,0,.329-1.6c-.349-2.507,1.241-2.678.88-.967,0,0-.22-.807-.421-.566-.247.3.265.46,0,1.754A3.6,3.6,0,0,1,342.6,269.416Z" transform="translate(-325.512 -265.216)" fill="url(#linear-gradient-23)"/>
                </g>
                <path id="Tracciato_60705" data-name="Tracciato 60705" d="M257.442,201.537c-8.421-.1-7.943,3.5-8.812,8.724-.487,2.933-.3,5.55,1.19,7.706a9.413,9.413,0,0,0,2.214,1.985c.551.437,1.412,1.375,2,1.831a3.177,3.177,0,0,0,1.837.776c2.183.083,3.617-1.638,4.244-2.258,2.2-2.178,4.226-2.989,3.782-9.053C263.549,206.483,260.483,201.639,257.442,201.537Z" transform="translate(-246.992 -200.49)" fill="#f6be8f"/>
                <path id="Tracciato_60712" data-name="Tracciato 60712" d="M258.35,195.874s-7.565-2.191-9.91,1.692c-1.651,2.734-1.533,10.37-.8,13.045,0,0,.267-2.983,1.265-3.656a20.361,20.361,0,0,1,.574-4.334c.518-2.91,3.071-5.783,3.328-5.719,3.343.83,3.02,3.489,4.035,4.84,2.635,3.508,5.811,4.994,5.6,6.839,0,0,1.369-3.854.418-6.737C261.966,199.116,260.766,196.374,258.35,195.874Z" transform="translate(-245.94 -195.259)" fill="#f6be8f"/>
                <path id="Tracciato_60714" data-name="Tracciato 60714" d="M317.332,291.432a8.956,8.956,0,0,1-1.735,2.242c-1.488,1.414-2.1,2.218-2.34,2.456.215-.2,2.2-2.028,2.763-2.45a6.226,6.226,0,0,0,1.543-1.989A.564.564,0,0,1,317.332,291.432Z" transform="translate(-301.056 -275.416)" fill="url(#linear-gradient-24)"/>
                <path id="Tracciato_60715" data-name="Tracciato 60715" d="M252.077,275.339c-2.947-2.247-2.067-6.266-2.067-6.266-1.537,4.079,1.11,5.914,1.645,6.29,1.1.774,2.939,2.374,2.939,2.374A15.988,15.988,0,0,0,252.077,275.339Z" transform="translate(-247.947 -256.78)" fill="#f0c498"/>
                <path id="Tracciato_60716" data-name="Tracciato 60716" d="M281.678,322.06s1.806,2.516,4.79-.116A3.906,3.906,0,0,1,281.678,322.06Z" transform="translate(-274.736 -300.847)" fill="url(#linear-gradient-25)"/>
                <path id="Tracciato_60717" data-name="Tracciato 60717" d="M327.826,260.23a5.574,5.574,0,0,1,.412,2.728c-.483,2.769-2.011,3.3-2.094,5.126,0,0,.252-.2.617-.513a5.36,5.36,0,0,0,1.141-7.465Z" transform="translate(-311.797 -249.308)" fill="url(#linear-gradient-26)"/>
              </g>
              <path id="Tracciato_60763" data-name="Tracciato 60763" d="M279.817,188.1c.441-1.319,5.148-3.143,10.189,1.529,2.884,2.673,3.277,6.729,2.94,9.378-.214,1.684,2.971,6.091,1.611,9.453,0,0,2.466,8.012-4.439,7.249,0,0,2.945-.667-.524-4.229a3.931,3.931,0,0,1-1.646-2.712c-.028-1.848,3.587-5.045,2.473-9.388-.383-1.494-4.479-4.5-5.721-7.4-1.555-3.628-4.644-2.284-4.644-2.284S280,189.139,279.817,188.1Z" transform="translate(-268.295 -186.04)" fill="url(#linear-gradient-27)"/>
              <g id="Raggruppa_7983" data-name="Raggruppa 7983" transform="translate(21.823 26.062)">
                <path id="Tracciato_60764" data-name="Tracciato 60764" d="M342.755,339.636c1.647,2.076,1.609,3.754-1.083,3.611C342.974,343.247,344.006,342.24,342.755,339.636Z" transform="translate(-341.672 -339.636)" fill="url(#linear-gradient-28)"/>
              </g>
              <path id="Tracciato_60765" data-name="Tracciato 60765" d="M224.346,196.739a10.176,10.176,0,0,0-.808,5.162,7.232,7.232,0,0,1-1.111,5.169c-.936,1.733-.311,3.409.185,5.089-.549.923.053-1.7,2.337-5.771,1.321-2.031,2.055-2.519,2.315-5.008.591-5.66,4.557-7.2,4.557-7.2l-.136-1.634C229.2,190.67,225.454,193.955,224.346,196.739Z" transform="translate(-220.06 -190.521)" fill="url(#linear-gradient-29)"/>
              <path id="Tracciato_60766" data-name="Tracciato 60766" d="M281.253,201.285c4.036-.262,4.43,3.5,5.607,5.143s4.775,4.117,4.491,6.014c-.385,2.574-1.477,5.985-1.489,7.217-.019,2.016,1,2.344,1.939,3.331,1.753,1.838,2.341,4.1.411,5.3,0,0,6.713-.973,4.249-6.061-1.513-3.124-4.969-2.122-4.948-5.231.008-1.217,3.827-6.941.1-8.862C287.357,205.935,285.211,198.051,281.253,201.285Z" transform="translate(-269.492 -197.623)" fill="url(#linear-gradient-30)"/>
              <g id="Raggruppa_7984" data-name="Raggruppa 7984" transform="translate(0.638 9.787)">
                <path id="Tracciato_60767" data-name="Tracciato 60767" d="M215.81,247.745a5.6,5.6,0,0,0-1.342,2.93,5.31,5.31,0,0,0,.873,2.968c.1.177.212.351.322.523a.663.663,0,0,1,.369-.324c-.186-.437-.372-.874-.522-1.324a4.542,4.542,0,0,1-.269-1.483,3.469,3.469,0,0,1,.328-1.391,18.3,18.3,0,0,1,1.667-2.614,9.482,9.482,0,0,0,1.576-5.125A12.436,12.436,0,0,1,215.81,247.745Z" transform="translate(-214.461 -241.905)" fill="url(#linear-gradient-31)"/>
              </g>
              <g id="Raggruppa_7985" data-name="Raggruppa 7985" transform="translate(20.848 2.852)">
                <path id="Tracciato_60768" data-name="Tracciato 60768" d="M335.821,200.267a9.207,9.207,0,0,1,3.475,4.864,8.6,8.6,0,0,1,.548,3.464c-.033,1.224-.21,2.441-.216,3.666a9.506,9.506,0,0,0,.8,3.881,6.028,6.028,0,0,1-1.237-2.414,10.529,10.529,0,0,1-.253-3.272,24.592,24.592,0,0,0,.068-3.44,8.59,8.59,0,0,0-1.088-3.345A23.414,23.414,0,0,0,335.821,200.267Z" transform="translate(-335.821 -200.267)" fill="url(#linear-gradient-32)"/>
              </g>
              <g id="Raggruppa_7986" data-name="Raggruppa 7986" transform="translate(12.445 1.536)">
                <path id="Tracciato_60769" data-name="Tracciato 60769" d="M285.363,193.825a1.791,1.791,0,0,1,1.54-1.438,3.22,3.22,0,0,1,2.569.945,12.777,12.777,0,0,1,1.851,2.268c.567.818,1.108,1.657,1.73,2.434a4.2,4.2,0,0,0,2.451,1.8,2.676,2.676,0,0,1-2.1-.609,9.379,9.379,0,0,1-1.932-2.013c-.571-.763-1.082-1.569-1.633-2.346a5.224,5.224,0,0,0-1.968-1.911,2.05,2.05,0,0,0-1.521-.106A1.58,1.58,0,0,0,285.363,193.825Z" transform="translate(-285.363 -192.36)" fill="url(#linear-gradient-33)"/>
              </g>
              <g id="Raggruppa_7987" data-name="Raggruppa 7987" transform="translate(11.55)">
                <path id="Tracciato_60770" data-name="Tracciato 60770" d="M279.988,185.128a1.747,1.747,0,0,1,.687-1.352,2.709,2.709,0,0,1,1.8-.637,6.662,6.662,0,0,1,2.05.376,11.955,11.955,0,0,1,1.907.782,9.743,9.743,0,0,1,1.844,1.223,8.415,8.415,0,0,1-1.374-.367c-.54-.17-1.076-.352-1.613-.531-.62-.207-1.24-.422-1.868-.6a3.844,3.844,0,0,0-1.992-.162A1.863,1.863,0,0,0,279.988,185.128Z" transform="translate(-279.987 -183.139)" fill="url(#linear-gradient-34)"/>
              </g>
              <path id="Tracciato_60771" data-name="Tracciato 60771" d="M350.334,275.335c-1.037-1.6-2.988-2.769-3.529-4.671-.37-1.3.239-3.171.483-4.531-.92,1.8-1.664,3.8-.721,5.678.907,1.8,3.06,2.915,3.53,4.944.685,2.952-.32,5.372-3.812,6.22C351.277,282.514,352.177,278.279,350.334,275.335Z" transform="translate(-323.566 -252.312)" fill="url(#linear-gradient-35)"/>
              <g id="Raggruppa_7988" data-name="Raggruppa 7988" transform="translate(3.398 1.268)">
                <path id="Tracciato_60772" data-name="Tracciato 60772" d="M239.192,191.471c-2.031-1.382-4.591,1.089-5.786,2.587a10.384,10.384,0,0,0-2.287,6.8,13.873,13.873,0,0,1,.121-3.923,7.16,7.16,0,0,1,1.512-3.341C234.018,192.107,237.351,189.472,239.192,191.471Z" transform="translate(-231.039 -190.75)" fill="url(#linear-gradient-36)"/>
              </g>
              <path id="Tracciato_60773" data-name="Tracciato 60773" d="M324.279,229.116a17.054,17.054,0,0,0,2.577,2.429c.961.553,2.233,1.058,2.233,2.855a3.668,3.668,0,0,0-1.31-1.886A6.8,6.8,0,0,1,324.279,229.116Z" transform="translate(-305.353 -221.459)" fill="url(#linear-gradient-37)"/>
              <g id="Raggruppa_7989" data-name="Raggruppa 7989" transform="translate(21.531 20.884)">
                <path id="Tracciato_60774" data-name="Tracciato 60774" d="M340.166,308.546c-.111,2.276,2,2.805,2.635,3.56.772.923,1.348,2.141.492,2.984C343.916,311.883,338.755,312.151,340.166,308.546Z" transform="translate(-339.921 -308.546)" fill="url(#linear-gradient-38)"/>
              </g>
              <g id="Raggruppa_7990" data-name="Raggruppa 7990" transform="translate(19.155 11.718)">
                <path id="Tracciato_60775" data-name="Tracciato 60775" d="M326.662,253.505c3.072,2.553,2.048,4.6.873,7.044-.626,1.3-1.432,2.452-1.376,3.809a3.575,3.575,0,0,0,2.43,3.184c-3.218-.6-3.71-3.721-1.862-6.846C328.416,257.838,328.745,256.233,326.662,253.505Z" transform="translate(-325.655 -253.505)" fill="url(#linear-gradient-39)"/>
              </g>
              <g id="Raggruppa_7991" data-name="Raggruppa 7991" transform="translate(18.431 2.746)">
                <path id="Tracciato_60776" data-name="Tracciato 60776" d="M325.951,205.082a19.282,19.282,0,0,0-4.647-5.453C324.639,201.018,325.477,202.7,325.951,205.082Z" transform="translate(-321.304 -199.629)" fill="url(#linear-gradient-40)"/>
              </g>
              <path id="Tracciato_60777" data-name="Tracciato 60777" d="M281.253,204.09a4.266,4.266,0,0,1,4.036,2.088S283.879,203.062,281.253,204.09Z" transform="translate(-269.492 -200.427)" fill="url(#linear-gradient-41)"/>
              <path id="Tracciato_60778" data-name="Tracciato 60778" d="M247.038,261.46c.049.054.126,1.651.272,2.411a18.86,18.86,0,0,1,.444-3.082Z" transform="translate(-240.975 -247.858)" fill="url(#linear-gradient-42)"/>
              <path id="Tracciato_60779" data-name="Tracciato 60779" d="M222.387,204.608s-4.145.347-4.478,5.528c-.178,2.77.185,4.642-2.147,7.8a11.2,11.2,0,0,0-2.317,4.081c-.815,2.844,3.252,3.78,3.542,5.845.241,1.717-.547,3.521-4.02,3.666,1.169-.193,1.279-1.568.938-2.38-.2-.476-.956-.889-1.791-1.706-4.117-4.033,1.542-8.014,2.566-10.114a10.655,10.655,0,0,0,1.3-4.652c.152-1.126.159-4.281,1-5.64A4.813,4.813,0,0,1,222.387,204.608Z" transform="translate(-210.632 -200.946)" fill="url(#linear-gradient-43)"/>
              <path id="Tracciato_60780" data-name="Tracciato 60780" d="M233.186,213.863a4.738,4.738,0,0,0-1.34,2.763c-.1,1.579-.266,2.549-.378,3.849a17.414,17.414,0,0,1-2.251,6.09s2.845-3.057,2.808-6.574S232.387,215.223,233.186,213.863Z" transform="translate(-226.123 -208.746)" fill="url(#linear-gradient-44)"/>
              <g id="Raggruppa_7992" data-name="Raggruppa 7992" transform="translate(3.211 11.491)">
                <path id="Tracciato_60781" data-name="Tracciato 60781" d="M233.875,252.141c-.2,4.319-1.724,3.775-2.511,8.086-.5,2.717,2.108,5.052-1.453,6.048,2.782-.705.178-4.347.376-6.287C230.625,256.687,233.136,256.692,233.875,252.141Z" transform="translate(-229.911 -252.141)" fill="url(#linear-gradient-45)"/>
              </g>
              <g id="Raggruppa_7993" data-name="Raggruppa 7993" transform="translate(1.412 24.202)">
                <path id="Tracciato_60782" data-name="Tracciato 60782" d="M219.656,328.465c-.029,4.393,1,5.492,3.819,5.958C219.339,334.859,218.337,332.374,219.656,328.465Z" transform="translate(-219.111 -328.465)" fill="#824137"/>
              </g>
              <path id="Tracciato_60783" data-name="Tracciato 60783" d="M225.592,323.339s.966,1,2.209,2.1a2.774,2.774,0,0,1,.873,2.824c-.4,1.322-1.466,2.309-4.02,2.309,0,0,3.161-.5,3.35-2.38S226.786,325.052,225.592,323.339Z" transform="translate(-222.319 -299.991)" fill="url(#linear-gradient-46)"/>
              <g id="Raggruppa_7994" data-name="Raggruppa 7994" transform="translate(0.792 19.235)">
                <path id="Tracciato_60784" data-name="Tracciato 60784" d="M217.452,298.641c-.684,1.455-1.87,3.718-1.113,5.28.654,1.349,4.629,2.267,2.312,4.4.853-2.212-1.566-2.173-2.549-3.426C214.206,302.479,216.578,300.836,217.452,298.641Z" transform="translate(-215.387 -298.641)" fill="url(#linear-gradient-47)"/>
              </g>
              <g id="Raggruppa_7995" data-name="Raggruppa 7995" transform="translate(6.465 25.01)">
                <path id="Tracciato_60785" data-name="Tracciato 60785" d="M249.753,333.321c1.051.814,1.371,3.15-.3,3.535A3.278,3.278,0,0,0,249.753,333.321Z" transform="translate(-249.45 -333.321)" fill="url(#linear-gradient-48)"/>
              </g>
              <g id="Raggruppa_7996" data-name="Raggruppa 7996" transform="translate(14.719 4.492)">
                <path id="Tracciato_60786" data-name="Tracciato 60786" d="M299.038,210.124l-.019-.011Z" transform="translate(-299.019 -210.113)" fill="url(#linear-gradient-49)"/>
                <path id="Tracciato_60787" data-name="Tracciato 60787" d="M302.543,214.578c-1.855-2.354-1.128-3.134-3.409-4.4a4.986,4.986,0,0,1,1.57,2.223A8.358,8.358,0,0,0,302.185,215c.2.219.391.419.565.6h0a24.931,24.931,0,0,0,1.807,1.794C303.843,216.613,303.551,215.856,302.543,214.578Z" transform="translate(-299.115 -210.167)" fill="url(#linear-gradient-50)"/>
              </g>
            </g>
            <path id="Tracciato_60788" data-name="Tracciato 60788" d="M181.148,456.126s-7.537-1.526-8.554-1.737l.3-1.367,8.281,1.889Z" transform="translate(-172.594 -408.077)" fill="#068094"/>
            <path id="Tracciato_60789" data-name="Tracciato 60789" d="M216.96,421.294l.073-10.09-1.578,9.782Z" transform="translate(-208.317 -373.223)" fill="#068094"/>
            <g id="Raggruppa_7998" data-name="Raggruppa 7998" transform="translate(26.835 45.709)">
              <path id="Tracciato_60790" data-name="Tracciato 60790" d="M344.95,478.763s3.756-5.961,4.231-7.336a7.793,7.793,0,0,0,.273-4.022c-.256-2.184-1.23-9.795-1.23-9.795l-5.477,1.811s1.273,7.42,1.432,8.445a49.087,49.087,0,0,1-.291,5.618s-1.355,2.646-1.6,3.134a5.83,5.83,0,0,1-1.6,1.259,7.8,7.8,0,0,0-2.1.365,32.471,32.471,0,0,0-2.522,2.443c-.784.814-2.365,1.869-1.508,2.364.46.265,1.708-.917,1.708-.917l1.078-.772s-.537,1.372-.5,1.416c.194.253,1.465-.22,2.318.033a11.449,11.449,0,0,0,2.93.366Z" transform="translate(-334.206 -457.61)" fill="#f6be8f"/>
              <path id="Tracciato_60791" data-name="Tracciato 60791" d="M386.505,479.939s1.373-1.7,4.17-.027a14.113,14.113,0,0,1-1.968-2.189c-1.041-1.544-2.211-5.957-2.211-5.957l-1.443.108S386.188,477.9,386.505,479.939Z" transform="translate(-376.508 -469.409)" fill="#f6be8f"/>
              <path id="Tracciato_60792" data-name="Tracciato 60792" d="M376.119,530.49l-.4,3.692a33.361,33.361,0,0,1-1.569,3.246,10.757,10.757,0,0,1-1.528,1.193s2.357-.949,2.71-1.645a24.961,24.961,0,0,0,1.171-2.794C376.507,533.633,376.119,530.49,376.119,530.49Z" transform="translate(-366.149 -518.353)" fill="#f6be8f"/>
              <path id="Tracciato_60793" data-name="Tracciato 60793" d="M381.3,578.655c-2.786,4.468-3.492,5.408-3.492,5.408l-.639-.032,2.069-2.708Z" transform="translate(-369.932 -558.497)" fill="#f6be8f"/>
              <path id="Tracciato_60794" data-name="Tracciato 60794" d="M334.645,596.5s.154.45.809.128a25.187,25.187,0,0,0,2.166-1.651s-1.173,1.548-1.152,1.59c.1.207,1.552-.282,2.5.108a5.388,5.388,0,0,0,3.4.116l.66-.966s-3.643.331-5.592.294c0,0,1.048-1.95,1.154-2.144s-.492.242-1.128.839S335.052,596.918,334.645,596.5Z" transform="translate(-334.493 -571.231)" fill="#f6be8f"/>
              <path id="Tracciato_60795" data-name="Tracciato 60795" d="M334.589,603.755c-.132-.081-.848.422-.854.6-.005.152.259.523.365.508a1.508,1.508,0,0,0,.736-.654C334.9,604.018,334.74,603.848,334.589,603.755Z" transform="translate(-333.734 -579.409)" fill="#f6be8f"/>
              <path id="Tracciato_60796" data-name="Tracciato 60796" d="M413.194,464.878a4.25,4.25,0,0,1,.935-.2l1.116,8.938S413.559,467.175,413.194,464.878Z" transform="translate(-399.961 -463.503)" fill="#f6be8f"/>
              <path id="Tracciato_60797" data-name="Tracciato 60797" d="M384.232,459.478l.252,1.215s2.422-.9,5.525-1.753l-.169-1.329Z" transform="translate(-375.822 -457.61)" fill="#f6be8f"/>
              <path id="Tracciato_60798" data-name="Tracciato 60798" d="M399.941,521.621c1.061-.1,1.775,1.049,2.094,1.683s-3.585,7.506-4.156,7.925.172-8.755.682-9.183A2.206,2.206,0,0,1,399.941,521.621Z" transform="translate(-387.025 -510.956)" fill="#f6be8f"/>
              <path id="Tracciato_60799" data-name="Tracciato 60799" d="M340.9,582.747s2.9-2.955,3.179-3.068a5.776,5.776,0,0,1,2.1-.365,6.529,6.529,0,0,0-2.171.792A30.373,30.373,0,0,0,340.9,582.747Z" transform="translate(-339.706 -559.046)" fill="#f6be8f"/>
            </g>
            <path id="Tracciato_60800" data-name="Tracciato 60800" d="M376,455.719s7.537-1.526,8.554-1.737l-.3-1.367-8.281,1.889Z" transform="translate(-342.108 -407.738)" fill="#068094"/>
            <path id="Tracciato_60801" data-name="Tracciato 60801" d="M375.238,420.886l-.073-10.09,1.578,9.782Z" transform="translate(-341.43 -372.883)" fill="#068094"/>
            <path id="Tracciato_60802" data-name="Tracciato 60802" d="M344.995,607.09s-4.839.32-7.157.377a1.276,1.276,0,0,1-.595.249l.049.891a61.536,61.536,0,0,0,7.791-.4Z" transform="translate(-309.823 -536.488)" fill="#49a1b1"/>
          </g>
        </g>
        <rect id="Rettangolo_146046" data-name="Rettangolo 146046" width="9" height="4" transform="translate(32 43)" fill="#fff"/>
      </g>
    </g>
  </g>
</svg>
