<svg xmlns="http://www.w3.org/2000/svg" xmlns:xlink="http://www.w3.org/1999/xlink" width="60" height="60" viewBox="0 0 60 60">
  <defs>
    <clipPath id="clip-path">
      <circle id="Ellisse_78" data-name="Ellisse 78" cx="29" cy="29" r="29" fill="none"/>
    </clipPath>
  </defs>
  <g id="Raggruppa_8021" data-name="Raggruppa 8021" transform="translate(-19 -73)">
    <g id="Ellisse_83" data-name="Ellisse 83" transform="translate(19 73)" fill="#fff" stroke="#006cb4" stroke-width="1">
      <circle cx="30" cy="30" r="30" stroke="none"/>
      <circle cx="30" cy="30" r="29.5" fill="none"/>
    </g>
    <g id="Raggruppa_7781" data-name="Raggruppa 7781">
      <g id="Raggruppa_11" data-name="Raggruppa 11" transform="translate(20 74)" clip-path="url(#clip-path)">
        <ellipse id="Ellisse_79" data-name="Ellisse 79" cx="30.5" cy="31" rx="30.5" ry="31" transform="translate(-1 -4)" fill="none"/>
        <g id="Raggruppa_8024" data-name="Raggruppa 8024" transform="translate(-175.861 -528.4)">
          <g id="Raggruppa_7891" data-name="Raggruppa 7891" transform="translate(176.861 677.702)">
            <g id="Raggruppa_2024" data-name="Raggruppa 2024" transform="translate(0)">
              <path id="Tracciato_6260" data-name="Tracciato 6260" d="M323.107,618.723c.011,7.5,12.331,13.507,27.519,13.425s27.492-6.222,27.481-13.716-12.33-13.507-27.518-13.425S323.1,611.229,323.107,618.723Z" transform="translate(-323.107 -605.006)" fill="#cddeec"/>
            </g>
          </g>
          <g id="Raggruppa_7923" data-name="Raggruppa 7923" transform="translate(185.124 532.441)">
            <g id="Raggruppa_7916" data-name="Raggruppa 7916" transform="translate(1.058 75.891)">
              <path id="Tracciato_60376" data-name="Tracciato 60376" d="M335.05-39.045l-12.406.107,2.27,37.711s-.318,6.469-.887,11.112c-1.136,9.275,1,33.876,1,33.876l5.761.213,4.155-41.366s.921-25.354.707-29.615C335.455-30.906,335.218-37.9,335.05-39.045Z" transform="translate(-306.343 39.045)" fill="#f0c6a8"/>
              <path id="Tracciato_60377" data-name="Tracciato 60377" d="M335.05-39.045l-12.406.107,2.27,37.711s-.318,6.469-.887,11.112c-.858,7,.148,22.718.693,30.016.136-2.307.3-4.616.4-6.93.268-6.314.069-12.651.717-18.946.6-5.8,1.99-10.914,2.941-16.66.651-3.936,2.747-6,6.424-7.36.057-.021.109-.028.163-.043.211-7.025.4-14.78.291-16.969C335.455-30.906,335.218-37.9,335.05-39.045Z" transform="translate(-306.343 39.045)" opacity="0.06"/>
              <path id="Tracciato_60378" data-name="Tracciato 60378" d="M303.115-29.512c0,4.687.427,24.91.427,26.206,0,2.983-.87,9.98-1.314,14.094-.26,2.415-1.347,31.959-1.347,31.959l5.761,1.278L313.821.815l2.9-28.835,1.214-10.866H304.984A31.68,31.68,0,0,0,303.115-29.512Z" transform="translate(-299.268 38.994)" fill="#f0c6a8"/>
              <path id="Tracciato_60379" data-name="Tracciato 60379" d="M303.115-29.512c0,4.687.427,24.91.427,26.206,0,2.983-.87,9.98-1.314,14.094-.138,1.284-1.029,23.857-1.347,31.959.69-4.9,2.185-23.394,3.068-28.254,1.062-5.853.37-11.7,2.4-17.327,1.4-3.875,4.2-5.7,7.975-6.958a1.842,1.842,0,0,1,.578-.091l1.827-18.138,1.214-10.866H304.984A31.68,31.68,0,0,0,303.115-29.512Z" transform="translate(-299.268 38.994)" opacity="0.06"/>
              <path id="Tracciato_60380" data-name="Tracciato 60380" d="M310.717,85.416l-4.745-3.158-6.2-.269a12.189,12.189,0,0,0-1.208,6.562h16.228S314.615,85.936,310.717,85.416Z" transform="translate(-298.491 -0.305)" fill="#e6dcd1"/>
              <path id="Tracciato_60381" data-name="Tracciato 60381" d="M314.39,87.033l-.1-.068c-2.322-.056-3.521.568-4.323,2.816a3.409,3.409,0,0,1-.176.386h8.676S318.288,87.553,314.39,87.033Z" transform="translate(-302.164 -1.922)" fill="#c9d5db"/>
              <path id="Tracciato_60382" data-name="Tracciato 60382" d="M298.5,89.649a9.991,9.991,0,0,0,.07,1.392h16.228a2.9,2.9,0,0,0-.592-1.392Z" transform="translate(-298.491 -2.795)" fill="#7995a4"/>
              <path id="Tracciato_60383" data-name="Tracciato 60383" d="M338.859,85.533l-7.634-3.353-6.189-.107a10.391,10.391,0,0,0-1.649,6.505h19.547S342.756,86.054,338.859,85.533Z" transform="translate(-306.565 -0.332)" fill="#e6dcd1"/>
              <path id="Tracciato_60384" data-name="Tracciato 60384" d="M345,87.095l-.5-.219c-.1.021-.2.047-.308.061a1.9,1.9,0,0,0-1.707,1.35,4.565,4.565,0,0,1-.212.852,6.391,6.391,0,0,0-.063,1h6.862S348.9,87.616,345,87.095Z" transform="translate(-312.705 -1.894)" fill="#c9d5db"/>
              <path id="Tracciato_60385" data-name="Tracciato 60385" d="M323.357,89.334a8.131,8.131,0,0,0,.031,1.6h19.547a2.868,2.868,0,0,0-.815-1.6Z" transform="translate(-306.567 -2.693)" fill="#7995a4"/>
            </g>
            <path id="Tracciato_60386" data-name="Tracciato 60386" d="M325.731-63.114H305.143s-5.126,12.863-5.363,19.772-.331,24.749-.331,24.749h30.7l-.29-18.91C329.563-53.222,325.731-63.114,325.731-63.114Z" transform="translate(-297.744 122.761)" fill="#6ca4ff"/>
            <path id="Tracciato_60387" data-name="Tracciato 60387" d="M305.181-63.114s-5.126,12.863-5.363,19.772c-.116,3.391-.2,9.421-.252,14.681a36.768,36.768,0,0,1,5.626-11.107c5.56-7.26,15.549-7.466,23.852-8.788a83.816,83.816,0,0,0-3.275-14.558Z" transform="translate(-297.782 122.761)" opacity="0.1"/>
            <path id="Tracciato_60388" data-name="Tracciato 60388" d="M335.47-107.065l-.257-.539a7.2,7.2,0,0,0-4.19-3.511l-6.385-2.462a4.957,4.957,0,0,1-.5,1.46l-.005.009c-.024.045-.045.09-.07.135a4.979,4.979,0,0,1-5.068,2.618c-3.6-.236-5.185-2.91-4.931-5.4l-8.07,1.954a7.225,7.225,0,0,0-5.215,3.675S305-103.294,306.2-98.97c0,0-.179,11.52-.987,15.694-.481,2.482-4.059,16.3-4.059,16.3l28.763,1.886s-.985-11.943-1.118-13.979c-.213-3.277,2.271-14.656,2.381-16.326l.02-.309s-.024-1.2-.15-2.792a28.986,28.986,0,0,1,5.166-1.734l-.5-6.152A5.271,5.271,0,0,0,335.47-107.065Z" transform="translate(-298.175 139.551)" fill="#e6dcd1"/>
            <path id="Tracciato_60389" data-name="Tracciato 60389" d="M329.413-85.254c-.584-.04.536-11.85.282-11.3-1.42,3.087,1.137,11.381-3.726,11.145-5.49-.265-15.539,2.263-17.081-3.235C306.74-96.3,305.677-102.2,301.1-107.2c-.133.2-.242.381-.323.529,0,0,4.227,5.832,5.421,10.157,0,0-.179,11.52-.987,15.694-.258,1.331-1.423,6.177-2.412,9.825a36.273,36.273,0,0,1,5.4-2.624c6.615-1.925,13.888-1.728,20.737-1.327-.065-.74-.115-1.33-.137-1.672a51.2,51.2,0,0,1,1.05-8.655A1.974,1.974,0,0,1,329.413-85.254Z" transform="translate(-298.175 137.094)" opacity="0.05"/>
            <g id="Raggruppa_7917" data-name="Raggruppa 7917" transform="translate(8.456 0)">
              <path id="Tracciato_60390" data-name="Tracciato 60390" d="M317.747-133.3c-.168,3.727,4.79,6.978,7.247,7.089,4.171.188,7.237-4,7.4-7.729l.962-9.992-17.772,3.323Z" transform="translate(-311.448 149.036)" fill="#f0c6a8"/>
              <path id="Tracciato_60391" data-name="Tracciato 60391" d="M320.114-117.336c-.047,2.222,4.7,4.323,4.7,4.323a4.187,4.187,0,0,0,4.306-4.131l.8-9.005-9.005-.192Z" transform="translate(-312.918 143.317)" fill="#f6be8f"/>
              <path id="Tracciato_60392" data-name="Tracciato 60392" d="M325.207-119.867a5.281,5.281,0,0,0,5.871,1.408l.061-.636C328.332-117.891,325.207-119.867,325.207-119.867Z" transform="translate(-314.575 141.212)" opacity="0.1"/>
              <path id="Tracciato_60393" data-name="Tracciato 60393" d="M324.89-151.466s-9.44-1.01-9.97,8.858c-.144,2.685,1.962,9.517,4.542,11.139l-1.058-5.093s-1.66.138-1.485-3.737c.063-1.416.7-1.425,1.192-1.4.667.03.648.974.648.974l.794.036.047-1.042a2.523,2.523,0,0,1,2.776-2.245l2.748.007C324.323-145.226,324.89-151.466,324.89-151.466Z" transform="translate(-311.227 151.495)" fill="#ce982b"/>
              <path id="Tracciato_60394" data-name="Tracciato 60394" d="M330.146-151.247l-1.871-.123-2.389,7.4s5.461.892,7.551-1.215c0,0,2.876,3.736,2.633,6.238,0,0,1.316-1.351,1.637-4.654C337.707-143.6,338.471-150.437,330.146-151.247Z" transform="translate(-314.795 151.455)" fill="#ce982b"/>
              <path id="Tracciato_60395" data-name="Tracciato 60395" d="M315.5-143.632s-.981-3.5-4.8-.795c-2.805,1.987,0,12.979,0,12.979a8.136,8.136,0,0,0,3.908-3.915S311.951-142.5,315.5-143.632Z" transform="translate(-309.452 149.531)" fill="#ce982b"/>
            </g>
            <path id="Tracciato_60396" data-name="Tracciato 60396" d="M316.344-114.907l5.312,7.845,2.94-2.9c-.006-.1-5.573-7.144-5.573-7.144Z" transform="translate(-303.237 140.314)" fill="#f7f8f9"/>
            <path id="Tracciato_60397" data-name="Tracciato 60397" d="M328.106-109.434l2.537,3.256,4.485-6.86-3.23-2.386S328.126-109.53,328.106-109.434Z" transform="translate(-307.061 139.768)" fill="#f7f8f9"/>
            <g id="Raggruppa_7918" data-name="Raggruppa 7918" transform="translate(0 28.739)">
              <path id="Tracciato_60398" data-name="Tracciato 60398" d="M306.339-84.874s-.509-14.975-.924-17.422-1.643-6.557-4.288-6.615a9.338,9.338,0,0,0-2.5,6.516c.08,4.036-1.184,12.676-.547,15.251s.425,10.2,3.858,10.54,22.777-1.869,22.777-1.869l-.979-4.263Z" transform="translate(-297.24 108.911)" fill="#e6dcd1"/>
              <path id="Tracciato_60399" data-name="Tracciato 60399" d="M306.374-74.7s0-.128-.013-.359a1.761,1.761,0,0,1-.833-.124c-2.457-.968-5-1.656-7.522-2.44a5.15,5.15,0,0,0,.108.653c.387,1.564.462,4.987,1.228,7.514,6.263.361,12.506.636,18.677,1.882,3.789-.389,6.73-.725,6.73-.725l-.979-4.263Z" transform="translate(-297.275 98.739)" opacity="0.05"/>
              <path id="Tracciato_60400" data-name="Tracciato 60400" d="M312.127-75l-4.84-.835-3.86-2.615-3.6-.466-2.61.29a1.022,1.022,0,0,0-.133,1.143c.368.543.153.3.153.3a.9.9,0,0,0,.136,1.449s-.416,1.067.074,1.5a2.132,2.132,0,0,0-.06.918l.642.733a3,3,0,0,0,.311,1.4c.318.424.395,1,1.951.992s6.271-.8,6.271-.8l5.027.618S313.461-74.275,312.127-75Z" transform="translate(-296.922 99.158)" fill="#f0c6a8"/>
              <path id="Tracciato_60401" data-name="Tracciato 60401" d="M333.514-93.362l.573,11.088-19.928-1.137-.893,4.749s16.28,4.612,24.316,5.1c2.791.17,3.827-1.468,3.978-4.461.74-14.727-1.785-24.559-1.785-24.559C334.558-105.573,333.514-93.362,333.514-93.362Z" transform="translate(-302.236 107.007)" fill="#e6dcd1"/>
              <path id="Tracciato_60402" data-name="Tracciato 60402" d="M348.823-77.726c.183-.161.221-.734.221-.734l-1.3-1.237-3.073-.547.427-.375a15.843,15.843,0,0,0,2.229.261c.807,0,.924-.919.924-.919l-4.094-.786-3.347,1.853-3.712,4.5c3.661.31,5.357.474,6.4.427s4.01-.746,4.354-.724a1.206,1.206,0,0,0,1.024-.681c.08-.341-.922-.867-.922-.867l-.983-.813S348.639-77.566,348.823-77.726Z" transform="translate(-309.983 100.182)" fill="#f0c6a8"/>
            </g>
          </g>
        </g>
      </g>
    </g>
  </g>
</svg>
