<svg xmlns="http://www.w3.org/2000/svg" xmlns:xlink="http://www.w3.org/1999/xlink" width="60" height="60" viewBox="0 0 60 60">
  <defs>
    <clipPath id="clip-path">
      <circle id="Ellisse_78" data-name="Ellisse 78" cx="29" cy="29" r="29" fill="none"/>
    </clipPath>
  </defs>
  <g id="Raggruppa_8030" data-name="Raggruppa 8030" transform="translate(-19 -73)">
    <g id="Ellisse_83" data-name="Ellisse 83" transform="translate(19 73)" fill="#fff" stroke="#006cb4" stroke-width="1">
      <circle cx="30" cy="30" r="30" stroke="none"/>
      <circle cx="30" cy="30" r="29.5" fill="none"/>
    </g>
    <g id="Raggruppa_7781" data-name="Raggruppa 7781">
      <g id="Raggruppa_11" data-name="Raggruppa 11" transform="translate(21 74)" clip-path="url(#clip-path)">
        <ellipse id="Ellisse_79" data-name="Ellisse 79" cx="30.5" cy="31" rx="30.5" ry="31" transform="translate(-1 -4)" fill="none"/>
        <g id="Raggruppa_8008" data-name="Raggruppa 8008" transform="translate(-1200.447 -248.635)">
          <g id="Raggruppa_7895" data-name="Raggruppa 7895" transform="translate(1209.822 365.133)">
            <g id="Raggruppa_2024" data-name="Raggruppa 2024" transform="translate(0)">
              <path id="Tracciato_6260" data-name="Tracciato 6260" d="M323.107,615.132c.008,5.534,9.1,9.971,20.314,9.91s20.294-4.593,20.286-10.125-9.1-9.97-20.313-9.91S323.1,609.6,323.107,615.132Z" transform="translate(-323.107 -605.006)" fill="#cddeec"/>
            </g>
          </g>
          <g id="Raggruppa_7901" data-name="Raggruppa 7901" transform="translate(1202.601 252.154)">
            <g id="Raggruppa_2353" data-name="Raggruppa 2353" transform="translate(1.73 19.696)">
              <path id="Tracciato_6614" data-name="Tracciato 6614" d="M1290.048,641.6a67.131,67.131,0,0,1-.558,7.526l.1-.76c-.817,6-2.669,11.764-4.521,17.513q-.181.561-.408,1.1l.288-.683a31.008,31.008,0,0,1-1.569,3.085c-1.1,1.955-2.275,3.869-3.456,5.776q-1.565,2.525-3.159,5.031a2.883,2.883,0,0,0,1.025,3.91,2.918,2.918,0,0,0,3.91-1.025c1.841-2.9,3.677-5.81,5.431-8.766.861-1.451,1.723-2.913,2.445-4.439a38.982,38.982,0,0,0,1.783-4.919c1.041-3.271,2.065-6.551,2.815-9.9a67.944,67.944,0,0,0,1.588-13.449,2.858,2.858,0,0,0-5.716,0Z" transform="translate(-1276.381 -638.741)" fill="#d9eaff"/>
            </g>
            <rect id="Rettangolo_2491" data-name="Rettangolo 2491" width="6.751" height="9.517" rx="3.375" transform="translate(6.36 68.677) rotate(-160.402)" fill="#f6be8f"/>
            <path id="Tracciato_6615" data-name="Tracciato 6615" d="M1321.318,752.625l16.042,5.95V731.65l-16.042-5.949Z" transform="translate(-1302.465 -672.869)" fill="#86a3bf"/>
            <path id="Tracciato_6616" data-name="Tracciato 6616" d="M1343.132,640.458l-10.7-2.65,1.552-5.259c3.223-.061,5.491.968,8.2,2.81Z" transform="translate(-1309.344 -615.211)" fill="#2b337c"/>
            <path id="Tracciato_6617" data-name="Tracciato 6617" d="M1362.093,908.316a22.076,22.076,0,0,0,1.319-3.628,13.129,13.129,0,0,0,.143-1.784c-.052-.87.083-1.388-1.866-2.59-3.187-1.966-6.188,8.806-6.188,8.806l-.211,2.619a1.4,1.4,0,0,0,.7,1.238l.231.075a2.831,2.831,0,0,0,3.115-.75A10.689,10.689,0,0,0,1362.093,908.316Z" transform="translate(-1323.484 -780.798)" fill="#6ca4ff"/>
            <path id="Tracciato_6618" data-name="Tracciato 6618" d="M1362.382,905.146c.067-.156,2.994-6.6.147-7.753-2.509-1.014-3.772,1.47-4.79,4.116-.3.78-1.026,2.453-1.318,3a10.75,10.75,0,0,0-.561,2.172l.005,2.068c-.067.458.539.054.959.315l.357-1.835c.813.506,1.482,2.8,2.161,2.037C1360.509,907.966,1361.25,907.761,1362.382,905.146Z" transform="translate(-1323.844 -778.995)" fill="#21275e"/>
            <g id="Raggruppa_2354" data-name="Raggruppa 2354" transform="translate(30.642 60.263)">
              <path id="Tracciato_6619" data-name="Tracciato 6619" d="M1354.782,747.614c-3.208,9.851-2.754,20.8-1.9,30.99.395,4.722.964,9.426,1.539,14.129a71.028,71.028,0,0,1,.858,9.277c-.047,4.48,6.912,4.483,6.959,0a68.007,68.007,0,0,0-.809-8.867c-.568-4.665-1.141-9.33-1.544-14.014-.839-9.751-1.464-20.224,1.611-29.665,1.39-4.268-5.328-6.1-6.711-1.85Z" transform="translate(-1352.257 -745.201)" fill="#a8c4e5"/>
            </g>
            <g id="Raggruppa_2355" data-name="Raggruppa 2355" transform="translate(14.31 58.645)">
              <path id="Tracciato_6620" data-name="Tracciato 6620" d="M1313.043,743.418a109.341,109.341,0,0,0-2.973,18.1c-.358,3.562-.917,7.119-.562,10.691.689,6.925,1.965,13.959,1.916,20.931-.032,4.479,6.927,4.483,6.959,0,.049-6.873-1.2-13.811-1.886-20.636a51.629,51.629,0,0,1,.468-10.333,100.485,100.485,0,0,1,2.788-16.9c1.19-4.324-5.521-6.17-6.71-1.85Z" transform="translate(-1309.395 -740.958)" fill="#a8c4e5"/>
            </g>
            <g id="Raggruppa_2356" data-name="Raggruppa 2356" transform="translate(34.393 116.535)">
              <path id="Tracciato_6621" data-name="Tracciato 6621" d="M1362.1,893.478c1.493,1.269,4.548,1.049,5.675-.6.031.9.046,1.8.036,2.7-.039,3.658-5.732,3.747-5.692.076C1362.124,894.928,1362.116,894.2,1362.1,893.478Z" transform="translate(-1362.098 -892.88)" fill="#21275e"/>
            </g>
            <path id="Tracciato_6622" data-name="Tracciato 6622" d="M1322.475,747.975h0c.643.721-2.119-2.783-1.292-2.284,1.721,1.04,11.382,7.6,13.393,7.637,2.428.04,1.013-2.307,2.821-3.929,1.715-1.539,2.119-4.039,2.286-6.337a3.981,3.981,0,0,0-.176-1.883,4.057,4.057,0,0,0-1.39-1.494c-4.292-3.249-12.734-11.289-18.73-8.718C1312.458,733.938,1319.4,744.528,1322.475,747.975Z" transform="translate(-1299.429 -675.82)" fill="#a8c4e5"/>
            <path id="Tracciato_6623" data-name="Tracciato 6623" d="M1317.32,637.352c-1.271,1.638-1.12,2.651-1.059,4.888a5,5,0,0,0,3.648,4.67l21.513,6.033s1.236-8.276-3.007-10.768c-2.285-1.342-5.832-3.489-8.617-5.185C1325.707,634.5,1320.255,633.567,1317.32,637.352Z" transform="translate(-1299.31 -616.614)" fill="#366bc1"/>
            <path id="Tracciato_6624" data-name="Tracciato 6624" d="M1316.126,683.315c.638.828,1.451-22.383.188-37.068l24.217,11.522c-.122,11.066-1.52,19.8-.194,33.285Z" transform="translate(-1299.251 -623.691)" fill="#366bc1"/>
            <path id="Tracciato_6625" data-name="Tracciato 6625" d="M1332.244,748.543c-5.983-2.182-11.682-4.571-15.031-8.678-1.645-.95-1.437-2.624.463-3.72h0a7.187,7.187,0,0,1,6.443-.267l15.031,8.678c1.644.95,1.436,2.624-.463,3.72h0A7.188,7.188,0,0,1,1332.244,748.543Z" transform="translate(-1299.237 -678.771)" fill="#366bc1"/>
            <path id="Tracciato_6626" data-name="Tracciato 6626" d="M1366.067,890.979l.063,2.521a.522.522,0,0,1-.086.3,4.6,4.6,0,0,1-4.506,1.984,10.288,10.288,0,0,1-4.237-1.317.523.523,0,0,1-.24-.466l.108-2.575a.525.525,0,0,1,.765-.449,7.193,7.193,0,0,0,7.325-.432A.528.528,0,0,1,1366.067,890.979Z" transform="translate(-1324.587 -774.852)" fill="#d9eaff"/>
            <g id="Raggruppa_2357" data-name="Raggruppa 2357" transform="translate(8.734 112.22)">
              <path id="Tracciato_6627" data-name="Tracciato 6627" d="M1303.138,891.744c.155-.067,1.683-1.293,1.828-1.356.222-.1,2.4-1.177,2.75-1.366.728-.4,2.5-.662,1.6-3-1.321-3.427-10.437,1.988-10.437,1.988l-3.051,2.36a1.027,1.027,0,0,0-.36,1.174h0a2.306,2.306,0,0,0,2.4,1.325A13.222,13.222,0,0,0,1303.138,891.744Z" transform="translate(-1295.163 -883.614)" fill="#6ca4ff"/>
              <path id="Tracciato_6628" data-name="Tracciato 6628" d="M1302.488,888.59c.156-.067,1.683-1.292,1.828-1.356.223-.1,2.866-1.152,3.211-1.342.728-.4,2.447-.888,1.544-3.229-1.321-3.427-10.843,2.189-10.843,2.189l-3.052,2.361a1.028,1.028,0,0,0-.359,1.173h0a2.306,2.306,0,0,0,2.4,1.325A13.216,13.216,0,0,0,1302.488,888.59Z" transform="translate(-1294.761 -881.555)" fill="#21275e"/>
              <path id="Tracciato_6629" data-name="Tracciato 6629" d="M1298.964,896.925c-.458.035-1.309.048-1.853.113a2.174,2.174,0,0,1-2.293-1.334,1.029,1.029,0,0,1,.359-1.173l1.49-1.152C1297.883,893.65,1298.649,894.919,1298.964,896.925Z" transform="translate(-1294.761 -888.873)" fill="#21275e"/>
              <path id="Tracciato_6630" data-name="Tracciato 6630" d="M1360.645,923.476c-.282.362-.846,1-1.165,1.445a2.716,2.716,0,0,1-2.844.942,1.39,1.39,0,0,1-.844-1.173l-.042-1.847C1356.772,922.128,1358.95,922.358,1360.645,923.476Z" transform="translate(-1332.511 -906.857)" fill="#21275e"/>
            </g>
            <g id="Raggruppa_2358" data-name="Raggruppa 2358" transform="translate(17.206 109.615)">
              <path id="Tracciato_6631" data-name="Tracciato 6631" d="M1317.007,875.183c1.475,1.144,4.533.986,5.682-.464.019.8.022,1.6,0,2.394-.088,3.248-5.781,3.26-5.693,0C1317.014,876.471,1317.016,875.827,1317.007,875.183Z" transform="translate(-1316.995 -874.719)" fill="#21275e"/>
            </g>
            <path id="Tracciato_6632" data-name="Tracciato 6632" d="M1321,872.349l-.062,2.521a.521.521,0,0,1-.1.3,4.6,4.6,0,0,1-4.6,1.758,10.287,10.287,0,0,1-4.167-1.525.523.523,0,0,1-.216-.477l.235-2.567a.526.526,0,0,1,.786-.411,7.194,7.194,0,0,0,7.338-.068A.528.528,0,0,1,1321,872.349Z" transform="translate(-1296.603 -763.304)" fill="#d9eaff"/>
            <path id="Tracciato_6633" data-name="Tracciato 6633" d="M1338.356,631.051l-2.463-9.089,6.243,1.73,2,7.422C1344.572,632.323,1340.166,635.686,1338.356,631.051Z" transform="translate(-1311.486 -608.659)" fill="#ffaa82"/>
            <path id="Tracciato_6634" data-name="Tracciato 6634" d="M1340.586,648.225a3.111,3.111,0,0,0,1.456.118l2.477,4.2-.128.138a.885.885,0,0,1-1.391-.088Z" transform="translate(-1314.391 -624.915)" fill="#3165af"/>
            <path id="Tracciato_6635" data-name="Tracciato 6635" d="M1338.981,649.7a2.692,2.692,0,0,1-1.231-.439l-3.908,2.567.041.161a.77.77,0,0,0,1.166.44Z" transform="translate(-1310.216 -625.557)" fill="#3165af"/>
            <path id="Tracciato_6636" data-name="Tracciato 6636" d="M1336.273,640.971s-2.635-.01-3.128-4.6l-1.755-.245c-.242.192-.749.063-.985,1.6a6.978,6.978,0,0,0,.146,2.741l.651,2.614a.888.888,0,0,0,1.357.5Z" transform="translate(-1308.043 -617.429)" fill="#6ca4ff"/>
            <path id="Tracciato_6637" data-name="Tracciato 6637" d="M1337.759,648.153a2.693,2.693,0,0,1-1.232-.439l-3.908,2.567.041.161a.77.77,0,0,0,1.166.44Z" transform="translate(-1309.459 -624.599)" fill="#fcfeff"/>
            <path id="Tracciato_6638" data-name="Tracciato 6638" d="M1342.367,643.109s3,1.033,5.971-3.181l1.953,2.427c.173.372.193.417-.109.745l-3.942,4.276a1.021,1.021,0,0,1-1.616-.109Z" transform="translate(-1315.493 -619.78)" fill="#6ca4ff"/>
            <path id="Tracciato_6639" data-name="Tracciato 6639" d="M1342.171,648.225a3.109,3.109,0,0,0,1.455.118l2.477,4.2-.128.138a.885.885,0,0,1-1.391-.088Z" transform="translate(-1315.372 -624.915)" fill="#fcfeff"/>
            <path id="Tracciato_6640" data-name="Tracciato 6640" d="M1340.84,638.905s2.56-1.31,2.57-1.335a6.752,6.752,0,0,1-2.146,2.59Z" transform="translate(-1314.548 -618.32)" fill="#ea8a6c"/>
            <path id="Tracciato_6641" data-name="Tracciato 6641" d="M1342.342,709.067c1.952.89,4.028,1.688,6.142,2.459a7.187,7.187,0,0,0,6.443-.267h0a2.6,2.6,0,0,0,1.57-2.161l.066.021c-1.325-13.486.073-22.219.195-33.285l-.843-.4C1355.45,688.279,1353.379,708.569,1342.342,709.067Z" transform="translate(-1315.478 -641.755)" fill="#366bc1"/>
            <path id="Tracciato_6642" data-name="Tracciato 6642" d="M1351.889,645.27l-3.409,5.059c-1.419,1.772-2.028,8.691-2,10.861l-1.026,51.737s14.983.8,14.331-6.443c-1.869-20.759,2.532-53.13-1.1-56.582C1354.486,645.914,1351.889,645.27,1351.889,645.27Z" transform="translate(-1317.406 -623.086)" fill="#d9eaff"/>
            <g id="Raggruppa_2359" data-name="Raggruppa 2359" transform="translate(36.422 26.157)">
              <path id="Tracciato_6643" data-name="Tracciato 6643" d="M1368.233,660.569c1.439,1.627,2.938,3.2,4.3,4.893.164.2.824,1.08.188.23.169.226.339.449.5.677q.522.719,1,1.467a22.812,22.812,0,0,1,1.762,3.322l-.288-.683a18.011,18.011,0,0,1,1.232,4.449l-.1-.76a25.533,25.533,0,0,1,.087,4.45c-.06,1.338-.163,2.673-.34,4l.1-.759a22.883,22.883,0,0,1-1.472,5.712l.288-.683a17.648,17.648,0,0,1-1.117,2.2q-.315.525-.665,1.028-.186.267-.38.527c-.13.174-.436.534.18-.23-.07.086-.137.174-.207.26a31.5,31.5,0,0,1-4.073,4.085,2.872,2.872,0,0,0,0,4.042,2.93,2.93,0,0,0,4.042,0,29.164,29.164,0,0,0,5.874-6.557A21.568,21.568,0,0,0,1382,684.59a44.54,44.54,0,0,0,.59-5.178,28.188,28.188,0,0,0-.037-5.175,20.2,20.2,0,0,0-1.344-5.281,25.984,25.984,0,0,0-2.485-4.666,78.479,78.479,0,0,0-6.453-7.762,2.876,2.876,0,0,0-4.042,0,2.927,2.927,0,0,0,0,4.042Z" transform="translate(-1367.423 -655.697)" fill="#d9eaff"/>
            </g>
            <path id="Tracciato_6644" data-name="Tracciato 6644" d="M1364.537,759.914h0a2.588,2.588,0,0,1,.7-3.583l4.073-2.749a2.588,2.588,0,0,1,3.583.7h0a2.588,2.588,0,0,1-.7,3.583l-4.073,2.749A2.588,2.588,0,0,1,1364.537,759.914Z" transform="translate(-1328.943 -689.854)" fill="#f6be8f"/>
            <path id="Tracciato_6645" data-name="Tracciato 6645" d="M1314.851,646.31l1.879-8.869s-1.441-2.43-4.532-.7c-4.691,2.629-1.573,35.705-1.69,41.493s-4.126,14.938-3.344,21.759c0,0,1.265,2.134,5.033,2.43,0,0-.683-16.158.565-26.851S1314.851,646.31,1314.851,646.31Z" transform="translate(-1293.642 -617.423)" fill="#d9eaff"/>
            <path id="Tracciato_6646" data-name="Tracciato 6646" d="M1355.441,644.413s-3.768,7.953-4.486,10.17l-2.529.767.771,3.227-2,9.493s-2.024-15.7,4.505-26.323Z" transform="translate(-1318.299 -620.905)" fill="#fff"/>
            <path id="Tracciato_6647" data-name="Tracciato 6647" d="M1321.38,634.755s.044,8.484-.062,10.811l1.613,1.76-1.345,2.494,1.231,9.671s1.141-13.167,3-26.282Z" transform="translate(-1302.464 -615.62)" fill="#fff"/>
            <path id="Tracciato_6658" data-name="Tracciato 6658" d="M4.968,0H6.742a4.968,4.968,0,0,1,4.968,4.968v9.022a4.968,4.968,0,0,1-4.968,4.968H4.968A4.968,4.968,0,0,1,0,13.991V4.968A4.968,4.968,0,0,1,4.968,0Z" transform="translate(19.125 1.852) rotate(-1.913)" fill="#f6be8f"/>
            <path id="Tracciato_6656" data-name="Tracciato 6656" d="M1326.3,595.392a8.046,8.046,0,0,1-6.214.567c-2.232-.861-3.81-4-2.058-5.626.947-.881,3.373-1.676,5.39-2.494,5.721-2.322,11.924.611,12.141,7.144,0,0,.427,7.243-3.283,9.657a1.159,1.159,0,0,1-1.74-.7h0s1.878-2.668-1.315-4.6a2.667,2.667,0,0,1-.842-2.54A1.466,1.466,0,0,0,1326.3,595.392Z" transform="translate(-1299.965 -587.051)" fill="#21275e"/>
            <path id="Tracciato_6657" data-name="Tracciato 6657" d="M1353.1,621.927a1.19,1.19,0,0,1-2.033-.51,2.855,2.855,0,0,1,.848-2.905,1.19,1.19,0,0,1,2.033.51A2.855,2.855,0,0,1,1353.1,621.927Z" transform="translate(-1320.807 -606.29)" fill="#ffaa82"/>
          </g>
        </g>
      </g>
    </g>
  </g>
</svg>
