<svg id="Raggruppa_8037" data-name="Raggruppa 8037" xmlns="http://www.w3.org/2000/svg" xmlns:xlink="http://www.w3.org/1999/xlink" width="79.623" height="231.203" viewBox="0 0 79.623 231.203">
  <defs>
    <clipPath id="clip-path">
      <rect id="Rettangolo_146049" data-name="Rettangolo 146049" width="79.623" height="231.203" fill="none"/>
    </clipPath>
    <clipPath id="clip-path-2">
      <path id="Tracciato_60856" data-name="Tracciato 60856" d="M17.73,33a29,29,0,1,0,29-29,29,29,0,0,0-29,29" fill="none"/>
    </clipPath>
  </defs>
  <g id="Raggruppa_8034" data-name="Raggruppa 8034">
    <g id="Raggruppa_8033" data-name="Raggruppa 8033" clip-path="url(#clip-path)">
      <path id="Tracciato_60829" data-name="Tracciato 60829" d="M47.73,3a30,30,0,1,1-30,30,30,30,0,0,1,30-30" fill="#fff"/>
      <circle id="Ellisse_197" data-name="Ellisse 197" cx="29.5" cy="29.5" r="29.5" transform="translate(17.23 3.5)" fill="none" stroke="#006cb4" stroke-width="1"/>
    </g>
  </g>
  <g id="Raggruppa_8036" data-name="Raggruppa 8036">
    <g id="Raggruppa_8035" data-name="Raggruppa 8035" clip-path="url(#clip-path-2)">
      <rect id="Rettangolo_146050" data-name="Rettangolo 146050" width="14.785" height="25.079" transform="translate(40.753 60.985)" fill="#b1bbcc"/>
      <path id="Tracciato_60830" data-name="Tracciato 60830" d="M46.651,56.577,54,121.987c.041.557,3.755.851,3.746.356l-.177-66.525a1.028,1.028,0,0,0-1.053-1l-.047,0-8.974.763a.918.918,0,0,0-.845.986v.01" fill="#f6be8f"/>
      <path id="Tracciato_60831" data-name="Tracciato 60831" d="M39.027,88l3.65,33.992c.038.557,3.751.851,3.744.356l.154-66.524c-.007-.58-7.583,31.662-7.548,32.176" fill="#f6be8f"/>
      <path id="Tracciato_60832" data-name="Tracciato 60832" d="M56.572,55.275a41.952,41.952,0,0,1,2.516,13.07c.323,39.719-.021,49.957-.021,49.957l-6.611.326L47.22,57.693Z" fill="#a8c4e5"/>
      <path id="Tracciato_60833" data-name="Tracciato 60833" d="M42.483,51.414s11.442-.406,12.038,4.659c.154,1.311-5.984,10.446-5.992,11.844-.231,40.058-.717,50.383-.717,50.383l-6.615.329L37.779,68.006Z" fill="#a8c4e5"/>
      <path id="Tracciato_60834" data-name="Tracciato 60834" d="M55.529,14.136a5.232,5.232,0,0,0,2.859,4.148c3.425,1.94,5.1,4.533,4.745,7.686s6.159,4.608,2.943,11.017c-2.674,5.328-14.6,2.209-14.6,2.209l-9.7-7.862s-5.629-.132-3.342-6.349c.992-2.7-2.408-4.108-1.014-7.447,1.722-4.124,3.356-7.548,3.356-7.548Z" fill="#21275e"/>
      <path id="Tracciato_60835" data-name="Tracciato 60835" d="M42.08,27.417s2.027-10.6,5.813-9.779,2.9,6.526,7.435,8.091c4.319,1.49,7.126,5.083,3.727,9.364-2.161,2.723-12.347-.913-12.748-.92s-4.227-6.756-4.227-6.756" fill="#21275e"/>
      <path id="Tracciato_60836" data-name="Tracciato 60836" d="M35.845,54.064l.637.4a2.237,2.237,0,0,0,3.119-.535c.033-.046.063-.093.092-.141l1.894-21.31a2.577,2.577,0,0,0-1-3.331l-.636-.4c-1.158-.73-2.933.456-3.541,1.557L34.846,50.733a2.577,2.577,0,0,0,1,3.331" fill="#c8d3e6"/>
      <path id="Tracciato_60837" data-name="Tracciato 60837" d="M46.092,25.246h0A5.4,5.4,0,0,0,51.1,19.722l-.2-6.116a5.033,5.033,0,0,0-5.164-4.9c-.059,0-.118,0-.177.008A5.4,5.4,0,0,0,40.55,14.24l.2,6.115a5.033,5.033,0,0,0,5.164,4.9c.059,0,.119,0,.178-.008" fill="#f6be8f"/>
      <path id="Tracciato_60838" data-name="Tracciato 60838" d="M45.918,36.378c4.629.336,11.386-5.218,13.2-6.468l-8-2.94c-.949-1.171-1.217.012-1.449.083a4.1,4.1,0,0,0-1.856.1c-1.941.542-4.846.783-7.015,1.375-1.574.567-1.709,2.579-1.668,2.9.313,2.4,3.358,4.7,6.788,4.95" fill="#63bee7"/>
      <path id="Tracciato_60839" data-name="Tracciato 60839" d="M49.168,29.4l-.4,0c-1.234.016-2.579-.487-2.6-1.4l.172-6.7c-.021-.911.972-1.669,2.206-1.685l.4,0c1.234-.016,2.261.716,2.281,1.627l.553,6.822c.018.916-1.382,1.32-2.612,1.336" fill="#f6be8f"/>
      <path id="Tracciato_60840" data-name="Tracciato 60840" d="M53.519,19.55c-.414,1.18-1.322,1.852-2.028,1.5s-.943-1.591-.53-2.771,1.322-1.852,2.028-1.5.949,1.591.53,2.771" fill="#ffaa82"/>
      <path id="Tracciato_60841" data-name="Tracciato 60841" d="M45.142,10.477S40.516,13.1,40.62,16.318c0,0-2.621-8.242,4.3-8.665Z" fill="#21275e"/>
      <path id="Tracciato_60842" data-name="Tracciato 60842" d="M45.142,10.476s4.146,2.132,5.505,5.4a3.857,3.857,0,0,0,3.292,2.335l1.591.117S57.88,6.121,44.918,7.651Z" fill="#21275e"/>
      <path id="Tracciato_60843" data-name="Tracciato 60843" d="M39.133,64.3l18.458-.26c2.32.084,1.388-10.869,1.4-12.782l.125-16.779c.014-1.913-1.854-3.532-4.174-3.616L41.41,30.373c-2.319-.084-1.948,1.6-1.963,3.514L37.776,50.625c-.012,1.915-.962,13.592,1.357,13.676" fill="#3779bf"/>
      <path id="Tracciato_60844" data-name="Tracciato 60844" d="M39.742,87.3a3.9,3.9,0,0,1-3.9-3.9c0-.021,0-.041,0-.062.124-7.785,1.5-24.383,1.587-25.393l.933-10.923c-3.439-4.3-2.437-8.138-.206-13.872l.056-2.1a2.456,2.456,0,0,1,1.842-2.614l2.441-.534.415,56.208a3.165,3.165,0,0,1-3.142,3.188h-.026Z" fill="#d9eaff"/>
      <path id="Tracciato_60845" data-name="Tracciato 60845" d="M57.087,55.164c-1.318.971.367-4.812-.86-6.67l.245-11.454a5.783,5.783,0,0,1,.293-6.256l.236-.4c1.318-.971,4.031-.17,5.258,1.688L65.132,51.65c.008,7.059-8.045,3.514-8.045,3.514" fill="#c8d3e6"/>
      <path id="Tracciato_60846" data-name="Tracciato 60846" d="M43.15,27.376s1.169-.67,1.078.47c-1.539,5.39-1.671,12.009-1.615,19.608L38.9,40.184l2.232-4.122-2.057-7.451Z" fill="#deeaff"/>
      <path id="Tracciato_60847" data-name="Tracciato 60847" d="M53.387,27.378s-3.412,9.906-3.5,16.966c-.07,5.38,1.665,27.327,2.494,37.472a5.934,5.934,0,0,0,6.376,5.456c.108-.008.216-.02.324-.034a10.028,10.028,0,0,0,2.145-.529c2.2-.834-.22-17.862-.339-18.627-1.1-7.1-1.352-11.677-1.714-13.132-.859-3.449-.044-25.041-.044-25.041Z" fill="#d9eaff"/>
      <path id="Tracciato_60848" data-name="Tracciato 60848" d="M54.2,27.434s-1.059-.613-1.222.519a58.637,58.637,0,0,0-3.124,19.8L54.423,40l-1.584-4.24,4.458-6.69Z" fill="#deeaff"/>
      <path id="Tracciato_60849" data-name="Tracciato 60849" d="M48.9,48.291l-.7-.227a.5.5,0,1,1,.311-.953l.7.227a.5.5,0,1,1-.311.953" fill="#3c407a"/>
      <path id="Tracciato_60850" data-name="Tracciato 60850" d="M54.139,48.035l.729.075a.5.5,0,1,1-.1,1l-.729-.075a.5.5,0,1,1,.1-1" fill="#3c407a"/>
      <path id="Tracciato_60851" data-name="Tracciato 60851" d="M45.57,27.625l.352,4.222a1.172,1.172,0,0,0,2.045.68L51.1,28.993l-.792-2.528Z" fill="#f6be8f"/>
      <path id="Tracciato_60852" data-name="Tracciato 60852" d="M59.979,49.438c1.013.437,2.412,1.756,1.959,2.913,0,0-.58,3.748-4.2,2.252L47.269,48.456a1.632,1.632,0,0,1-.845-2.4,1.821,1.821,0,0,1,2.3-1.166" fill="#f6be8f"/>
      <path id="Tracciato_60853" data-name="Tracciato 60853" d="M43.856,45.1l3.1-.482c1.021-.218,1.294.522,1.559,1.664s.406,1.71-.614,1.929l-3.081,1.04a2.07,2.07,0,0,1-2.335-1.678,1.99,1.99,0,0,1,1.353-2.468l.018-.005" fill="#f6be8f"/>
      <path id="Tracciato_60854" data-name="Tracciato 60854" d="M35.763,52.193l.356-.67c.575-1.082,2.077-.456,2.665,1.167.024.065.046.131.066.2.41,1.339.036,2.568-.83,2.73l-.944.073c-.928-.178-2.179-3.337-1.313-3.5" fill="#f6be8f"/>
      <path id="Tracciato_60855" data-name="Tracciato 60855" d="M46.237,25.255a4.021,4.021,0,0,0,2.394-.859s-1,2.229-2.394,2.453Z" fill="#ffaa82"/>
      <line id="Linea_49" data-name="Linea 49" y1="1.958" x2="1.095" transform="translate(45.142 8.518)" fill="none" stroke="#bf9378" stroke-linecap="round" stroke-linejoin="round" stroke-width="0.545"/>
    </g>
  </g>
</svg>
