<svg xmlns="http://www.w3.org/2000/svg" width="97.633" height="74.184" viewBox="0 0 97.633 74.184">
  <g id="Componente_87_1" data-name="Componente 87 – 1" transform="translate(1 1)">
    <line id="Linea_114" data-name="Linea 114" x2="91.083" transform="translate(0 72.134)" fill="none" stroke="#043575" stroke-linecap="round" stroke-linejoin="round" stroke-width="2"/>
    <g id="Raggruppa_22227" data-name="Raggruppa 22227" transform="translate(-869.367 -2905)">
      <g id="terapia_casa" transform="translate(877 2905)">
        <path id="Shape" d="M5.352,39.361a.814.814,0,0,0,.726.467h4.782a1.677,1.677,0,0,1,1.665,1.689V74.3a.821.821,0,0,0,.815.826H63l.815-.826V41.517a1.677,1.677,0,0,1,1.665-1.689h4.6a.814.814,0,0,0,.742-.481.836.836,0,0,0-.122-.885L41.746,4.259h0a5.1,5.1,0,0,0-6.836,0h0L22.282,19.421a1.65,1.65,0,0,1-1.849.5,1.688,1.688,0,0,1-1.091-1.6V8.768a.821.821,0,0,0-.815-.826H13.516a.821.821,0,0,0-.815.826V28.906a1.813,1.813,0,0,1-.372,1.06L5.617,38.481A.834.834,0,0,0,5.352,39.361Z" transform="translate(-5.317 -2.944)" fill="#fff" stroke="#043575" stroke-width="2"/>
      </g>
      <path id="Tracciato_65294" data-name="Tracciato 65294" d="M88.021,51.209H80.1v-7.92H71.843v7.92H63.924v8.258h7.919v7.92H80.1v-7.92h7.919Z" transform="translate(833.576 2878.22)" fill="#73d7ff" stroke="#043575" stroke-linejoin="round" stroke-width="2"/>
      <g id="Rettangolo_147688" data-name="Rettangolo 147688" transform="translate(902 2955)" fill="#fff" stroke="#043575" stroke-linejoin="round" stroke-width="2">
        <rect width="15" height="23" stroke="none"/>
        <rect x="1" y="1" width="13" height="21" fill="none"/>
      </g>
    </g>
    <circle id="Ellisse_377" data-name="Ellisse 377" cx="21" cy="21" r="21" transform="translate(54.633 19)" fill="#fff"/>
    <g id="Ellisse_376" data-name="Ellisse 376" transform="translate(56.633 21)" fill="#73d7ff" stroke="#1e3a6d" stroke-width="2">
      <circle cx="19" cy="19" r="19" stroke="none"/>
      <circle cx="19" cy="19" r="18" fill="none"/>
    </g>
    <g id="Ellisse_379" data-name="Ellisse 379" transform="translate(56.633 21)" fill="none" stroke="#1e3a6d" stroke-width="2">
      <circle cx="19" cy="19" r="19" stroke="none"/>
      <circle cx="19" cy="19" r="18" fill="none"/>
    </g>
    <path id="Tracciato_65291" data-name="Tracciato 65291" d="M635.384,43.884,624.225,33.332V38.8H612.054V48.964h12.171v5.471Z" transform="translate(698.754 83.884) rotate(180)" fill="#fff" stroke="#043575" stroke-linecap="round" stroke-linejoin="round" stroke-width="2"/>
  </g>
</svg>
