<svg xmlns="http://www.w3.org/2000/svg" width="96.358" height="75.759" viewBox="0 0 96.358 75.759">
  <g id="Componente_94_1" data-name="Componente 94 – 1" transform="translate(1 1)">
    <g id="Componente_86_1" data-name="Componente 86 – 1">
      <g id="Raggruppa_22226" data-name="Raggruppa 22226" transform="translate(-35.58 -43.289)">
        <line id="Linea_114" data-name="Linea 114" x2="91.083" transform="translate(35.58 117.047)" fill="none" stroke="#043575" stroke-linecap="round" stroke-linejoin="round" stroke-width="2"/>
        <g id="Raggruppa_7700" data-name="Raggruppa 7700" transform="translate(42.068 76.837)">
          <g id="Raggruppa_7696" data-name="Raggruppa 7696">
            <g id="Raggruppa_7695" data-name="Raggruppa 7695">
              <path id="Tracciato_60257" data-name="Tracciato 60257" d="M41.088,106.922V71.769H50.74" transform="translate(-41.088 -71.769)" fill="none" stroke="#043575" stroke-linejoin="round" stroke-width="2"/>
              <g id="Raggruppa_7694" data-name="Raggruppa 7694" transform="translate(7.634 7.516)">
                <line id="Linea_115" data-name="Linea 115" y2="6.514" transform="translate(0 12.792)" fill="none" stroke="#043575" stroke-width="2"/>
                <line id="Linea_116" data-name="Linea 116" y2="6.515" fill="none" stroke="#043575" stroke-width="2"/>
                <line id="Linea_117" data-name="Linea 117" y2="7.172" transform="translate(0 25.254)" fill="none" stroke="#043575" stroke-width="2"/>
              </g>
            </g>
          </g>
        </g>
        <g id="Raggruppa_7702" data-name="Raggruppa 7702" transform="translate(64.024 67.55)">
          <line id="Linea_121" data-name="Linea 121" x2="7.328" transform="translate(26.655)" fill="none" stroke="#043575" stroke-width="2"/>
          <g id="Raggruppa_7701" data-name="Raggruppa 7701">
            <line id="Linea_122" data-name="Linea 122" x2="33.983" transform="translate(0 7.778)" fill="none" stroke="#043575" stroke-width="2"/>
            <line id="Linea_123" data-name="Linea 123" x2="7.328" fill="none" stroke="#043575" stroke-width="2"/>
            <line id="Linea_124" data-name="Linea 124" x2="33.983" transform="translate(0 31.114)" fill="none" stroke="#043575" stroke-width="2"/>
            <line id="Linea_125" data-name="Linea 125" x2="33.983" transform="translate(0 23.335)" fill="none" stroke="#043575" stroke-width="2"/>
            <line id="Linea_126" data-name="Linea 126" x2="33.983" transform="translate(0 15.557)" fill="none" stroke="#043575" stroke-width="2"/>
          </g>
        </g>
        <g id="Raggruppa_7703" data-name="Raggruppa 7703" transform="translate(57.047 55.286)">
          <path id="Tracciato_60259" data-name="Tracciato 60259" d="M88.626,53.474h6.92v61.545" transform="translate(-47.609 -53.474)" fill="none" stroke="#043575" stroke-linejoin="round" stroke-width="2"/>
          <path id="Tracciato_60260" data-name="Tracciato 60260" d="M53.8,115.018V53.474h6.559" transform="translate(-53.805 -53.474)" fill="none" stroke="#043575" stroke-linejoin="round" stroke-width="2"/>
        </g>
        <g id="Raggruppa_7704" data-name="Raggruppa 7704" transform="translate(71.731 106.123)">
          <line id="Linea_127" data-name="Linea 127" y2="10.887" transform="translate(16.569)" fill="none" stroke="#043575" stroke-width="2"/>
          <line id="Linea_128" data-name="Linea 128" y1="10.887" fill="none" stroke="#043575" stroke-width="2"/>
        </g>
        <line id="Linea_129" data-name="Linea 129" y2="6.555" transform="translate(81.016 109.941)" fill="none" stroke="#043575" stroke-width="2"/>
        <path id="Tracciato_60261" data-name="Tracciato 60261" d="M88.021,51.209H80.1v-7.92H71.843v7.92H63.924v8.258h7.919v7.92H80.1v-7.92h7.919Z" transform="translate(5.043 0)" fill="#73d7ff" stroke="#043575" stroke-width="2"/>
        <line id="Linea_130" data-name="Linea 130" x2="24" transform="translate(68.08 105.553)" fill="none" stroke="#043575" stroke-width="2"/>
      </g>
    </g>
    <g id="Raggruppa_22241" data-name="Raggruppa 22241" transform="translate(-1243 -2783.184)">
      <g id="Raggruppa_22239" data-name="Raggruppa 22239" transform="translate(1299.579 2808.234)">
        <g id="Rettangolo_147683" data-name="Rettangolo 147683" transform="translate(1.411 30.745)" fill="#1e3a6d" stroke="#fff" stroke-width="2">
          <path d="M5.388,0H28.494a5.388,5.388,0,0,1,5.388,5.388v0a0,0,0,0,1,0,0H0a0,0,0,0,1,0,0v0A5.388,5.388,0,0,1,5.388,0Z" stroke="none"/>
          <path d="M6.354-1H27.528a7.354,7.354,0,0,1,7.354,7.354v0a.034.034,0,0,1-.034.034H-.966A.034.034,0,0,1-1,6.354v0A7.354,7.354,0,0,1,6.354-1Z" fill="none"/>
        </g>
        <g id="Rettangolo_147684" data-name="Rettangolo 147684" transform="translate(3.679 26.2)" fill="#1e3a6d" stroke="#fff" stroke-width="2">
          <path d="M5.388,0H23.956a5.388,5.388,0,0,1,5.388,5.388v0a0,0,0,0,1,0,0H0a0,0,0,0,1,0,0v0A5.388,5.388,0,0,1,5.388,0Z" stroke="none"/>
          <path d="M6.341-1H23a7.341,7.341,0,0,1,7.341,7.341v0a.047.047,0,0,1-.047.047H-.953A.047.047,0,0,1-1,6.341v0A7.341,7.341,0,0,1,6.341-1Z" fill="none"/>
        </g>
        <g id="Tracciato_65272" data-name="Tracciato 65272" transform="translate(-2617.198 -2793.477)" fill="#73d7ff" stroke-linecap="round" stroke-linejoin="bevel">
          <path d="M 2647.211669921875 2821.80908203125 L 2645.711669921875 2821.80908203125 L 2625.4638671875 2821.80908203125 L 2623.9638671875 2821.80908203125 L 2623.9638671875 2820.30908203125 L 2623.9638671875 2813.18701171875 C 2623.9638671875 2810.08203125 2625.173095703125 2807.1630859375 2627.36865234375 2804.967529296875 C 2629.564208984375 2802.77197265625 2632.483154296875 2801.56298828125 2635.587890625 2801.56298828125 C 2638.692626953125 2801.56298828125 2641.611572265625 2802.77197265625 2643.80712890625 2804.967529296875 C 2646.002685546875 2807.1630859375 2647.211669921875 2810.08203125 2647.211669921875 2813.18701171875 L 2647.211669921875 2820.30908203125 L 2647.211669921875 2821.80908203125 Z" stroke="none"/>
          <path d="M 2635.587890625 2803.06298828125 C 2629.996826171875 2803.06298828125 2625.4638671875 2807.595458984375 2625.4638671875 2813.18701171875 L 2625.4638671875 2820.30908203125 L 2645.711669921875 2820.30908203125 L 2645.711669921875 2813.18701171875 C 2645.711669921875 2807.595458984375 2641.178955078125 2803.06298828125 2635.587890625 2803.06298828125 M 2635.587890625 2800.06298828125 C 2639.09326171875 2800.06298828125 2642.388916015625 2801.427978515625 2644.86767578125 2803.90673828125 C 2647.346435546875 2806.3857421875 2648.711669921875 2809.681396484375 2648.711669921875 2813.18701171875 L 2648.711669921875 2820.30908203125 L 2645.711669921875 2823.30908203125 L 2625.4638671875 2823.30908203125 L 2622.4638671875 2820.30908203125 L 2622.4638671875 2813.18701171875 C 2622.4638671875 2809.681396484375 2623.8291015625 2806.385498046875 2626.307861328125 2803.90673828125 C 2628.786865234375 2801.427978515625 2632.08251953125 2800.06298828125 2635.587890625 2800.06298828125 Z" stroke="none" fill="#fff"/>
        </g>
        <g id="Tracciato_65276" data-name="Tracciato 65276" transform="translate(-3390.221 -1599.516)" fill="#1e3a6d">
          <path d="M 3408.610107421875 1607.260986328125 C 3407.71337890625 1607.260986328125 3406.98388671875 1606.531616210938 3406.98388671875 1605.635131835938 L 3406.98388671875 1600.142211914062 C 3406.98388671875 1599.245483398438 3407.71337890625 1598.515991210938 3408.610107421875 1598.515991210938 C 3409.5068359375 1598.515991210938 3410.236328125 1599.245483398438 3410.236328125 1600.142211914062 L 3410.236328125 1605.635131835938 C 3410.236328125 1606.531616210938 3409.5068359375 1607.260986328125 3408.610107421875 1607.260986328125 Z" stroke="none"/>
          <path d="M 3408.610107421875 1599.515991210938 C 3408.264892578125 1599.515991210938 3407.98388671875 1599.796997070312 3407.98388671875 1600.142211914062 L 3407.98388671875 1605.635131835938 C 3407.98388671875 1605.980224609375 3408.264892578125 1606.260986328125 3408.610107421875 1606.260986328125 C 3408.955322265625 1606.260986328125 3409.236328125 1605.980224609375 3409.236328125 1605.635131835938 L 3409.236328125 1600.142211914062 C 3409.236328125 1599.796997070312 3408.955322265625 1599.515991210938 3408.610107421875 1599.515991210938 M 3408.610107421875 1597.515991210938 C 3410.05810546875 1597.515991210938 3411.236328125 1598.694091796875 3411.236328125 1600.142211914062 L 3411.236328125 1605.635131835938 C 3411.236328125 1607.0830078125 3410.05810546875 1608.260986328125 3408.610107421875 1608.260986328125 C 3407.162109375 1608.260986328125 3405.98388671875 1607.0830078125 3405.98388671875 1605.635131835938 L 3405.98388671875 1600.142211914062 C 3405.98388671875 1598.694091796875 3407.162109375 1597.515991210938 3408.610107421875 1597.515991210938 Z" stroke="none" fill="#fff"/>
        </g>
        <g id="Tracciato_65277" data-name="Tracciato 65277" transform="translate(-1395.537 -3396.123)" fill="#1e3a6d">
          <path d="M 1401.656127929688 3412.345458984375 L 1396.163208007812 3412.345458984375 C 1395.2666015625 3412.345458984375 1394.537109375 3411.615966796875 1394.537109375 3410.71923828125 C 1394.537109375 3409.82275390625 1395.2666015625 3409.09326171875 1396.163208007812 3409.09326171875 L 1401.656127929688 3409.09326171875 C 1402.552734375 3409.09326171875 1403.2822265625 3409.82275390625 1403.2822265625 3410.71923828125 C 1403.2822265625 3411.615966796875 1402.552734375 3412.345458984375 1401.656127929688 3412.345458984375 Z" stroke="none"/>
          <path d="M 1396.163208007812 3410.09326171875 C 1395.81787109375 3410.09326171875 1395.537109375 3410.3740234375 1395.537109375 3410.71923828125 C 1395.537109375 3411.064453125 1395.81787109375 3411.345458984375 1396.163208007812 3411.345458984375 L 1401.656127929688 3411.345458984375 C 1402.001220703125 3411.345458984375 1402.2822265625 3411.064453125 1402.2822265625 3410.71923828125 C 1402.2822265625 3410.3740234375 1402.001220703125 3410.09326171875 1401.656127929688 3410.09326171875 L 1396.163208007812 3410.09326171875 M 1396.163208007812 3408.09326171875 L 1401.656127929688 3408.09326171875 C 1403.104125976562 3408.09326171875 1404.2822265625 3409.271240234375 1404.2822265625 3410.71923828125 C 1404.2822265625 3412.167236328125 1403.104125976562 3413.345458984375 1401.656127929688 3413.345458984375 L 1396.163208007812 3413.345458984375 C 1394.715209960938 3413.345458984375 1393.537109375 3412.167236328125 1393.537109375 3410.71923828125 C 1393.537109375 3409.271240234375 1394.715209960938 3408.09326171875 1396.163208007812 3408.09326171875 Z" stroke="none" fill="#fff"/>
        </g>
        <g id="Tracciato_65278" data-name="Tracciato 65278" transform="translate(-4583.13 -3395.497)" fill="#1e3a6d">
          <path d="M 4619.28271484375 3412.345458984375 L 4613.78955078125 3412.345458984375 C 4612.892578125 3412.345458984375 4612.1630859375 3411.615966796875 4612.1630859375 3410.71923828125 C 4612.1630859375 3409.82275390625 4612.892578125 3409.09326171875 4613.78955078125 3409.09326171875 L 4619.28271484375 3409.09326171875 C 4620.17919921875 3409.09326171875 4620.90869140625 3409.82275390625 4620.90869140625 3410.71923828125 C 4620.90869140625 3411.615966796875 4620.17919921875 3412.345458984375 4619.28271484375 3412.345458984375 Z" stroke="none"/>
          <path d="M 4613.78955078125 3410.09326171875 C 4613.4443359375 3410.09326171875 4613.1630859375 3410.3740234375 4613.1630859375 3410.71923828125 C 4613.1630859375 3411.064453125 4613.4443359375 3411.345458984375 4613.78955078125 3411.345458984375 L 4619.28271484375 3411.345458984375 C 4619.6279296875 3411.345458984375 4619.90869140625 3411.064453125 4619.90869140625 3410.71923828125 C 4619.90869140625 3410.3740234375 4619.6279296875 3410.09326171875 4619.28271484375 3410.09326171875 L 4613.78955078125 3410.09326171875 M 4613.78955078125 3408.09326171875 L 4619.28271484375 3408.09326171875 C 4620.73046875 3408.09326171875 4621.90869140625 3409.271240234375 4621.90869140625 3410.71923828125 C 4621.90869140625 3412.167236328125 4620.73046875 3413.345458984375 4619.28271484375 3413.345458984375 L 4613.78955078125 3413.345458984375 C 4612.34130859375 3413.345458984375 4611.1630859375 3412.167236328125 4611.1630859375 3410.71923828125 C 4611.1630859375 3409.271240234375 4612.34130859375 3408.09326171875 4613.78955078125 3408.09326171875 Z" stroke="none" fill="#fff"/>
        </g>
        <g id="Tracciato_65279" data-name="Tracciato 65279" transform="translate(-4198.864 -2163.855)" fill="#1e3a6d">
          <path d="M 4224.38671875 2173.3642578125 C 4223.9521484375 2173.3642578125 4223.5439453125 2173.195068359375 4223.23681640625 2172.887939453125 C 4222.60400390625 2172.25390625 4222.60400390625 2171.22314453125 4223.23583984375 2170.58935546875 L 4227.12109375 2166.70458984375 C 4227.42919921875 2166.39697265625 4227.83740234375 2166.22802734375 4228.2705078125 2166.22802734375 C 4228.70654296875 2166.22802734375 4229.11572265625 2166.39794921875 4229.4228515625 2166.706787109375 C 4230.05419921875 2167.338134765625 4230.05419921875 2168.36962890625 4229.4208984375 2169.00390625 L 4225.53662109375 2172.887939453125 C 4225.22802734375 2173.195556640625 4224.81982421875 2173.3642578125 4224.38671875 2173.3642578125 Z" stroke="none"/>
          <path d="M 4228.2705078125 2167.22802734375 C 4228.10400390625 2167.22802734375 4227.94677734375 2167.293212890625 4227.828125 2167.41162109375 L 4223.94384765625 2171.29541015625 C 4223.7001953125 2171.539794921875 4223.7001953125 2171.936767578125 4223.94384765625 2172.180908203125 C 4224.06201171875 2172.299072265625 4224.21923828125 2172.3642578125 4224.38671875 2172.3642578125 C 4224.5546875 2172.3642578125 4224.7109375 2172.299072265625 4224.82958984375 2172.180908203125 L 4228.71337890625 2168.297119140625 C 4228.95751953125 2168.052734375 4228.95751953125 2167.65576171875 4228.71337890625 2167.41162109375 C 4228.595703125 2167.293212890625 4228.43798828125 2167.22802734375 4228.2705078125 2167.22802734375 M 4228.2705078125 2165.22802734375 C 4228.97509765625 2165.22802734375 4229.63623046875 2165.5029296875 4230.1318359375 2166.001708984375 C 4231.15087890625 2167.025634765625 4231.14990234375 2168.68798828125 4230.12841796875 2169.710693359375 L 4226.24365234375 2173.59521484375 C 4225.74462890625 2174.092041015625 4225.08642578125 2174.3642578125 4224.38671875 2174.3642578125 C 4223.68505859375 2174.3642578125 4223.025390625 2174.091064453125 4222.52978515625 2173.59521484375 C 4221.5078125 2172.571044921875 4221.50732421875 2170.906494140625 4222.52734375 2169.88330078125 L 4226.4140625 2165.997314453125 C 4226.91162109375 2165.500732421875 4227.5703125 2165.22802734375 4228.2705078125 2165.22802734375 Z" stroke="none" fill="#fff"/>
        </g>
        <g id="Tracciato_65280" data-name="Tracciato 65280" transform="translate(-2015.771 -2163.365)" fill="#1e3a6d">
          <path d="M 2025.97802734375 2173.3642578125 C 2025.544311523438 2173.3642578125 2025.13623046875 2173.1953125 2024.828857421875 2172.888671875 L 2020.944213867188 2169.004150390625 C 2020.310424804688 2168.36962890625 2020.310546875 2167.338134765625 2020.944213867188 2166.70458984375 C 2021.250610351562 2166.3974609375 2021.6591796875 2166.22802734375 2022.093994140625 2166.22802734375 C 2022.52880859375 2166.22802734375 2022.937377929688 2166.3974609375 2023.244506835938 2166.705322265625 L 2027.127807617188 2170.58837890625 C 2027.435424804688 2170.896728515625 2027.604248046875 2171.304931640625 2027.604248046875 2171.73828125 C 2027.604248046875 2172.1728515625 2027.434936523438 2172.581298828125 2027.127563476562 2172.888427734375 C 2026.8203125 2173.1953125 2026.412109375 2173.3642578125 2025.97802734375 2173.3642578125 Z" stroke="none"/>
          <path d="M 2022.093994140625 2167.22802734375 C 2021.9267578125 2167.22802734375 2021.76953125 2167.293212890625 2021.6513671875 2167.41162109375 C 2021.4072265625 2167.65576171875 2021.4072265625 2168.052734375 2021.6513671875 2168.297119140625 L 2025.535278320312 2172.180908203125 C 2025.653686523438 2172.299072265625 2025.810791015625 2172.3642578125 2025.97802734375 2172.3642578125 C 2026.145385742188 2172.3642578125 2026.302490234375 2172.299072265625 2026.420776367188 2172.180908203125 C 2026.5390625 2172.062744140625 2026.604248046875 2171.905517578125 2026.604248046875 2171.73828125 C 2026.604248046875 2171.571044921875 2026.5390625 2171.4140625 2026.420776367188 2171.29541015625 L 2022.53662109375 2167.41162109375 C 2022.41845703125 2167.293212890625 2022.261108398438 2167.22802734375 2022.093994140625 2167.22802734375 M 2022.093994140625 2165.22802734375 C 2022.796264648438 2165.22802734375 2023.456298828125 2165.501708984375 2023.952270507812 2165.9990234375 L 2027.8349609375 2169.881103515625 C 2028.331787109375 2170.379638671875 2028.604248046875 2171.038330078125 2028.604248046875 2171.73828125 C 2028.604248046875 2172.440185546875 2028.330810546875 2173.099853515625 2027.834228515625 2173.595947265625 C 2027.338134765625 2174.09130859375 2026.678955078125 2174.3642578125 2025.97802734375 2174.3642578125 C 2025.277587890625 2174.3642578125 2024.61865234375 2174.091552734375 2024.12255859375 2173.5966796875 L 2020.237182617188 2169.71142578125 C 2019.21337890625 2168.6865234375 2019.213745117188 2167.020751953125 2020.237182617188 2165.997314453125 C 2020.731689453125 2165.501708984375 2021.391723632812 2165.22802734375 2022.093994140625 2165.22802734375 Z" stroke="none" fill="#fff"/>
        </g>
        <g id="Tracciato_65281" data-name="Tracciato 65281" transform="translate(-2760.692 -2956.151)" fill="#fff">
          <path d="M 2771.927490234375 2980.07666015625 C 2771.494873046875 2980.07666015625 2771.14306640625 2979.724853515625 2771.14306640625 2979.292236328125 L 2771.14306640625 2976.015625 C 2771.14306640625 2974.931396484375 2771.355224609375 2973.87939453125 2771.77392578125 2972.888916015625 C 2772.178466796875 2971.931884765625 2772.757080078125 2971.0732421875 2773.49365234375 2970.3369140625 C 2774.23095703125 2969.599365234375 2775.08935546875 2969.020751953125 2776.045654296875 2968.616943359375 C 2777.036376953125 2968.1982421875 2778.088623046875 2967.98583984375 2779.172607421875 2967.98583984375 C 2779.60498046875 2967.98583984375 2779.956787109375 2968.337890625 2779.956787109375 2968.7705078125 C 2779.956787109375 2969.203125 2779.60498046875 2969.554931640625 2779.172607421875 2969.554931640625 C 2775.60986328125 2969.554931640625 2772.71142578125 2972.453125 2772.71142578125 2976.015625 L 2772.71142578125 2979.292236328125 C 2772.71142578125 2979.724853515625 2772.35986328125 2980.07666015625 2771.927490234375 2980.07666015625 Z" stroke="none"/>
          <path d="M 2771.927490234375 2979.82666015625 C 2772.222412109375 2979.82666015625 2772.46142578125 2979.587158203125 2772.46142578125 2979.292236328125 L 2772.46142578125 2976.015625 C 2772.46142578125 2972.315185546875 2775.472412109375 2969.304931640625 2779.172607421875 2969.304931640625 C 2779.467529296875 2969.304931640625 2779.706787109375 2969.0654296875 2779.706787109375 2968.7705078125 C 2779.706787109375 2968.475341796875 2779.467529296875 2968.23583984375 2779.172607421875 2968.23583984375 C 2778.121826171875 2968.23583984375 2777.1025390625 2968.441650390625 2776.142822265625 2968.84716796875 C 2775.21630859375 2969.238525390625 2774.384521484375 2969.79931640625 2773.67041015625 2970.513671875 C 2772.956298828125 2971.2275390625 2772.395751953125 2972.059814453125 2772.004150390625 2972.986328125 C 2771.5986328125 2973.94580078125 2771.39306640625 2974.96484375 2771.39306640625 2976.015625 L 2771.39306640625 2979.292236328125 C 2771.39306640625 2979.587158203125 2771.63232421875 2979.82666015625 2771.927490234375 2979.82666015625 M 2771.927490234375 2980.32666015625 C 2771.357177734375 2980.32666015625 2770.89306640625 2979.862548828125 2770.89306640625 2979.292236328125 L 2770.89306640625 2976.015625 C 2770.89306640625 2974.897705078125 2771.11181640625 2973.81298828125 2771.543701171875 2972.791748046875 C 2771.960693359375 2971.8046875 2772.557373046875 2970.91943359375 2773.31689453125 2970.16015625 C 2774.076904296875 2969.399658203125 2774.96240234375 2968.802978515625 2775.9482421875 2968.386474609375 C 2776.97021484375 2967.954833984375 2778.054931640625 2967.73583984375 2779.172607421875 2967.73583984375 C 2779.742919921875 2967.73583984375 2780.206787109375 2968.199951171875 2780.206787109375 2968.7705078125 C 2780.206787109375 2969.3408203125 2779.742919921875 2969.804931640625 2779.172607421875 2969.804931640625 C 2775.747802734375 2969.804931640625 2772.96142578125 2972.591064453125 2772.96142578125 2976.015625 L 2772.96142578125 2979.292236328125 C 2772.96142578125 2979.862548828125 2772.49755859375 2980.32666015625 2771.927490234375 2980.32666015625 Z" stroke="none" fill="#fff"/>
        </g>
        <g id="Tracciato_65282" data-name="Tracciato 65282" transform="translate(-2528.166 -4460.884)" fill="#fff">
          <path d="M 2539.484375 4491.48291015625 C 2539.0517578125 4491.48291015625 2538.699951171875 4491.130859375 2538.699951171875 4490.6982421875 L 2538.699951171875 4488.85888671875 C 2538.699951171875 4488.42626953125 2539.0517578125 4488.07421875 2539.484375 4488.07421875 C 2539.9169921875 4488.07421875 2540.268798828125 4488.42626953125 2540.268798828125 4488.85888671875 L 2540.268798828125 4490.6982421875 C 2540.268798828125 4491.130859375 2539.9169921875 4491.48291015625 2539.484375 4491.48291015625 Z" stroke="none"/>
          <path d="M 2539.484375 4491.23291015625 C 2539.779541015625 4491.23291015625 2540.018798828125 4490.9931640625 2540.018798828125 4490.6982421875 L 2540.018798828125 4488.85888671875 C 2540.018798828125 4488.5634765625 2539.779541015625 4488.32421875 2539.484375 4488.32421875 C 2539.189208984375 4488.32421875 2538.949951171875 4488.5634765625 2538.949951171875 4488.85888671875 L 2538.949951171875 4490.6982421875 C 2538.949951171875 4490.9931640625 2539.189208984375 4491.23291015625 2539.484375 4491.23291015625 M 2539.484375 4491.73291015625 C 2538.9140625 4491.73291015625 2538.449951171875 4491.2685546875 2538.449951171875 4490.6982421875 L 2538.449951171875 4488.85888671875 C 2538.449951171875 4488.28857421875 2538.9140625 4487.82421875 2539.484375 4487.82421875 C 2540.0546875 4487.82421875 2540.518798828125 4488.28857421875 2540.518798828125 4488.85888671875 L 2540.518798828125 4490.6982421875 C 2540.518798828125 4491.2685546875 2540.0546875 4491.73291015625 2539.484375 4491.73291015625 Z" stroke="none" fill="#fff"/>
        </g>
        <g id="Tracciato_65283" data-name="Tracciato 65283" transform="translate(-2532.495 -4456.074)" fill="#fff">
          <path d="M 2539.484375 4491.48291015625 C 2539.0517578125 4491.48291015625 2538.699951171875 4491.130859375 2538.699951171875 4490.6982421875 L 2538.699951171875 4488.85888671875 C 2538.699951171875 4488.42626953125 2539.0517578125 4488.07421875 2539.484375 4488.07421875 C 2539.9169921875 4488.07421875 2540.268798828125 4488.42626953125 2540.268798828125 4488.85888671875 L 2540.268798828125 4490.6982421875 C 2540.268798828125 4491.130859375 2539.9169921875 4491.48291015625 2539.484375 4491.48291015625 Z" stroke="none"/>
          <path d="M 2539.484375 4491.23291015625 C 2539.779541015625 4491.23291015625 2540.018798828125 4490.9931640625 2540.018798828125 4490.6982421875 L 2540.018798828125 4488.85888671875 C 2540.018798828125 4488.5634765625 2539.779541015625 4488.32421875 2539.484375 4488.32421875 C 2539.189208984375 4488.32421875 2538.949951171875 4488.5634765625 2538.949951171875 4488.85888671875 L 2538.949951171875 4490.6982421875 C 2538.949951171875 4490.9931640625 2539.189208984375 4491.23291015625 2539.484375 4491.23291015625 M 2539.484375 4491.73291015625 C 2538.9140625 4491.73291015625 2538.449951171875 4491.2685546875 2538.449951171875 4490.6982421875 L 2538.449951171875 4488.85888671875 C 2538.449951171875 4488.28857421875 2538.9140625 4487.82421875 2539.484375 4487.82421875 C 2540.0546875 4487.82421875 2540.518798828125 4488.28857421875 2540.518798828125 4488.85888671875 L 2540.518798828125 4490.6982421875 C 2540.518798828125 4491.2685546875 2540.0546875 4491.73291015625 2539.484375 4491.73291015625 Z" stroke="none" fill="#fff"/>
        </g>
      </g>
      <g id="Raggruppa_22240" data-name="Raggruppa 22240" transform="translate(1299.579 2808.234)">
        <path id="Rettangolo_147683-2" data-name="Rettangolo 147683" d="M5.388,0H28.494a5.388,5.388,0,0,1,5.388,5.388v0a0,0,0,0,1,0,0H0a0,0,0,0,1,0,0v0A5.388,5.388,0,0,1,5.388,0Z" transform="translate(1.411 30.745)" fill="#1e3a6d"/>
        <path id="Rettangolo_147684-2" data-name="Rettangolo 147684" d="M5.388,0H23.956a5.388,5.388,0,0,1,5.388,5.388v0a0,0,0,0,1,0,0H0a0,0,0,0,1,0,0v0A5.388,5.388,0,0,1,5.388,0Z" transform="translate(3.679 26.2)" fill="#1e3a6d"/>
        <path id="Tracciato_65272-2" data-name="Tracciato 65272" d="M2635.588,2803.063a10.124,10.124,0,0,0-10.124,10.124v7.122h20.248v-7.122A10.124,10.124,0,0,0,2635.588,2803.063Z" transform="translate(-2617.198 -2793.477)" fill="#73d7ff" stroke="#1e3a6d" stroke-linecap="round" stroke-linejoin="bevel" stroke-width="2"/>
        <path id="Tracciato_65276-2" data-name="Tracciato 65276" d="M3408.61,1599.516a.627.627,0,0,0-.626.626v5.493a.626.626,0,0,0,1.252,0v-5.493A.627.627,0,0,0,3408.61,1599.516Z" transform="translate(-3390.221 -1599.516)" fill="#1e3a6d"/>
        <path id="Tracciato_65277-2" data-name="Tracciato 65277" d="M1401.656,3410.093h-5.493a.626.626,0,1,0,0,1.252h5.493a.626.626,0,1,0,0-1.252Z" transform="translate(-1395.537 -3396.123)" fill="#1e3a6d"/>
        <path id="Tracciato_65278-2" data-name="Tracciato 65278" d="M4619.283,3410.093h-5.493a.626.626,0,1,0,0,1.252h5.493a.626.626,0,0,0,0-1.252Z" transform="translate(-4583.13 -3395.497)" fill="#1e3a6d"/>
        <path id="Tracciato_65279-2" data-name="Tracciato 65279" d="M4228.713,2167.412a.625.625,0,0,0-.885,0l-3.884,3.884a.626.626,0,0,0,.886.885l3.884-3.884A.627.627,0,0,0,4228.713,2167.412Z" transform="translate(-4198.864 -2163.855)" fill="#1e3a6d"/>
        <path id="Tracciato_65280-2" data-name="Tracciato 65280" d="M2022.537,2167.412a.626.626,0,0,0-.885.885l3.884,3.884a.626.626,0,1,0,.885-.885Z" transform="translate(-2015.771 -2163.365)" fill="#1e3a6d"/>
        <path id="Tracciato_65281-2" data-name="Tracciato 65281" d="M2771.927,2979.827a.535.535,0,0,1-.534-.534v-3.277a7.771,7.771,0,0,1,7.78-7.78.535.535,0,0,1,0,1.069,6.719,6.719,0,0,0-6.711,6.711v3.277A.534.534,0,0,1,2771.927,2979.827Z" transform="translate(-2760.692 -2956.151)" fill="#fff" stroke="#fff" stroke-width="0.5"/>
        <path id="Tracciato_65282-2" data-name="Tracciato 65282" d="M2539.484,4491.233a.535.535,0,0,1-.534-.535v-1.839a.534.534,0,1,1,1.069,0v1.839A.535.535,0,0,1,2539.484,4491.233Z" transform="translate(-2528.166 -4460.884)" fill="#fff" stroke="#fff" stroke-width="0.5"/>
        <path id="Tracciato_65283-2" data-name="Tracciato 65283" d="M2539.484,4491.233a.535.535,0,0,1-.534-.535v-1.839a.534.534,0,1,1,1.069,0v1.839A.535.535,0,0,1,2539.484,4491.233Z" transform="translate(-2532.495 -4456.074)" fill="#fff" stroke="#fff" stroke-width="0.5"/>
      </g>
    </g>
  </g>
</svg>
