<svg xmlns="http://www.w3.org/2000/svg" width="104.726" height="77.116" viewBox="0 0 104.726 77.116">
  <g id="Componente_80_1" data-name="Componente 80 – 1" transform="translate(1 1)">
    <path id="Tracciato_65256" data-name="Tracciato 65256" d="M134.741,269.85h3.187a4.25,4.25,0,0,0,4.332-4.135V251.833c0-1.553-1.22-2.456-2.783-3.13l-7.362-3.919-6.4-16.125c-1.931-4.413-3.955-7.529-7.886-7.529H62.581a7.738,7.738,0,0,0-7.886,7.529v33.663a7.737,7.737,0,0,0,7.886,7.529h.358" transform="translate(-39.534 -203.016)" fill="#73d7ff" stroke="#1e3a6d" stroke-linecap="round" stroke-linejoin="round" stroke-width="2"/>
    <line id="Linea_134" data-name="Linea 134" x1="38.532" transform="translate(40.112 66.835)" fill="none" stroke="#1e3a6d" stroke-linecap="round" stroke-linejoin="round" stroke-width="2"/>
    <path id="Tracciato_65258" data-name="Tracciato 65258" d="M110.447,242.192l-16.918-.183V224.693h9.53Z" transform="translate(-22.938 -201.492)" fill="#fff" stroke="#1e3a6d" stroke-linecap="round" stroke-linejoin="round" stroke-width="2"/>
    <path id="Tracciato_65259" data-name="Tracciato 65259" d="M85.968,235.051H80.255v-5.713H75.143v5.713H69.43v5.112h5.713v5.713h5.111v-5.713h5.713Z" transform="translate(-33.237 -199.508)" fill="#fff" stroke="#1e3a6d" stroke-linecap="round" stroke-linejoin="round" stroke-width="2"/>
    <rect id="Rettangolo_147681" data-name="Rettangolo 147681" width="12.5" height="4.314" transform="translate(56.009 13.799)" fill="#73d7ff" stroke="#1e3a6d" stroke-linecap="round" stroke-linejoin="round" stroke-width="2"/>
    <path id="Tracciato_65261" data-name="Tracciato 65261" d="M85.45,219.594v-1.771a3.21,3.21,0,0,1,3.2-3.2h0a3.21,3.21,0,0,1,3.2,3.2v1.771" transform="translate(-26.391 -205.796)" fill="none" stroke="#1e3a6d" stroke-linecap="round" stroke-linejoin="round" stroke-width="2"/>
    <line id="Linea_135" data-name="Linea 135" y1="4.363" transform="translate(62.259)" fill="none" stroke="#1e3a6d" stroke-linecap="round" stroke-linejoin="round" stroke-width="2"/>
    <line id="Linea_136" data-name="Linea 136" x1="7.508" transform="translate(3.25 59.253)" fill="none" stroke="#1e3a6d" stroke-linecap="round" stroke-linejoin="round" stroke-width="2"/>
    <line id="Linea_137" data-name="Linea 137" x1="10.757" transform="translate(0 59.253)" fill="none" stroke="#1e3a6d" stroke-linecap="round" stroke-linejoin="round" stroke-width="2"/>
    <line id="Linea_138" data-name="Linea 138" x1="7.508" transform="translate(3.25 54.379)" fill="none" stroke="#1e3a6d" stroke-linecap="round" stroke-linejoin="round" stroke-width="2"/>
    <line id="Linea_139" data-name="Linea 139" x1="7.508" transform="translate(3.25 54.379)" fill="none" stroke="#1e3a6d" stroke-linecap="round" stroke-linejoin="round" stroke-width="2"/>
    <line id="Linea_140" data-name="Linea 140" x1="5.884" transform="translate(4.874 49.505)" fill="none" stroke="#1e3a6d" stroke-linecap="round" stroke-linejoin="round" stroke-width="2"/>
    <line id="Linea_141" data-name="Linea 141" x1="5.884" transform="translate(4.874 64.127)" fill="none" stroke="#1e3a6d" stroke-linecap="round" stroke-linejoin="round" stroke-width="2"/>
    <line id="Linea_142" data-name="Linea 142" x2="11.757" transform="translate(15.162 60.065)" fill="none" stroke="#1e3a6d" stroke-linecap="round" stroke-linejoin="round" stroke-width="2"/>
    <line id="Linea_143" data-name="Linea 143" x2="45.705" transform="translate(36.453 60.065)" fill="none" stroke="#1e3a6d" stroke-linecap="round" stroke-linejoin="round" stroke-width="2"/>
    <line id="Linea_144" data-name="Linea 144" x2="11.028" transform="translate(91.697 60.065)" fill="none" stroke="#1e3a6d" stroke-linecap="round" stroke-linejoin="round" stroke-width="2"/>
    <line id="Linea_145" data-name="Linea 145" y1="3.085" x2="3.085" transform="translate(67.215 1.278)" fill="none" stroke="#1e3a6d" stroke-linecap="round" stroke-linejoin="round" stroke-width="2"/>
    <line id="Linea_146" data-name="Linea 146" x1="3.085" y1="3.085" transform="translate(54.218 1.278)" fill="none" stroke="#1e3a6d" stroke-linecap="round" stroke-linejoin="round" stroke-width="2"/>
    <path id="Tracciato_65264" data-name="Tracciato 65264" d="M59.234,268.5h87.532v2.59l-1.094,2.721-2.48,1.723H66.7l-3.5-1.723-3.1-1.828Z" transform="translate(-44.073 -208.438)" fill="#fff"/>
    <path id="Tracciato_65265" data-name="Tracciato 65265" d="M134.741,269.85h3.187a4.25,4.25,0,0,0,4.332-4.135V251.833c0-1.553-1.22-2.456-2.783-3.13l-7.362-3.919-6.4-16.125c-1.931-4.413-3.955-7.529-7.886-7.529H62.581a7.738,7.738,0,0,0-7.886,7.529v33.663a7.737,7.737,0,0,0,7.886,7.529h.358" transform="translate(-39.534 -203.016)" fill="none" stroke="#1e3a6d" stroke-linecap="round" stroke-linejoin="round" stroke-width="2"/>
    <path id="Tracciato_65257" data-name="Tracciato 65257" d="M77.034,257.742a8.281,8.281,0,1,1-8.281-8.281A8.28,8.28,0,0,1,77.034,257.742Z" transform="translate(-37.066 -190.908)" fill="#1e3a6d" stroke="#1e3a6d" stroke-linecap="round" stroke-linejoin="round" stroke-width="2"/>
    <path id="Tracciato_65263" data-name="Tracciato 65263" d="M107.172,253.461a4,4,0,1,1-4-4A4,4,0,0,1,107.172,253.461Z" transform="translate(-71.485 -186.626)" fill="#fff"/>
    <path id="Tracciato_65260" data-name="Tracciato 65260" d="M115.735,257.742a8.281,8.281,0,1,1-8.281-8.281A8.281,8.281,0,0,1,115.735,257.742Z" transform="translate(-20.527 -190.908)" fill="#1e3a6d" stroke="#1e3a6d" stroke-linecap="round" stroke-linejoin="round" stroke-width="2"/>
    <path id="Tracciato_65262" data-name="Tracciato 65262" d="M107.172,253.461a4,4,0,1,1-4-4A4,4,0,0,1,107.172,253.461Z" transform="translate(-16.246 -186.626)" fill="#fff"/>
  </g>
</svg>
