<svg id="Componente_96_1" data-name="Componente 96 – 1" xmlns="http://www.w3.org/2000/svg" width="64.797" height="77.757" viewBox="0 0 64.797 77.757">
  <path id="Tracciato_65324" data-name="Tracciato 65324" d="M36.018,51.036A6.018,6.018,0,1,0,30,45.018,6.018,6.018,0,0,0,36.018,51.036Z" transform="translate(-3.158 -37.413)" fill="#73d7ff"/>
  <path id="Tracciato_65311" data-name="Tracciato 65311" d="M8122.811,3308.638h56.079l2.182,3.009-1.183,2.595-1.719.975h-19.651l-.878,9.073v8.52l7.188,26.1.866,5.2c0,.314-2.733,1.59-2.733,1.59,0,.209-4.442-.55-4.442-.55l-7.942-28.844-1.6,2.329-7.781,25.995a34.416,34.416,0,0,1-4.454,1.071l-2.645-3.94c0,.1,8.962-32.8,8.962-32.8l-1.088-12.543-2.415-1.2h-18.2l-2.461-2.336v-2.23l1.685-2.013Z" transform="translate(-8118 -3289.243)" fill="#73d7ff"/>
  <circle id="Ellisse_383" data-name="Ellisse 383" cx="3" cy="3" r="3" transform="translate(38 21.757)" fill="#fff"/>
  <path id="Tracciato_65312" data-name="Tracciato 65312" d="M43.827,56.743v2.348a8.917,8.917,0,0,1,2.592.778V56.743a4.269,4.269,0,0,0-4.266-4.264H25.036a1.944,1.944,0,1,1,0-3.888H52.512A9.111,9.111,0,0,1,54.345,46H25.036a4.536,4.536,0,1,0,0,9.072H42.153A1.676,1.676,0,0,1,43.827,56.743Z" transform="translate(-20.5 -27.857)" fill="#1e3a6d"/>
  <path id="Tracciato_65313" data-name="Tracciato 65313" d="M37.776,54.551A7.776,7.776,0,1,0,30,46.776,7.775,7.775,0,0,0,37.776,54.551Zm0-12.959a5.184,5.184,0,1,1-5.184,5.184A5.191,5.191,0,0,1,37.776,41.592Z" transform="translate(-5.377 -39)" fill="#1e3a6d"/>
  <path id="Tracciato_65314" data-name="Tracciato 65314" d="M36.8,52.081a8.924,8.924,0,0,1-1.3-.132v6.77a20.22,20.22,0,0,0,.7,5.269l1.563,5.78a9,9,0,0,1,2.3-1.436L38.7,63.314a17.648,17.648,0,0,1-.609-4.6v-6.77A8.924,8.924,0,0,1,36.8,52.081Z" transform="translate(3.378 -18.387)" fill="#1e3a6d"/>
  <path id="Tracciato_65315" data-name="Tracciato 65315" d="M59.069,78.951a8.869,8.869,0,0,1-1.208.122,9.1,9.1,0,0,1-1.488-.15l1.252,4.624A2.6,2.6,0,0,1,55.4,86.832a2.727,2.727,0,0,1-2.823-2.076L44.674,57.1a1.3,1.3,0,0,0-1.247-.941h0a1.3,1.3,0,0,0-1.247.941L34.236,84.764a2.734,2.734,0,0,1-2.825,2.071A2.564,2.564,0,0,1,29.532,85.7a2.594,2.594,0,0,1-.337-2.164l6.348-23.021a8.933,8.933,0,0,1-2.563.415c-.08,0-.153-.021-.233-.023L26.7,82.833a5.189,5.189,0,0,0,4.411,6.578,5.382,5.382,0,0,0,5.617-3.934l6.7-23.312,6.664,23.3a5.4,5.4,0,0,0,5.067,3.971,4.869,4.869,0,0,0,.547-.031,5.191,5.191,0,0,0,4.422-6.557Z" transform="translate(-10.948 -11.683)" fill="#1e3a6d"/>
  <path id="Tracciato_65317" data-name="Tracciato 65317" d="M52.2,46H38.442a9.111,9.111,0,0,1,1.832,2.592H52.2a1.944,1.944,0,0,1,0,3.888H41.184a8.94,8.94,0,0,1-.422,2.592H52.2A4.536,4.536,0,0,0,52.2,46Z" transform="translate(8.062 -27.857)" fill="#1e3a6d"/>
  <path id="Tracciato_65320" data-name="Tracciato 65320" d="M43.827,56.743v2.348a8.917,8.917,0,0,1,2.592.778V56.743a4.269,4.269,0,0,0-4.266-4.264H25.036a1.944,1.944,0,1,1,0-3.888H52.512A9.111,9.111,0,0,1,54.345,46H25.036a4.536,4.536,0,1,0,0,9.072H42.153A1.676,1.676,0,0,1,43.827,56.743Z" transform="translate(-20.5 -27.857)" fill="#1e3a6d"/>
  <path id="Tracciato_65321" data-name="Tracciato 65321" d="M36.8,52.081a8.924,8.924,0,0,1-1.3-.132v6.77a20.22,20.22,0,0,0,.7,5.269l1.563,5.78a9,9,0,0,1,2.3-1.436L38.7,63.314a17.648,17.648,0,0,1-.609-4.6v-6.77A8.924,8.924,0,0,1,36.8,52.081Z" transform="translate(3.378 -18.387)" fill="#1e3a6d"/>
  <path id="Tracciato_65322" data-name="Tracciato 65322" d="M59.069,78.951a8.869,8.869,0,0,1-1.208.122,9.1,9.1,0,0,1-1.488-.15l1.252,4.624A2.6,2.6,0,0,1,55.4,86.832a2.727,2.727,0,0,1-2.823-2.076L44.674,57.1a1.3,1.3,0,0,0-1.247-.941h0a1.3,1.3,0,0,0-1.247.941L34.236,84.764a2.734,2.734,0,0,1-2.825,2.071A2.564,2.564,0,0,1,29.532,85.7a2.594,2.594,0,0,1-.337-2.164l6.348-23.021a8.933,8.933,0,0,1-2.563.415c-.08,0-.153-.021-.233-.023L26.7,82.833a5.189,5.189,0,0,0,4.411,6.578,5.382,5.382,0,0,0,5.617-3.934l6.7-23.312,6.664,23.3a5.4,5.4,0,0,0,5.067,3.971,4.869,4.869,0,0,0,.547-.031,5.191,5.191,0,0,0,4.422-6.557Z" transform="translate(-10.948 -11.683)" fill="#1e3a6d"/>
  <path id="Tracciato_65323" data-name="Tracciato 65323" d="M52.2,46H38.442a9.111,9.111,0,0,1,1.832,2.592H52.2a1.944,1.944,0,0,1,0,3.888H41.184a8.94,8.94,0,0,1-.422,2.592H52.2A4.536,4.536,0,0,0,52.2,46Z" transform="translate(8.062 -27.857)" fill="#1e3a6d"/>
  <g id="Tracciato_65310" data-name="Tracciato 65310" transform="translate(-12.946 -18.294)" fill="#1e3a6d">
    <path d="M 26.79636764526367 69.05638122558594 C 26.04958915710449 69.05638122558594 25.34785842895508 68.76591491699219 24.82044792175293 68.23848724365234 C 23.72953796386719 67.14757537841797 23.72952842712402 65.37248229980469 24.82045745849609 64.28153228759766 L 27.31327819824219 61.78871536254883 C 26.83943939208984 60.75451278686523 26.59272766113281 59.63060760498047 26.59272766113281 58.4818229675293 C 26.59272766113281 54.08063507080078 30.17335891723633 50.50000381469727 34.57455825805664 50.50000381469727 C 38.97574996948242 50.50000381469727 42.55637741088867 54.08063507080078 42.55637741088867 58.4818229675293 C 42.55637741088867 62.88301467895508 38.97574996948242 66.46364593505859 34.57455825805664 66.46364593505859 C 33.42593765258789 66.46364593505859 32.30215072631836 66.21697998046875 31.26809501647949 65.74329376220703 L 28.7752685546875 68.23808288574219 L 28.77234840393066 68.24100494384766 L 28.76941871643066 68.24390411376953 C 28.24010848999023 68.76784515380859 27.53939819335938 69.05638122558594 26.79636764526367 69.05638122558594 Z M 34.57455825805664 56.09272384643555 C 33.25720977783203 56.09272384643555 32.18545913696289 57.16447448730469 32.18545913696289 58.4818229675293 C 32.18545913696289 59.79917526245117 33.25720977783203 60.87091445922852 34.57455825805664 60.87091445922852 C 35.89190673828125 60.87091445922852 36.96364974975586 59.79917526245117 36.96364974975586 58.4818229675293 C 36.96364974975586 57.16447448730469 35.89190673828125 56.09272384643555 34.57455825805664 56.09272384643555 Z" stroke="none"/>
    <path d="M 26.79636764526367 67.55638122558594 C 27.12822914123535 67.55638122558594 27.46010780334473 67.42934417724609 27.71418762207031 67.17784118652344 L 31.00436782836914 63.88507461547852 C 32.02848815917969 64.56437683105469 33.25484848022461 64.96364593505859 34.57455825805664 64.96364593505859 C 38.15511703491211 64.96364593505859 41.05637741088867 62.06238555908203 41.05637741088867 58.4818229675293 C 41.05637741088867 54.90126419067383 38.15511703491211 52.00000381469727 34.57455825805664 52.00000381469727 C 30.99398803710938 52.00000381469727 28.09272766113281 54.90126419067383 28.09272766113281 58.4818229675293 C 28.09272766113281 59.8015251159668 28.49200820922852 61.02788543701172 29.17129898071289 62.0520133972168 L 25.88112831115723 65.34218597412109 C 25.37295913696289 65.85036468505859 25.37295913696289 66.669677734375 25.88112831115723 67.17784118652344 C 26.13261795043945 67.42934417724609 26.46449851989746 67.55638122558594 26.79636764526367 67.55638122558594 M 34.57455825805664 54.59272384643555 C 36.7187385559082 54.59272384643555 38.46364974975586 56.3376350402832 38.46364974975586 58.4818229675293 C 38.46364974975586 60.62602615356445 36.7187385559082 62.37091445922852 34.57455825805664 62.37091445922852 C 32.43036651611328 62.37091445922852 30.68545913696289 60.62602615356445 30.68545913696289 58.4818229675293 C 30.68545913696289 56.3376350402832 32.43036651611328 54.59272384643555 34.57455825805664 54.59272384643555 M 26.79636764526367 70.55638122558594 C 25.6489086151123 70.55638122558594 24.57048797607422 70.10988616943359 23.75976753234863 69.29912567138672 C 22.08402824401855 67.62338256835938 22.08401870727539 64.89668273925781 23.75978851318359 63.22088623046875 L 25.5605354309082 61.42013931274414 C 25.25179100036621 60.47743606567383 25.09272766113281 59.48764419555664 25.09272766113281 58.4818229675293 C 25.09272766113281 53.25353622436523 29.34625816345215 49.00000381469727 34.57455825805664 49.00000381469727 C 39.80284881591797 49.00000381469727 44.05637741088867 53.25353622436523 44.05637741088867 58.4818229675293 C 44.05637741088867 63.71011352539062 39.80284881591797 67.96364593505859 34.57455825805664 67.96364593505859 C 33.56894302368164 67.96364593505859 32.57963943481445 67.80474090576172 31.63712501525879 67.49613189697266 L 29.82465744018555 69.30996704101562 C 29.01263809204102 70.11373138427734 27.93717765808105 70.55638122558594 26.79636764526367 70.55638122558594 Z M 34.57455825805664 57.59272384643555 C 34.08430862426758 57.59272384643555 33.68545913696289 57.99157333374023 33.68545913696289 58.4818229675293 C 33.68545913696289 58.97207260131836 34.08430862426758 59.37091445922852 34.57455825805664 59.37091445922852 C 35.0648078918457 59.37091445922852 35.46364974975586 58.97207260131836 35.46364974975586 58.4818229675293 C 35.46364974975586 57.99157333374023 35.0648078918457 57.59272384643555 34.57455825805664 57.59272384643555 Z" stroke="none" fill="#fff"/>
  </g>
  <g id="Tracciato_65309" data-name="Tracciato 65309" transform="translate(0.796 -27.851)" fill="#1e3a6d">
    <path d="M 47.76001358032227 63.056396484375 C 47.01326370239258 63.056396484375 46.31154251098633 62.76592636108398 45.78412246704102 62.23850631713867 L 43.28872299194336 59.74310684204102 C 42.25452423095703 60.21695327758789 41.13063812255859 60.46366500854492 39.98183441162109 60.46366500854492 C 35.58063125610352 60.46366500854492 32.00000381469727 56.88303756713867 32.00000381469727 52.48183441162109 C 32.00000381469727 48.08064651489258 35.58063125610352 44.50001525878906 39.98183441162109 44.50001525878906 C 44.38302230834961 44.50001525878906 47.96365356445312 48.08064651489258 47.96365356445312 52.48183441162109 C 47.96365356445312 53.63051605224609 47.71705627441406 54.7541618347168 47.24330139160156 55.78829956054688 L 49.73808288574219 58.28112411499023 C 50.82511138916016 59.37369537353516 50.82511138916016 61.14635467529297 49.74120330810547 62.23580551147461 L 49.73714447021484 62.23987579345703 L 49.73305130004883 62.24392700195312 C 49.20373153686523 62.76785659790039 48.50302124023438 63.056396484375 47.76001358032227 63.056396484375 Z M 39.98183441162109 50.09274673461914 C 38.66448211669922 50.09274673461914 37.59273147583008 51.16448593139648 37.59273147583008 52.48183441162109 C 37.59273147583008 53.79918670654297 38.66448211669922 54.87092590332031 39.98183441162109 54.87092590332031 C 41.2991828918457 54.87092590332031 42.37092208862305 53.79918670654297 42.37092208862305 52.48183441162109 C 42.37092208862305 51.16448593139648 41.2991828918457 50.09274673461914 39.98183441162109 50.09274673461914 Z" stroke="none"/>
    <path d="M 39.98183441162109 46.00001525878906 C 36.40126419067383 46.00001525878906 33.50000381469727 48.90127563476562 33.50000381469727 52.48183441162109 C 33.50000381469727 56.06239700317383 36.40126419067383 58.96366500854492 39.98183441162109 58.96366500854492 C 41.30152130126953 58.96366500854492 42.52789306640625 58.56438446044922 43.5520133972168 57.88507461547852 L 46.84478378295898 61.1778450012207 C 47.3477897644043 61.68085098266602 48.16967010498047 61.68083572387695 48.67784118652344 61.1778450012207 C 49.18342208862305 60.66968536376953 49.18342208862305 59.85036468505859 48.67784118652344 59.34220504760742 L 45.38508224487305 56.05202484130859 C 46.06437301635742 55.02788543701172 46.46365356445312 53.8015251159668 46.46365356445312 52.48183441162109 C 46.46365356445312 48.90127563476562 43.56239318847656 46.00001525878906 39.98183441162109 46.00001525878906 M 39.98183441162109 56.37092590332031 C 37.83764266967773 56.37092590332031 36.09273147583008 54.62602615356445 36.09273147583008 52.48183441162109 C 36.09273147583008 50.33765411376953 37.83764266967773 48.59274673461914 39.98183441162109 48.59274673461914 C 42.12601470947266 48.59274673461914 43.87092208862305 50.33765411376953 43.87092208862305 52.48183441162109 C 43.87092208862305 54.62602615356445 42.12601470947266 56.37092590332031 39.98183441162109 56.37092590332031 M 39.98183441162109 43.00001525878906 C 45.21012115478516 43.00001525878906 49.46365356445312 47.25354766845703 49.46365356445312 52.48183441162109 C 49.46365356445312 53.48742294311523 49.30473709106445 54.47675704956055 48.99613189697266 55.41926574707031 L 50.80455017089844 57.22629547119141 C 52.4688720703125 58.89909744262695 52.4688720703125 61.62095642089844 50.80455017089844 63.29375457763672 L 50.78827285766602 63.31000518798828 C 49.97624206542969 64.11375427246094 48.90079116821289 64.556396484375 47.76001358032227 64.556396484375 C 46.61260223388672 64.556396484375 45.53420257568359 64.10990905761719 44.72346115112305 63.29916763305664 L 42.92015075683594 61.49585342407227 C 41.97744369506836 61.80460739135742 40.98767471313477 61.96366500854492 39.98183441162109 61.96366500854492 C 34.75353240966797 61.96366500854492 30.50000381469727 57.71013641357422 30.50000381469727 52.48183441162109 C 30.50000381469727 47.25354766845703 34.75353240966797 43.00001525878906 39.98183441162109 43.00001525878906 Z M 39.98183441162109 53.37092590332031 C 40.47208404541016 53.37092590332031 40.87092208862305 52.97208404541016 40.87092208862305 52.48183441162109 C 40.87092208862305 51.99158477783203 40.47208404541016 51.59274673461914 39.98183441162109 51.59274673461914 C 39.49158477783203 51.59274673461914 39.09273147583008 51.99158477783203 39.09273147583008 52.48183441162109 C 39.09273147583008 52.97208404541016 39.49158477783203 53.37092590332031 39.98183441162109 53.37092590332031 Z" stroke="none" fill="#fff"/>
  </g>
  <g id="Tracciato_65307" data-name="Tracciato 65307" transform="translate(5.975 -7.618)" fill="#1e3a6d">
    <path d="M 50.36001968383789 76.05637359619141 C 49.61328887939453 76.05637359619141 48.91157913208008 75.76591491699219 48.38414764404297 75.23850250244141 L 45.88872528076172 72.74309539794922 C 44.85453033447266 73.21693420410156 43.73064422607422 73.46364593505859 42.58182907104492 73.46364593505859 C 38.18063735961914 73.46364593505859 34.60000991821289 69.88301086425781 34.60000991821289 65.48182678222656 C 34.60000991821289 61.08063125610352 38.18063735961914 57.50000381469727 42.58182907104492 57.50000381469727 C 46.98302841186523 57.50000381469727 50.56365966796875 61.08063125610352 50.56365966796875 65.48182678222656 C 50.56365966796875 66.63050842285156 50.31706237792969 67.754150390625 49.84329605102539 68.78828430175781 L 52.33808898925781 71.28112030029297 C 53.42510986328125 72.37367248535156 53.42510986328125 74.14632415771484 52.34122085571289 75.23577117919922 L 52.33713912963867 75.23986053466797 L 52.33303833007812 75.24391937255859 C 51.8037109375 75.76784515380859 51.10300827026367 76.05637359619141 50.36001968383789 76.05637359619141 Z M 42.58182907104492 63.09272384643555 C 41.26448059082031 63.09272384643555 40.1927375793457 64.16447448730469 40.1927375793457 65.48182678222656 C 40.1927375793457 66.79917144775391 41.26448059082031 67.87092590332031 42.58182907104492 67.87092590332031 C 43.89917755126953 67.87092590332031 44.97092819213867 66.79917144775391 44.97092819213867 65.48182678222656 C 44.97092819213867 64.16447448730469 43.89917755126953 63.09272384643555 42.58182907104492 63.09272384643555 Z" stroke="none"/>
    <path d="M 50.36001968383789 74.55637359619141 C 50.69189834594727 74.55637359619141 51.02375793457031 74.42931365966797 51.27784729003906 74.17782592773438 C 51.78342819213867 73.66965484619141 51.78342819213867 72.85036468505859 51.27784729003906 72.34220123291016 L 47.98508071899414 69.05200958251953 C 48.66437911987305 68.02787017822266 49.06365966796875 66.801513671875 49.06365966796875 65.48182678222656 C 49.06365966796875 61.90126419067383 46.16239929199219 59.00000381469727 42.58182907104492 59.00000381469727 C 39.00127792358398 59.00000381469727 36.10000991821289 61.90126419067383 36.10000991821289 65.48182678222656 C 36.10000991821289 69.06238555908203 39.00127792358398 71.96364593505859 42.58182907104492 71.96364593505859 C 43.90153884887695 71.96364593505859 45.12789916992188 71.56436920166016 46.15201950073242 70.88507080078125 L 49.44478988647461 74.17782592773438 C 49.6962890625 74.42931365966797 50.02814865112305 74.55637359619141 50.36001968383789 74.55637359619141 M 42.58182907104492 61.59272384643555 C 44.72602081298828 61.59272384643555 46.47092819213867 63.33764266967773 46.47092819213867 65.48182678222656 C 46.47092819213867 67.62599945068359 44.72602081298828 69.37092590332031 42.58182907104492 69.37092590332031 C 40.43763732910156 69.37092590332031 38.6927375793457 67.62599945068359 38.6927375793457 65.48182678222656 C 38.6927375793457 63.33764266967773 40.43763732910156 61.59272384643555 42.58182907104492 61.59272384643555 M 50.36001968383789 77.55637359619141 C 49.21263885498047 77.55637359619141 48.13425064086914 77.10989379882812 47.32350921630859 76.29918670654297 L 45.5201530456543 74.49583435058594 C 44.57744598388672 74.80458831787109 43.58767318725586 74.96364593505859 42.58182907104492 74.96364593505859 C 37.35353851318359 74.96364593505859 33.10000991821289 70.71011352539062 33.10000991821289 65.48182678222656 C 33.10000991821289 60.25353240966797 37.35353851318359 56.00000381469727 42.58182907104492 56.00000381469727 C 47.81012725830078 56.00000381469727 52.06365966796875 60.25353240966797 52.06365966796875 65.48182678222656 C 52.06365966796875 66.48741912841797 51.90474319458008 67.47674560546875 51.59613418579102 68.41925811767578 L 53.40456008911133 70.22629547119141 C 55.06884765625 71.89907073974609 55.0688591003418 74.62091064453125 53.40457916259766 76.29371643066406 L 53.38822937011719 76.31002044677734 C 52.57619857788086 77.11374664306641 51.50075912475586 77.55637359619141 50.36001968383789 77.55637359619141 Z M 42.58182907104492 64.59272003173828 C 42.09157943725586 64.59272003173828 41.6927375793457 64.99156951904297 41.6927375793457 65.48182678222656 C 41.6927375793457 65.97207641601562 42.09157943725586 66.37092590332031 42.58182907104492 66.37092590332031 C 43.07207870483398 66.37092590332031 43.47092819213867 65.97207641601562 43.47092819213867 65.48182678222656 C 43.47092819213867 64.99156951904297 43.07207870483398 64.59272003173828 42.58182907104492 64.59272003173828 Z" stroke="none" fill="#fff"/>
  </g>
</svg>
