<svg xmlns="http://www.w3.org/2000/svg" xmlns:xlink="http://www.w3.org/1999/xlink" width="97.633" height="76.134" viewBox="0 0 97.633 76.134">
  <defs>
    <clipPath id="clip-path">
      <path id="Tracciato_65297" data-name="Tracciato 65297" d="M15,0A15,15,0,1,1,0,15,15,15,0,0,1,15,0Z" transform="translate(1155 2919)" fill="#fff"/>
    </clipPath>
  </defs>
  <g id="Componente_88_1" data-name="Componente 88 – 1" transform="translate(1 1)">
    <rect id="Rettangolo_147689" data-name="Rettangolo 147689" width="53" height="74" transform="translate(20.609)" fill="none" stroke="#1e3a6d" stroke-width="2"/>
    <line id="Linea_152" data-name="Linea 152" x2="21" transform="translate(26.609 11)" fill="none" stroke="#1e3a6d" stroke-width="2"/>
    <line id="Linea_153" data-name="Linea 153" x2="41.337" transform="translate(26.569 20.417)" fill="none" stroke="#1e3a6d" stroke-width="2"/>
    <line id="Linea_154" data-name="Linea 154" x2="41.337" transform="translate(26.569 30.234)" fill="none" stroke="#1e3a6d" stroke-width="2"/>
    <line id="Linea_155" data-name="Linea 155" x2="41.337" transform="translate(26.569 40.051)" fill="none" stroke="#1e3a6d" stroke-width="2"/>
    <line id="Linea_156" data-name="Linea 156" x2="41.337" transform="translate(26.569 49.867)" fill="none" stroke="#1e3a6d" stroke-width="2"/>
    <line id="Linea_157" data-name="Linea 157" x2="41" transform="translate(26.609 60)" fill="none" stroke="#1e3a6d" stroke-width="2"/>
    <g id="Raggruppa_22226" data-name="Raggruppa 22226" transform="translate(-35.58 -42.914)">
      <line id="Linea_114" data-name="Linea 114" x2="91.083" transform="translate(35.58 117.047)" fill="none" stroke="#043575" stroke-linecap="round" stroke-linejoin="round" stroke-width="2"/>
    </g>
    <circle id="Ellisse_377" data-name="Ellisse 377" cx="21" cy="21" r="21" transform="translate(54.633 21)" fill="#fff"/>
    <g id="Ellisse_376" data-name="Ellisse 376" transform="translate(56.633 23)" fill="#73d7ff" stroke="#1e3a6d" stroke-width="2">
      <circle cx="19" cy="19" r="19" stroke="none"/>
      <circle cx="19" cy="19" r="18" fill="none"/>
    </g>
    <g id="Ellisse_379" data-name="Ellisse 379" transform="translate(56.633 23)" fill="none" stroke="#1e3a6d" stroke-width="2">
      <circle cx="19" cy="19" r="19" stroke="none"/>
      <circle cx="19" cy="19" r="18" fill="none"/>
    </g>
    <path id="Tracciato_65291" data-name="Tracciato 65291" d="M635.384,43.884,624.225,33.332V38.8H612.054V48.964h12.171v5.471Z" transform="translate(698.754 85.884) rotate(180)" fill="#fff" stroke="#043575" stroke-linecap="round" stroke-linejoin="round" stroke-width="2"/>
    <path id="Tracciato_65296" data-name="Tracciato 65296" d="M15,0A15,15,0,1,1,0,15,15,15,0,0,1,15,0Z" transform="translate(12.609 16)" fill="#fff"/>
    <g id="Screening" transform="translate(1 14.765)">
      <path id="Tracciato_65295" data-name="Tracciato 65295" d="M11.018,45.994l4.536,4.4-5.407,5.05L6.8,58.766,4.927,60.285h-3.3L.976,58.766v-2.05l1.107-2.035Z" transform="translate(-0.81 -18.863)" fill="#73d7ff"/>
      <path id="Shape" d="M34.209,31.853a16.148,16.148,0,0,1-15.9-12.829A15.868,15.868,0,0,1,28.022,1.211a16.389,16.389,0,0,1,19.69,5.873A15.71,15.71,0,0,1,45.69,27.19,16.3,16.3,0,0,1,34.209,31.853Zm0-30.082A14.355,14.355,0,0,0,20.063,13.16,14.1,14.1,0,0,0,28.68,29,14.568,14.568,0,0,0,46.188,23.8,13.964,13.964,0,0,0,44.4,5.921,14.491,14.491,0,0,0,34.209,1.771Z" transform="translate(-7.792 0)" fill="#003575"/>
      <path id="Shape-2" data-name="Shape" d="M3.946,58.466h0a3.982,3.982,0,0,1-2.781-1.132,3.608,3.608,0,0,1-.1-5.216L14.586,39l.62.884a14.13,14.13,0,0,0,3.938,3.828l.912.6L6.545,57.431A3.706,3.706,0,0,1,3.946,58.466ZM14.358,41.714,2.351,53.374a1.886,1.886,0,0,0,.1,2.714,2.14,2.14,0,0,0,1.5.61h0a1.854,1.854,0,0,0,1.3-.513L17.266,44.552a16.264,16.264,0,0,1-1.541-1.317,15.73,15.73,0,0,1-1.368-1.52Z" transform="translate(-1 -15.995)" fill="#003575"/>
      <path id="Path" d="M22.443,50.309a.879.879,0,0,1-.623-.255l-3.513-3.51a.878.878,0,1,1,1.238-1.237l3.513,3.51a.877.877,0,0,1-.615,1.492Z" transform="translate(-7.792 -18.456)" fill="#003575"/>
    </g>
    <g id="Gruppo_di_maschere_1" data-name="Gruppo di maschere 1" transform="translate(-1142.391 -2903)" clip-path="url(#clip-path)">
      <g id="Raggruppa_22228" data-name="Raggruppa 22228">
        <line id="Linea_158" data-name="Linea 158" x2="23.13" transform="translate(1169.039 2923.417)" fill="none" stroke="#1e3a6d" stroke-width="4"/>
        <line id="Linea_159" data-name="Linea 159" x2="23.13" transform="translate(1169 2933.234)" fill="none" stroke="#1e3a6d" stroke-width="4"/>
        <line id="Linea_160" data-name="Linea 160" x2="23.13" transform="translate(1169 2943.051)" fill="none" stroke="#1e3a6d" stroke-width="4"/>
      </g>
    </g>
  </g>
</svg>
