<svg id="Componente_82_1" data-name="Componente 82 – 1" xmlns="http://www.w3.org/2000/svg" width="76.456" height="75.116" viewBox="0 0 76.456 75.116">
  <path id="Rettangolo_147683" data-name="Rettangolo 147683" d="M11.2,0H59.234a11.2,11.2,0,0,1,11.2,11.2v0a0,0,0,0,1,0,0H0a0,0,0,0,1,0,0v0A11.2,11.2,0,0,1,11.2,0Z" transform="translate(2.932 63.914)" fill="#1e3a6d"/>
  <path id="Rettangolo_147684" data-name="Rettangolo 147684" d="M11.2,0H49.8A11.2,11.2,0,0,1,61,11.2v0a0,0,0,0,1,0,0H0a0,0,0,0,1,0,0v0A11.2,11.2,0,0,1,11.2,0Z" transform="translate(7.648 54.466)" fill="#1e3a6d"/>
  <path id="Tracciato_65272" data-name="Tracciato 65272" d="M2646.51,2803.063a21.046,21.046,0,0,0-21.046,21.046v14.806h42.092v-14.806A21.046,21.046,0,0,0,2646.51,2803.063Z" transform="translate(-2608.282 -2783.135)" fill="#73d7ff" stroke="#1e3a6d" stroke-linecap="round" stroke-linejoin="bevel" stroke-width="2"/>
  <path id="Tracciato_65276" data-name="Tracciato 65276" d="M3409.285,1599.516a1.3,1.3,0,0,0-1.3,1.3v11.419a1.3,1.3,0,0,0,2.6,0v-11.419A1.3,1.3,0,0,0,3409.285,1599.516Z" transform="translate(-3371.058 -1599.516)" fill="#1e3a6d"/>
  <path id="Tracciato_65277" data-name="Tracciato 65277" d="M1408.258,3410.093h-11.419a1.3,1.3,0,1,0,0,2.6h11.419a1.3,1.3,0,1,0,0-2.6Z" transform="translate(-1395.537 -3381.051)" fill="#1e3a6d"/>
  <path id="Tracciato_65278" data-name="Tracciato 65278" d="M4625.884,3410.093h-11.419a1.3,1.3,0,1,0,0,2.6h11.419a1.3,1.3,0,1,0,0-2.6Z" transform="translate(-4550.73 -3379.75)" fill="#1e3a6d"/>
  <path id="Tracciato_65279" data-name="Tracciato 65279" d="M4234.057,2167.609a1.3,1.3,0,0,0-1.841,0l-8.074,8.074a1.3,1.3,0,1,0,1.84,1.841l8.074-8.074A1.3,1.3,0,0,0,4234.057,2167.609Z" transform="translate(-4172.004 -2160.217)" fill="#1e3a6d"/>
  <path id="Tracciato_65280" data-name="Tracciato 65280" d="M2023.689,2167.609a1.3,1.3,0,0,0-1.841,1.841l8.074,8.074a1.3,1.3,0,1,0,1.841-1.841Z" transform="translate(-2009.625 -2159.198)" fill="#1e3a6d"/>
  <path id="Tracciato_65281" data-name="Tracciato 65281" d="M2772.5,2992.331a1.111,1.111,0,0,1-1.111-1.111v-6.812a16.154,16.154,0,0,1,16.172-16.173,1.111,1.111,0,1,1,0,2.222,13.966,13.966,0,0,0-13.951,13.951v6.812A1.111,1.111,0,0,1,2772.5,2992.331Z" transform="translate(-2749.148 -2943.113)" fill="#fff" stroke="#fff" stroke-width="0.5"/>
  <path id="Tracciato_65282" data-name="Tracciato 65282" d="M2540.061,4494.37a1.111,1.111,0,0,1-1.111-1.111v-3.824a1.111,1.111,0,0,1,2.222,0v3.824A1.111,1.111,0,0,1,2540.061,4494.37Z" transform="translate(-2516.531 -4431.281)" fill="#fff" stroke="#fff" stroke-width="0.5"/>
  <path id="Tracciato_65283" data-name="Tracciato 65283" d="M2540.061,4494.37a1.111,1.111,0,0,1-1.111-1.111v-3.824a1.111,1.111,0,0,1,2.222,0v3.824A1.111,1.111,0,0,1,2540.061,4494.37Z" transform="translate(-2525.53 -4421.281)" fill="#fff" stroke="#fff" stroke-width="0.5"/>
</svg>
