<svg xmlns="http://www.w3.org/2000/svg" width="79.272" height="72.366" viewBox="0 0 79.272 72.366"><defs><style>.a{fill:#fff;}.b{fill:#003575;}.c{fill:#73d7ff;}</style></defs><g transform="translate(-1068.968 -1158.519)"><rect class="a" width="31.183" height="43.412" transform="translate(1115.834 1173.889)"/><path class="b" d="M14.029,23.834a.923.923,0,1,1,0-1.834h16.9a.923.923,0,1,1,0,1.834Z" transform="translate(1108.949 1174.117)"/><path class="b" d="M21.038,12.834a.924.924,0,1,1,0-1.834h7.708a.924.924,0,1,1,0,1.834Z" transform="translate(1106.229 1178.391)"/><path class="b" d="M14.029,33.834a.923.923,0,1,1,0-1.834h16.9a.923.923,0,1,1,0,1.834h-16.9Z" transform="translate(1108.949 1170.232)"/><path class="b" d="M14.029,43.834a.923.923,0,1,1,0-1.834h16.9a.923.923,0,1,1,0,1.834h-16.9Z" transform="translate(1108.949 1166.346)"/><path class="b" d="M2.623,45.857A2.615,2.615,0,0,1,0,43.229V2.629A2.615,2.615,0,0,1,2.623,0H31.618A2.615,2.615,0,0,1,34.24,2.629h0v40.6a2.615,2.615,0,0,1-2.623,2.629Zm0-43.667c-.291,0-.583.146-.583.438h0v40.6a.466.466,0,0,0,.437.438H31.472a.466.466,0,0,0,.437-.438V2.629a.466.466,0,0,0-.437-.438Z" transform="translate(1114 1172.666)"/><path class="a" d="M22.084,82.765,20,78.373l1.945.412L24.308,77l1.807,5.216-2.223.137-.973,1.373-.695-.412Z" transform="translate(1106.229 1142.746)"/><path class="a" d="M14.726,79.3l-2.471,5.035-1.784-2.014L8,82.611,11.02,77l1.51,2.158,1.784-.575Z" transform="translate(1110.892 1142.746)"/><g transform="translate(1313.699 1046.489) rotate(135)"><g transform="translate(232 21)"><path class="b" d="M191.526,33.216a1.664,1.664,0,0,1-2.347,0l-2.346-2.346-4.693,4.693-4.693-4.693,4.693-4.693-2.346-2.346a1.659,1.659,0,0,1,2.346-2.347l9.386,9.386A1.665,1.665,0,0,1,191.526,33.216Z" transform="translate(-142.232 -21)"/><path class="b" d="M177.84,42.168a1.659,1.659,0,0,1-2.346,2.346l-1.173-1.173L156.135,61.527a4.147,4.147,0,0,1-5.866,0l-.972.972a1.944,1.944,0,0,1-2.749,0l-.268-.268-9.58,9.58a1,1,0,0,1-1.408-1.408l9.58-9.58-.268-.268a1.944,1.944,0,0,1,0-2.749l.972-.972a4.147,4.147,0,0,1,0-5.866l18.185-18.185-1.173-1.173a1.659,1.659,0,0,1,2.346-2.346Zm-5.279-.587-7.04-7.04-2.053,2.053,2.934,2.934a.83.83,0,1,1-1.173,1.173l-2.934-2.933-2.346,2.346,1.76,1.76a.83.83,0,1,1-1.173,1.174l-1.76-1.76-2.346,2.347,2.934,2.933a.829.829,0,1,1-1.173,1.173l-2.934-2.933-2.347,2.346,1.76,1.76a.829.829,0,1,1-1.173,1.173l-1.76-1.76-2.346,2.347,2.934,2.933a.83.83,0,1,1-1.174,1.174l-2.933-2.934-.709.708a1.9,1.9,0,0,0,0,2.689l4.351,4.351a1.9,1.9,0,0,0,2.689,0Z" transform="translate(-135 -22.325)"/><path class="c" d="M160.087,45.178l-1.2,1.251,2.934,2.933a.829.829,0,0,1-1.173,1.173L157.709,47.6l-2.347,2.346,1.76,1.76a.829.829,0,0,1-1.173,1.173l-1.76-1.76-2.346,2.347,2.934,2.933a.83.83,0,1,1-1.174,1.174l-2.933-2.934-.709.708a1.9,1.9,0,0,0,0,2.689l4.351,4.351a1.9,1.9,0,0,0,2.689,0l10.413-10.234Z" transform="translate(-137.454 -25.12)"/></g></g><g transform="translate(2702.685 1767.141) rotate(155)"><path class="c" d="M13.563,54.44,12.688,54h-.146a2.777,2.777,0,0,0-.583.88,2.281,2.281,0,0,1-.875,1.174,2.453,2.453,0,0,1-1.458.44c-.729.147-.875.147-1.021.293s-.146.44,0,1.027a2.515,2.515,0,0,1,0,1.467,2.281,2.281,0,0,1-.875,1.174c-.438.44-.729.734-.729.88s.146.44.729.88A2.281,2.281,0,0,1,8.6,63.392a2.515,2.515,0,0,1,0,1.467c-.146.734-.146,1.027,0,1.027.146.147.292.147,1.021.293a2.8,2.8,0,0,1,1.458.44,8.136,8.136,0,0,1,.875,1.174c.292.587.438.88.583.88h0c.292,0,.438-.147.729-.293l.146-.147a4.352,4.352,0,0,1,1.458-.587,3.069,3.069,0,0,1,1.458.587l.875.44h.146a2.777,2.777,0,0,0,.583-.88,2.281,2.281,0,0,1,.875-1.174,2.453,2.453,0,0,1,1.458-.44c.729-.147.875-.147,1.021-.293s.146-.44,0-1.027a2.515,2.515,0,0,1,0-1.467,2.281,2.281,0,0,1,.875-1.174c.438-.44.729-.734.729-.88s-.146-.44-.729-.88a2.281,2.281,0,0,1-.875-1.174,2.515,2.515,0,0,1,0-1.467c.146-.734.146-1.027,0-1.027s-.292-.147-1.021-.293a2.8,2.8,0,0,1-1.458-.44,8.136,8.136,0,0,1-.875-1.174c-.292-.587-.438-.88-.583-.88h-.146c-.292,0-.438.147-.729.293l-.146.147a4.352,4.352,0,0,1-1.458.587A2.613,2.613,0,0,1,13.563,54.44Z" transform="translate(1171.28 1144.683)"/><path class="b" d="M19.547,67c0-.147,0-.294.149-.294h.149a2.4,2.4,0,0,0,1.638-.735,2.764,2.764,0,0,0,.149-1.912,1.242,1.242,0,0,1,0-1.029,1.472,1.472,0,0,1,.6-.735,2.025,2.025,0,0,0,.893-1.618,3.493,3.493,0,0,0-.893-1.618,1.472,1.472,0,0,1-.6-.735V57.294a2.835,2.835,0,0,0-.149-1.912,2.4,2.4,0,0,0-1.638-.735,2.134,2.134,0,0,1-.893-.294,3.074,3.074,0,0,1-.6-.882A2.943,2.943,0,0,0,17.165,52h-.447a3.587,3.587,0,0,0-1.34.441l-.893.441a1.293,1.293,0,0,1-.893-.441A2.421,2.421,0,0,0,12.253,52h-.447c-.6.147-.893.882-1.191,1.471l-.447.882a2.134,2.134,0,0,1-.893.294,2.144,2.144,0,0,0-1.638.735A2.39,2.39,0,0,0,7.4,56.724a5.047,5.047,0,0,0,.085.57,1.242,1.242,0,0,1,0,1.029,1.472,1.472,0,0,1-.6.735A2.025,2.025,0,0,0,6,60.676a2.792,2.792,0,0,0,1.042,1.618,1.472,1.472,0,0,1,.6.735v1.029a2.835,2.835,0,0,0,.149,1.912,2.4,2.4,0,0,0,1.638.735c.149,0,.3.147.149.294v.147L6.744,72.44a.535.535,0,0,0,.3.735h.3l2.531-.441h.3l1.191,2.206c.149.147.3.294.447.294s.3-.147.447-.294l3.126-6.176h.447a2.421,2.421,0,0,0,1.34.441h.447c.6-.147.893-.882,1.191-1.471l.149-.147a.145.145,0,0,1,.149-.147c.149,0,.149,0,.149.147l1.935,3.97c0,.147,0,.294-.149.294h-.149l-1.638-.294H19.1c-.149,0-.3.147-.447.294l-.893,1.471a.145.145,0,0,1-.149.147c-.149,0-.149,0-.149-.147l-1.191-1.765c-.149-.294-.447-.294-.744-.294-.3.147-.3.441-.3.735l1.489,2.941c.149.147.3.294.447.294s.3-.147.447-.294L18.8,72.735a.145.145,0,0,1,.149-.147l2.531.441h.149a.551.551,0,0,0,.447-.147c.149-.147.149-.294,0-.588Zm-5.955,2.206-2.084,4.117a.145.145,0,0,1-.149.147h0c-.149,0-.149,0-.149-.147l-.893-1.471c-.149-.147-.3-.294-.447-.294H9.722l-1.638.294h0a.318.318,0,0,1-.3-.294v-.147l1.935-3.97a.145.145,0,0,1,.149-.147h0c.149,0,.149,0,.149.147l.149.147a2.943,2.943,0,0,0,1.191,1.471h.447A1.7,1.7,0,0,0,13,68.617h.3c.149.294.3.441.3.588Zm4.615-3.088a8.166,8.166,0,0,0-.893,1.176c-.3.588-.447.882-.6.882H16.57c-.3-.147-.6-.147-.893-.441a4.49,4.49,0,0,0-1.489-.588,3.166,3.166,0,0,0-1.489.588l-.149.147a1.145,1.145,0,0,1-.744.294h-.149a2.783,2.783,0,0,1-.6-.882,2.289,2.289,0,0,0-.893-1.176,2.537,2.537,0,0,0-1.489-.441c-.744-.147-.893-.147-1.042-.294s-.149-.441,0-1.029a2.477,2.477,0,0,0,0-1.471,2.289,2.289,0,0,0-.893-1.176C6.3,61.264,6,60.97,6,60.823s.149-.441.744-.882a2.289,2.289,0,0,0,.893-1.176,2.477,2.477,0,0,0,0-1.471c-.149-.735-.149-1.029,0-1.029s.3-.147,1.042-.294a2.9,2.9,0,0,0,1.489-.441,8.167,8.167,0,0,0,.893-1.176c.3-.588.447-.882.6-.882h.149a1.293,1.293,0,0,1,.893.441,4.49,4.49,0,0,0,1.489.588,3.166,3.166,0,0,0,1.489-.588l.149-.147a1.145,1.145,0,0,1,.744-.294h.149a2.783,2.783,0,0,1,.6.882,2.29,2.29,0,0,0,.893,1.176,2.537,2.537,0,0,0,1.489.441c.744.147.893.147,1.042.294s.149.441,0,1.029a2.477,2.477,0,0,0,0,1.471,2.289,2.289,0,0,0,.893,1.176c.447.441.744.735.744.882s-.149.441-.744.882a2.289,2.289,0,0,0-.893,1.176,2.477,2.477,0,0,0,0,1.471c.149.735.149,1.029,0,1.029-.149.147-.3.147-1.042.294a2.241,2.241,0,0,0-1.489.441Z" transform="translate(1171.668 1145.46)"/><circle class="a" cx="3.974" cy="3.974" r="3.974" transform="translate(1181.949 1202.352)"/><path class="b" d="M16.2,67.783A4.9,4.9,0,1,1,16.2,58a5.01,5.01,0,0,1,5.2,4.891,5.318,5.318,0,0,1-5.2,4.891Zm0-8.776a3.892,3.892,0,1,0,0,7.769,3.892,3.892,0,1,0,0-7.769Z" transform="translate(1169.726 1143.129)"/></g></g></svg>