<svg xmlns="http://www.w3.org/2000/svg" width="28" height="38" viewBox="0 0 28 38"><defs><style>.a{fill:#b9aa6d;}.b{fill:#fff;}.c{fill:#003575;}</style></defs><g transform="translate(-1395 -1142)"><path class="a" d="M17.734,54.72,16.3,54h-.239a4.543,4.543,0,0,0-.954,1.44,3.73,3.73,0,0,1-1.431,1.92,4.012,4.012,0,0,1-2.385.72c-1.193.24-1.431.24-1.67.48s-.239.72,0,1.68a4.114,4.114,0,0,1,0,2.4,3.73,3.73,0,0,1-1.431,1.92C7.477,65.28,7,65.76,7,66s.239.72,1.193,1.44a3.73,3.73,0,0,1,1.431,1.92,4.114,4.114,0,0,1,0,2.4c-.239,1.2-.239,1.68,0,1.68.239.24.477.24,1.67.48a4.582,4.582,0,0,1,2.385.72,13.306,13.306,0,0,1,1.431,1.92c.477.96.716,1.44.954,1.44h0c.477,0,.716-.24,1.193-.48l.239-.24a7.118,7.118,0,0,1,2.385-.96,5.02,5.02,0,0,1,2.385.96L23.7,78h.239a4.543,4.543,0,0,0,.954-1.44,3.73,3.73,0,0,1,1.431-1.92,4.012,4.012,0,0,1,2.385-.72c1.193-.24,1.431-.24,1.67-.48s.239-.72,0-1.68a4.114,4.114,0,0,1,0-2.4,3.73,3.73,0,0,1,1.431-1.92C32.523,66.72,33,66.24,33,66s-.239-.72-1.193-1.44a3.73,3.73,0,0,1-1.431-1.92,4.114,4.114,0,0,1,0-2.4c.239-1.2.239-1.68,0-1.68s-.477-.24-1.67-.48a4.582,4.582,0,0,1-2.385-.72,13.306,13.306,0,0,1-1.431-1.92c-.477-.96-.716-1.44-.954-1.44H23.7c-.477,0-.716.24-1.193.48l-.239.24a7.118,7.118,0,0,1-2.385.96A4.273,4.273,0,0,1,17.734,54.72Z" transform="translate(1389 1090)"/><circle class="b" cx="6.5" cy="6.5" r="6.5" transform="translate(1403 1150)"/><path class="b" d="M23.409,86.429,20,79.245l3.182.673L27.045,77,30,85.531l-3.636.224L24.773,88l-1.136-.673Z" transform="translate(1389 1090)"/><path class="b" d="M19,80.765,14.959,89l-2.918-3.294L8,86.176,12.939,77l2.469,3.529,2.918-.941Z" transform="translate(1389 1090)"/><path class="c" d="M28.157,76.532c0-.241,0-.481.243-.481h.243a3.931,3.931,0,0,0,2.678-1.2,4.521,4.521,0,0,0,.243-3.127,2.031,2.031,0,0,1,0-1.684,2.407,2.407,0,0,1,.974-1.2A3.312,3.312,0,0,0,34,66.19a5.713,5.713,0,0,0-1.461-2.646,2.407,2.407,0,0,1-.974-1.2V60.658a4.637,4.637,0,0,0-.243-3.127,3.931,3.931,0,0,0-2.678-1.2,3.49,3.49,0,0,1-1.461-.481,5.027,5.027,0,0,1-.974-1.443A4.814,4.814,0,0,0,24.261,52h-.73a5.867,5.867,0,0,0-2.191.722l-1.461.722a2.114,2.114,0,0,1-1.461-.722A3.96,3.96,0,0,0,16.226,52H15.5c-.974.241-1.461,1.443-1.948,2.405l-.73,1.443a3.49,3.49,0,0,1-1.461.481,3.506,3.506,0,0,0-2.678,1.2A3.909,3.909,0,0,0,8.3,59.725a8.254,8.254,0,0,0,.14.933,2.031,2.031,0,0,1,0,1.684,2.407,2.407,0,0,1-.974,1.2A3.312,3.312,0,0,0,6,66.19a4.566,4.566,0,0,0,1.7,2.646,2.407,2.407,0,0,1,.974,1.2v1.684a4.637,4.637,0,0,0,.243,3.127,3.931,3.931,0,0,0,2.678,1.2c.243,0,.487.241.243.481v.241L7.217,85.43a.875.875,0,0,0,.487,1.2h.487l4.139-.722h.487l1.948,3.608c.243.241.487.481.73.481s.487-.241.73-.481l5.113-10.1h.73a3.96,3.96,0,0,0,2.191.722h.73c.974-.241,1.461-1.443,1.948-2.405l.243-.241a.238.238,0,0,1,.243-.241c.243,0,.243,0,.243.241l3.165,6.494c0,.241,0,.481-.243.481h-.243l-2.678-.481h-.243c-.243,0-.487.241-.73.481l-1.461,2.405a.238.238,0,0,1-.243.241c-.243,0-.243,0-.243-.241L22.8,83.987c-.243-.481-.73-.481-1.217-.481-.487.241-.487.722-.487,1.2l2.435,4.81c.243.241.487.481.73.481s.487-.241.73-.481l1.948-3.608a.238.238,0,0,1,.243-.241l4.139.722h.243a.9.9,0,0,0,.73-.241c.243-.241.243-.481,0-.962Zm-9.739,3.608-3.409,6.734a.238.238,0,0,1-.243.241h0c-.243,0-.243,0-.243-.241l-1.461-2.405c-.243-.241-.487-.481-.73-.481h-.243l-2.678.481h0a.521.521,0,0,1-.487-.481v-.241l3.165-6.494a.238.238,0,0,1,.243-.241h0c.243,0,.243,0,.243.241l.243.241A4.814,4.814,0,0,0,14.765,79.9h.73a2.784,2.784,0,0,0,1.948-.722h.487c.243.481.487.722.487.962Zm7.548-5.051A13.356,13.356,0,0,0,24.5,77.013c-.487.962-.73,1.443-.974,1.443h-.243c-.487-.241-.974-.241-1.461-.722a7.343,7.343,0,0,0-2.435-.962,5.178,5.178,0,0,0-2.435.962l-.243.241a1.872,1.872,0,0,1-1.217.481h-.243a4.551,4.551,0,0,1-.974-1.443,3.744,3.744,0,0,0-1.461-1.924,4.149,4.149,0,0,0-2.435-.722c-1.217-.241-1.461-.241-1.7-.481s-.243-.722,0-1.684a4.051,4.051,0,0,0,0-2.405,3.744,3.744,0,0,0-1.461-1.924C6.487,67.152,6,66.671,6,66.43s.243-.722,1.217-1.443a3.744,3.744,0,0,0,1.461-1.924,4.051,4.051,0,0,0,0-2.405c-.243-1.2-.243-1.684,0-1.684s.487-.241,1.7-.481a4.74,4.74,0,0,0,2.435-.722,13.356,13.356,0,0,0,1.461-1.924c.487-.962.73-1.443.974-1.443H15.5a2.114,2.114,0,0,1,1.461.722,7.343,7.343,0,0,0,2.435.962,5.178,5.178,0,0,0,2.435-.962l.243-.241a1.872,1.872,0,0,1,1.217-.481h.243a4.551,4.551,0,0,1,.974,1.443,3.744,3.744,0,0,0,1.461,1.924,4.149,4.149,0,0,0,2.435.722c1.217.241,1.461.241,1.7.481s.243.722,0,1.684a4.051,4.051,0,0,0,0,2.405,3.744,3.744,0,0,0,1.461,1.924c.73.722,1.217,1.2,1.217,1.443s-.243.722-1.217,1.443A3.744,3.744,0,0,0,30.1,69.8a4.051,4.051,0,0,0,0,2.405c.243,1.2.243,1.684,0,1.684-.243.241-.487.241-1.7.481a3.666,3.666,0,0,0-2.435.722Z" transform="translate(1389 1090)"/><ellipse class="a" cx="8" cy="7.5" rx="8" ry="7.5" transform="translate(1401 1149)"/></g></svg>