<svg id="Livello_1" data-name="Livello 1" xmlns="http://www.w3.org/2000/svg" viewBox="0 0 40 40"><defs><style>.cls-1{fill:#7ecef5;}.cls-2{fill:#1e3a6d;}</style></defs><title>01</title><path class="cls-1" d="M28,30.85c0,2-1,2.57-2.29,2.57s-5.81-.57-5.81-2.57,3.41-3.7,4.68-3.7A4.1,4.1,0,0,1,28,30.85Z"/><path class="cls-1" d="M29.38,10.33c0,2-1,2.57-2.29,2.57s-5.81-.57-5.81-2.57,3.41-3.7,4.68-3.7A4.1,4.1,0,0,1,29.38,10.33Z"/><path class="cls-2" d="M30.18,10.25A.4.4,0,0,1,30.3,10l3.89-3.89a.81.81,0,0,0,0-1.14L30.58,1.36a.81.81,0,0,0-1.14,0L25.54,5.25a.39.39,0,0,1-.24.11,4.45,4.45,0,0,0-3.91,3.91.39.39,0,0,1-.11.24L15.83,15a.4.4,0,0,1-.56,0l-.35-.35a.81.81,0,1,0-1.14,1.14l.35.35a.4.4,0,0,1,0,.56l-2.76,2.76a.81.81,0,0,0,0,1.14L15,24.19a.81.81,0,0,0,1.14,0l2.76-2.76a.4.4,0,0,1,.56,0l.35.35a.81.81,0,1,0,1.14-1.14l-.35-.35a.4.4,0,0,1,0-.56L26,14.27a.39.39,0,0,1,.24-.11A4.42,4.42,0,0,0,29,12.78a.4.4,0,0,1,.29-.13h0a.4.4,0,0,1,.3.16,10,10,0,0,1-2.48,14.33l-.09.08a.4.4,0,0,1-.5,0A4.39,4.39,0,0,0,24,26.42H8.32a.81.81,0,0,0,0,1.62H19.81a.4.4,0,0,1,.34.59,4.41,4.41,0,0,0-.59,2.21V32a.4.4,0,0,1-.4.4H5.91a.81.81,0,0,0-.81.81v4.82a.81.81,0,0,0,.81.81h26.5a.81.81,0,0,0,.81-.81V33.25a.81.81,0,0,0-.81-.81H28.8a.4.4,0,0,1-.4-.4v-1.2a4.38,4.38,0,0,0-.43-1.9.4.4,0,0,1,.13-.5A11.65,11.65,0,0,0,30.25,11l0,0a.4.4,0,0,1-.1-.35C30.15,10.52,30.17,10.38,30.18,10.25Zm-9,20.6a2.8,2.8,0,0,1,5.61,0V32a.4.4,0,0,1-.4.4H21.57a.4.4,0,0,1-.4-.4Zm10,3.22a.4.4,0,0,1,.4.4v2.41a.4.4,0,0,1-.4.4H7.12a.4.4,0,0,1-.4-.4V34.46a.4.4,0,0,1,.4-.4ZM17.74,20.28l-1.91,1.91a.4.4,0,0,1-.56,0l-1.91-1.91a.4.4,0,0,1,0-.56l1.91-1.91a.4.4,0,0,1,.56,0l1.91,1.91A.4.4,0,0,1,17.74,20.28Zm6-6-4.31,4.31a.4.4,0,0,1-.56,0L17,16.67a.4.4,0,0,1,0-.56l4.31-4.31a.39.39,0,0,1,.28-.11h.06a.42.42,0,0,1,.3.2l0,0,.12.19,0,.07.16.22,0,0,.16.2,0,.05a4.46,4.46,0,0,0,.39.39l.05,0,.2.16,0,0,.23.16.07,0,.2.12,0,0a.4.4,0,0,1,.09.63Zm2-1.7a2.8,2.8,0,1,1,2.8-2.8A2.81,2.81,0,0,1,25.79,12.56ZM30,7.84H30a.4.4,0,0,1-.29-.2l0,0-.12-.19,0-.07-.16-.23v0l-.16-.2,0-.05a4.46,4.46,0,0,0-.39-.39l-.05,0-.2-.16,0,0-.22-.16-.07,0L28,5.9l0,0a.4.4,0,0,1-.09-.63l1.9-1.9a.4.4,0,0,1,.56,0L32.2,5.26a.4.4,0,0,1,0,.56l-1.9,1.9A.39.39,0,0,1,30,7.84Z"/><circle class="cls-2" cx="25.79" cy="9.76" r="0.81"/></svg>