<?xml version="1.0" encoding="utf-8"?>
<!-- Generator: Adobe Illustrator 21.0.2, SVG Export Plug-In . SVG Version: 6.00 Build 0)  -->
<svg version="1.1" id="Livello_1" xmlns="http://www.w3.org/2000/svg" xmlns:xlink="http://www.w3.org/1999/xlink" x="0px" y="0px"
	 viewBox="0 0 40 40" style="enable-background:new 0 0 40 40;" xml:space="preserve">
<style type="text/css">
	.st0{fill:none;stroke:#73D7FF;stroke-width:2;stroke-miterlimit:10;}
	.st1{fill:none;stroke:#003575;stroke-width:2;stroke-miterlimit:10;}
	.st2{fill:#003575;}
</style>
<g id="Livello_2">
	<g id="Layer_1">
		<rect x="5.3" y="7.8" class="st0" width="29.9" height="24.5"/>
		<path class="st0" d="M7.5,29.2"/>
		<rect x="2.4" y="4.9" class="st1" width="35.6" height="30.2"/>
		<path class="st2" d="M21.4,30.6h-3.9c-0.4,0-0.7-0.3-0.7-0.7c0,0,0,0,0-0.1c0.2-1.7,0.2-2.9,0.2-4.1c0-0.9,0-1.8-0.2-2.7
			c0-0.1,0-0.2,0-0.3c0-0.7,0.5-1.2,1.1-1.3c0.2,0,0.4,0,0.6,0.2l0.1,0.1c1.1,0.8,2.5,0.9,3.7,0.2c0.2-0.1,0.3-0.1,0.5-0.1
			c0.8,0.2,1.4,1.1,1.1,1.9c-0.1,0.3-0.3,0.6-0.5,0.8c-0.7,1.8-1.2,3.6-1.3,5.5C22,30.3,21.7,30.6,21.4,30.6z M17.6,29.8h3.6
			c0.2-2,0.7-3.9,1.4-5.7l0.1-0.1l0.1-0.1c0.3-0.2,0.4-0.7,0.2-1c-0.1-0.1-0.2-0.2-0.4-0.3c-1.4,0.9-3.2,0.8-4.6-0.2L18,22.3
			c-0.2,0.1-0.4,0.3-0.4,0.5c0,0,0,0.1,0,0.1c0.2,1,0.2,1.9,0.2,2.9C17.8,27.2,17.7,28.6,17.6,29.8z M22.6,22.5L22.6,22.5z
			 M15.6,30.6h-1.7c-0.4,0-0.7-0.3-0.7-0.7c0-0.1,0-0.3,0.1-0.4c0.8-1.2,1.4-2.5,1.8-3.9c0.1-0.4,0.4-0.6,0.8-0.5
			c0.3,0.1,0.5,0.4,0.5,0.7v0.3c0,1.1-0.1,2.3-0.2,3.9C16.2,30.3,15.9,30.6,15.6,30.6L15.6,30.6z M14.1,30L14.1,30z M14.3,29.8h1.2
			c0.1-1.1,0.2-2,0.2-2.8C15.3,27.9,14.9,28.9,14.3,29.8L14.3,29.8z M20.5,21.8c-2.2,0-3.9-1.8-3.9-3.9c0.1-2.6-0.6-5.2-2-7.4
			c-0.2-0.3-0.1-0.7,0.2-0.9c0.1-0.1,0.3-0.1,0.4-0.1h4.7c0.3,0,0.6,0.2,0.7,0.5c0.3,1.6,2.3,4.3,3,5.4c1.4,1.7,1.1,4.1-0.5,5.5
			C22.3,21.5,21.4,21.8,20.5,21.8L20.5,21.8z M15.4,10.3c1.4,2.3,2.1,4.9,2,7.5c0,1.7,1.4,3.1,3.1,3.1c1.7,0,3.1-1.4,3.1-3.1
			c0-0.7-0.3-1.4-0.7-2l0,0c-1.3-1.8-2.8-4-3.2-5.6H15.4z M25,21.3l-0.3-0.8c1.4-0.5,2.2-2,1.7-3.5c-0.3-0.8-0.9-1.4-1.7-1.7
			l0.3-0.8c1.9,0.6,2.9,2.7,2.2,4.5C26.8,20.1,26,20.9,25,21.3L25,21.3z"/>
	</g>
</g>
</svg>
