<?xml version="1.0" encoding="utf-8"?>
<!-- Generator: Adobe Illustrator 21.0.2, SVG Export Plug-In . SVG Version: 6.00 Build 0)  -->
<svg version="1.1" id="Livello_1" xmlns="http://www.w3.org/2000/svg" xmlns:xlink="http://www.w3.org/1999/xlink" x="0px" y="0px"
	 viewBox="0 0 40 40" style="enable-background:new 0 0 40 40;" xml:space="preserve">
<style type="text/css">
	.st0{fill:#73D7FF;}
	.st1{fill:#003575;}
</style>
<g>
	<g>
		<g>
			<circle class="st0" cx="30.8" cy="9.9" r="4.8"/>
		</g>
	</g>
	<g>
		<g>
			<g>
				<g>
					<path class="st1" d="M6.6,35.5c-1.6,0-2.8-1.3-2.8-2.8s1.3-2.8,2.8-2.8h14.8c0.8,0,1.4-0.6,1.4-1.4c0-0.8-0.6-1.4-1.4-1.4H15
						c-1.6,0-2.8-1.3-2.8-2.8v-1.7c0-0.2-0.1-0.3-0.3-0.3c-4.6-0.5-8.1-4.4-8.1-9.1V5.7C3.8,5.3,4.1,5,4.5,5h3.2C7.8,5,8,4.9,8,4.7
						C8,4.3,8.3,4,8.7,4c0.4,0,0.7,0.3,0.7,0.7v2.1c0,0.4-0.3,0.7-0.7,0.7C8.3,7.5,8,7.2,8,6.8c0-0.2-0.2-0.3-0.3-0.3H5.5
						c-0.2,0-0.3,0.2-0.3,0.3v6.3c0,4.3,3.5,7.7,7.7,7.7c4.3,0,7.7-3.5,7.7-7.7V6.8c0-0.2-0.2-0.3-0.3-0.3h-2.1
						c-0.2,0-0.3,0.2-0.3,0.3c0,0.4-0.3,0.7-0.7,0.7c-0.4,0-0.7-0.3-0.7-0.7V4.7c0-0.4,0.3-0.7,0.7-0.7c0.4,0,0.7,0.3,0.7,0.7
						C17.8,4.9,18,5,18.2,5h3.2C21.7,5,22,5.3,22,5.7v7.4c0,4.7-3.5,8.6-8.1,9.1c-0.2,0-0.3,0.2-0.3,0.3v1.7c0,0.8,0.6,1.4,1.4,1.4
						h6.3c1.6,0,2.8,1.3,2.8,2.8c0,1.6-1.3,2.8-2.8,2.8H6.6c-0.8,0-1.4,0.6-1.4,1.4c0,0.8,0.6,1.4,1.4,1.4h22.1
						c0.8,0,1.4-0.6,1.4-1.4V16.3c0,0,0,0,0-0.1c0-0.2-0.1-0.3-0.3-0.4c-2.9-0.5-5-3-5-5.9c0-3.3,2.7-6,6-6c3.3,0,6,2.7,6,6
						c0,2.9-2.1,5.4-5,5.9c-0.2,0-0.3,0.2-0.3,0.4c0,0,0,0,0,0.1v16.4c0,1.6-1.3,2.8-2.8,2.8H6.6z M30.8,5.4c-2.5,0-4.6,2-4.6,4.6
						s2,4.6,4.6,4.6c2.5,0,4.6-2,4.6-4.6S33.3,5.4,30.8,5.4z"/>
				</g>
			</g>
		</g>
		<g>
			<g>
				<g>
					<rect x="30.1" y="9.2" class="st1" width="1.4" height="1.4"/>
				</g>
			</g>
		</g>
	</g>
</g>
</svg>
