<svg xmlns="http://www.w3.org/2000/svg" width="38.288" height="52.883" viewBox="0 0 38.288 52.883"><defs><style>.a,.b{fill:#73d7ff;}.b,.d{stroke:#003575;}.b{stroke-linecap:round;stroke-linejoin:round;}.b,.d,.e{stroke-width:2px;}.c,.d,.e{fill:none;}.d,.e{stroke-miterlimit:10;}.e{stroke:#73d7ff;}</style></defs><g transform="translate(-487 -444)"><g transform="translate(-232 -1596)"><g transform="translate(720 2040)"><rect class="a" width="4.509" height="50.765" transform="translate(0.201 0.964)"/><rect class="a" width="4.509" height="50.765" transform="translate(31.405 0.964)"/><g transform="translate(0)"><path class="b" d="M85.755,472.16V457.855a17.319,17.319,0,0,0,0-28.789v-7.437" transform="translate(-81.093 -420.53)"/><path class="b" d="M78.318,421.629V472.16" transform="translate(-78.318 -420.53)"/><path class="b" d="M124.2,472.16v-7.437a17.324,17.324,0,0,1,0-28.792v-14.3" transform="translate(-92.576 -420.53)"/><path class="b" d="M136.219,421.629V472.16" transform="translate(-99.931 -420.53)"/><g transform="translate(14.048 32.075)"><circle class="c" cx="4.445" cy="4.445" r="4.445"/><circle class="d" cx="3.348" cy="3.348" r="3.348" transform="translate(1.097 1.097)"/></g><g transform="translate(8.017 40.994)"><circle class="c" cx="4.445" cy="4.445" r="4.445"/><circle class="e" cx="3.348" cy="3.348" r="3.348" transform="translate(1.097 1.097)"/></g><g transform="translate(13.698 21.769)"><circle class="c" cx="4.445" cy="4.445" r="4.445"/><circle class="e" cx="3.348" cy="3.348" r="3.348" transform="translate(1.097 1.097)"/></g><g transform="translate(18.846 43.993)"><circle class="c" cx="4.445" cy="4.445" r="4.445"/><circle class="d" cx="3.348" cy="3.348" r="3.348" transform="translate(1.097 1.097)"/></g><g transform="translate(15.389 11.633)"><circle class="c" cx="4.445" cy="4.445" r="4.445"/><circle class="d" cx="3.348" cy="3.348" r="3.348" transform="translate(1.097 1.097)"/></g><g transform="translate(19.254 1.747)"><circle class="c" cx="4.445" cy="4.445" r="4.445"/><circle class="e" cx="3.348" cy="3.348" r="3.348" transform="translate(1.097 1.097)"/></g><g transform="translate(8.425)"><circle class="c" cx="4.445" cy="4.445" r="4.445"/><circle class="d" cx="3.348" cy="3.348" r="3.348" transform="translate(1.097 1.097)"/></g></g></g></g></g></svg>