<svg xmlns="http://www.w3.org/2000/svg" width="36.124" height="46.098" viewBox="0 0 36.124 46.098"><defs><style>.a{fill:#73d7ff;}.b,.c,.e{fill:#fff;}.c,.d,.e,.f{stroke:#003575;stroke-linejoin:round;stroke-width:2px;}.d,.f{fill:none;}.d,.e{stroke-linecap:round;}</style></defs><g transform="translate(-1200 -262.485)"><g transform="translate(1201 263.485)"><g transform="translate(9.497 7.337)"><rect class="a" width="25" height="33" transform="translate(-9.497 -7.822)"/><rect class="b" width="24" height="12" transform="translate(-9.497 24.178)"/><path class="c" d="M327.638,288.706a1.347,1.347,0,0,1-1.346-1.343V272.171a1.351,1.351,0,0,1,1.346-1.347h21.934a1.351,1.351,0,0,1,1.346,1.347v15.192a1.348,1.348,0,0,1-1.346,1.343Z" transform="translate(-326.292 -270.824)"/><g transform="translate(0.779 10.56)"><line class="d" x1="5.562" y2="6.658"/><line class="d" x2="5.564" y2="6.658" transform="translate(17.505)"/></g><path class="e" d="M332.364,275.653l8.047,6.224,7.947-6.224" transform="translate(-328.061 -272.231)"/><g transform="translate(-9.497 -7.337)"><path class="f" d="M337.273,288.826v13.682a2.057,2.057,0,0,1-1.995,2.059H314.885a2.056,2.056,0,0,1-2-2.059V262.466a2,2,0,0,1,2-2h20.392a2,2,0,0,1,1.995,2v2.368" transform="translate(-312.89 -260.47)"/><line class="f" x2="18.448" transform="translate(2.964 35.395)"/><line class="d" x2="3.315" transform="translate(10.534 39.622)"/></g></g></g></g></svg>