<svg xmlns="http://www.w3.org/2000/svg" width="32.239" height="40" viewBox="0 0 32.239 40"><defs><style>.a{fill:#73d7ff;}.b{fill:#fff;}.c{fill:#003575;}</style></defs><g transform="translate(-1189 -263.582)"><g transform="translate(-57 -36)"><g transform="translate(1246 299.582)"><path class="a" d="M16.451,44.89l4.46,1.657,5.053-1.657,6.1-12.253-1.222-8.621L25.4,19l-8.729.688L10.915,19,4.357,20.931,1,26.766l.62,7.766,3.94,8.762,4.1,2.812,3.648-.529Z" transform="translate(-0.414 -7.133)"/><path class="b" d="M22.792,7.023l-3-4.263L14,2l.712,3.267,3.68,3.18h3.7Z" transform="translate(-5.583 -0.828)"/><path class="c" d="M11.07,40a5.8,5.8,0,0,1-2.422-.664A8.949,8.949,0,0,1,5.3,36.527a24.61,24.61,0,0,1-3.23-5.4c-.127-.282-.281-.645-.426-1.027h0A19.519,19.519,0,0,1,.52,17.782h0a10.418,10.418,0,0,1,4.137-6.045h0a7.726,7.726,0,0,1,1.488-.909,9.056,9.056,0,0,1,3.928-.909h.163a12.081,12.081,0,0,1,4.191.991l.472.182a.417.417,0,0,0,.562-.318,11.155,11.155,0,0,1,.417-1.618.418.418,0,0,0-.4-.555h-.572a7.745,7.745,0,0,1-4.745-1.455A8.932,8.932,0,0,1,6.97,1.31.855.855,0,0,1,7.541.4,9.28,9.28,0,0,1,10.354,0,7.68,7.68,0,0,1,14.2.965a7.869,7.869,0,0,1,3.329,3.991.417.417,0,0,0,.318.255h.064a.417.417,0,0,0,.318-.145,15.435,15.435,0,0,1,2.5-2.336.858.858,0,0,1,1.043,1.364A11.472,11.472,0,0,0,17.3,10.455a.418.418,0,0,0,.553.491h0A12.045,12.045,0,0,1,22,9.892h.191a8.92,8.92,0,0,1,3.9.909,7.735,7.735,0,0,1,1.488.909h0a10.355,10.355,0,0,1,4.173,6.136h0a19.747,19.747,0,0,1-1.17,12.263h0a8.3,8.3,0,0,1-.4.909,24.646,24.646,0,0,1-3.23,5.4,8.877,8.877,0,0,1-3.266,2.727,6.114,6.114,0,0,1-2.513.7,4.528,4.528,0,0,1-1.814-.391l-.717-.327a7.638,7.638,0,0,0-1.343-.536,4.961,4.961,0,0,0-1.2-.145h-.1a4.735,4.735,0,0,0-1.179.145,7.6,7.6,0,0,0-1.343.536h0l-.671.309A4.529,4.529,0,0,1,11.07,40Zm5.1-3.118a8.013,8.013,0,0,1,1.642.2,8.916,8.916,0,0,1,1.642.645h0l.626.282a2.789,2.789,0,0,0,1.107.255,4.2,4.2,0,0,0,1.715-.509,7.261,7.261,0,0,0,2.722-2.318,22.882,22.882,0,0,0,3-5.027c.154-.355.281-.645.381-.909a18.217,18.217,0,0,0,1.089-11.236A8.691,8.691,0,0,0,26.6,13.1l-.073-.055A6.031,6.031,0,0,0,25.4,12.31a7.245,7.245,0,0,0-3.13-.727h-.181a10.388,10.388,0,0,0-3.565.909l-.708.273-1.025.364a.842.842,0,0,1-.281.045h-.671a.833.833,0,0,1-.281-.045l-1.043-.345-.7-.264a10.433,10.433,0,0,0-3.574-.909h-.191a7.363,7.363,0,0,0-3.112.727,6.012,6.012,0,0,0-1.207.745l-.073.055A8.845,8.845,0,0,0,2.18,18.182,18.217,18.217,0,0,0,3.223,29.446c.154.391.281.709.408.982a22.919,22.919,0,0,0,3,5.027,7.262,7.262,0,0,0,2.631,2.282,4.529,4.529,0,0,0,1.814.545,2.78,2.78,0,0,0,1.107-.255l.617-.282h0a8.961,8.961,0,0,1,1.715-.664,7.642,7.642,0,0,1,1.651-.2ZM10.354,1.719a8.456,8.456,0,0,0-1.1.1.418.418,0,0,0-.345.527,6.574,6.574,0,0,0,2.277,3.5,6.1,6.1,0,0,0,3.719,1.1,7.137,7.137,0,0,0,.971-.045.418.418,0,0,0,.354-.545,6.6,6.6,0,0,0-2.858-3.864A6,6,0,0,0,10.354,1.719Z" transform="translate(0 0)"/><path class="c" d="M34.869,50.619a.861.861,0,0,1-.8-.5.792.792,0,0,1,.179-.9,12.939,12.939,0,0,0,3.326-5.579.906.906,0,0,1,.85-.645h.183a.82.82,0,0,1,.649.976,14.37,14.37,0,0,1-3.764,6.329A.863.863,0,0,1,34.869,50.619Z" transform="translate(-13.627 -17.215)"/></g></g></g></svg>