<svg xmlns="http://www.w3.org/2000/svg" width="40" height="40" viewBox="0 0 40 40"><defs><style>.a{fill:#73d7ff;}.b{fill:#003575;}</style></defs><g transform="translate(-480.558 -448.044)"><g transform="translate(441.565 259.043)"><g transform="translate(38.992 189.001)"><g transform="translate(0)"><circle class="a" cx="16.625" cy="16.625" r="16.625" transform="translate(0 32.361) rotate(-76.718)"/></g></g><g transform="translate(41.681 191.598)"><g transform="translate(0)"><path class="b" d="M59.682,227.094a17.4,17.4,0,1,1,17.4-17.4A17.423,17.423,0,0,1,59.682,227.094Zm0-33.314a15.911,15.911,0,1,0,15.911,15.911A15.929,15.929,0,0,0,59.682,193.78Z" transform="translate(-42.279 -192.288)"/></g><g transform="translate(10.916 23.326)"><g transform="translate(0 0)"><path class="b" d="M62.607,221.769a7.132,7.132,0,0,0-6.2,3.708.745.745,0,0,0,1.3.724,5.541,5.541,0,0,1,9.788,0,.747.747,0,0,0,.652.382.755.755,0,0,0,.363-.094.747.747,0,0,0,.288-1.013A7.136,7.136,0,0,0,62.607,221.769Z" transform="translate(-56.317 -221.769)"/></g></g><g transform="translate(6.074 10.666)"><g transform="translate(0 0)"><path class="b" d="M60.936,225.3a5.236,5.236,0,0,0,4.548-2.722.547.547,0,0,0-.956-.531,4.067,4.067,0,0,1-7.186,0,.548.548,0,0,0-.478-.28.554.554,0,0,0-.267.069.548.548,0,0,0-.211.744A5.239,5.239,0,0,0,60.936,225.3Z" transform="translate(-56.317 -221.769)"/></g><g transform="translate(13.315 0)"><g transform="translate(0)"><path class="b" d="M60.936,225.3a5.236,5.236,0,0,0,4.548-2.722.547.547,0,0,0-.956-.531,4.067,4.067,0,0,1-7.186,0,.548.548,0,0,0-.478-.28.554.554,0,0,0-.267.069.548.548,0,0,0-.211.744A5.239,5.239,0,0,0,60.936,225.3Z" transform="translate(-56.317 -221.769)"/></g></g></g></g></g></g></svg>