<svg xmlns="http://www.w3.org/2000/svg" width="40" height="40" viewBox="0 0 40 40"><defs><style>.a{fill:#73d7ff;}.b{fill:#003575;}</style></defs><g transform="translate(-481 -453)"><g transform="translate(481 453)"><path class="a" d="M38.066,9.355,36.5,4.8l-3.2-1.93L30.234,1.319l-5.371.728L20.469,4.413l-1.495.073L17.479,3.057,13.451,1,7.8,1.837,2.978,5.323,1,12.086,2.271,18.5h.716s3.428,7.227,7.34,11.459l-.815.692,10.535,8.892,10.938-9.493-.636-.719A57.807,57.807,0,0,0,37.117,18.5l.806-.619.9-3.295Z" transform="translate(-0.273 -0.273)"/><path class="b" d="M38.009,18.909a.865.865,0,0,1-.709-.351.8.8,0,0,1-.1-.763,15.468,15.468,0,0,0,1.082-5.5c0-3.2-1.036-10.651-10.627-10.651A7.15,7.15,0,0,0,21.864,4a15.265,15.265,0,0,1-1.336,1.184.879.879,0,0,1-1.045,0,15.658,15.658,0,0,1-1.3-1.132h0a7.223,7.223,0,0,0-5.791-2.369c-9.3-.018-10.673,6.65-10.673,10.607a15.477,15.477,0,0,0,1.073,5.475.8.8,0,0,1-.026.633.844.844,0,0,1-.483.429.863.863,0,0,1-.3.053.908.908,0,0,1-.8-.544A17.007,17.007,0,0,1,0,12.294C0,4.608,4.618.011,12.345.011a8.975,8.975,0,0,1,6.982,2.834l.382.351a.429.429,0,0,0,.573,0l.382-.36A8.9,8.9,0,0,1,27.655.011C35.273.011,40,4.723,40,12.294a17.083,17.083,0,0,1-1.182,6.045A.907.907,0,0,1,38.009,18.909Z" transform="translate(0 0)"/><path class="b" d="M22.37,50.636a.863.863,0,0,1-.471-.142,64.862,64.862,0,0,1-11.691-10.1.83.83,0,0,1-.16-.828.855.855,0,0,1,.652-.55.87.87,0,0,1,.812.278,64.885,64.885,0,0,0,10.614,9.321.423.423,0,0,0,.48,0,65.046,65.046,0,0,0,10.623-9.33.868.868,0,0,1,1.208-.075.827.827,0,0,1,.077,1.184,65.282,65.282,0,0,1-11.673,10.1A.918.918,0,0,1,22.37,50.636Z" transform="translate(-2.727 -10.636)"/><path class="b" d="M20,34.545a.856.856,0,0,1-.809-.593L15.147,21.6a.419.419,0,0,0-.382-.287h0a.418.418,0,0,0-.382.259L11.82,27.515a.854.854,0,0,1-.791.528H.859a.875.875,0,0,1,0-1.751H10.22a.418.418,0,0,0,.382-.259L14.1,17.7a.809.809,0,0,1,.773-.528h.045a.911.911,0,0,1,.782.593l3.717,11.365a.419.419,0,0,0,.4.3h0a.42.42,0,0,0,.391-.324l4.063-16.441A.858.858,0,0,1,25.09,12a.839.839,0,0,1,.836.648L29.5,26a.42.42,0,0,0,.4.315h9.243a.875.875,0,0,1,0,1.751H28.934a.912.912,0,0,1-.827-.648L25.562,17.9a.42.42,0,0,0-.4-.315h0a.42.42,0,0,0-.4.324L20.827,33.888a.913.913,0,0,1-.8.658Z" transform="translate(0 -3.273)"/></g></g></svg>