<svg xmlns="http://www.w3.org/2000/svg" width="35.5" height="35.5" viewBox="0 0 35.5 35.5"><defs><style>.a{fill:none;stroke:#043575;stroke-width:1.5px;}.b{fill:#73d7ff;}.c{fill:#003575;}</style></defs><g transform="translate(-486.25 -450.25)"><g transform="translate(279.623 253.321)"><path class="a" d="M17,0c.31,0,.618.008,1.127.037A17.009,17.009,0,1,1,17,0Z" transform="translate(207.377 197.679)"/><g transform="translate(209.649 199.683)"><path class="b" d="M225.079,223.891q.2.2.423.384.11.091.225.177.229.171.475.321t.506.275a5.938,5.938,0,0,0,.811.32q.28.087.571.147a5.957,5.957,0,0,0,3.138-11.468,14.832,14.832,0,0,0-1.707.882,4.756,4.756,0,1,1-4.982,4.936,14.715,14.715,0,0,0-.9,1.7,5.94,5.94,0,0,0,1.437,2.325Z" transform="translate(-222.684 -212.801)"/><circle class="c" cx="3.574" cy="3.574" r="3.574" transform="translate(3.033 3.304)"/><path class="c" d="M285.663,212.452q.151.356.334.694a7.985,7.985,0,0,0,1.932,2.343q.294.243.611.457.158.107.322.207.328.2.675.367a7.945,7.945,0,0,0,9.364-1.868,14.78,14.78,0,0,0-.963-1.343,6.341,6.341,0,0,1-11.1-5.525c-.151,0-.3-.012-.453-.012-.4,0-.8.021-1.195.052a7.963,7.963,0,0,0,.474,4.628Z" transform="translate(-271.419 -207.772)"/><path class="b" d="M305.8,214.712a4.758,4.758,0,0,0,3.888-2.012,14.806,14.806,0,0,0-8.43-4.2,4.767,4.767,0,0,0,4.542,6.208Z" transform="translate(-284.242 -208.359)"/><g transform="translate(10.48 10.852)"><path class="b" d="M276.164,261a5.956,5.956,0,1,0,5.956,5.956A5.956,5.956,0,0,0,276.164,261Zm0,10.713a4.756,4.756,0,1,1,4.756-4.757A4.762,4.762,0,0,1,276.164,271.713Z" transform="translate(-270.208 -261)"/></g><circle class="c" cx="3.574" cy="3.574" r="3.574" transform="translate(12.854 13.225)"/><path class="b" d="M342.059,254.12q-.274.1-.534.226a5.96,5.96,0,0,0,0,10.738q.26.125.534.226.137.05.277.094c.06.019.121.035.181.052q.243-.551.441-1.125a4.756,4.756,0,0,1,.116-9.258c-.123-.386-.263-.764-.416-1.136-.109.027-.216.056-.322.089S342.151,254.086,342.059,254.12Z" transform="translate(-313.986 -244.53)"/><path class="c" d="M353,265.406a3.573,3.573,0,0,0-.081,6.981,14.676,14.676,0,0,0,.081-6.981Z" transform="translate(-323.603 -253.723)"/><path class="c" d="M229.337,305.2a7.969,7.969,0,0,0,0-6.183q-.151-.356-.335-.694a7.975,7.975,0,0,0-1.931-2.343q-.294-.243-.611-.457-.158-.107-.322-.207-.328-.2-.675-.367a7.952,7.952,0,0,0-6.645-.109,14.582,14.582,0,0,0,.428,1.566,6.339,6.339,0,0,1,8.229,8.931A14.734,14.734,0,0,0,229,305.9h0Q229.185,305.56,229.337,305.2Z" transform="translate(-218.817 -276.544)"/><path class="b" d="M226.09,310.17a4.741,4.741,0,0,0-2.193.535,14.874,14.874,0,0,0,6.232,6.758,4.764,4.764,0,0,0-4.038-7.293Z" transform="translate(-222.888 -289.367)"/><path class="c" d="M302.044,321.84q-.347.167-.675.367-.164.1-.322.206-.317.214-.611.457a7.982,7.982,0,0,0-1.932,2.343q-.183.338-.334.694a7.886,7.886,0,0,0-.564,2.129,14.817,14.817,0,0,0,1.652-.219,6.339,6.339,0,0,1,8.353-4.793,14.846,14.846,0,0,0,1.03-1.315,7.956,7.956,0,0,0-6.6.131Z" transform="translate(-281.49 -298.093)"/><path class="b" d="M319.223,337.057a4.767,4.767,0,0,0-4.479,3.135,14.833,14.833,0,0,0,5.329-3.058A4.8,4.8,0,0,0,319.223,337.057Z" transform="translate(-295.323 -310.916)"/></g></g></g></svg>