<?xml version="1.0" encoding="utf-8"?>
<!-- Generator: Adobe Illustrator 21.0.2, SVG Export Plug-In . SVG Version: 6.00 Build 0)  -->
<svg version="1.1" id="Livello_1" xmlns="http://www.w3.org/2000/svg" xmlns:xlink="http://www.w3.org/1999/xlink" x="0px" y="0px"
	 viewBox="0 0 40 40" style="enable-background:new 0 0 40 40;" xml:space="preserve">
<style type="text/css">
	.st0{fill:#FFFFFF;}
	.st1{fill:#1E3A6D;}
	.st2{fill:#7ECEF5;}
</style>
<g id="Livello_2">
	<g id="Layer_1">
		<rect x="4.8" y="8" class="st0" width="30" height="25.3"/>
		<rect x="11.3" y="15.2" class="st1" width="1.3" height="1.3"/>
		<rect x="15.3" y="15.2" class="st1" width="1.3" height="1.3"/>
		<rect x="19.3" y="15.2" class="st1" width="1.3" height="1.3"/>
		<rect x="23.3" y="15.2" class="st1" width="1.3" height="1.3"/>
		<rect x="27.3" y="15.2" class="st1" width="1.3" height="1.3"/>
		<rect x="11.3" y="19.2" class="st1" width="1.3" height="1.3"/>
		<rect x="15.3" y="19.2" class="st1" width="1.3" height="1.3"/>
		<rect x="19.3" y="19.2" class="st1" width="1.3" height="1.3"/>
		<rect x="23.3" y="19.2" class="st1" width="1.3" height="1.3"/>
		<rect x="27.3" y="19.2" class="st1" width="1.3" height="1.3"/>
		<rect x="11.3" y="23.3" class="st1" width="1.3" height="1.3"/>
		<rect x="15.3" y="23.3" class="st1" width="1.3" height="1.3"/>
		<rect x="18.8" y="22.8" class="st2" width="2.3" height="2.3"/>
		<rect x="23.3" y="23.3" class="st1" width="1.3" height="1.3"/>
		<rect x="27.3" y="23.3" class="st1" width="1.3" height="1.3"/>
		<rect x="11.3" y="27.3" class="st1" width="1.3" height="1.3"/>
		<rect x="15.3" y="27.3" class="st1" width="1.3" height="1.3"/>
		<rect x="19.3" y="27.3" class="st1" width="1.3" height="1.3"/>
		<rect x="23.3" y="27.3" class="st1" width="1.3" height="1.3"/>
		<path class="st1" d="M5,34.6c-0.4,0-0.7-0.3-0.7-0.7V7.6c0-0.4,0.3-0.7,0.7-0.7l0,0h4c0.2,0,0.3-0.2,0.3-0.3V5.3
			c0-0.4,0.3-0.7,0.7-0.7c0.4,0,0.7,0.3,0.7,0.7v1.3c0,0.2,0.1,0.3,0.3,0.3l0,0h2c0.2,0,0.3-0.1,0.3-0.3l0,0V5.3
			c0-0.4,0.3-0.7,0.7-0.7c0.4,0,0.7,0.3,0.7,0.7v1.3c0,0.2,0.1,0.3,0.3,0.3l0,0h2c0.2,0,0.3-0.1,0.3-0.3V5.3c0-0.4,0.3-0.7,0.7-0.7
			c0.4,0,0.7,0.3,0.7,0.7v1.3c0,0.2,0.1,0.3,0.3,0.3h2c0.2,0,0.3-0.1,0.3-0.3V5.3c0-0.4,0.3-0.7,0.7-0.7c0.4,0,0.7,0.3,0.7,0.7v1.3
			c0,0.2,0.1,0.3,0.3,0.3h2c0.2,0,0.3-0.1,0.3-0.3V5.3c0-0.4,0.3-0.7,0.7-0.7c0.4,0,0.7,0.3,0.7,0.7v1.3c0,0.2,0.1,0.3,0.3,0.3h2
			c0.2,0,0.3-0.1,0.3-0.3V5.3c0-0.4,0.3-0.7,0.7-0.7c0.4,0,0.7,0.3,0.7,0.7v1.3c0,0.2,0.1,0.3,0.3,0.3h4c0.4,0,0.7,0.3,0.7,0.7v26.3
			c0,0.4-0.3,0.7-0.7,0.7L5,34.6z M6,8.3c-0.2,0-0.3,0.1-0.3,0.3l0,0v24.3c0,0.2,0.1,0.3,0.3,0.3h28c0.2,0,0.3-0.1,0.3-0.3V8.6
			c0-0.2-0.1-0.3-0.3-0.3h-3c-0.2,0-0.3,0.1-0.3,0.3v1.3c0,0.4-0.3,0.7-0.7,0.7s-0.7-0.3-0.7-0.7l0,0V8.6c0-0.2-0.1-0.3-0.3-0.3h-2
			c-0.2,0-0.3,0.1-0.3,0.3v1.3c0,0.4-0.3,0.7-0.7,0.7c-0.4,0-0.7-0.3-0.7-0.7l0,0V8.6c0-0.2-0.1-0.3-0.3-0.3c0,0,0,0,0,0h-2
			c-0.2,0-0.3,0.1-0.3,0.3v1.3c0,0.4-0.3,0.7-0.7,0.7c-0.4,0-0.7-0.3-0.7-0.7l0,0V8.6c0-0.2-0.1-0.3-0.3-0.3h-2
			c-0.2,0-0.3,0.1-0.3,0.3v1.3c0,0.4-0.3,0.7-0.7,0.7c-0.4,0-0.7-0.3-0.7-0.7l0,0V8.6c0-0.2-0.1-0.3-0.3-0.3h-2
			c-0.2,0-0.3,0.1-0.3,0.3l0,0v1.3c0,0.4-0.3,0.7-0.7,0.7c-0.4,0-0.7-0.3-0.7-0.7l0,0V8.6c0-0.2-0.1-0.3-0.3-0.3l0,0h-2
			c-0.2,0-0.3,0.1-0.3,0.3l0,0v1.3c0,0.4-0.3,0.7-0.7,0.7s-0.7-0.3-0.7-0.7V8.6c0-0.2-0.1-0.3-0.3-0.3l0,0H6z"/>
	</g>
</g>
</svg>
