<?xml version="1.0" encoding="utf-8"?>
<!-- Generator: Adobe Illustrator 21.0.2, SVG Export Plug-In . SVG Version: 6.00 Build 0)  -->
<svg version="1.1" id="Livello_1" xmlns="http://www.w3.org/2000/svg" xmlns:xlink="http://www.w3.org/1999/xlink" x="0px" y="0px"
	 viewBox="0 0 40 40" style="enable-background:new 0 0 40 40;" xml:space="preserve">
<style type="text/css">
	.st0{fill:#1E3A6D;}
	.st1{fill:#FFFFFF;}
	.st2{fill:#7ECEF5;}
</style>
<g>
	<g>
		<g>
			<path class="st0" d="M26.4,35.4H10.4c-1.4,0-2.6-1.2-2.6-2.6V5.4c0-1.4,1.2-2.6,2.6-2.6h15.9c1.4,0,2.6,1.2,2.6,2.6v27.4
				C29,34.2,27.8,35.4,26.4,35.4z M10.4,4.1c-0.7,0-1.3,0.6-1.3,1.3v27.4c0,0.7,0.6,1.3,1.3,1.3h15.9c0.7,0,1.3-0.6,1.3-1.3V5.4
				c0-0.7-0.6-1.3-1.3-1.3H10.4z"/>
		</g>
	</g>
	<g>
		<path class="st0" d="M13.7,12.2c-1.7,0-3-1.4-3-3c0-1.7,1.4-3,3-3c1.7,0,3,1.4,3,3C16.7,10.8,15.3,12.2,13.7,12.2z M13.7,7.4
			c-0.9,0-1.7,0.8-1.7,1.7s0.8,1.7,1.7,1.7c0.9,0,1.7-0.8,1.7-1.7S14.6,7.4,13.7,7.4z"/>
	</g>
	<g>
		<path class="st0" d="M23.1,12.2c-1.7,0-3-1.4-3-3c0-1.7,1.4-3,3-3c1.7,0,3,1.4,3,3C26.1,10.8,24.8,12.2,23.1,12.2z M23.1,7.4
			c-0.9,0-1.7,0.8-1.7,1.7s0.8,1.7,1.7,1.7c0.9,0,1.7-0.8,1.7-1.7S24.1,7.4,23.1,7.4z"/>
	</g>
	<g>
		<path class="st0" d="M13.7,22.2c-1.7,0-3-1.4-3-3c0-1.7,1.4-3,3-3c1.7,0,3,1.4,3,3C16.7,20.8,15.3,22.2,13.7,22.2z M13.7,17.4
			c-0.9,0-1.7,0.8-1.7,1.7c0,0.9,0.8,1.7,1.7,1.7c0.9,0,1.7-0.8,1.7-1.7C15.4,18.2,14.6,17.4,13.7,17.4z"/>
	</g>
	<g>
		<path class="st0" d="M23.1,22.2c-1.7,0-3-1.4-3-3c0-1.7,1.4-3,3-3c1.7,0,3,1.4,3,3C26.1,20.8,24.8,22.2,23.1,22.2z M23.1,17.4
			c-0.9,0-1.7,0.8-1.7,1.7c0,0.9,0.8,1.7,1.7,1.7c0.9,0,1.7-0.8,1.7-1.7C24.8,18.2,24.1,17.4,23.1,17.4z"/>
	</g>
	<g>
		<path class="st0" d="M13.7,32.1c-1.7,0-3-1.4-3-3c0-1.7,1.4-3,3-3c1.7,0,3,1.4,3,3C16.7,30.8,15.3,32.1,13.7,32.1z M13.7,27.4
			c-0.9,0-1.7,0.8-1.7,1.7c0,0.9,0.8,1.7,1.7,1.7c0.9,0,1.7-0.8,1.7-1.7C15.4,28.2,14.6,27.4,13.7,27.4z"/>
	</g>
	<g>
		<path class="st0" d="M23.1,32.1c-1.7,0-3-1.4-3-3c0-1.7,1.4-3,3-3c1.7,0,3,1.4,3,3C26.1,30.8,24.8,32.1,23.1,32.1z M23.1,27.4
			c-0.9,0-1.7,0.8-1.7,1.7c0,0.9,0.8,1.7,1.7,1.7c0.9,0,1.7-0.8,1.7-1.7C24.8,28.2,24.1,27.4,23.1,27.4z"/>
	</g>
</g>
<ellipse class="st1" cx="27.8" cy="34.2" rx="6" ry="2.8"/>
<path class="st2" d="M33.8,32.1c0,1.5-2.6,2.3-6,2.3C26,34.3,26,33.9,26,33.9l3.9-4.1C30,29.9,33.6,30,33.8,32.1z"/>
<g>
	<polygon class="st1" points="33.9,26.3 31,29.5 30,29.9 25.6,34.1 23.4,36.6 20.3,36.8 17.8,34.9 17.4,32.9 17.6,30.3 27,20.9 
		30,20.4 32.3,21.6 33.8,23.4 	"/>
	<polygon class="st2" points="17.6,30.3 17.4,32.9 17.8,34.9 20.3,36.8 23.4,36.6 23.3,36.1 21.8,34.9 21.8,32 22.5,30.9 26.5,29.7 
		26.1,29.1 22.1,25.7 	"/>
	<g>
		<g>
			<g>
				<g>
					<path class="st0" d="M30.6,30.3C30.6,30.3,30.6,30.3,30.6,30.3c-0.9-0.2-1.9-0.3-2.8-0.3c-0.4,0-0.8,0-1.2,0
						c-0.1,0-0.2,0-0.3-0.1l-4.3-4.3c-0.1-0.1-0.1-0.4,0-0.5l3.7-3.7c0.9-0.9,2.1-1.4,3.4-1.4c1.3,0,2.5,0.5,3.4,1.4
						c1.9,1.9,1.9,5,0,6.9l-1.8,1.8C30.8,30.3,30.7,30.3,30.6,30.3z M27.8,29.3c0.9,0,1.9,0.1,2.7,0.2l1.7-1.7
						c1.6-1.6,1.6-4.3,0-5.9c-0.8-0.8-1.8-1.2-2.9-1.2c-1.1,0-2.2,0.4-2.9,1.2l-3.5,3.5l3.9,3.9C27.1,29.4,27.4,29.3,27.8,29.3z"/>
				</g>
				<g>
					<path class="st0" d="M21.8,37.2c-1.3,0-2.5-0.5-3.4-1.4c-1.9-1.9-1.9-5,0-6.9l3.7-3.7c0.1-0.1,0.4-0.1,0.5,0l4.3,4.3
						c0.1,0.1,0.1,0.2,0.1,0.4c0,0.1-0.2,0.2-0.3,0.2c-2.8,0.2-4.5,1.1-4.5,1.9v2.7c0,0.5,0.7,1,1.9,1.4c0.1,0,0.2,0.2,0.2,0.3
						c0,0.1-0.1,0.3-0.2,0.3C23.4,37,22.6,37.2,21.8,37.2z M22.3,26l-3.5,3.5c-1.6,1.6-1.6,4.3,0,5.9c0.8,0.8,1.8,1.2,2.9,1.2
						c0.4,0,0.8-0.1,1.2-0.2c-1-0.5-1.5-1.1-1.5-1.7V32c0-1.4,2.1-2.2,4.4-2.5L22.3,26z"/>
				</g>
				<g>
					<path class="st0" d="M30.8,23.1c-0.1,0-0.2,0-0.2-0.1c-0.7-0.7-1.7-0.7-2.4,0c-0.1,0.1-0.4,0.1-0.5,0c-0.1-0.1-0.1-0.4,0-0.5
						c0.9-0.9,2.4-0.9,3.3,0c0.1,0.1,0.1,0.4,0,0.5C31,23.1,30.9,23.1,30.8,23.1z"/>
				</g>
			</g>
			<g>
				<g>
					<path class="st0" d="M27.8,30c-0.4,0-0.8,0-1.2,0c-2.8,0.2-4.5,1.1-4.5,1.9c0,0.7,1.6,1.6,4.3,1.9c0.4,0,0.9,0.1,1.3,0.1
						c3.3,0,5.6-1,5.6-1.9c0-0.6-1.2-1.3-2.9-1.7C29.7,30.1,28.7,30,27.8,30z M27.8,34.6c-0.5,0-1,0-1.4-0.1
						c-2.4-0.2-4.9-1.1-4.9-2.5c0-1.5,2.6-2.4,5.1-2.6c0.4,0,0.8,0,1.2,0c1,0,2,0.1,2.9,0.3c2.1,0.4,3.4,1.3,3.4,2.3
						C34.1,33.7,30.8,34.6,27.8,34.6z"/>
				</g>
				<g>
					<path class="st0" d="M27.8,37.2c-1.4,0-2.9-0.2-4-0.6c-1.5-0.5-2.4-1.2-2.4-2.1V32c0-0.2,0.2-0.3,0.3-0.3
						c0.2,0,0.3,0.2,0.3,0.3c0,0.7,1.6,1.6,4.3,1.9c0.4,0,0.9,0.1,1.3,0.1c3.3,0,5.6-1,5.6-1.9c0-0.2,0.2-0.3,0.3-0.3
						c0.2,0,0.3,0.2,0.3,0.3v2.7C34.1,36.3,30.8,37.2,27.8,37.2z M22.1,33.2v1.5c0,0.5,0.7,1,1.9,1.4c1,0.3,2.4,0.5,3.8,0.5
						c3.3,0,5.6-1,5.6-1.9v-1.4c-1.1,0.9-3.4,1.4-5.6,1.4c-0.5,0-1,0-1.4-0.1C24.7,34.4,23.1,33.9,22.1,33.2z"/>
				</g>
			</g>
		</g>
		<g>
			<path class="st0" d="M25.7,34.4c-0.1,0-0.2,0-0.2-0.1c-0.1-0.1-0.1-0.4,0-0.5l4.1-4.1c0.1-0.1,0.4-0.1,0.5,0
				c0.1,0.1,0.1,0.4,0,0.5L26,34.3C25.9,34.3,25.8,34.4,25.7,34.4z"/>
		</g>
	</g>
</g>
<circle class="st2" cx="13.7" cy="9.2" r="1.7"/>
<circle class="st2" cx="23.1" cy="9.2" r="1.7"/>
<circle class="st2" cx="23.1" cy="19.1" r="1.7"/>
<circle class="st2" cx="13.7" cy="19.1" r="1.7"/>
<circle class="st2" cx="13.7" cy="29.1" r="1.7"/>
</svg>
