<svg xmlns="http://www.w3.org/2000/svg" width="41.611" height="32.252" viewBox="0 0 41.611 32.252"><defs><style>.a{fill:#73d7ff;}.a,.c{stroke:#003575;stroke-linecap:round;stroke-miterlimit:10;stroke-width:1.6px;}.b{fill:#fff;}.c{fill:none;}</style></defs><g transform="translate(-481.194 -451.166)"><g transform="translate(-234 -1487)"><g transform="translate(716 1942.343)"><g transform="translate(0 0)"><path class="a" d="M191.767,165.773c-1.247-.97-3.1-1.549-5.462.083,0,0-10.6,7.392-8.939,24.048a2.364,2.364,0,0,0,2.806,2.186l11.392-3.02a5.306,5.306,0,0,0,3.43-5v-8.6" transform="translate(-177.189 -164.83)"/></g><g transform="translate(22.194 0)"><path class="a" d="M217.31,165.773c1.247-.97,3.1-1.549,5.462.083,0,0,10.6,7.392,8.939,24.048a2.364,2.364,0,0,1-2.806,2.186l-11.392-3.02a5.306,5.306,0,0,1-3.43-5v-8.6" transform="translate(-214.082 -164.83)"/></g></g><path class="b" d="M7807.529,1959.173l1.829,3.373,6.708-3.621-1.961-3.624Z" transform="translate(-7080.992 -6.501)"/><path class="b" d="M7816.295,1959.126l-1.829,3.373-6.936-3.574,1.96-3.624Z" transform="translate(-7070.773 -6.501)"/><path class="c" d="M197.275,185.257l5.964-3.327a4.6,4.6,0,0,1,3.871,0l6,3.333" transform="translate(530.806 1770.875)"/><g transform="translate(726.314 1939)"><path class="c" d="M213.887,159.258s-.265,6.185-.265,7.12.208,2.651,3.638,4.289l4.158,2.312" transform="translate(-202.047 -159.258)"/><path class="c" d="M201.862,159.258s.265,6.185.265,7.12-.208,2.651-3.637,4.289l-4.158,2.312" transform="translate(-194.331 -159.258)"/></g></g></g></svg>