<svg xmlns="http://www.w3.org/2000/svg" width="34.382" height="51.926" viewBox="0 0 34.382 51.926"><defs><style>.a{fill:#73d7fd;stroke:#043575;stroke-width:1.55px;}.b{fill:#0e3575;}.c{fill:#fff;}.d{fill:#00adee;}</style></defs><g transform="translate(-483.225 -447.225)"><g transform="translate(239.295 251.597)"><g transform="translate(244.705 196.403)"><path class="a" d="M244.705,196.4V218.3a16.415,16.415,0,0,0,12.052,15.825v-7.451h8.727v7.451A16.419,16.419,0,0,0,277.537,218.3V196.4Z" transform="translate(-244.705 -196.403)"/></g><g transform="translate(249.068 218.947)"><rect class="b" width="9.872" height="4.362"/><g transform="translate(14.233)"><rect class="b" width="9.872" height="4.362"/></g></g><g transform="translate(249.068 201.331)"><rect class="c" width="24.105" height="14.69"/></g><g transform="translate(258.939 228.855)"><path class="b" d="M291.328,325.257l1.457-1.315,1.455,1.315c.094.088.367.342.724.723V315.855H290.6V325.98C290.959,325.6,291.233,325.345,291.328,325.257Z" transform="translate(-290.602 -315.855)"/></g><g transform="translate(258.093 239.155)"><path class="d" d="M293.929,356.752a3.028,3.028,0,0,1-6.055,0c0-2.639,3.029-5.372,3.029-5.372S293.929,354.113,293.929,356.752Z" transform="translate(-287.874 -351.38)"/></g></g><path class="b" d="M6.957-4.64a6.469,6.469,0,0,1-.8,3.6A2.764,2.764,0,0,1,3.707.127,2.732,2.732,0,0,1,1.285-1.079,6.377,6.377,0,0,1,.47-4.64a6.53,6.53,0,0,1,.793-3.621A2.752,2.752,0,0,1,3.707-9.426,2.739,2.739,0,0,1,6.135-8.208,6.39,6.39,0,0,1,6.957-4.64Zm-4.539,0a7.22,7.22,0,0,0,.3,2.447,1.022,1.022,0,0,0,.993.74A1.033,1.033,0,0,0,4.7-2.2,7.02,7.02,0,0,0,5-4.64a7,7,0,0,0-.308-2.453,1.034,1.034,0,0,0-.987-.746,1.025,1.025,0,0,0-.99.746A7.208,7.208,0,0,0,2.418-4.64ZM8.163-.908a1.064,1.064,0,0,1,.286-.806,1.158,1.158,0,0,1,.832-.273,1.125,1.125,0,0,1,.816.279,1.061,1.061,0,0,1,.289.8,1.061,1.061,0,0,1-.292.79A1.105,1.105,0,0,1,9.28.171a1.138,1.138,0,0,1-.825-.282A1.057,1.057,0,0,1,8.163-.908ZM18.084-4.64a6.469,6.469,0,0,1-.8,3.6A2.764,2.764,0,0,1,14.834.127a2.732,2.732,0,0,1-2.422-1.206A6.377,6.377,0,0,1,11.6-4.64a6.53,6.53,0,0,1,.793-3.621,2.752,2.752,0,0,1,2.444-1.165,2.739,2.739,0,0,1,2.428,1.219A6.39,6.39,0,0,1,18.084-4.64Zm-4.539,0a7.22,7.22,0,0,0,.3,2.447,1.022,1.022,0,0,0,.993.74,1.033,1.033,0,0,0,.99-.749,7.02,7.02,0,0,0,.3-2.437,7,7,0,0,0-.308-2.453,1.034,1.034,0,0,0-.987-.746,1.025,1.025,0,0,0-.99.746A7.208,7.208,0,0,0,13.546-4.64Z" transform="translate(491 465)"/></g></svg>