<svg xmlns="http://www.w3.org/2000/svg" width="42.068" height="42.068" viewBox="0 0 42.068 42.068"><defs><style>.a{fill:#003575;}.b{fill:#73d7ff;}</style></defs><g transform="translate(-232 -21)"><g transform="translate(232 21)"><path class="a" d="M189.345,31.324a1.407,1.407,0,0,1-1.984,0l-1.983-1.983-3.966,3.966-3.966-3.966,3.966-3.966-1.983-1.983a1.4,1.4,0,0,1,1.983-1.984l7.933,7.933A1.407,1.407,0,0,1,189.345,31.324Z" transform="translate(-147.685 -21)"/><path class="a" d="M171.206,40.095a1.4,1.4,0,0,1-1.983,1.983l-.991-.991L152.862,56.455a3.505,3.505,0,0,1-4.958,0l-.822.822a1.643,1.643,0,0,1-2.324,0l-.226-.226-8.1,8.1a.841.841,0,1,1-1.19-1.19l8.1-8.1-.226-.226a1.643,1.643,0,0,1,0-2.324l.822-.822a3.505,3.505,0,0,1,0-4.958l15.369-15.369-.991-.991a1.4,1.4,0,0,1,1.983-1.983Zm-4.461-.5-5.95-5.95-1.735,1.735,2.479,2.479a.7.7,0,1,1-.991.991l-2.479-2.479-1.983,1.983,1.487,1.487a.7.7,0,1,1-.991.992l-1.488-1.488-1.983,1.984,2.479,2.479a.7.7,0,1,1-.991.991l-2.479-2.479-1.984,1.983,1.488,1.488a.7.7,0,0,1-.991.991L149.143,45.3l-1.983,1.984,2.479,2.479a.7.7,0,1,1-.992.992l-2.479-2.479-.6.6a1.607,1.607,0,0,0,0,2.272l3.678,3.677a1.607,1.607,0,0,0,2.272,0Z" transform="translate(-135 -23.325)"/><path class="b" d="M158.433,45.178l-1.018,1.057,2.479,2.479a.7.7,0,1,1-.991.991l-2.479-2.479L154.44,49.21l1.488,1.488a.7.7,0,0,1-.991.991L153.448,50.2l-1.983,1.984,2.479,2.479a.7.7,0,1,1-.992.992l-2.479-2.479-.6.6a1.607,1.607,0,0,0,0,2.272l3.678,3.677a1.607,1.607,0,0,0,2.272,0l8.8-8.649Z" transform="translate(-139.305 -28.226)"/></g></g></svg>