<?xml version="1.0" encoding="utf-8"?>
<!-- Generator: Adobe Illustrator 21.0.2, SVG Export Plug-In . SVG Version: 6.00 Build 0)  -->
<svg version="1.1" id="Livello_1" xmlns="http://www.w3.org/2000/svg" xmlns:xlink="http://www.w3.org/1999/xlink" x="0px" y="0px"
	 viewBox="0 0 40 40" style="enable-background:new 0 0 40 40;" xml:space="preserve">
<style type="text/css">
	.st0{fill:#73D7FF;}
	.st1{fill:#003575;}
</style>
<polygon class="st0" points="36.3,0.8 33.9,1.8 24,21.1 23.6,25.7 24.5,26.2 27.6,23.9 31.1,19.7 35.6,9.5 38.7,4.5 38.7,2.2 "/>
<title>Risorsa 1</title>
<path class="st1" d="M34.7,16.1c-0.8,0-1,1-1,1V35c0,0-7.2-2.5-14.2,1.6c-1.6,1.4-2.7,0.1-2.7,0.1s-6-4.1-14.4-1.7V14.5h1.4v17.6
	c0,0,0,1.3,1.3,0.8c0,0,6.3-1.1,12,2.3c0,0,1.1,1,1.8,0.1c0,0,4.9-3.1,11.3-2.4l1.1,0.1c0,0,0.8,0.1,1-0.8V23c0,0-0.1-0.7-0.8-0.7
	c-0.8,0-1,1-1,1v8c0,0-5.8-0.8-11.6,2.1V15.5c0,0,3.1-2.4,7.1-2.7c0,0,0.6-0.3,0.6-1c0,0-0.1-0.8-0.8-0.8c0,0-3.9,0.1-7.8,2.8
	c0,0-5.8-4.4-13.4-2.5c-1,0.1-0.8,1.4-0.8,1.4H1.4c0,0-1,0-1,1v22.6c0,0,0.1,1,1.3,0.8c0,0,7.1-3.1,14.2,1.3c0,0,1.3,1,2.1,0.8
	c1.1,0,2.1-0.8,2.1-0.8S26,34.3,33.8,37c0,0,1.6,0.8,1.8-0.6V17.1C35.7,17.1,35.7,16.1,34.7,16.1z M5.5,13
	c6.8-1.4,11.6,2.4,11.6,2.4v17.8C11.9,30.2,5.5,31,5.5,31V13z"/>
<path class="st1" d="M37.7,0.4c0,0-2.5-1.4-4.7,1L22.7,20.9v6.2c0,0,0,0.8,1.1,0.7l5.2-3.4l10.2-19C39.2,5.3,40.7,2.2,37.7,0.4z
	 M24.6,25.2v-1.8l1.6,0.8L24.6,25.2z M28,22.8c0,0-2,0-3.2-1.7l8.5-15.9l3.2,1.7L28,22.8z M37.3,5.2L34,3.5c0.7-2.5,2.8-1.4,2.8-1.4
	C38.7,3,37.3,5.2,37.3,5.2z"/>
</svg>
