<svg xmlns="http://www.w3.org/2000/svg" width="30.751" height="41.593" viewBox="0 0 30.751 41.593"><defs><style>.a,.b{fill:#73d7ff;}.b,.d{stroke:#394553;stroke-linecap:round;stroke-linejoin:round;stroke-width:1.6px;}.c,.d{fill:none;}</style></defs><g transform="translate(-482.198 -450.206)"><g transform="translate(-377 -1479)"><path class="a" d="M7943.709,1970.413c-.183-.132-.312,3.1-.312,3.1,0,.02,8.513,1.526,8.513,1.526l.352-3.146-4.809-.377Z" transform="translate(-7077.503 -14.853)"/><g transform="translate(860 1955.672)"><path class="b" d="M60.216,193.515c0,.5,0,.544,0,1.138l-4.31-.756a1.285,1.285,0,0,0-1.516,1.143l-.187,1.559a1.327,1.327,0,0,0,1.2,1.506l5.348.226c-.18,1.506-.39,2.326-.538,3.592-.1.852-.136,1.17.239,1.737a3.007,3.007,0,0,0,1.761.874,23.338,23.338,0,0,0,13.108,0,3.007,3.007,0,0,0,1.761-.874c.375-.567.338-.885.239-1.737-.148-1.266-.358-2.085-.538-3.592l5.348-.226a1.327,1.327,0,0,0,1.2-1.506l-.187-1.559a1.285,1.285,0,0,0-1.516-1.143l-4.31.756c0-.595,0-1.456,0-1.951a1.749,1.749,0,0,0-.943-1.557" transform="translate(-54.196 -191.145)"/></g><path class="c" d="M67.51,164.654q.628.033,1.259.035a23.505,23.505,0,0,0,6.554-.939,3,3,0,0,0,1.761-.874c.375-.567.338-.885.239-1.737-.148-1.266-.358-2.085-.538-3.592l5.348-.226a1.327,1.327,0,0,0,1.2-1.506l-.187-1.559a1.285,1.285,0,0,0-1.516-1.143l-4.31.756c0-.595,0-1.456,0-1.951a1.749,1.749,0,0,0-.943-1.557,1.422,1.422,0,0,0-1.243-.221,21.207,21.207,0,0,1-12.738,0,1.42,1.42,0,0,0-1.242.221,1.748,1.748,0,0,0-.942,1.557c0,.5,0,1.357,0,1.951l-4.31-.756a1.285,1.285,0,0,0-1.516,1.143l-.187,1.559a1.327,1.327,0,0,0,1.2,1.506l5.348.226c-.18,1.507-.39,2.326-.538,3.592-.1.852-.136,1.17.239,1.737a3,3,0,0,0,1.761.874q.882.257,1.772.443" transform="translate(805.804 1792.419)"/><path class="b" d="M67.51,164.654q.628.033,1.259.035a23.505,23.505,0,0,0,6.554-.939,3,3,0,0,0,1.761-.874c.375-.567.338-.885.239-1.737-.148-1.266-.358-2.085-.538-3.592l5.348-.226a1.327,1.327,0,0,0,1.2-1.506l-.187-1.559a1.285,1.285,0,0,0-1.516-1.143l-4.31.756c0-.595,0-1.456,0-1.951a1.749,1.749,0,0,0-.943-1.557,1.422,1.422,0,0,0-1.243-.221,21.207,21.207,0,0,1-12.738,0,1.42,1.42,0,0,0-1.242.221,1.748,1.748,0,0,0-.942,1.557c0,.5,0,1.357,0,1.951l-4.31-.756a1.285,1.285,0,0,0-1.516,1.143l-.187,1.559a1.327,1.327,0,0,0,1.2,1.506l5.348.226c-.18,1.507-.39,2.326-.538,3.592-.1.852-.136,1.17.239,1.737a3,3,0,0,0,1.761.874q.882.257,1.772.443" transform="translate(805.804 1779.922)"/><g transform="translate(860 1942.961)"><path class="d" d="M60.386,174.442c0,.5,0,.544,0,1.139l-4.432-.757a1.315,1.315,0,0,0-1.559,1.143l-.192,1.559a1.337,1.337,0,0,0,1.234,1.506l5.5.227c-.185,1.506-.4,2.325-.553,3.592-.1.852-.14,1.17.245,1.736a3.125,3.125,0,0,0,1.81.875q.907.256,1.822.442" transform="translate(-54.196 -172.072)"/><path class="d" d="M75.173,185.1q.646.035,1.295.035a24.805,24.805,0,0,0,6.739-.939,3.125,3.125,0,0,0,1.81-.875c.386-.567.348-.884.246-1.736-.152-1.267-.368-2.085-.553-3.592l5.5-.227a1.336,1.336,0,0,0,1.234-1.506l-.192-1.559a1.315,1.315,0,0,0-1.559-1.143l-4.432.757c0-.595,0-1.456,0-1.952a1.749,1.749,0,0,0-.969-1.557" transform="translate(-62.306 -170.811)"/></g></g></g></svg>