<svg xmlns="http://www.w3.org/2000/svg" width="39.623" height="41.6" viewBox="0 0 39.623 41.6"><defs><style>.a{fill:#73d7ff;}.a,.b,.c{stroke:#003575;stroke-linejoin:round;}.a,.b,.c,.d{stroke-width:1.6px;}.b{fill:none;stroke-linecap:round;}.c,.d{fill:#fff;}.d{stroke:#fff;stroke-miterlimit:10;}</style></defs><g transform="translate(-480.195 -447.2)"><g transform="translate(-91 -1487)"><g transform="translate(572 1935)"><g transform="translate(0 0)"><path class="a" d="M210.729,164.638h2.662a4.089,4.089,0,0,1,4.189,4.719l-2.936,21.856a5.651,5.651,0,0,1-5.457,4.72H188.044a5.651,5.651,0,0,1-5.457-4.72l-2.936-21.856a4.09,4.09,0,0,1,4.19-4.719H186.4" transform="translate(-179.609 -155.933)"/><line class="b" y1="14.167" transform="translate(19.006 25.664)"/><path class="c" d="M212.243,160.721a8.873,8.873,0,1,1-8.874-8.873A8.873,8.873,0,0,1,212.243,160.721Z" transform="translate(-184.364 -151.848)"/><line class="b" y1="3.721" x2="4.197" transform="translate(18.416 5.674)"/><g transform="translate(8.03 21.842)"><g transform="translate(4.52)"><path class="d" d="M199.107,184.943a.53.53,0,1,1-.53-.53A.529.529,0,0,1,199.107,184.943Z" transform="translate(-198.047 -184.413)"/></g><path class="d" d="M192.466,184.943a.53.53,0,1,1-.53-.53A.529.529,0,0,1,192.466,184.943Z" transform="translate(-191.406 -184.413)"/><g transform="translate(0 5.473)"><g transform="translate(4.52)"><path class="d" d="M199.107,192.985a.53.53,0,1,1-.53-.531A.529.529,0,0,1,199.107,192.985Z" transform="translate(-198.047 -192.454)"/></g><path class="d" d="M192.466,192.985a.53.53,0,1,1-.53-.531A.529.529,0,0,1,192.466,192.985Z" transform="translate(-191.406 -192.454)"/></g><g transform="translate(0 10.947)"><g transform="translate(4.52)"><path class="d" d="M199.107,201.026a.53.53,0,1,1-.53-.53A.529.529,0,0,1,199.107,201.026Z" transform="translate(-198.047 -200.496)"/></g><path class="d" d="M192.466,201.026a.53.53,0,1,1-.53-.53A.528.528,0,0,1,192.466,201.026Z" transform="translate(-191.406 -200.496)"/></g><g transform="translate(16.373)"><g transform="translate(4.52)"><path class="d" d="M223.162,184.943a.53.53,0,1,1-.53-.53A.529.529,0,0,1,223.162,184.943Z" transform="translate(-222.102 -184.413)"/></g><path class="d" d="M216.521,184.943a.53.53,0,1,1-.53-.53A.529.529,0,0,1,216.521,184.943Z" transform="translate(-215.461 -184.413)"/><g transform="translate(0 5.473)"><g transform="translate(4.52)"><path class="d" d="M223.162,192.985a.53.53,0,1,1-.53-.531A.529.529,0,0,1,223.162,192.985Z" transform="translate(-222.102 -192.454)"/></g><path class="d" d="M216.521,192.985a.53.53,0,1,1-.53-.531A.529.529,0,0,1,216.521,192.985Z" transform="translate(-215.461 -192.454)"/></g><g transform="translate(0 10.947)"><g transform="translate(4.52)"><path class="d" d="M223.162,201.026a.53.53,0,1,1-.53-.53A.529.529,0,0,1,223.162,201.026Z" transform="translate(-222.102 -200.496)"/></g><path class="d" d="M216.521,201.026a.53.53,0,1,1-.53-.53A.529.529,0,0,1,216.521,201.026Z" transform="translate(-215.461 -200.496)"/></g></g></g></g></g></g></g></svg>