<svg id="Componente_78_1" data-name="Componente 78 – 1" xmlns="http://www.w3.org/2000/svg" width="90.025" height="81.313" viewBox="0 0 90.025 81.313">
  <path id="Tracciato_65253" data-name="Tracciato 65253" d="M8202.9,2450.352v36l4.489-3.885,10.043-1.651h14.77l9.171,1.651,6.387,1.3,1.68,1.768V2451.9l-1.68-1.544-6.387-2.114-2.158-1.468-16.536-.961-9.2.961-6.091,1.468Z" transform="translate(-8201.631 -2444.344)" fill="#73d7ff"/>
  <g id="Raggruppa_22218" data-name="Raggruppa 22218" transform="translate(-2286 -851)">
    <g id="Raggruppa_22202" data-name="Raggruppa 22202" transform="translate(2286 885.848)">
      <path id="Tracciato_65237" data-name="Tracciato 65237" d="M2310.684,1057.52a81.964,81.964,0,0,1-16.025-1.38c-5.827-1.226-8.659-3.149-8.659-5.881s2.833-4.655,8.659-5.88a93.757,93.757,0,0,1,32.05,0c5.827,1.225,8.659,3.149,8.659,5.88s-2.832,4.655-8.659,5.881A81.963,81.963,0,0,1,2310.684,1057.52Zm0-11.616a79.055,79.055,0,0,0-15.427,1.317c-5.015,1.055-6.353,2.406-6.353,3.039s1.338,1.984,6.353,3.039a90.986,90.986,0,0,0,30.854,0c5.015-1.055,6.353-2.406,6.353-3.039s-1.338-1.984-6.353-3.039A79.059,79.059,0,0,0,2310.684,1045.9Z" transform="translate(-2286 -1043)" fill="#003575"/>
    </g>
    <g id="Raggruppa_22203" data-name="Raggruppa 22203" transform="translate(2286 856.808)">
      <path id="Tracciato_65238" data-name="Tracciato 65238" d="M2287.452,920.752A1.452,1.452,0,0,1,2286,919.3V884.452a1.452,1.452,0,0,1,2.9,0V919.3A1.452,1.452,0,0,1,2287.452,920.752Z" transform="translate(-2286 -883)" fill="#003575"/>
    </g>
    <g id="Raggruppa_22204" data-name="Raggruppa 22204" transform="translate(2323.752 853.555)">
      <path id="Tracciato_65239" data-name="Tracciato 65239" d="M2504.163,872.687a1.452,1.452,0,0,1-1.452-1.452c0-.706-1.584-2.191-7.521-3.276a1.452,1.452,0,1,1,.522-2.857c6.664,1.219,9.9,3.225,9.9,6.133A1.452,1.452,0,0,1,2504.163,872.687Z" transform="translate(-2493.998 -865.078)" fill="#003575"/>
    </g>
    <g id="Raggruppa_22205" data-name="Raggruppa 22205" transform="translate(2332.465 858.26)">
      <path id="Tracciato_65240" data-name="Tracciato 65240" d="M2543.452,927.3a1.452,1.452,0,0,1-1.452-1.452v-33.4a1.452,1.452,0,1,1,2.9,0v33.4A1.452,1.452,0,0,1,2543.452,927.3Z" transform="translate(-2542 -891)" fill="#003575"/>
    </g>
    <g id="Raggruppa_22206" data-name="Raggruppa 22206" transform="translate(2286 851)">
      <path id="Tracciato_65241" data-name="Tracciato 65241" d="M2325.2,889.856a1.452,1.452,0,0,1-1.452-1.452v-33.4a.259.259,0,0,0-.22-.255,94.033,94.033,0,0,0-12.848-.848,79.117,79.117,0,0,0-15.428,1.316c-5.014,1.054-6.352,2.407-6.352,3.04a1.452,1.452,0,0,1-2.9,0c0-2.733,2.832-4.657,8.659-5.882A82.039,82.039,0,0,1,2310.684,851a97.049,97.049,0,0,1,13.273.88,3.179,3.179,0,0,1,2.7,3.125v33.4A1.452,1.452,0,0,1,2325.2,889.856Z" transform="translate(-2286 -851)" fill="#003575"/>
    </g>
    <g id="Raggruppa_22207" data-name="Raggruppa 22207" transform="translate(2339.724 856.808)">
      <path id="Tracciato_65242" data-name="Tracciato 65242" d="M2592.164,903.328a10.164,10.164,0,1,1,10.164-10.164A10.175,10.175,0,0,1,2592.164,903.328Zm0-17.424a7.26,7.26,0,1,0,7.26,7.26A7.268,7.268,0,0,0,2592.164,885.9Z" transform="translate(-2582 -883)" fill="#003575"/>
    </g>
    <g id="Raggruppa_22208" data-name="Raggruppa 22208" transform="translate(2345.532 873.724)">
      <path id="Tracciato_65243" data-name="Tracciato 65243" d="M2621.26,986.871h-5.808a1.452,1.452,0,0,1-1.452-1.452v-7.768a1.452,1.452,0,1,1,2.9,0v6.316h2.9v-6.316a1.452,1.452,0,1,1,2.9,0v7.768A1.452,1.452,0,0,1,2621.26,986.871Z" transform="translate(-2614 -976.199)" fill="#003575"/>
    </g>
    <g id="Raggruppa_22209" data-name="Raggruppa 22209" transform="translate(2364.409 890.204)">
      <path id="Tracciato_65244" data-name="Tracciato 65244" d="M2725.26,1077.164h-5.808a1.452,1.452,0,0,1-1.452-1.452v-7.26a1.452,1.452,0,0,1,1.452-1.452h5.808a1.452,1.452,0,0,1,1.452,1.452v7.26A1.452,1.452,0,0,1,2725.26,1077.164Zm-4.356-2.9h2.9V1069.9h-2.9Z" transform="translate(-2718 -1067)" fill="#003575"/>
    </g>
    <g id="Raggruppa_22210" data-name="Raggruppa 22210" transform="translate(2361.505 868.424)">
      <path id="Tracciato_65245" data-name="Tracciato 65245" d="M2706.356,971.684a1.446,1.446,0,0,1-.956-.359c-.348-.3-3.4-3.207-3.4-11.257,0-6.66,2.687-11.766,6.845-13.007a1.451,1.451,0,0,1,.831,0c4.158,1.242,6.844,6.347,6.844,13.007,0,8.05-3.052,10.952-3.4,11.257l-1.912-2.185-.02.017C2711.213,969.134,2706.76,971.684,2706.356,971.684Z" transform="translate(-2702 -947)" fill="#003575"/>
    </g>
    <g id="Raggruppa_22211" data-name="Raggruppa 22211" transform="translate(2326.656 881.492)">
      <path id="Tracciato_65246" data-name="Tracciato 65246" d="M2523.068,1058.2A13.083,13.083,0,0,1,2510,1045.136v-10.469a1.452,1.452,0,0,1,2.9,0v10.469a10.175,10.175,0,0,0,10.164,10.164,8.722,8.722,0,0,0,8.712-8.712v-26.136a1.452,1.452,0,1,1,2.9,0v26.136A11.629,11.629,0,0,1,2523.068,1058.2Z" transform="translate(-2510 -1019)" fill="#003575"/>
    </g>
    <g id="Raggruppa_22212" data-name="Raggruppa 22212" transform="translate(2317.944 897.101)">
      <path id="Tracciato_65247" data-name="Tracciato 65247" d="M2489.588,1140.211A27.62,27.62,0,0,1,2462,1112.623v-6.171a1.452,1.452,0,1,1,2.9,0v6.171a24.713,24.713,0,0,0,24.685,24.684,21.8,21.8,0,0,0,21.78-21.78v-8.712a1.452,1.452,0,1,1,2.9,0v8.712A24.712,24.712,0,0,1,2489.588,1140.211Z" transform="translate(-2462 -1105)" fill="#003575"/>
    </g>
    <g id="Raggruppa_22213" data-name="Raggruppa 22213" transform="translate(2348.43 861.959)">
      <path id="Tracciato_65248" data-name="Tracciato 65248" d="M2632.147,912.037l.726,7.26a1.459,1.459,0,0,1-2.9.29,1.518,1.518,0,0,1,0-.29l.726-7.26a.73.73,0,0,1,1.452,0Z" transform="translate(-2629.962 -911.38)" fill="#1e3b6e"/>
    </g>
    <g id="Raggruppa_22214" data-name="Raggruppa 22214" transform="translate(2344.493 863.288)">
      <path id="Tracciato_65249" data-name="Tracciato 65249" d="M2609.9,918.848a1.089,1.089,0,1,0,.4,1.487A1.086,1.086,0,0,0,2609.9,918.848Z" transform="translate(-2608.272 -918.701)" fill="#003575"/>
    </g>
    <g id="Raggruppa_22215" data-name="Raggruppa 22215" transform="translate(2353.106 868.261)">
      <path id="Tracciato_65250" data-name="Tracciato 65250" d="M2657.362,946.247a1.089,1.089,0,1,0,.4,1.487A1.085,1.085,0,0,0,2657.362,946.247Z" transform="translate(-2655.729 -946.1)" fill="#003575"/>
    </g>
    <g id="Raggruppa_22216" data-name="Raggruppa 22216" transform="translate(2344.492 868.261)">
      <path id="Tracciato_65251" data-name="Tracciato 65251" d="M2608.812,946.251a1.088,1.088,0,1,0,1.489.4A1.088,1.088,0,0,0,2608.812,946.251Z" transform="translate(-2608.268 -946.103)" fill="#003575"/>
    </g>
    <g id="Raggruppa_22217" data-name="Raggruppa 22217" transform="translate(2353.106 863.289)">
      <path id="Tracciato_65252" data-name="Tracciato 65252" d="M2656.273,918.852a1.09,1.09,0,1,0,1.486.4A1.087,1.087,0,0,0,2656.273,918.852Z" transform="translate(-2655.729 -918.706)" fill="#003575"/>
    </g>
  </g>
</svg>
