<svg xmlns="http://www.w3.org/2000/svg" width="57.789" height="57.789" viewBox="0 0 57.789 57.789">
  <g id="Raggruppa_7713" data-name="Raggruppa 7713" transform="translate(-1123.701 -1684.686)">
    <path id="Tracciato_60278" data-name="Tracciato 60278" d="M28.895,0A28.895,28.895,0,1,0,57.789,28.895,28.894,28.894,0,0,0,28.895,0ZM44.209,46.231a22.414,22.414,0,0,0-15.314-5.779A22.937,22.937,0,0,0,13.58,46.231a22.769,22.769,0,0,1-7.8-17.337,23.116,23.116,0,1,1,46.231,0A22.769,22.769,0,0,1,44.209,46.231Z" transform="translate(1123.701 1684.686)" fill="#003575"/>
    <path id="Tracciato_60279" data-name="Tracciato 60279" d="M9.889,4a2.889,2.889,0,1,0,2.889,2.889A2.891,2.891,0,0,0,9.889,4" transform="translate(1136.927 1692.243)" fill="#003575"/>
    <path id="Tracciato_60280" data-name="Tracciato 60280" d="M13.889,4a2.889,2.889,0,1,0,2.889,2.889A2.891,2.891,0,0,0,13.889,4" transform="translate(1144.484 1692.243)" fill="#003575"/>
    <path id="Tracciato_60281" data-name="Tracciato 60281" d="M28.74,6.94a5.289,5.289,0,0,0-1.127.173l-9.246,3.814-.78.318a5.776,5.776,0,0,0-5.779-.809,5.779,5.779,0,1,0,3.678,10.957,6.108,6.108,0,0,0,.656-.266,5.783,5.783,0,0,0,3.67-4.536l.665-.289,9.3-3.756h0a2.889,2.889,0,0,0-1.1-5.577" transform="translate(1138.563 1697.798)" fill="#73d7ff"/>
    <circle id="Ellisse_362" data-name="Ellisse 362" cx="3.351" cy="3.351" r="3.351" transform="translate(1134.872 1704.493)" fill="#003575"/>
  </g>
</svg>
