<svg xmlns="http://www.w3.org/2000/svg" width="24.967" height="41.631" viewBox="0 0 24.967 41.631"><defs><style>.a{fill:#73d7ff;stroke-linejoin:round;}.a,.b{stroke:#003575;stroke-width:1.6px;}.b{fill:none;stroke-linecap:round;stroke-miterlimit:10;}</style></defs><g transform="translate(-481.197 -446.169)"><g transform="translate(424.961 297.333)"><path class="a" d="M78.564,207.879c-1.75-2.054-1.95-2.861-1.965-2.965-.016.1-.184.856-1.889,2.967-1.981,2.451-.847,5.4,1.927,5.54C79.41,213.281,80.607,210.279,78.564,207.879Z" transform="translate(-7.18 -23.754)"/><path class="b" d="M67.96,149.667s-.1,2.432,2.918,5.641L84.885,172.73a9.052,9.052,0,0,1-.389,6.493,15.481,15.481,0,0,1-5.836,2.842" transform="translate(-4.984 0)"/><path class="b" d="M59.574,189.325a5.611,5.611,0,0,0-1.587,7.777c2.692,4.89,7.08.631,7.08.631,5.347-4.747,8.481-3.38,8.481-3.38a1.124,1.124,0,0,1,.509,1.627" transform="translate(0 -17.08)"/></g></g></svg>