<svg xmlns="http://www.w3.org/2000/svg" width="41.511" height="41.514" viewBox="0 0 41.511 41.514"><defs><style>.a,.d{fill:#73d7ff;}.b,.c,.e{fill:none;}.b,.c,.d{stroke:#0e3575;}.b,.c,.d,.e,.f{stroke-width:1.6px;}.c,.f{stroke-miterlimit:10;}.d{stroke-linecap:round;stroke-linejoin:round;}.e,.f{stroke:#003575;}.f{fill:#003575;}</style></defs><g transform="translate(-481.199 -450.133)"><g transform="translate(-319 -210)"><g transform="translate(801 661)"><path class="a" d="M7517.4,1978.9l4.288,4.459-3.518,3.873-2.493,1.526-2.006-.518c-.5-.129-1.623-2.587-1.623-2.587l.91-2.293Z" transform="translate(-7512.015 -1948.757)"/><g transform="translate(0 0)"><path class="b" d="M4.614,4.616,0,0" transform="translate(5.302 29.925)"/><path class="c" d="M85.025,268.855l-1.041-1.041c-4.107-4.107-8.07-3.454-11.677.153L57.644,282.628c-2.244,2.243-1.555,6.706-1.594,8.872-.013.755-1.027,1.748-1.027,1.748L49.1,299.174a3.243,3.243,0,1,0,4.57,4.569l5.926-5.926s.99-1.017,1.744-1.031c2.166-.038,6.6.682,8.872-1.593l14.663-14.662C88.478,276.924,89.131,272.961,85.025,268.855Z" transform="translate(-48.005 -264.989)"/><rect class="d" width="17.744" height="8.996" rx="4" transform="translate(16.881 16.6) rotate(-44.996)"/><path class="e" d="M0,0,2.308,2.307" transform="translate(22.313 15.222)"/><path class="e" d="M0,0,2.306,2.307" transform="translate(25.262 12.274)"/><g transform="translate(16.328 22.408)"><path class="f" d="M72.131,297.748a.553.553,0,1,1,0-.782A.551.551,0,0,1,72.131,297.748Z" transform="translate(-71.186 -296.804)"/></g></g></g></g></g></svg>