<svg xmlns="http://www.w3.org/2000/svg" width="256" height="256"><path fill-opacity=".016" d="M0 128.004v128.004l128.25-.254 128.25-.254.254-127.75L257.008 0H0v128.004m.485.496c0 70.4.119 99.053.265 63.672.146-35.38.146-92.98 0-128C.604 29.153.485 58.1.485 128.5" fill="#1976D2" fill-rule="evenodd"/><path fill-opacity=".303" d="M27.286 1.441C17.014 4.675 7.869 12.781 3.16 22.825L.5 28.5v199l2.68 5.718c3.555 7.584 10.901 15.264 18.304 19.136L27.5 255.5l98.5.276c109.516.307 103.251.663 113.759-6.465 6.619-4.49 11.584-11.205 14.763-19.971l2.478-6.831v-96.255C257 62.751 256.66 30 256 30c-.55 0-1-.688-1-1.529 0-3.361-6.085-13.277-10.928-17.807-2.825-2.642-7.709-6.01-10.854-7.484L227.5.5l-98-.193C50.438.151 30.686.37 27.286 1.441M.481 128c0 53.625.121 75.563.269 48.75.148-26.813.148-70.688 0-97.5C.602 52.437.481 74.375.481 128M60 90v22l9.25-.068c7.399-.054 8.8-.284 7-1.152-2.723-1.314-2.777-1.908-.433-4.802 1.525-1.884 2.157-2.062 3.934-1.111 2.559 1.369 7.909 1.493 8.707.201.714-1.156-3.297-4.068-5.604-4.068-.935 0-3.085-1.165-4.777-2.589-4.046-3.405-4.306-8.908-.585-12.404 3.306-3.105 11.814-3.934 16.344-1.592 3.554 1.838 3.75 2.401 1.779 5.097-1.218 1.666-1.831 1.757-5.09.757-2.038-.625-4.34-.894-5.115-.596-2.603.999-1.443 3.162 2.34 4.361 5.343 1.694 8.199 3.702 9.27 6.518 1.159 3.05-.3 7.301-3.321 9.676-2.152 1.69-2.072 1.728 3.706 1.75 5.543.021 5.811-.085 4.368-1.728-5.634-6.416-.917-13.056 10.49-14.767 4.728-.709 5.806-2.014 3.537-4.283-1.526-1.526-4.973-1.534-8.295-.02-2.226 1.014-2.882.888-4.669-.899-1.19-1.191-1.761-2.593-1.335-3.282C102.8 84.897 108.762 83 114.068 83c4.503 0 5.549.417 8.532 3.4l3.4 3.4V112h5V68H60v22m80.787-.001l.287 22.001 5.213-.032c4.303-.026 4.936-.244 3.626-1.25-3.167-2.432-3.913-5.604-3.913-16.652V83h9v9.929c0 7.692.354 10.282 1.571 11.5 1.843 1.842 2.867 1.942 5.495.536 1.723-.922 1.934-2.177 1.934-11.5V83h8.945l.278 14.25.277 14.25 5.346.306 5.345.305-1.595-2.278c-1.163-1.66-1.596-4.628-1.596-10.939 0-7.82-.194-8.712-2-9.184-2.888-.755-2.757-5.459.165-5.89 1.566-.232 2.472-1.426 3.276-4.32.971-3.495 1.518-4.04 4.335-4.313 3.147-.306 3.224-.218 3.224 3.689 0 3.904.093 4.011 3.75 4.314 3.431.284 3.75.565 3.75 3.31s-.319 3.026-3.75 3.31l-3.75.311v7.439c0 7.251.063 7.44 2.477 7.44 3.216 0 6.642 4.679 4.444 6.07-.925.585.848.895 5.079.888l6.5-.011-2.781-1.724c-6.218-3.852-8.393-14.492-4.255-20.809 4.096-6.25 13.844-8.353 20.346-4.388 5.147 3.138 8.295 12.952 4.608 14.367-.87.334-5.145.607-9.5.607-8.342 0-9.282.636-5.918 4 2.38 2.38 4.546 2.505 9.257.537 3.196-1.335 3.642-1.306 5.122.329 2.293 2.534 2.025 3.851-1.129 5.562-2.556 1.387-1.81 1.495 10.59 1.532l13.339.04-.339-15.25c-.314-14.081-.532-15.589-2.84-19.68-1.675-2.967-3.955-5.196-6.907-6.75L233.685 68l-46.592-.001-46.593-.001.287 22.001m70.436.558C207.754 92.986 208.571 94 214 94c5.37 0 6.864-1.932 3.066-3.965-2.566-1.373-3.222-1.315-5.843.522m-101.661 12.024c-2.054 2.054-1.138 3.419 2.297 3.419 2.935 0 5.141-1.587 5.141-3.7 0-1.848-5.517-1.64-7.438.281M116 110.5c-1.039 1.252-.899 1.5.846 1.5 1.448 0 1.914-.461 1.516-1.5-.317-.825-.698-1.5-.847-1.5-.148 0-.83.675-1.515 1.5m46.5.5c-.34.55.084 1 .941 1s1.559-.45 1.559-1-.423-1-.941-1-1.219.45-1.559 1M39.932 136.126c-1.744 3.261.277 6.874 3.847 6.874 3.351 0 5.221-1.612 5.221-4.5 0-2.874-1.867-4.5-5.165-4.5-1.796 0-3.163.745-3.903 2.126m165.718 2.632c-.258.416-.785 2.445-1.172 4.509-.53 2.821-1.296 3.9-3.091 4.351-3.119.783-3.45 5.382-.387 5.382 1.858 0 2 .667 2 9.365 0 7.96.311 9.761 2.073 12 1.715 2.181 2.878 2.632 6.75 2.62 6.495-.022 7.993-1.092 6.206-4.432-1.012-1.89-1.899-2.412-3.329-1.958-2.887.916-3.668-1.17-3.685-9.845L211 153h4c3.778 0 4-.167 4-3s-.222-3-4-3h-4v-4.5c0-4.104-.215-4.5-2.441-4.5-1.343 0-2.652.341-2.909.758M7 167v20h8v-6.035c0-5.657.121-5.97 1.934-5 2.92 1.562 9.325 1.242 11.952-.598 3.114-2.181 6.07-8.933 6.07-13.867 0-4.878-3.059-11.95-5.805-13.419-2.998-1.605-7.951-1.312-11.314.669-2.83 1.667-3.018 1.667-3.954 0-.589-1.049-2.164-1.75-3.933-1.75H7v20m33-5v15h9v-30h-9v15m20.19-12.974c-8.328 5.077-8.188 20.955.23 26.088 4.258 2.597 13.003 2.535 17.362-.123 2.876-1.753 3.144-2.261 2.162-4.096-.887-1.657-1.676-1.947-3.783-1.39-1.463.387-4.407.769-6.541.849-3.124.118-4.268-.37-5.871-2.504-1.095-1.458-1.685-3.145-1.311-3.75.413-.667 4.198-1.1 9.621-1.1H81v-3.55c0-4.727-2.372-9.074-5.967-10.933-4.14-2.141-10.876-1.91-14.843.509M86 162v15h9v-11.393c0-12.065.219-12.607 5.107-12.607 2.859 0 3.893 3.867 3.893 14.565V177h8v-10.8c0-11.45.618-13.2 4.665-13.2 3.431 0 4.335 2.905 4.335 13.934V177h8.163l-.331-12.589c-.326-12.376-.379-12.63-3.138-15-3.642-3.13-10.287-3.306-14.019-.37l-2.594 2.04-2.04-2.04c-2.425-2.425-7.661-2.696-10.717-.555-1.876 1.314-2.187 1.314-2.691 0-.356-.926-1.9-1.486-4.102-1.486H86v15m54.42-13.172c-8.42 5.293-8.559 21.068-.23 26.146 2.297 1.401 5.058 2.02 9.025 2.022 4.965.004 6.178-.402 9.236-3.087 6.605-5.8 7.091-16.165 1.066-22.739-2.979-3.251-3.814-3.59-9.639-3.919-5.018-.283-7.035.053-9.458 1.577M169 162v15h7.934l.283-11.228.283-11.228 2.803-.983c5.297-1.86 6.162-.219 6.48 12.296l.283 11.143H195v-11.923c0-11.369-.12-12.067-2.589-15-2.132-2.534-3.328-3.077-6.777-3.077-2.304 0-5.247.741-6.54 1.647-2.182 1.528-2.416 1.528-3.272 0-.531-.949-2.172-1.647-3.872-1.647H169v15m60.5-14.046c-8.762 3.624-10.675 17.342-3.533 25.335 2.736 3.062 3.21 3.211 10.201 3.211 5.563 0 8.011-.46 10.147-1.907l2.815-1.908-2.023-2.022c-1.732-1.732-2.394-1.853-4.612-.843-5.821 2.653-12.495.078-12.495-4.82 0-1.86.667-2 9.5-2 9.499 0 9.5 0 9.5-2.532 0-3.868-2.451-8.891-5.514-11.3-2.89-2.274-9.944-2.886-13.986-1.214m-165.099 6.554c-1.38 1.38-2.233 2.955-1.896 3.5.337.546 3.061.992 6.054.992 6.056 0 7.028-1.413 3.441-5-2.65-2.65-4.569-2.522-7.599.508M234 152.694c-1.906.681-4 3.297-4 4.997 0 .92 1.635 1.309 5.5 1.309 4.78 0 5.5-.254 5.5-1.943 0-1.069-1-2.644-2.223-3.5-2.374-1.664-2.482-1.683-4.777-.863m-217.345 2.135c-1.986 2.195-2.318 13.108-.455 14.971 1.989 1.989 6.528 1.426 8.243-1.023 2.091-2.985 2.082-12.109-.014-14.206-2.108-2.107-5.743-1.987-7.774.258m128.134-.079c-2.283 2.628-2.969 6.869-1.807 11.185 1.072 3.981 2.473 5.065 6.543 5.065 3.282 0 5.475-3.604 5.475-9 0-2.505-.701-5.555-1.557-6.777-1.898-2.71-6.492-2.961-8.654-.473" fill="#1976D2" fill-rule="evenodd"/><path fill-opacity=".097" d="M29.746 1.074C18.761 3.698 8.785 12.011 3.674 22.799L.5 29.5v197l3.103 6.547c3.737 7.887 7.855 12.764 14.175 16.785 10.165 6.469 5.895 6.245 112.811 5.942l96.911-.274 5.718-2.68c10.45-4.898 18.761-14.689 21.951-25.859.982-3.438 1.34-26.223 1.562-99.396.159-52.214-.075-95.189-.52-95.5-.444-.311-1.389-2.59-2.099-5.065-2.921-10.184-10.168-18.234-21.065-23.397L226.5.5 130 .338C75.873.248 31.852.57 29.746 1.074M.48 128c0 52.525.121 74.012.27 47.75.148-26.263.148-69.238 0-95.5C.601 53.987.48 75.475.48 128m88.77-60.251l-30.25.28V112l10.25-.04c9.645-.038 10.088-.128 7.509-1.527-2.401-1.303-2.589-1.733-1.51-3.46 1.428-2.287 2.839-2.432 7.44-.769 2.814 1.018 3.58.956 4.939-.404 2.163-2.162 1.096-3.528-3.785-4.842C78.509 99.521 75 95.967 75 92c0-6.304 8.172-10.498 15.846-8.133 6.288 1.938 6.983 2.737 4.526 5.2-1.738 1.742-2.506 1.932-4.184 1.033-2.792-1.494-5.708-1.384-7.078.267-1.434 1.728-.287 2.669 6.151 5.048 7.461 2.756 9.046 8.432 3.816 13.662L91.154 112H104l-2-2c-4.97-4.97-.666-12.391 7.845-13.528 6.582-.879 7.155-1.157 7.155-3.473 0-3.015-3.682-4.02-8.5-2.319-3.799 1.341-4.092 1.299-5.828-.841-1.75-2.157-1.752-2.307-.046-3.555 4.524-3.308 12.848-4.125 17.502-1.718 4.396 2.273 5.872 6.774 5.872 17.902 0 9.481.013 9.532 2.48 9.532h2.481l.269-21.75.27-21.75 4.25-.307 4.25-.308V112h12.112l-2.806-2.411c-2.73-2.346-2.815-2.726-3.142-14L145.828 84H155v9.8c0 10.305.699 12.2 4.5 12.2s4.5-1.895 4.5-12.2V84h9v28h12.145l-2.072-2.635c-1.743-2.215-2.073-4.045-2.073-11.5 0-8.198-.15-8.865-2-8.865-2.984 0-2.786-4.748.217-5.18 1.565-.226 2.502-1.349 3.188-3.82 1.107-3.986 2.154-4.963 5.345-4.985 2.002-.013 2.25.48 2.25 4.485 0 4.476.019 4.5 3.5 4.5 3.067 0 3.5.31 3.5 2.5 0 2.196-.431 2.5-3.54 2.5h-3.541l.291 8.25c.273 7.775.418 8.25 2.515 8.25 1.224 0 2.919.986 3.766 2.192 1.405 1.999 1.385 2.281-.225 3.219-1.324.771.11 1.035 5.734 1.055l7.5.027-3.201-1.953c-6.14-3.743-8.422-13.035-4.883-19.878 2.301-4.45 9.269-7.628 14.789-6.745C223.469 84.578 227 88.546 227 95.547V99h-8.941c-4.918 0-9.186.397-9.486.882-.3.486.413 2.102 1.585 3.592 2.205 2.802 4.292 2.978 12.003 1.007 2.094-.535 2.901-.233 3.783 1.414.981 1.834.713 2.346-2.162 4.113l-3.282 2.019 14-.263 14-.264-.082-14c-.069-11.831-.399-14.714-2.131-18.608-2.604-5.856-7.52-9.609-14.262-10.887-4.914-.932-59.158-1.029-142.775-.256m121.5 22.307c-.963.574-1.75 1.696-1.75 2.494 0 1.095 1.377 1.45 5.622 1.45 5.604 0 5.617-.007 4.137-2.25-1.655-2.506-5.339-3.285-8.009-1.694m-97.927 10.653c-3.207.491-5.266 2.693-4.466 4.778.67 1.748 3.906 1.978 6.709.478 1.813-.971 2.868-6.152 1.184-5.815-.412.082-1.955.334-3.427.559m2.618 9.759c-1.831 1.385-1.751 1.47 1.431 1.5 2.886.027 3.193-.184 2.128-1.468-1.506-1.815-1.205-1.813-3.559-.032m47.118.064c-1.864 1.409-1.835 1.468.718 1.468 1.954 0 2.507-.398 2.085-1.5-.317-.825-.64-1.486-.719-1.468-.079.017-1.017.692-2.084 1.5M40.655 134.829c-.91 1.006-1.655 2.736-1.655 3.845 0 2.375 2.952 5.326 5.329 5.326 2.078 0 5.671-3.485 5.671-5.5 0-2.09-3.624-5.5-5.845-5.5-1.015 0-2.59.823-3.5 1.829m164.32 5.736c-.536 1.411-.975 3.222-.975 4.025 0 .803-1.125 1.887-2.5 2.41-3.217 1.223-3.615 6-.5 6 1.865 0 2 .667 2 9.889 0 12.51 1.259 14.611 8.758 14.611 2.714 0 5.671-.611 6.57-1.357 1.467-1.218 1.481-1.577.129-3.5-.829-1.179-2.508-2.143-3.732-2.143-2.108 0-2.24-.458-2.514-8.75l-.289-8.75h3.539c3.266 0 3.539-.232 3.539-3 0-2.762-.278-3-3.5-3-3.481 0-3.5-.024-3.5-4.5 0-4.342-.107-4.5-3.025-4.5-2.326 0-3.25.592-4 2.565m-186.209 7.299c-2.962 1.511-3.756 1.606-4.18.5-.305-.796-1.994-1.364-4.055-1.364H7v40h9v-10.95l2.74 1.041c8.251 3.137 16.26-4.59 16.26-15.688 0-5.675-1.997-10.469-5.514-13.235-3.377-2.657-5.961-2.73-10.72-.304m44.838-.826c-12.483 3.736-13.49 22.963-1.533 29.271 4.106 2.166 11.381 1.719 15.949-.98 3.404-2.011 3.637-2.946 1.359-5.463-1.48-1.635-1.926-1.664-5.122-.329-4.711 1.968-6.877 1.843-9.257-.537-4.068-4.068-2.775-5 6.933-5 7.979 0 8.998-.208 9.551-1.951.915-2.881-1.133-9.372-3.723-11.798-4.15-3.887-8.559-4.888-14.157-3.213M99 146.709c-.825.304-2.232 1.188-3.126 1.965-1.408 1.222-1.707 1.205-2.219-.131-.379-.988-1.863-1.543-4.124-1.543H86v30h9v-11.021c0-10.751.061-11.05 2.47-12.147 4.583-2.089 5.53.015 5.53 12.29V177h9v-10.429c0-10.551.973-13.571 4.371-13.571 2.932 0 3.629 2.537 3.629 13.2V177h9v-11.55c0-13.245-1.124-16.601-6.151-18.353-3.998-1.394-9.178-.496-11.417 1.978-1.656 1.83-1.775 1.814-4.642-.599-2.889-2.43-4.804-2.865-7.79-1.767m44.643.275c-11.387 3.587-13.523 20.806-3.507 28.271 6.508 4.851 18.215 2.068 22.04-5.239 3.741-7.148 1.382-17.586-4.794-21.215-3.65-2.144-10.024-2.987-13.739-1.817m36.428.71c-2.524 1.273-3.537 1.409-3.834.518-.224-.674-2.142-1.212-4.32-1.212H168v30h9v-10.477c0-10.016.108-10.548 2.451-12.083 3.006-1.969 6.128-1.139 6.927 1.843.327 1.219.601 6.379.608 11.467L187 177h9l-.006-9.75c-.003-5.363-.475-11.442-1.049-13.509-1.76-6.338-8.701-9.159-14.874-6.047m49.238.206c-7.778 3.618-10.461 13.417-6.059 22.13 1.786 3.537 3.202 4.844 6.873 6.345 5.651 2.31 12.641 1.593 16.454-1.689l2.54-2.186-2.101-2.254c-1.971-2.114-2.281-2.16-5.009-.75-4.341 2.245-7.568 1.878-9.934-1.131-1.14-1.449-2.073-3.007-2.073-3.462 0-.456 4.162-.957 9.25-1.115l9.25-.288.307-3.69c.842-10.131-9.605-16.513-19.498-11.91M40 162v15h9v-30h-9v15m-22.25-7.92c-1.418.826-1.75 2.428-1.75 8.451 0 7.091.114 7.46 2.498 8.058 4.96 1.245 7.502-1.952 7.502-9.432 0-6.467-3.76-9.692-8.25-7.077m46.316.796c-1.619 3.027-1.477 3.124 4.556 3.124 5.604 0 5.617-.007 4.136-2.25-2.019-3.059-7.241-3.584-8.692-.874M145 155c-2.49 2.49-2.747 10.488-.443 13.777 3.025 4.32 8.631 2.195 9.941-3.767 1.923-8.754-4.249-15.259-9.498-10.01m86.57.194l-1.622 2.306 5.137.306c5.794.345 6.811-.156 5.279-2.604-1.713-2.736-6.872-2.74-8.794-.008" fill="#1976D2" fill-rule="evenodd"/><path fill-opacity=".436" d="M31 1.369C15.358 4.787 3.985 16.597 1.086 32.434.356 36.42 0 68.025 0 128.736c0 101.767-.158 99.307 7.085 110.153 4.173 6.249 11.267 11.813 18.915 14.834 4.179 1.65 11.201 1.799 98.5 2.079 67.622.218 95.674-.019 99.967-.843 15.294-2.935 25.922-13.048 30.434-28.959 1.351-4.766 1.598-17.776 1.851-97.5.174-55.178-.081-92.8-.638-94-.511-1.1-1.496-4.2-2.19-6.889-1.927-7.465-8.073-15.878-14.964-20.479C228.005-.184 230.732-.011 127.803.084 60.714.145 35.041.486 31 1.369M.48 128.5c0 51.15.121 71.928.27 46.174.148-25.754.148-67.604 0-93C.601 56.278.48 77.35.48 128.5M59 89.479V112l10.75-.079c8.423-.062 10.155-.296 8-1.083-3.067-1.12-3.526-2.949-1.22-4.863 1.18-.979 2.104-1.007 4.047-.122 3.565 1.624 7.38 1.421 8.091-.431.797-2.075-1.14-3.725-6.815-5.805-7.4-2.713-8.757-9.769-2.694-14.016 2.832-1.983 12.703-2.153 15.287-.264 3.385 2.475 1.353 4.163-5.01 4.163-4.662 0-5.951.342-6.213 1.647-.236 1.177 1.04 2.148 4.474 3.405 2.641.967 5.874 2.77 7.183 4.006 3.374 3.186 2.318 8.741-2.184 11.486l-3.196 1.949 7.424.003 7.425.004-2.175-2.314C96.56 103.709 103.359 96 114.243 96c2.236 0 2.757-.449 2.757-2.378 0-3.166-2.385-5.006-5.494-4.24-1.378.34-3.679.905-5.112 1.255-2.414.59-4.332-.664-4.379-2.861-.035-1.666 6.817-4.065 11.818-4.137 4.855-.07 5.671.241 8.276 3.157 2.816 3.152 2.891 3.52 2.891 14.22V112h7V68.447l4 .382 4 .381V112l6.25-.022c6.128-.022 6.206-.056 4.001-1.754-3.088-2.377-4.251-7.156-4.251-17.467V84h8.932l.284 10.75.284 10.75 2.701.312c1.485.171 3.622-.182 4.75-.786 1.855-.993 2.049-2.04 2.049-11.061V84h8v28h13.222l-2.309-1.87c-2.058-1.665-2.355-2.919-2.73-11.5-.377-8.61-.621-9.63-2.302-9.63-2.927 0-2.419-3.827.609-4.587 1.84-.462 2.763-1.64 3.539-4.519.918-3.413 1.414-3.894 4.01-3.894 2.788 0 2.961.234 2.961 4 0 3.905.083 4 3.5 4 3.067 0 3.5.31 3.5 2.5s-.433 2.5-3.5 2.5H190v8.5c0 8.203.08 8.5 2.3 8.5 4.095 0 6.525 4.376 2.95 5.311-.963.251 2.068.509 6.734.573l8.485.116-3.485-1.835c-4.932-2.597-7.192-7.351-6.693-14.08.348-4.706.877-5.851 4.04-8.75 3.28-3.005 4.233-3.335 9.639-3.335 5.148 0 6.44.394 9.113 2.782 2.4 2.145 3.235 3.864 3.645 7.5L227.26 99h-9.63c-7.893 0-9.63.271-9.63 1.5 0 4.401 8.098 7.123 13.149 4.42 1.579-.845 2.429-.707 3.911.634 2.276 2.06 1.723 3.198-2.43 5.006-2.829 1.231-1.712 1.365 11.62 1.401L249 112V99.182c0-18.547-2.474-25.108-11.282-29.923-2.991-1.635-9.412-1.778-90.968-2.03L59 66.958v22.521m150.557 1.744c-.856 1.222-1.557 2.572-1.557 3 0 .427 2.7.777 6 .777 4.533 0 6-.349 6-1.429 0-4.473-7.736-6.213-10.443-2.348m-98.863 9.958c-3.836 1.399-3.423 5.178.616 5.641 3.485.4 5.69-1.323 5.69-4.444 0-2.624-1.574-2.922-6.306-1.197M115 110.5l-2.5 1.429 3.719.036c2.902.027 3.592-.294 3.143-1.465-.701-1.825-1.169-1.825-4.362 0m47 0c-2.492 1.425-2.488 1.429 1.372 1.465 3.331.03 3.699-.175 2.628-1.465-.685-.825-1.302-1.484-1.372-1.465-.071.02-1.253.679-2.628 1.465M40.571 134.571c-3.364 3.365-.891 9.429 3.845 9.429 2.736 0 5.584-2.894 5.584-5.674 0-4.434-6.257-6.926-9.429-3.755m164.089 5.179c-.261.963-.742 2.956-1.069 4.431-.396 1.785-1.345 2.787-2.843 3-2.939.417-3.528 4.159-.939 5.973 1.601 1.121 1.998 2.919 2.372 10.738.417 8.734.641 9.558 3.19 11.75 3.029 2.606 7.926 3.091 12.082 1.197 2.984-1.359 3.051-1.674.99-4.616-.886-1.266-2.608-2.223-4-2.223-2.386 0-2.443-.186-2.443-7.94v-7.939l3.75-.311c3.431-.284 3.75-.565 3.75-3.31s-.319-3.026-3.75-3.31c-3.724-.309-3.75-.342-3.75-4.75 0-4.391-.038-4.44-3.433-4.44-2.421 0-3.572.515-3.907 1.75M6.667 146.667c-.367.366-.667 9.591-.667 20.5V187h10v-5.535c0-5.163.13-5.466 1.934-4.5 4.991 2.671 12.647-.321 15.642-6.113 2.19-4.234 2.219-14.413.055-18.599-.891-1.722-2.622-3.834-3.848-4.692-3.071-2.151-8.99-1.972-11.956.361-2.41 1.896-2.46 1.896-3.644 0-1.168-1.87-6.081-2.691-7.516-1.255M40 161.943V178h9.051l-.276-15.75-.275-15.75-4.25-.307-4.25-.308v16.058m21.009-14.088C56.824 150.1 53 156.854 53 162c0 5.146 3.824 11.9 8.009 14.145 5.77 3.094 16.224 1.902 19.654-2.24.906-1.094.75-1.915-.703-3.708-1.794-2.214-2.033-2.247-6.137-.86-4.416 1.492-8.462.828-10.037-1.65-1.946-3.059-.744-3.613 8.464-3.899l9.25-.288.279-3.5c.826-10.351-11.106-17.328-20.77-12.145m25.658-1.188c-.367.366-.667 7.566-.667 16V178H94.937l.281-11.75.282-11.75h7l.282 11.803.282 11.804 4.718-.304 4.718-.303.5-11.5.5-11.5h6l.282 11.803.282 11.804 4.718-.304 4.718-.303.31-8.5c.595-16.302-1.64-21.631-9.516-22.687-3.201-.43-5.054-.062-7.77 1.54-3.554 2.097-3.573 2.098-5.545.126-2.277-2.277-6.394-2.509-9.915-.559-2.054 1.138-2.654 1.132-3.822-.035-1.441-1.441-5.418-1.876-6.575-.718m54.634 1.413c-7.695 3.809-10.366 13.47-6.051 21.884 5.355 10.443 20.597 10.896 26.755.795 2.862-4.693 2.728-13.365-.275-17.861-4.466-6.685-12.723-8.632-20.429-4.818m27.139-.784c-.274.713-.372 7.8-.219 15.75l.279 14.454h9l.5-11.5.5-11.5h7l.5 11.5.5 11.5h9v-25.669l-3.266-2.915c-3.646-3.256-7.696-3.763-12.052-1.51-2.336 1.208-2.99 1.208-4.642 0-2.41-1.763-6.442-1.825-7.1-.11m60.58.456c-7.44 3.738-10.375 14.123-6.268 22.177 3.853 7.557 13.228 10.196 21.682 6.103 5.014-2.427 5.569-3.814 2.602-6.5-1.848-1.672-2.21-1.68-6.072-.134-3.432 1.373-4.53 1.434-6.686.372-1.418-.698-2.947-2.282-3.396-3.52-.811-2.232-.741-2.25 8.583-2.25 10.618 0 11.18-.429 9.593-7.323-2.078-9.026-11.492-13.219-20.038-8.925m-164.365 7.077C62.147 157.6 62.568 158 68 158c3.436 0 5-.407 5-1.3 0-3.69-5.569-4.939-8.345-1.871m168.095-.749c-3.566 2.077-2.038 3.92 3.25 3.92 5.237 0 6.047-.81 3.429-3.429-1.795-1.795-4.144-1.967-6.679-.491M17.2 155.2c-.68.68-1.2 3.938-1.2 7.521 0 5.77.218 6.421 2.496 7.459 4.954 2.257 8.549-4.587 6.468-12.315-.89-3.302-1.443-3.865-3.803-3.865-1.518 0-3.301.54-3.961 1.2m126.961 1.347c-3.719 8.16 1.36 16.963 7.474 12.957 2.035-1.334 2.365-2.356 2.365-7.327 0-6.577-1.084-8.177-5.539-8.177-2.394 0-3.416.605-4.3 2.547" fill="#1976D2" fill-rule="evenodd"/></svg>