<svg xmlns="http://www.w3.org/2000/svg" width="52.589" height="63.308" viewBox="0 0 52.589 63.308"><defs><style>.a{fill:#73d7ff;}.a,.b{fill-rule:evenodd;}.b{fill:#003575;}</style></defs><g transform="translate(-696.113 -1789.558)"><path class="a" d="M730.587,504.4v-8.719h0a.732.732,0,0,1,.008-.134v-.025h0l.008-.025h0v-.025a1.075,1.075,0,0,1,1.045-.854h9.232a5.154,5.154,0,0,0,5.143-5.151h0a5.159,5.159,0,0,0-5.143-5.151H715.352a1.064,1.064,0,0,1-1.062-1.064h0a1.07,1.07,0,0,1,1.062-1.063h31.542a5.154,5.154,0,0,0,5.143-5.151h0a5.157,5.157,0,0,0-5.143-5.142H709.331a1.07,1.07,0,0,1-1.062-1.063h0a1.071,1.071,0,0,1,1.062-1.072h31.55a5.152,5.152,0,0,0,5.143-5.142h0a5.154,5.154,0,0,0-5.143-5.151H715.352a1.07,1.07,0,0,1-1.062-1.063h0a1.064,1.064,0,0,1,1.062-1.064H730.5a5.171,5.171,0,0,0,4.3-5.084v-8.844a1.065,1.065,0,0,1,1.062-1.064h0a1.065,1.065,0,0,1,1.062,1.064v8.844a7.286,7.286,0,0,1-2.074,5.084h6.029a7.293,7.293,0,0,1,7.267,7.278h0a7.247,7.247,0,0,1-2.141,5.142h.886a7.3,7.3,0,0,1,7.267,7.278h0a7.293,7.293,0,0,1-7.267,7.278h-.886a7.281,7.281,0,0,1,2.141,5.151h0a7.293,7.293,0,0,1-7.267,7.278h-8.17v7.848a1.064,1.064,0,0,1-1.062,1.063h0a1.064,1.064,0,0,1-1.062-1.063Z" transform="translate(-5.458 1347.208)"/><path class="b" d="M636.934,451.261H650v-7.848a1.064,1.064,0,0,1,1.062-1.064h0a1.064,1.064,0,0,1,1.062,1.064v8.911h0a1.064,1.064,0,0,1-1.062,1.064H636.934a5.159,5.159,0,0,0-5.143,5.151h0a5.165,5.165,0,0,0,5.143,5.151h25.12a1.064,1.064,0,0,1,1.062,1.063h0a1.07,1.07,0,0,1-1.062,1.064H630.378a5.159,5.159,0,0,0-5.143,5.151h0a5.157,5.157,0,0,0,5.143,5.142H668.5a1.072,1.072,0,0,1,1.062,1.072h0a1.07,1.07,0,0,1-1.062,1.064H636.934a5.157,5.157,0,0,0-5.143,5.142h0a5.159,5.159,0,0,0,5.143,5.151h15.094c.1-.008.2-.025.3-.033v.033h9.725a1.07,1.07,0,0,1,1.062,1.064h0a1.064,1.064,0,0,1-1.062,1.064h-9.859a5.177,5.177,0,0,0-4.281,5.084v8.844a1.064,1.064,0,0,1-1.062,1.063h0a1.064,1.064,0,0,1-1.062-1.063v-8.844a7.27,7.27,0,0,1,2.074-5.084H636.934a7.293,7.293,0,0,1-7.267-7.278h0a7.248,7.248,0,0,1,2.141-5.142h-1.43a7.293,7.293,0,0,1-7.267-7.278h0a7.293,7.293,0,0,1,7.267-7.278h1.43a7.282,7.282,0,0,1-2.141-5.151h0a7.293,7.293,0,0,1,7.267-7.278Z" transform="translate(73.002 1347.208)"/></g></svg>