<svg xmlns="http://www.w3.org/2000/svg" width="59.9" height="59.9" viewBox="0 0 59.9 59.9"><defs><style>.a,.b{fill:#003575;}.a{stroke:#003575;}.c{fill:#73d7ff;}</style></defs><g transform="translate(-1068.488 -1558.183)"><path class="a" d="M324.514,82.111c1.856-4.057,3.608-7.89,4.03-13.81a.854.854,0,0,0-1.7-.122c-.4,5.613-2.011,9.139-3.878,13.223a58.892,58.892,0,0,0-3.661,9.554c-2.787,10.194-1.251,21.911,4.567,34.825a.854.854,0,1,0,1.557-.7c-5.65-12.54-7.156-23.871-4.477-33.673A57.7,57.7,0,0,1,324.514,82.111Z" transform="translate(751.047 1491.299)"/><path class="a" d="M362.558,90.956A59.144,59.144,0,0,0,358.9,81.4c-1.867-4.084-3.479-7.61-3.878-13.223a.854.854,0,0,0-1.7.122c.422,5.921,2.174,9.753,4.029,13.81a57.661,57.661,0,0,1,3.567,9.3c2.679,9.8,1.173,21.13-4.477,33.672a.853.853,0,0,0,.427,1.129.836.836,0,0,0,.35.075.854.854,0,0,0,.778-.5C363.808,112.866,365.345,101.149,362.558,90.956Z" transform="translate(763.97 1491.299)"/><path class="b" d="M347.659,95.359l-6.128,4.991L335.4,95.359a.853.853,0,1,0-1.077,1.323l6.348,5.171v13.42a.853.853,0,1,0,1.707,0V101.858l6.356-5.176a.853.853,0,1,0-1.077-1.323Z" transform="translate(756.915 1501.451)"/><path class="c" d="M361.911,76.2c-1.542-2.459-5.957-2.481-10.26-.057l-1.64.889a2.817,2.817,0,0,1-2.7-.216,5.652,5.652,0,0,0-2.966-.959h0a5.663,5.663,0,0,0-2.967.959,2.809,2.809,0,0,1-2.7.214l-1.626-.881c-4.315-2.431-8.732-2.409-10.274.051-1.32,2.108.257,5.471,3.729,8.124a4.7,4.7,0,0,0,2.338,3.786,5.268,5.268,0,0,0,2.766.832c.12,0,.24,0,.361-.015a3.117,3.117,0,0,0,2.768-4.419,5.162,5.162,0,0,0-2.1-2.456,4.762,4.762,0,0,0-4.259-.523c-1.476-1.207-1.946-2.433-1.673-2.869.367-.586,2.118-.452,4.3.785l3.9,2.223a5.229,5.229,0,0,0,.561,1.918c.156.288.307.582.452.878a9.786,9.786,0,0,1,.774,5.57,10.569,10.569,0,0,0-.086,1.35,9.8,9.8,0,0,0,.442,2.967,8.463,8.463,0,0,1,.463,2.925c-.086,2.2-.208,4.409-.315,6.134a2.373,2.373,0,0,0,2.383,2.538h1.535a2.373,2.373,0,0,0,2.384-2.538c-.108-1.725-.229-3.935-.315-6.132a8.471,8.471,0,0,1,.463-2.926,9.814,9.814,0,0,0,.442-2.967,10.553,10.553,0,0,0-.086-1.349,9.784,9.784,0,0,1,.774-5.572c.145-.295.3-.589.452-.877a5.2,5.2,0,0,0,.56-1.918l3.9-2.222c2.187-1.238,3.939-1.375,4.307-.786.273.436-.2,1.66-1.671,2.866a3.682,3.682,0,0,0-1.133-.291,5.132,5.132,0,0,0-3.127.817c-2.1,1.315-2.956,3.743-1.91,5.413a3.285,3.285,0,0,0,2.578,1.462c.119.011.239.015.361.015a5.275,5.275,0,0,0,2.766-.832,4.7,4.7,0,0,0,2.338-3.786C361.656,81.667,363.232,78.3,361.911,76.2Zm-26.189,7.3a3.5,3.5,0,0,1,1.415,1.625,1.636,1.636,0,0,1-.045,1.435h0a1.636,1.636,0,0,1-1.271.668,3.522,3.522,0,0,1-2.081-.564c-1.278-.8-1.906-2.2-1.368-3.06a1.674,1.674,0,0,1,1.481-.676A3.585,3.585,0,0,1,335.722,83.5Zm19.217,3.164a3.518,3.518,0,0,1-2.08.564,1.632,1.632,0,0,1-1.271-.668c-.538-.858.089-2.258,1.37-3.06a3.6,3.6,0,0,1,1.865-.572c.072,0,.143,0,.214.008a1.636,1.636,0,0,1,1.271.666C356.845,84.457,356.219,85.858,354.939,86.659Zm3.528-4.835c1.251-1.432,1.655-2.968.963-4.075-.991-1.581-3.58-1.5-6.6.209l-4.3,2.45a.813.813,0,0,0-.081.071.826.826,0,0,0-.132.116.78.78,0,0,0-.09.132.953.953,0,0,0-.072.145.911.911,0,0,0-.034.172.89.89,0,0,0-.021.105,3.582,3.582,0,0,1-.389,1.624q-.25.463-.481.937a11.472,11.472,0,0,0-.935,6.542,8.88,8.88,0,0,1,.072,1.129,8.083,8.083,0,0,1-.36,2.444,10.114,10.114,0,0,0-.543,3.515c.086,2.213.209,4.439.318,6.175a.668.668,0,0,1-.681.724h-1.535a.668.668,0,0,1-.68-.724c.109-1.736.232-3.963.318-6.176a10.1,10.1,0,0,0-.543-3.513,8.071,8.071,0,0,1-.36-2.444,8.676,8.676,0,0,1,.072-1.129,11.487,11.487,0,0,0-.934-6.542c-.156-.315-.315-.628-.482-.937a3.57,3.57,0,0,1-.389-1.624.728.728,0,0,0-.022-.105.824.824,0,0,0-.034-.172.839.839,0,0,0-.071-.145.874.874,0,0,0-.09-.132.826.826,0,0,0-.132-.116,1,1,0,0,0-.081-.071l-4.3-2.451c-3.015-1.707-5.6-1.789-6.6-.208-.692,1.1-.29,2.639.96,4.072-1.912-1.9-2.578-3.792-1.995-4.72.883-1.411,4.188-1.609,8,.539l1.639.888a4.441,4.441,0,0,0,4.361-.234,3.436,3.436,0,0,1,4.247,0,4.434,4.434,0,0,0,4.361.234l1.652-.9c3.8-2.138,7.1-1.942,7.989-.531C361.047,78.031,360.381,79.929,358.468,81.824Z" transform="translate(754.099 1493.839)"/></g></svg>