<svg xmlns="http://www.w3.org/2000/svg" width="51.635" height="63.558" viewBox="0 0 51.635 63.558"><defs><style>.a,.b{fill:#003575;}.a{stroke:#003575;stroke-width:0.5px;}.c{fill:none;stroke:#73d7ff;stroke-linecap:round;stroke-width:3px;}</style></defs><g transform="translate(-1182.365 -1554.558)"><path class="a" d="M1490.612,1973.889c-3.421-8.554-9.419-14.041-14.238-18.449l-.964-.883c-3.315-3.05-5.14-7.616-5.14-12.857a1.009,1.009,0,1,0-2.017,0c0,5.812,2.057,10.905,5.792,14.342q.475.437.968.887a61.271,61.271,0,0,1,10.477,11.52l1.065,1.712a34.307,34.307,0,0,1,2.112,4.294,9.81,9.81,0,0,1-1.1,4.331l-1.145,1.738a9.874,9.874,0,0,1-17.513-6.261,1.009,1.009,0,1,0-2.018,0,11.907,11.907,0,0,0,6.511,10.6c-.731,3.149-2.157,9.413-2.693,13.874a1.009,1.009,0,0,0,.881,1.122.985.985,0,0,0,.122.007,1.008,1.008,0,0,0,1-.888c.507-4.215,1.842-10.142,2.583-13.345a11.886,11.886,0,0,0,13.578-5.074,1.029,1.029,0,0,0,.117-.187,11.824,11.824,0,0,0,1.694-6.111A1,1,0,0,0,1490.612,1973.889Z" transform="translate(-265.46 -382.004)"/><path class="a" d="M1404.765,1941.864a1.009,1.009,0,0,0-1.99-.332c-2.265,13.592-.99,22.364.136,30.1a74.967,74.967,0,0,1,1.052,10.792c0,3.859-2.75,8.028-5.176,11.706-1,1.509-1.936,2.934-2.634,4.255a1.009,1.009,0,1,0,1.784.942c.652-1.234,1.566-2.62,2.534-4.087,2.583-3.914,5.509-8.351,5.509-12.816a76.431,76.431,0,0,0-1.072-11.083C1403.8,1963.752,1402.551,1955.145,1404.765,1941.864Z" transform="translate(-213.418 -382.003)"/><g transform="translate(51 -7)"><path class="b" d="M1526.383,1917.027a10.536,10.536,0,0,0,7.809,0,.862.862,0,1,0-.627-1.605,8.855,8.855,0,0,1-6.555,0,.862.862,0,0,0-.627,1.605Z" transform="translate(-357.566 -353.804)"/><path class="b" d="M1518.431,1932.4a13.913,13.913,0,0,0,11.477,0,.862.862,0,1,0-.7-1.573,12.195,12.195,0,0,1-10.07,0,.862.862,0,0,0-.7,1.573Z" transform="translate(-351.448 -365.703)"/><path class="b" d="M1510.493,1947.674a17.228,17.228,0,0,0,15.113,0,.862.862,0,0,0-.749-1.553,15.5,15.5,0,0,1-13.615,0,.862.862,0,0,0-.749,1.553Z" transform="translate(-345.328 -377.519)"/></g><line class="c" x2="18" transform="translate(1214.5 1609.5)"/><line class="c" y1="40" transform="translate(1232.5 1569.5)"/><line class="c" x2="18" transform="translate(1214.5 1569.5)"/></g></svg>